<?xml version="1.0" standalone="no"?>
<!DOCTYPE svg PUBLIC "-//W3C//DTD SVG 1.1//EN" "http://www.w3.org/Graphics/SVG/1.1/DTD/svg11.dtd" >
<svg xmlns="http://www.w3.org/2000/svg" xmlns:xlink="http://www.w3.org/1999/xlink" version="1.1" viewBox="0 -200 1000 1000">
  <g transform="matrix(1 0 0 -1 0 800)">
   <path fill="currentColor"
d="M888.184 8.00781c0 -63.8021 -32.0638 -95.7031 -96.1914 -95.7031h-583.984c-64.1276 0 -96.1914 31.901 -96.1914 95.7031v583.984c0 64.1276 32.0638 96.1914 96.1914 96.1914h583.984c64.1276 0 96.1914 -32.0638 96.1914 -96.1914v-583.984zM702.148 88.0859
l-171.387 429.199h-56.6406l-173.34 -429.199h68.3594l50.7812 129.883h162.109l51.7578 -129.883h68.3594zM562.988 272.168h-121.094l44.9219 122.07c8.78906 23.763 13.1836 43.7826 13.1836 60.0586h3.90625l14.1602 -60.0586z" />
  </g>

</svg>
