<?xml version="1.0" standalone="no"?>
<!DOCTYPE svg PUBLIC "-//W3C//DTD SVG 1.1//EN" "http://www.w3.org/Graphics/SVG/1.1/DTD/svg11.dtd" >
<svg xmlns="http://www.w3.org/2000/svg" xmlns:xlink="http://www.w3.org/1999/xlink" version="1.1" viewBox="0 -200 1000 1000">
  <g transform="matrix(1 0 0 -1 0 800)">
   <path fill="currentColor"
d="M786.133 377.148c0 -99.6094 -35.319 -184.733 -105.957 -255.371s-155.762 -105.957 -255.371 -105.957c-77.474 0 -147.624 22.6237 -210.449 67.8711c-61.849 44.2708 -105.306 101.888 -130.371 172.852h437.012v-120.117l241.211 240.723l-241.211 240.723v-120.117
h-437.012c25.0651 70.9635 68.7663 128.825 131.104 173.584c62.3372 44.7591 132.243 67.1387 209.717 67.1387c99.6094 0 184.733 -35.319 255.371 -105.957s105.957 -155.762 105.957 -255.371z" />
  </g>

</svg>
