<?xml version="1.0" standalone="no"?>
<!DOCTYPE svg PUBLIC "-//W3C//DTD SVG 1.1//EN" "http://www.w3.org/Graphics/SVG/1.1/DTD/svg11.dtd" >
<svg xmlns="http://www.w3.org/2000/svg" xmlns:xlink="http://www.w3.org/1999/xlink" version="1.1" viewBox="-1 -201 1000 1000">
  <g transform="matrix(1 0 0 -1 0 800)">
   <path fill="currentColor"
d="M476.485 756.857c-89.0869 -3.97266 -149.168 -28.9229 -218.022 -67.7822c-20.1738 -11.3857 -35.4463 -25.5898 -49.7061 -35.5693c-5.39258 -3.77344 -10.8799 -9.15625 -16.0342 -13.4912c-26.8057 -22.5459 -57.7422 -62.8115 -78.083 -92.4326
c-14.71 -21.4209 -27.6221 -49.2012 -39.0254 -75.8428c-25.21 -58.9033 -34.4453 -124.101 -32.4834 -196.349c1.73633 -63.915 21.9746 -129.458 47.6133 -179.625c14.46 -28.293 27.2266 -47.4072 43.9727 -70.8887l25.7031 -31.6221
c6.88184 -8.875 19.958 -21.0898 28.5381 -28.8369c1.66504 -1.50391 2.01367 -1.71289 3.72461 -3.14258l11.1387 -9.88477c16.6357 -12.2705 28.8809 -23.248 49.0547 -36.2852c134.683 -87.041 306.42 -95.3389 450.807 -23.7832
c45.668 22.6328 98.2256 60.6211 131.177 98.3994c21.9199 25.1309 31.1172 34.0771 49.3379 63.7783c48.1455 78.4854 79.8545 170.499 72.2285 270.578c-5.21387 68.4248 -20.3379 127.538 -47.4971 179.926c-6.8623 13.2363 -12.1621 23.915 -20.6797 36.835
c-32.2988 48.9912 -60.7705 84.667 -107.323 120.449c-33.3174 25.6074 -74.7559 49.9004 -116.254 65.502c-0.348633 0.131836 -0.775391 0.301758 -1.12695 0.438477l-34.7168 11.7832c-14.7344 4.42773 -30.2129 8.07422 -46.3213 11.1055
c-34.0498 6.40918 -69.0625 8.3877 -106.021 6.74023zM501.842 -200h-11.6045c-61.792 0.824219 -125.902 13.5947 -189.518 41.9355c-127.685 56.8828 -221.458 156.354 -269.096 283.024c-8.38965 22.3076 -15.6699 46.165 -20.7529 71.1201
c-2.50488 12.2939 -9.87402 78.5186 -10.8711 80.9541v46.2295c9.20703 20.6914 -4.43848 178.128 146.283 330.451c37.2227 37.6182 82.6807 70.8311 139.344 98.2051c27.1348 13.1094 56.0605 23.8408 87.7725 31.9746c16.2588 4.1709 31.7988 7.46484 48.8408 10.2178
c9.11133 1.47266 51.3281 4.51074 54.4307 5.8877h46.3662c1.64258 -0.688477 70.7607 -8.82129 82.2812 -11.1738c154.326 -31.5156 289.685 -142.382 353.237 -290.79c93.4834 -218.301 15.4883 -428.432 -105.629 -550.963
c-80.791 -81.7354 -209.311 -145.549 -351.085 -147.073zM229.729 501.625c6.1543 21.3252 16.3613 21.6025 27.8281 33.2012c-18.9678 10.2061 -46.9541 11.8232 -69.7969 3.45703c-58.1992 -21.3164 -81.5098 -132.428 -59.8906 -177.784l196.097 -0.506836
c7.55078 30.7627 7.76562 66.9219 -3.08398 96.9229c-9.77148 -9.13379 -17.4678 -19.6865 -38.9639 -20.7061c-38.2979 -1.81445 -61.3867 33.5469 -52.1895 65.416zM350.442 457.345c7.20898 -27.5 9.75 -59.1475 4.2627 -87.8145
c-1.25488 -6.55371 -2.7832 -12.9209 -4.50977 -19.5537c-0.923828 -3.54785 -1.53027 -5.77051 -2.56348 -8.91699l-2.57031 -10.5537c-20.0752 4.67188 -194.913 -0.881836 -236.865 1.33398c-10.5283 14.4502 -15.958 59.7607 -15.7764 81.2754
c0.251953 29.9102 7.16016 56.0195 17.7676 80.1035c23 52.2168 55.1865 80.4629 114.435 78.4297c65.3457 -2.24219 111.306 -58.9316 125.82 -114.304zM657.377 571.797c110.698 -0.558594 182.185 -126.183 135.577 -240.228l-272.771 0.100586
c-48.0352 113.515 27.1719 240.682 137.193 240.127zM539.871 360.01l233.884 0.00683594c4.47852 25.3086 11.1201 79.1963 -4.90234 98.2881c-52.2393 -62.5312 -138.487 20.4736 -66.9199 74.4824c-14.8125 14.5439 -55.8145 12.416 -76.7842 6.35547
c-24.5088 -7.08398 -43.1553 -23.501 -55.5322 -36.6426c-34.5859 -36.7217 -40.2637 -83.7002 -29.7454 -142.49zM450.819 249.438c54.6436 -0.0195312 109.293 -0.0615234 163.935 0.0107422c25.8984 0.0332031 152.103 1.69824 166.551 -0.993164
c4.55762 -19.6865 13.874 -38.0195 17.0898 -64.8066c6.61719 -55.1338 -2.19824 -91.7275 -27.541 -138.244l-7.92578 -13.3447c-2.74219 -4.6084 -5.0918 -7.65332 -8.72852 -12.418c-20.8613 -27.334 -59.6035 -61.4531 -90.082 -78.8398l-13.4482 -7.76758
c-4.41406 -2.1875 -9.15039 -4.62207 -13.9951 -7.21191c-32.6973 -17.4805 -92.3418 -32.8281 -135.034 -34.5537c-60.5605 -2.44629 -94.8486 6.22461 -143.194 26.3545c-54.5518 22.7139 -102.165 72.2354 -133.685 118.657
c-19.168 28.2324 -44.6455 81.3408 -55.1016 113.771c-8.39941 26.0518 -12.8809 43.4092 -10.6924 71.2314l-35.6504 0.369141l-0.352539 27.7822c25.2051 2.375 294.485 0.0146484 327.855 0.00292969zM419.359 -1.29395
c-9.24414 -12.8057 -28.7959 -51.4922 -26.0625 -65.1543c25.2666 -11.2588 63.7188 -15.998 95.2559 -15.4707c17.3467 0.289062 33.3613 2.48535 49.9199 5.80469c12.8545 2.57715 34.333 10.5625 43.8525 11.2637c2.01953 2.01758 0.164062 1.24414 4.13281 2.79492
c2.23145 0.87207 1.75781 0.448242 4.33789 0.640625c3.39941 3.3291 9.10742 5.24023 13.9746 7.5625c28.4521 13.5723 48.0527 24.8369 73.252 44.707c5.55566 4.38086 6.2627 3.31445 10.3936 9.14551c-0.475586 1.29688 0.601562 -0.508789 -1.52148 2.68848
c-0.239258 0.359375 -1.16211 1.5918 -1.36621 1.87207c-36.6406 50.6426 -109.595 75.0322 -173.295 58.3584c-37.4531 -9.80371 -70.9111 -33.7891 -92.874 -64.2129z" />
  </g>

</svg>
