<?xml version="1.0" standalone="no"?>
<!DOCTYPE svg PUBLIC "-//W3C//DTD SVG 1.1//EN" "http://www.w3.org/Graphics/SVG/1.1/DTD/svg11.dtd" >
<svg xmlns="http://www.w3.org/2000/svg" xmlns:xlink="http://www.w3.org/1999/xlink" version="1.1" viewBox="0 -200 1001 1000">
  <g transform="matrix(1 0 0 -1 0 800)">
   <path fill="currentColor"
d="M995.394 -144.125c7.83984 -5.30664 4.40234 -15.8125 -0.919922 -17.6006c-3.64648 0.0527344 -72.8281 1.15527 -155.513 13.4229c-19.3457 2.84668 -34.4766 4.49609 -52.9551 4.49609c-15.9922 0 -34.4863 -1.23926 -60.3955 -3.98535
c-32.4375 -3.42188 -17.1045 -3.91797 -148.443 -9.75098c-4.99219 -0.25 -9.8457 1.04395 -10.8887 9.5c1.1709 9.75098 15.8545 14.4238 20.542 15.6904c52.4766 14.5498 78.3584 40.8682 89.8652 105.42c12.416 70.9961 9.10059 131.365 7.43945 193.521
l-284.705 1.76172l-124.697 -176.8c-36.9619 -57.8398 32.959 -118.22 110.076 -132.26c7.06836 -5.4707 5.87109 -23.1826 -4.44336 -23.1826c-1.12793 0 -2.35254 0.207031 -3.69922 0.660156c-1.53809 0.643555 -30.623 12.7881 -96.7393 18.9893
c-17.6963 1.69238 -49.5068 7.11035 -88.2988 7.11035c-13.3535 0 -27.5312 -0.644531 -42.2578 -2.2832l-139.482 -19.6387c-13.1875 0.87793 -13.1611 16.583 0.0273438 20.1338c67.3936 8.7334 148.156 58.7178 195.529 126.043l567.341 791.375
c9.36719 13.5869 29.3994 21.502 48.8838 21.502c24.4072 0 47.9092 -12.4062 48.3613 -41.624l18.6855 -792.265c6.06738 -66.4512 50.5928 -94.5469 106.688 -110.236zM603.725 214.632c28.877 0 56.0518 -0.148438 76.3076 -0.59082l-7.50977 329.785
c-1.43066 4.28418 -3.35254 6.49219 -5.55566 6.49219c-1.81445 0 -3.82129 -1.54785 -5.84375 -4.71484c-70.2305 -99.7256 -166.954 -221.991 -236.29 -320.944c-4.44434 -7.83887 -0.0166016 -10.5059 10.4893 -10.5059
c1.67676 -0.138672 7.37109 -0.191406 16.0352 -0.191406c14.9189 0 38.6279 0.148438 65.7705 0.302734c27.1377 0.191406 57.7188 0.367188 86.5966 0.367042z" />
  </g>

</svg>
