<?xml version="1.0" standalone="no"?>
<!DOCTYPE svg PUBLIC "-//W3C//DTD SVG 1.1//EN" "http://www.w3.org/Graphics/SVG/1.1/DTD/svg11.dtd" >
<svg xmlns="http://www.w3.org/2000/svg" xmlns:xlink="http://www.w3.org/1999/xlink" version="1.1" viewBox="0 -200 1000 1000">
  <g transform="matrix(1 0 0 -1 0 800)">
   <path fill="currentColor"
d="M227.051 883.984h12.207c35.1562 0 68.1966 -9.76562 99.1211 -29.2969c7.16146 -2.27865 13.9974 -3.41797 20.5078 -3.41797c4.55729 0 10.0911 0.976562 16.6016 2.92969v-0.488281c-14.3229 -21.4844 -33.3659 -32.2266 -57.1289 -32.2266l-54.1992 2.92969
c-55.013 0 -91.9596 -21.1589 -110.84 -63.4766c-5.85938 -13.9974 -8.78906 -28.3203 -8.78906 -42.9688c0 -24.4141 7.16146 -43.9453 21.4844 -58.5938c5.53385 -4.88281 10.2539 -7.32422 14.1602 -7.32422h3.90625c19.8568 0 50.1302 26.2044 90.8203 78.6133
c32.8776 39.0625 65.7552 58.5938 98.6328 58.5938c24.7396 0 53.0599 -11.8815 84.9609 -35.6445c22.4609 19.2057 43.2943 28.8086 62.5 28.8086c23.763 0 54.362 -17.9036 91.7969 -53.7109l13.1836 -16.1133c7.8125 -12.0443 18.2292 -24.5768 31.25 -37.5977
c10.0911 -8.46354 19.694 -12.6953 28.8086 -12.6953c18.8802 0 33.0404 13.9974 42.4805 41.9922c2.60417 10.7422 3.90625 20.1823 3.90625 28.3203c0 22.1354 -6.83594 43.457 -20.5078 63.9648c-8.78906 10.4167 -20.0195 17.4154 -33.6914 20.9961
c-3.90625 1.95312 -24.4141 3.41797 -61.5234 4.39453c-10.7422 0 -21.6471 3.58073 -32.7148 10.7422c-8.78906 9.11458 -13.1836 16.9271 -13.1836 23.4375v0.976562l1.46484 1.46484h0.488281c2.92969 0 11.2305 -2.92969 24.9023 -8.78906l5.85938 -0.976562h2.44141
c9.4401 0 26.5299 6.83594 51.2695 20.5078c19.2057 9.4401 37.4349 14.1602 54.6875 14.1602c29.9479 0 55.6641 -11.556 77.1484 -34.668c9.11458 -12.0443 15.4622 -22.9492 19.043 -32.7148c10.4167 -27.6693 15.625 -55.013 15.625 -82.0312v-7.8125
c0 -37.7604 -10.5794 -72.4284 -31.7383 -104.004c-25.7161 -35.1562 -60.0586 -52.7344 -103.027 -52.7344h-0.976562v-0.488281c15.9505 -33.8542 26.6927 -50.7812 32.2266 -50.7812h0.976562c1.30208 0 2.76693 2.76693 4.39453 8.30078l0.488281 0.488281h0.976562
c0.976562 0 1.79036 -1.79036 2.44141 -5.37109c0 -11.0677 -5.20833 -18.2292 -15.625 -21.4844c-2.92969 -0.976562 -6.67318 -1.46484 -11.2305 -1.46484h-5.37109c-1.6276 0 -2.76693 0.488281 -3.41797 1.46484
c-3.25521 -0.651042 -7.64974 -0.976562 -13.1836 -0.976562h-5.85938c-5.20833 0 -13.1836 2.11589 -23.9258 6.34766c-5.85938 0 -14.1602 2.27865 -24.9023 6.83594c-15.625 8.78906 -25.0651 17.7409 -28.3203 26.8555h-0.488281l-0.488281 -4.39453l1.95312 -31.7383
v-2.92969c0 -5.53385 -0.325521 -8.30078 -0.976562 -8.30078c0 -3.25521 4.72005 -6.34766 14.1602 -9.27734c12.6953 5.20833 21.1589 7.8125 25.3906 7.8125h0.976562c4.55729 0 7.48698 -3.25521 8.78906 -9.76562c5.85938 -14.6484 8.78906 -26.0417 8.78906 -34.1797
c0 -9.76562 -5.69661 -19.3685 -17.0898 -28.8086c-13.6719 -13.3464 -20.9961 -22.2982 -21.9727 -26.8555c2.60417 -3.25521 9.27734 -9.27734 20.0195 -18.0664l0.976562 -3.41797v-1.95312c0 -3.25521 -5.37109 -8.6263 -16.1133 -16.1133
c-8.13802 -7.16146 -14.3229 -10.7422 -18.5547 -10.7422v-0.488281c4.88281 -2.27865 7.64974 -8.95182 8.30078 -20.0195c0 -12.6953 -4.39453 -21.3216 -13.1836 -25.8789l-4.88281 -0.976562l-12.207 1.95312c-14.6484 -1.30208 -23.763 -7.32422 -27.3438 -18.0664
c-0.976562 -1.95312 -1.46484 -4.55729 -1.46484 -7.8125v-2.44141c5.20833 -7.16146 7.8125 -13.6719 7.8125 -19.5312v-3.41797c0 -13.6719 -11.7188 -26.5299 -35.1562 -38.5742c-14.3229 -8.46354 -21.4844 -20.1823 -21.4844 -35.1562v-5.85938
c0 -7.16146 1.95312 -14.1602 5.85938 -20.9961l1.95312 -0.488281l5.37109 1.46484v-0.488281c-0.976562 -2.27865 -2.44141 -3.41797 -4.39453 -3.41797h-3.41797v-0.488281c1.95312 -4.23177 5.37109 -6.34766 10.2539 -6.34766l12.6953 2.44141
c-3.25521 -3.58073 -7.32422 -5.37109 -12.207 -5.37109h-2.44141c-7.16146 0 -11.8815 3.90625 -14.1602 11.7188l-4.88281 6.34766c-4.55729 6.51042 -6.83594 13.3464 -6.83594 20.5078c0 14.6484 8.30078 27.9948 24.9023 40.0391
c16.9271 13.0208 25.3906 26.5299 25.3906 40.5273l-0.976562 8.30078v0.488281h0.488281c0.976562 -3.90625 1.46484 -8.30078 1.46484 -13.1836v-0.976562c0 -12.0443 -6.51042 -23.2747 -19.5312 -33.6914v-0.488281c21.1589 10.7422 31.7383 22.7865 31.7383 36.1328
c0 7.48698 -4.72005 16.1133 -14.1602 25.8789v4.88281c0 2.60417 -0.651042 4.06901 -1.95312 4.39453c-3.25521 0 -7.16146 -2.60417 -11.7188 -7.8125c-3.25521 -5.53385 -4.88281 -10.7422 -4.88281 -15.625v-1.95312c0 -2.92969 1.95312 -6.1849 5.85938 -9.76562
c1.30208 -2.60417 1.95312 -5.37109 1.95312 -8.30078v-2.92969c0 -6.83594 -9.4401 -17.7409 -28.3203 -32.7148c-9.76562 -9.4401 -14.6484 -20.0195 -14.6484 -31.7383s4.39453 -21.6471 13.1836 -29.7852h0.488281v-0.976562h-0.488281
c-20.8333 8.78906 -31.25 19.8568 -31.25 33.2031c0 17.2526 12.5326 30.7617 37.5977 40.5273l9.76562 11.7188c4.88281 5.20833 7.64974 10.0911 8.30078 14.6484c0 3.90625 -3.74349 9.27734 -11.2305 16.1133c-0.976562 2.60417 -1.46484 5.04557 -1.46484 7.32422
c0 2.60417 0.813802 6.83594 2.44141 12.6953c-3.58073 3.58073 -8.13802 5.37109 -13.6719 5.37109h-3.90625l-12.207 -1.46484h-1.95312l-1.46484 1.46484c0 5.85938 8.30078 10.4167 24.9023 13.6719c7.8125 0 18.3919 2.60417 31.7383 7.8125
c4.55729 0.976562 9.11458 1.46484 13.6719 1.46484h0.488281c17.5781 -1.95312 28.6458 -2.92969 33.2031 -2.92969c11.3932 0 17.0898 1.30208 17.0898 3.90625c3.25521 4.23177 4.88281 9.60286 4.88281 16.1133c0 9.11458 -3.74349 15.2995 -11.2305 18.5547
c-10.7422 3.58073 -20.1823 5.37109 -28.3203 5.37109h-2.44141c-10.7422 0 -26.5299 -3.74349 -47.3633 -11.2305l-9.76562 -0.976562h-1.95312c-11.7188 0 -25.7161 7.32422 -41.9922 21.9727c-16.6016 18.5547 -25.8789 31.0872 -27.832 37.5977
c-12.3698 24.4141 -22.7865 36.6211 -31.25 36.6211l-3.41797 0.488281v0.488281l2.44141 0.488281h2.92969c11.3932 0 20.3451 -7.32422 26.8555 -21.9727c1.6276 -2.60417 3.25521 -3.90625 4.88281 -3.90625c1.30208 0 4.23177 5.20833 8.78906 15.625
c5.20833 6.83594 9.76562 10.5794 13.6719 11.2305c-8.13802 -8.46354 -13.3464 -18.8802 -15.625 -31.25l-0.488281 -5.85938v-0.976562c0.651042 -7.48698 8.46354 -19.5312 23.4375 -36.1328c10.0911 -8.46354 19.694 -12.6953 28.8086 -12.6953h5.37109
c5.85938 0 12.3698 1.79036 19.5312 5.37109c1.30208 0.651042 3.09245 0.976562 5.37109 0.976562h0.976562c1.6276 0 2.76693 -0.651042 3.41797 -1.95312v-2.44141c-6.83594 0 -13.1836 -1.79036 -19.043 -5.37109
c-5.20833 -0.976562 -9.92839 -1.46484 -14.1602 -1.46484l-6.83594 0.488281h-0.488281v-0.488281c4.55729 -2.60417 9.4401 -3.90625 14.6484 -3.90625c7.48698 0 22.1354 5.04557 43.9453 15.1367c10.7422 3.58073 22.1354 5.37109 34.1797 5.37109h3.41797
c9.76562 0 20.0195 -0.651042 30.7617 -1.95312c3.90625 0 8.78906 3.90625 14.6484 11.7188v0.976562c0 2.92969 -5.37109 8.46354 -16.1133 16.6016c-1.95312 2.92969 -2.92969 5.20833 -2.92969 6.83594v1.46484h-0.488281l-1.95312 -1.46484l-11.2305 0.976562h-1.46484
c-5.53385 0 -12.207 -1.6276 -20.0195 -4.88281h-0.976562l-0.976562 0.976562v0.976562c0 0.976562 6.83594 6.67318 20.5078 17.0898c3.58073 3.25521 6.02214 4.88281 7.32422 4.88281c1.30208 -1.6276 2.44141 -2.44141 3.41797 -2.44141
c15.2995 11.7188 24.7396 17.5781 28.3203 17.5781h0.488281v-0.976562c9.4401 5.53385 14.1602 11.2305 14.1602 17.0898v0.976562c0 9.11458 -2.27865 21.1589 -6.83594 36.1328c-2.60417 4.23177 -5.69661 6.34766 -9.27734 6.34766h-0.976562
c-3.90625 0 -10.0911 -2.27865 -18.5547 -6.83594h-1.46484c-12.6953 0 -21.3216 7.48698 -25.8789 22.4609c-14.974 32.2266 -26.2044 53.0599 -33.6914 62.5c-7.16146 7.16146 -13.8346 16.6016 -20.0195 28.3203c-0.976562 2.60417 -1.46484 5.37109 -1.46484 8.30078
v4.88281c0 18.8802 5.69661 35.319 17.0898 49.3164c2.60417 1.95312 6.1849 3.25521 10.7422 3.90625l2.92969 -1.46484c0 -1.30208 -3.09245 -2.60417 -9.27734 -3.90625v-0.976562c3.25521 0 5.53385 -1.95312 6.83594 -5.85938v-0.488281
c0 -1.30208 -5.20833 -7.97526 -15.625 -20.0195c-2.92969 -4.23177 -4.39453 -7.32422 -4.39453 -9.27734v-0.488281h0.488281c4.23177 6.83594 11.0677 10.2539 20.5078 10.2539c7.16146 -0.325521 10.7422 -2.11589 10.7422 -5.37109v-0.488281
c-0.325521 -3.25521 -0.976562 -4.88281 -1.95312 -4.88281h-1.46484c0 4.23177 -1.6276 6.34766 -4.88281 6.34766l-1.95312 0.488281h-2.44141c-6.51042 0 -12.8581 -4.39453 -19.043 -13.1836c-1.95312 -3.58073 -2.92969 -7.48698 -2.92969 -11.7188
c0 -1.6276 0.325521 -2.44141 0.976562 -2.44141c8.13802 4.88281 16.1133 7.32422 23.9258 7.32422h1.46484c6.1849 0 11.556 -1.46484 16.1133 -4.39453l1.95312 10.7422l-2.92969 -2.44141h-0.976562l-0.976562 0.976562v0.976562
c0 1.30208 1.30208 3.25521 3.90625 5.85938c2.27865 2.60417 3.41797 7.32422 3.41797 14.1602v0.488281c0 9.76562 -7.16146 20.9961 -21.4844 33.6914c-6.51042 7.16146 -9.76562 11.7188 -9.76562 13.6719c0 0.651042 0.651042 1.13932 1.95312 1.46484
c3.90625 0 12.3698 -8.30078 25.3906 -24.9023c5.85938 -8.78906 8.78906 -16.6016 8.78906 -23.4375v-2.92969c0 -3.90625 -1.46484 -9.60286 -4.39453 -17.0898v-6.83594l-0.488281 -5.85938c4.88281 -1.95312 7.32422 -4.88281 7.32422 -8.78906v-1.46484
c0 -3.90625 -1.46484 -6.1849 -4.39453 -6.83594h-1.46484c-0.976562 0 -1.79036 2.11589 -2.44141 6.34766l-4.88281 2.92969v-0.976562h-0.488281c0.651042 -1.30208 0.976562 -3.90625 0.976562 -7.8125c0 -6.1849 -3.09245 -10.4167 -9.27734 -12.6953
l-6.83594 -0.976562l-2.92969 0.488281h-1.95312v-0.976562c0.976562 -2.60417 4.55729 -4.23177 10.7422 -4.88281c6.83594 0 11.2305 2.76693 13.1836 8.30078l2.44141 0.976562l0.976562 -1.95312c-0.325521 -2.27865 -1.30208 -4.39453 -2.92969 -6.34766h0.488281
c2.27865 1.6276 4.39453 4.39453 6.34766 8.30078l0.488281 0.488281h2.44141l0.976562 -0.976562v-1.95312c0 -2.92969 -2.27865 -5.69661 -6.83594 -8.30078l-0.488281 -2.44141c1.30208 -7.16146 3.41797 -14.6484 6.34766 -22.4609h0.488281l0.976562 18.5547
l9.27734 -15.1367c7.48698 -11.3932 19.2057 -19.5312 35.1562 -24.4141c12.0443 -3.25521 20.1823 -4.88281 24.4141 -4.88281l14.6484 2.44141h0.488281l2.44141 -0.488281v-1.46484c-0.651042 -1.6276 -4.88281 -2.92969 -12.6953 -3.90625v-0.488281
c2.92969 -0.976562 5.69661 -1.46484 8.30078 -1.46484c4.23177 0 11.7188 0.976562 22.4609 2.92969c0.325521 -1.95312 0.813802 -2.92969 1.46484 -2.92969h3.41797c8.13802 0 14.4857 3.09245 19.043 9.27734l-0.488281 -0.488281h-5.37109
c-2.92969 0 -6.34766 3.58073 -10.2539 10.7422c-7.16146 11.0677 -15.7878 26.0417 -25.8789 44.9219l-29.7852 58.1055c-4.88281 9.11458 -10.7422 17.5781 -17.5781 25.3906c-17.5781 14.6484 -35.8073 23.763 -54.6875 27.3438h-2.92969
c-1.6276 0 -4.88281 -1.46484 -9.76562 -4.39453c-1.30208 0 -5.04557 3.58073 -11.2305 10.7422l-7.8125 0.488281c-10.7422 0 -20.9961 -6.02214 -30.7617 -18.0664c2.60417 -5.53385 3.90625 -10.2539 3.90625 -14.1602
c-1.30208 -11.0677 -6.51042 -16.6016 -15.625 -16.6016h-1.95312l-9.76562 1.46484v0.976562c6.1849 0 10.4167 4.72005 12.6953 14.1602l0.488281 3.41797c0 8.46354 -4.72005 14.974 -14.1602 19.5312c-9.4401 7.16146 -14.1602 17.0898 -14.1602 29.7852
l-2.44141 4.39453h-0.488281v-1.46484c0 -17.2526 6.83594 -31.25 20.5078 -41.9922c2.27865 -3.90625 3.41797 -6.9987 3.41797 -9.27734l-1.95312 -7.32422h-0.976562l0.488281 4.39453c0 7.48698 -6.51042 12.8581 -19.5312 16.1133
c-13.3464 6.51042 -20.0195 15.1367 -20.0195 25.8789h-0.488281v-3.41797c0 -11.0677 5.37109 -18.5547 16.1133 -22.4609c5.53385 -0.651042 11.2305 -3.74349 17.0898 -9.27734c2.60417 -4.88281 3.90625 -8.30078 3.90625 -10.2539
c-7.8125 8.78906 -13.5091 13.3464 -17.0898 13.6719c-10.0911 2.27865 -16.7643 5.53385 -20.0195 9.76562c-3.90625 5.53385 -5.85938 11.2305 -5.85938 17.0898v5.37109c-15.625 -1.6276 -27.9948 -6.1849 -37.1094 -13.6719
c-0.651042 -1.6276 -1.95312 -3.09245 -3.90625 -4.39453h-1.95312l-14.1602 4.39453c-3.90625 1.30208 -11.3932 2.27865 -22.4609 2.92969c-29.6224 0 -63.9648 -10.0911 -103.027 -30.2734c-10.0911 -6.1849 -20.0195 -14.4857 -29.7852 -24.9023
c-27.9948 -35.1562 -41.9922 -73.8932 -41.9922 -116.211c-1.6276 -6.51042 -6.51042 -12.5326 -14.6484 -18.0664c-3.58073 -3.25521 -5.37109 -6.67318 -5.37109 -10.2539l1.46484 -9.76562c0 -4.23177 -8.95182 -14.8112 -26.8555 -31.7383
c-1.6276 -3.25521 -2.44141 -5.69661 -2.44141 -7.32422c0 -5.85938 2.27865 -8.78906 6.83594 -8.78906c4.23177 0 11.0677 4.39453 20.5078 13.1836c2.92969 1.95312 5.37109 2.92969 7.32422 2.92969h3.41797l2.44141 -0.488281
c2.92969 6.83594 8.6263 10.2539 17.0898 10.2539c6.51042 6.51042 12.8581 9.76562 19.043 9.76562h4.39453l6.34766 -0.488281c26.6927 0 52.8971 18.8802 78.6133 56.6406c5.85938 9.4401 10.2539 20.9961 13.1836 34.668
c2.92969 26.3672 5.53385 43.7826 7.8125 52.2461c3.25521 11.0677 9.76562 21.6471 19.5312 31.7383l4.39453 3.90625v-0.488281c-10.7422 -14.6484 -16.9271 -26.5299 -18.5547 -35.6445c-1.6276 -4.55729 -4.23177 -22.1354 -7.8125 -52.7344
c-4.55729 -21.4844 -13.3464 -39.8763 -26.3672 -55.1758c-13.3464 -14.6484 -23.763 -23.9258 -31.25 -27.832c-10.7422 -7.16146 -24.2513 -12.207 -40.5273 -15.1367c-2.60417 -1.30208 -6.9987 -5.37109 -13.1836 -12.207l-0.976562 -24.9023
c0 -52.0833 14.8112 -95.0521 44.4336 -128.906c5.53385 -8.13802 19.2057 -23.6003 41.0156 -46.3867c1.95312 -3.58073 2.92969 -6.9987 2.92969 -10.2539c0 -7.16146 -4.23177 -12.3698 -12.6953 -15.625h-1.95312l-2.44141 0.488281
c4.23177 3.25521 6.34766 6.9987 6.34766 11.2305c0 5.53385 -4.39453 11.7188 -13.1836 18.5547c-44.5964 43.6198 -66.8945 96.5169 -66.8945 158.691c0 11.7188 0.976562 23.763 2.92969 36.1328h-0.488281l-1.46484 -0.976562h-2.44141
c-2.60417 0 -5.37109 2.27865 -8.30078 6.83594c-12.3698 -13.6719 -22.4609 -20.5078 -30.2734 -20.5078c-1.6276 0 -4.88281 0.976562 -9.76562 2.92969c-7.16146 -3.90625 -12.6953 -5.85938 -16.6016 -5.85938c-5.53385 0.976562 -8.30078 4.55729 -8.30078 10.7422
v0.976562c0 8.13802 6.02214 16.4388 18.0664 24.9023c7.48698 6.83594 11.2305 12.3698 11.2305 16.6016l-0.488281 10.7422c0 5.20833 4.55729 11.2305 13.6719 18.0664c2.92969 3.58073 4.39453 9.27734 4.39453 17.0898v10.7422h-1.95312
c-29.2969 0 -59.2448 14.4857 -89.8438 43.457c-20.8333 23.4375 -34.3424 45.8984 -40.5273 67.3828c-5.85938 16.9271 -8.78906 33.3659 -8.78906 49.3164v11.2305c0 32.2266 10.9049 66.0807 32.7148 101.562c20.1823 30.599 49.3164 52.5716 87.4023 65.918
c20.8333 6.51042 40.2018 9.76562 58.1055 9.76562zM55.1758 703.809c0 -44.9219 16.7643 -85.9375 50.293 -123.047c26.6927 -25.3906 53.0599 -38.0859 79.1016 -38.0859h1.95312v0.488281c-13.6719 0 -30.7617 6.34766 -51.2695 19.043
c-29.9479 21.1589 -49.4792 42.6432 -58.5938 64.4531c-11.3932 27.9948 -17.0898 52.7344 -17.0898 74.2188v9.27734c0 46.5495 23.112 89.8438 69.3359 129.883c27.3438 22.4609 66.4062 33.6914 117.188 33.6914c22.7865 0 42.9688 -6.1849 60.5469 -18.5547
c15.9505 -7.8125 27.0182 -11.7188 33.2031 -11.7188l0.488281 -0.488281c2.27865 0 3.41797 -0.976562 3.41797 -2.92969s-2.92969 -4.23177 -8.78906 -6.83594c-5.20833 -1.6276 -10.0911 -2.44141 -14.6484 -2.44141c-26.6927 2.60417 -46.5495 3.90625 -59.5703 3.90625
h-9.76562c-27.9948 0 -49.4792 -6.34766 -64.4531 -19.043c-12.6953 -8.78906 -24.0885 -20.5078 -34.1797 -35.1562c-14.3229 -21.8099 -21.4844 -44.7591 -21.4844 -68.8477c0 -29.2969 9.4401 -50.4557 28.3203 -63.4766
c6.1849 -3.90625 13.3464 -5.85938 21.4844 -5.85938c24.0885 0 50.293 18.8802 78.6133 56.6406c9.76562 13.6719 23.763 29.4596 41.9922 47.3633c23.4375 21.4844 48.9909 32.2266 76.6602 32.2266c24.7396 0 49.3164 -10.2539 73.7305 -30.7617v0.488281
c-8.13802 9.76562 -15.2995 16.276 -21.4844 19.5312c-18.2292 10.4167 -36.6211 15.625 -55.1758 15.625c-36.7839 0 -73.2422 -25.2279 -109.375 -75.6836c-16.9271 -20.1823 -33.0404 -36.1328 -48.3398 -47.8516c-13.9974 -9.76562 -24.4141 -14.6484 -31.25 -14.6484
h-3.90625c-7.8125 0.976562 -16.7643 5.69661 -26.8555 14.1602c-12.6953 14.3229 -19.043 32.7148 -19.043 55.1758c0 21.1589 7.16146 43.457 21.4844 66.8945c23.763 33.8542 56.1523 50.7812 97.168 50.7812h9.27734l51.7578 -2.92969
c19.8568 0 35.6445 5.53385 47.3633 16.6016c-4.55729 -1.30208 -8.78906 -1.95312 -12.6953 -1.95312c-9.76562 0 -20.1823 4.55729 -31.25 13.6719c-26.0417 14.3229 -52.0833 21.4844 -78.125 21.4844h-10.7422c-36.4583 0 -72.1029 -13.0208 -106.934 -39.0625
c-17.9036 -16.276 -28.6458 -27.6693 -32.2266 -34.1797c-24.0885 -32.2266 -36.1328 -66.2435 -36.1328 -102.051zM603.027 841.992c-4.88281 0 -12.6953 2.27865 -23.4375 6.83594v-0.488281c1.95312 -5.85938 6.51042 -11.0677 13.6719 -15.625
c6.51042 -3.58073 20.6706 -5.37109 42.4805 -5.37109c36.4583 0 61.0352 -6.34766 73.7305 -19.043c8.46354 -8.46354 13.8346 -15.4622 16.1133 -20.9961c8.78906 -17.2526 13.1836 -33.6914 13.1836 -49.3164v-8.30078c0 -22.4609 -8.46354 -43.6198 -25.3906 -63.4766
c-7.8125 -6.83594 -16.7643 -10.2539 -26.8555 -10.2539c-21.8099 0 -45.4102 20.8333 -70.8008 62.5c-7.48698 10.0911 -12.8581 15.1367 -16.1133 15.1367h-0.488281c-0.976562 -0.325521 -1.46484 -1.30208 -1.46484 -2.92969v-1.95312
c0 -5.20833 5.85938 -13.9974 17.5781 -26.3672c13.6719 -14.6484 24.7396 -24.7396 33.2031 -30.2734c16.6016 -14.6484 27.832 -22.1354 33.6914 -22.4609l8.30078 -0.976562h0.488281c21.4844 0 40.0391 16.9271 55.6641 50.7812
c6.83594 17.2526 10.2539 34.1797 10.2539 50.7812c0 27.0182 -9.11458 47.8516 -27.3438 62.5c-5.20833 4.88281 -16.9271 10.0911 -35.1562 15.625c-15.625 3.58073 -29.6224 5.37109 -41.9922 5.37109c-5.20833 0 -15.9505 -0.976562 -32.2266 -2.92969
c-8.78906 0 -18.0664 1.6276 -27.832 4.88281v1.46484c10.0911 0 36.4583 8.30078 79.1016 24.9023c15.2995 4.55729 27.6693 6.83594 37.1094 6.83594c27.9948 0 51.4323 -12.5326 70.3125 -37.5977c17.2526 -23.763 25.8789 -51.2695 25.8789 -82.5195
c0 -40.0391 -11.0677 -77.474 -33.2031 -112.305c-11.3932 -14.3229 -21.8099 -22.6237 -31.25 -24.9023c-3.90625 0 -8.30078 -3.09245 -13.1836 -9.27734c-4.88281 -10.7422 -12.0443 -17.9036 -21.4844 -21.4844c-7.48698 -2.27865 -12.8581 -3.41797 -16.1133 -3.41797
v-0.488281l4.39453 -0.488281c43.2943 0 76.8229 20.0195 100.586 60.0586c15.2995 27.6693 22.9492 58.2682 22.9492 91.7969c0 36.4583 -7.64974 69.4987 -22.9492 99.1211c-12.3698 20.8333 -29.9479 35.1562 -52.7344 42.9688
c-12.0443 3.25521 -22.1354 4.88281 -30.2734 4.88281h-7.8125c-18.5547 0 -43.2943 -8.46354 -74.2188 -25.3906c-12.0443 -5.20833 -20.8333 -7.8125 -26.3673 -7.81214zM64.4531 703.32v-5.37109c0 -16.6016 2.60417 -27.5065 7.8125 -32.7148h0.976562
c1.30208 0 2.76693 15.7878 4.39453 47.3633c2.60417 20.5078 5.53385 35.8073 8.78906 45.8984c5.53385 14.6484 13.1836 28.9714 22.9492 42.9688c5.85938 7.48698 8.78906 12.207 8.78906 14.1602v0.488281h-1.46484
c-9.11458 -3.25521 -20.3451 -15.2995 -33.6914 -36.1328c-12.3698 -22.1354 -18.5547 -47.6888 -18.5547 -76.6603zM297.363 727.734c0.325521 -3.25521 1.46484 -4.88281 3.41797 -4.88281l27.832 18.5547c18.8802 9.76562 36.2956 14.6484 52.2461 14.6484h3.90625
c13.6719 0 30.2734 -4.55729 49.8047 -13.6719h1.46484l1.46484 1.46484v2.44141c0 9.4401 -14.4857 17.7409 -43.457 24.9023l-20.5078 1.95312c-18.5547 0 -38.5742 -7.8125 -60.0586 -23.4375c-10.7422 -9.11458 -16.1133 -16.4388 -16.1133 -21.9726zM474.121 726.27
v-0.976562c0 -2.27865 2.27865 -8.78906 6.83594 -19.5312c0 -8.78906 3.25521 -16.6016 9.76562 -23.4375c3.25521 -2.60417 6.1849 -3.90625 8.78906 -3.90625h1.95312c5.20833 0 10.7422 3.90625 16.6016 11.7188
c-1.30208 -0.651042 -3.09245 -0.976562 -5.37109 -0.976562h-0.976562l-0.488281 0.488281h-0.488281c0 -1.6276 -3.25521 -3.25521 -9.76562 -4.88281h-1.46484c-7.16146 0 -12.207 5.37109 -15.1367 16.1133l-0.488281 3.41797l0.488281 3.90625
c-5.20833 5.53385 -8.46354 11.556 -9.76562 18.0664zM467.773 706.25v-5.85938c0 -9.11458 3.58073 -17.9036 10.7422 -26.3672l4.88281 -2.44141c-8.13802 9.4401 -12.207 20.6706 -12.207 33.6914v5.37109zM459.961 705.273
c0.651042 -8.78906 2.92969 -16.6016 6.83594 -23.4375c1.6276 -1.95312 2.76693 -2.92969 3.41797 -2.92969v0.488281c-4.55729 8.78906 -6.83594 18.7174 -6.83594 29.7852v0.488281zM493.652 709.668l-0.976562 -5.85938l1.95312 -8.30078l-0.488281 -3.41797
c0.976562 -2.92969 3.74349 -4.39453 8.30078 -4.39453l7.32422 1.46484l-5.85938 3.90625c0 1.30208 -2.44141 2.60417 -7.32422 3.90625c-1.6276 1.30208 -2.44141 5.53385 -2.44141 12.6953zM455.566 699.902v-2.44141h0.488281v2.44141h-0.488281zM505.859 670.605
v-0.488281c2.27865 -4.23177 3.41797 -9.11458 3.41797 -14.6484v-2.44141l-0.976562 -6.34766c2.27865 2.27865 3.41797 6.1849 3.41797 11.7188l-0.488281 4.88281h0.976562c1.30208 -3.25521 1.95312 -6.34766 1.95312 -9.27734v-0.976562
c0 -2.60417 -0.325521 -4.72005 -0.976562 -6.34766v-0.488281h0.488281c1.95312 4.23177 2.92969 7.64974 2.92969 10.2539v0.488281c0 4.88281 -3.58073 9.4401 -10.7422 13.6718zM389.648 670.117l0.488281 -2.44141v-7.8125
c0 -14.974 -9.60286 -29.6224 -28.8086 -43.9453l-7.8125 -6.83594v0.488281c10.7422 13.9974 16.1133 25.7161 16.1133 35.1562v1.46484c0 3.90625 -1.30208 5.85938 -3.90625 5.85938c-8.46354 -2.27865 -16.9271 -9.4401 -25.3906 -21.4844
c-5.53385 -7.8125 -11.8815 -15.4622 -19.043 -22.9492l-10.7422 -8.78906h-0.488281v0.488281c11.3932 12.0443 19.5312 24.7396 24.4141 38.0859c6.51042 13.0208 16.6016 19.5312 30.2734 19.5312c10.4167 0 17.4154 2.44141 20.9961 7.32422zM450.195 658.398h0.976562
v-0.488281c-3.25521 -3.58073 -6.9987 -5.37109 -11.2305 -5.37109l-1.95312 0.488281v1.46484c3.58073 2.60417 7.64974 3.90625 12.2071 3.90625zM463.379 657.91v-0.976562c-6.1849 -4.55729 -11.3932 -6.83594 -15.625 -6.83594l-0.488281 0.488281v0.976562
c0.651042 1.6276 5.37109 3.74349 14.1602 6.34766zM460.449 651.074c1.30208 -0.325521 1.95312 -0.813802 1.95312 -1.46484c0 -1.6276 -2.92969 -3.09245 -8.78906 -4.39453h-0.488281l-2.44141 0.488281v0.976562c0 2.92969 3.25521 4.39453 9.76563 4.39453z
M475.586 638.867h0.976562l0.976562 -0.976562v-1.46484c-1.95312 -0.976562 -4.06901 -1.46484 -6.34766 -1.46484h-0.976562l-1.46484 1.46484c0 1.30208 2.27865 2.11589 6.83594 2.4414zM477.539 630.566l1.46484 -0.488281v-0.488281
c-1.95312 -2.60417 -5.20833 -3.90625 -9.76562 -3.90625l-0.976562 0.976562c0 1.6276 3.09245 2.92969 9.27734 3.90625zM429.199 628.613c6.83594 0 10.2539 -0.976562 10.2539 -2.92969l-1.46484 -4.39453c5.85938 -3.90625 8.78906 -7.64974 8.78906 -11.2305
c0 -1.6276 -0.651042 -2.76693 -1.95312 -3.41797h-1.46484c-1.95312 0 -3.74349 1.6276 -5.37109 4.88281c-5.20833 2.92969 -7.8125 5.53385 -7.8125 7.8125l2.44141 3.90625v0.488281c-17.2526 0 -32.0638 -4.55729 -44.4336 -13.6719l-3.41797 -0.488281h-0.488281
c0 4.23177 6.83594 9.11458 20.5078 14.6484c8.46354 2.92969 16.6016 4.39453 24.4141 4.39463zM479.492 624.219l1.95312 -0.488281v-0.976562c-1.30208 -1.95312 -2.92969 -2.92969 -4.88281 -2.92969h-1.46484v1.46484c0 0.976562 1.46484 1.95312 4.39453 2.92969z
M483.398 621.289h1.46484v-0.488281c-1.30208 -2.27865 -4.39453 -4.23177 -9.27734 -5.85938l-1.46484 0.488281v0.976562c0 1.6276 3.09245 3.25521 9.27734 4.88282zM483.398 615.43h1.46484v-1.46484c0 -1.30208 -2.27865 -2.60417 -6.83594 -3.90625h-0.976562
c-0.651042 0 -0.976562 0.488281 -0.976562 1.46484c0 1.6276 2.44141 2.92969 7.32422 3.90625zM559.082 612.5h1.46484l-0.976562 -0.976562h-1.46484zM485.352 609.082h1.95312v-0.488281c-1.95312 -2.60417 -4.55729 -3.90625 -7.8125 -3.90625h-0.488281
l-0.976562 0.976562c1.6276 2.27865 4.06901 3.41797 7.32422 3.41797zM490.234 606.152l0.488281 -0.488281v-0.488281c-1.6276 -2.27865 -4.23177 -3.41797 -7.8125 -3.41797l-0.488281 0.488281v0.976562c0 0.976562 2.60417 1.95312 7.8125 2.92969zM389.648 605.176
c0.651042 0 1.46484 -2.92969 2.44141 -8.78906l2.44141 -1.46484c15.2995 5.85938 27.9948 8.78906 38.0859 8.78906c9.76562 0 14.6484 -1.46484 14.6484 -4.39453c3.90625 -4.55729 5.85938 -9.27734 5.85938 -14.1602v-0.976562
c-3.58073 5.20833 -8.46354 7.8125 -14.6484 7.8125l-1.46484 -0.488281c2.60417 -2.60417 3.90625 -5.53385 3.90625 -8.78906c0 -8.13802 -4.23177 -13.6719 -12.6953 -16.6016l-6.83594 -0.976562c-9.4401 0.976562 -14.1602 4.55729 -14.1602 10.7422v0.976562
c0 3.90625 1.6276 7.48698 4.88281 10.7422h-0.488281c-15.2995 -4.88281 -22.9492 -9.92839 -22.9492 -15.1367c0.976562 -2.60417 6.1849 -7.32422 15.625 -14.1602v-1.95312h-0.488281c-4.88281 0 -10.0911 3.25521 -15.625 9.76562
c-2.27865 4.23177 -4.55729 6.67318 -6.83594 7.32422c-0.651042 0 -0.976562 0.813802 -0.976562 2.44141v3.41797c0 2.92969 1.46484 5.85938 4.39453 8.78906l-2.44141 -0.488281h-2.44141v1.46484c0 1.30208 3.09245 6.67318 9.27734 16.1133zM491.699 600.781h0.488281
v-0.976562h0.488281c-2.60417 -3.90625 -4.39453 -6.1849 -5.37109 -6.83594h-0.488281v2.44141c0.651042 3.58073 2.27865 5.37109 4.88281 5.37109zM541.992 590.527c0.651042 -2.27865 2.92969 -5.04557 6.83594 -8.30078
c1.95312 7.16146 4.88281 10.7422 8.78906 10.7422v0.488281l-7.32422 0.976562c-5.53385 -0.651042 -8.30078 -1.95312 -8.30078 -3.90626zM492.188 588.574h0.976562v-2.44141c0 -1.95312 -1.46484 -4.23177 -4.39453 -6.83594h-2.44141
c0 1.95312 1.95312 5.04557 5.85938 9.27735zM422.363 582.227c0.976562 -2.27865 2.11589 -3.41797 3.41797 -3.41797c1.30208 0.325521 2.27865 1.13932 2.92969 2.44141v1.46484c0 1.6276 -0.651042 2.76693 -1.95312 3.41797h-1.95312
c-1.6276 -0.976562 -2.44141 -2.27865 -2.44142 -3.90625zM447.754 580.273h0.976562c1.6276 0 2.60417 -4.88281 2.92969 -14.6484c0 -2.60417 -2.11589 -5.37109 -6.34766 -8.30078l-1.95312 -0.488281h-0.976562l-0.976562 0.976562v0.976562
c3.58073 3.25521 5.37109 6.02214 5.37109 8.30078v1.46484l-0.488281 9.27734c0.325521 1.6276 0.813802 2.44141 1.46484 2.44138zM395.02 572.949h1.46484c4.88281 -5.53385 9.27734 -9.11458 13.1836 -10.7422c7.16146 -1.6276 14.8112 -2.44141 22.9492 -2.44141
h5.37109l0.976562 -0.976562c0 -2.27865 -1.46484 -3.41797 -4.39453 -3.41797h-12.6953c-11.3932 0 -20.6706 4.72005 -27.832 14.1602v2.44141zM459.961 561.23h1.46484l0.976562 -0.976562c-1.30208 -5.53385 -4.88281 -11.0677 -10.7422 -16.6016h-0.488281
c-1.30208 0.325521 -1.95312 1.13932 -1.95312 2.44141c0.325521 1.30208 2.60417 4.23177 6.83594 8.78906zM564.453 557.812v-0.488281c18.8802 -31.5755 28.3203 -50.4557 28.3203 -56.6406c0.325521 0 0.813802 -1.13932 1.46484 -3.41797h0.488281v4.39453
c0 13.9974 -3.41797 29.6224 -10.2539 46.875l-1.46484 6.34766l-5.85938 -0.976562h-1.95312c-3.58073 0 -6.9987 1.30208 -10.2539 3.90625zM334.473 540.723l2.44141 -2.44141v-0.976562l-3.41797 -7.32422l-0.488281 -3.90625
c0 -4.23177 3.90625 -14.6484 11.7188 -31.25l0.976562 -3.90625v-1.95312l-1.46484 -1.46484h-0.976562c-3.25521 1.30208 -7.8125 13.0208 -13.6719 35.1562l-0.488281 6.34766c0.325521 7.8125 2.11589 11.7188 5.37106 11.7188zM490.723 505.078h1.95312
c19.5312 0 41.5039 -14.3229 65.918 -42.9688v-0.488281h-0.488281c-27.9948 24.7396 -50.293 37.1094 -66.8945 37.1094h-2.44141c-11.0677 0 -20.9961 -5.69661 -29.7852 -17.0898c-3.25521 -4.88281 -4.88281 -10.2539 -4.88281 -16.1133
c0 -6.1849 2.60417 -13.3464 7.8125 -21.4844h-0.488281c-8.13802 6.83594 -12.207 15.2995 -12.207 25.3906c0 13.3464 7.16146 23.763 21.4844 31.25c6.1849 2.92969 12.8581 4.39453 20.0195 4.39458zM282.715 473.828h0.488281v-0.488281l-0.488281 -16.6016v-5.85938
c0 -43.6198 11.556 -74.2188 34.668 -91.7969l31.7383 -26.3672c13.6719 -13.0208 23.2747 -24.4141 28.8086 -34.1797c8.46354 -14.6484 14.974 -29.2969 19.5312 -43.9453l0.976562 -2.44141h-0.976562c-10.4167 30.9245 -31.0872 56.8034 -62.0117 77.6367
c-11.7188 7.48698 -23.763 18.0664 -36.1328 31.7383c-13.0208 17.5781 -19.5312 40.2018 -19.5312 67.8711v5.37109c0 10.7422 0.976562 23.763 2.9296 39.0626zM498.535 465.039c11.7188 0 19.043 -8.95182 21.9727 -26.8555v-6.83594
c0 -3.90625 -1.13932 -8.30078 -3.41797 -13.1836h-0.976562l0.976562 11.2305v3.90625c0 11.7188 -4.39453 20.8333 -13.1836 27.3438h-0.976562c-2.60417 -0.325521 -3.90625 -1.46484 -3.90625 -3.41797c0.976562 -2.92969 4.39453 -5.69661 10.2539 -8.30078
l0.488281 -0.488281v-3.41797c-1.30208 -1.95312 -3.25521 -2.92969 -5.85938 -2.92969c-12.6953 1.6276 -19.043 5.53385 -19.043 11.7188l-0.488281 1.95312c0 3.25521 1.46484 5.53385 4.39453 6.83594c3.25521 1.6276 6.51042 2.44141 9.76563 2.44132zM210.938 452.344
c1.6276 -3.90625 4.23177 -5.85938 7.8125 -5.85938c8.78906 8.46354 13.1836 13.1836 13.1836 14.1602l-0.488281 0.488281h-0.488281c-6.1849 0 -12.8581 -2.76693 -20.0195 -8.30078zM518.066 456.25c13.0208 -11.7188 19.5312 -24.4141 19.5312 -38.0859v-7.32422
h-0.488281c0 8.13802 -2.44141 15.4622 -7.32422 21.9727c-1.30208 -3.25521 -2.27865 -4.88281 -2.92969 -4.88281h-1.46484v1.46484c0 7.48698 -2.44141 16.276 -7.32422 26.3672zM194.336 445.02h0.976562c5.53385 1.95312 8.30078 3.58073 8.30078 4.88281v0.976562
c-6.1849 -2.27865 -9.27734 -4.23177 -9.27734 -5.85937zM401.367 449.414c1.6276 -0.651042 2.44141 -1.30208 2.44141 -1.95312v-2.44141l-4.39453 0.488281c-8.13802 -5.20833 -12.8581 -7.8125 -14.1602 -7.8125l-0.488281 0.488281v0.976562
c0 4.23177 5.37109 7.64974 16.1133 10.2539zM174.805 434.766v-0.488281l0.976562 -0.976562h1.95312c5.53385 0 10.7422 2.11589 15.625 6.34766v0.488281l-6.34766 0.488281c-5.85938 0 -9.92839 -1.95312 -12.207 -5.85938zM452.637 310.254h0.488281l1.46484 -2.44141
v-3.90625l-4.39453 -4.39453h-0.488281v0.488281c0.325521 6.83594 1.30208 10.2539 2.92969 10.2539zM527.832 307.812v-0.488281c-3.90625 -3.25521 -9.4401 -4.88281 -16.6016 -4.88281c-5.20833 0 -9.11458 1.30208 -11.7188 3.90625v0.488281
c2.92969 -1.30208 6.02214 -1.95312 9.27734 -1.95312h4.88281c5.53385 0 10.2539 0.976562 14.1603 2.92968zM466.797 303.906c1.30208 0 3.09245 -1.30208 5.37109 -3.90625c4.55729 -1.95312 6.83594 -3.58073 6.83594 -4.88281v-0.488281
c-0.976562 -0.976562 -4.72005 -1.79036 -11.2305 -2.44141l-4.39453 -3.90625h-2.92969v1.46484c3.58073 4.23177 6.51042 6.34766 8.78906 6.34766c-2.60417 3.25521 -3.90625 5.53385 -3.90625 6.83594zM417.969 280.957h0.488281v-0.488281
c-7.16146 -7.48698 -10.7422 -15.625 -10.7422 -24.4141c0 -5.53385 1.79036 -11.0677 5.37109 -16.6016l0.488281 -0.488281h0.488281v6.83594c0 8.13802 3.25521 14.1602 9.76562 18.0664v-0.488281c-4.23177 -5.20833 -6.34766 -11.7188 -6.34766 -19.5312v-1.95312
c0 -6.1849 1.30208 -10.2539 3.90625 -12.207c11.0677 -13.6719 17.9036 -23.2747 20.5078 -28.8086c2.27865 -1.95312 3.74349 -2.92969 4.39453 -2.92969c2.92969 0.976562 4.39453 2.60417 4.39453 4.88281c0 4.55729 -5.37109 11.8815 -16.1133 21.9727
c-5.53385 6.83594 -8.30078 13.0208 -8.30078 18.5547v0.976562c0 7.48698 4.72005 13.8346 14.1602 19.043h0.488281c-6.51042 -6.1849 -9.76562 -12.207 -9.76562 -18.0664c0 -10.0911 8.46354 -21.6471 25.3906 -34.668
c2.92969 -3.25521 4.55729 -6.34766 4.88281 -9.27734v-2.44141c0 -3.25521 -2.27865 -8.95182 -6.83594 -17.0898l-0.976562 -6.83594c0 -5.20833 3.25521 -11.7188 9.76562 -19.5312v-0.488281c-8.46354 2.27865 -14.6484 5.85938 -18.5547 10.7422
c-2.27865 3.90625 -3.41797 7.97526 -3.41797 12.207v4.88281c-5.53385 -6.1849 -8.30078 -12.0443 -8.30078 -17.5781v-1.46484c0 -8.46354 6.1849 -15.7878 18.5547 -21.9727v-0.976562c-16.276 5.20833 -24.4141 13.1836 -24.4141 23.9258v2.92969
c0 8.13802 4.39453 16.6016 13.1836 25.3906v0.488281c0 7.8125 -11.7188 23.2747 -35.1562 46.3867c-4.23177 4.88281 -6.34766 10.4167 -6.34766 16.6016c0 5.20833 1.6276 11.7188 4.88281 19.5312h0.488281v-0.488281
c-1.30208 -4.88281 -1.95312 -9.27734 -1.95312 -13.1836l1.46484 -10.2539h0.488281c0 14.3229 4.55729 23.9258 13.6719 28.8085zM546.875 277.051l-1.95312 0.976562l-0.488281 -0.488281c0 -2.60417 1.13932 -5.04557 3.41797 -7.32422l1.95312 8.78906z
M519.043 275.586c-2.27865 -4.23177 -3.41797 -7.97526 -3.41797 -11.2305v-0.976562c0 -2.60417 0.813802 -4.55729 2.44141 -5.85938v2.44141c0 4.55729 1.79036 9.27734 5.37109 14.1602zM472.168 169.629c0.651042 -5.85938 1.95312 -8.78906 3.90625 -8.78906h0.976562
v0.976562h0.488281l-1.95312 12.207c0 9.11458 6.34766 19.5312 19.043 31.25v0.488281c-14.974 -7.48698 -22.4609 -19.5312 -22.461 -36.1328zM496.582 178.418v-1.95312l7.32422 14.6484c2.60417 3.25521 6.83594 7.64974 12.6953 13.1836
c-2.60417 0 -7.64974 -4.39453 -15.1367 -13.1836c-3.25521 -5.85938 -4.88281 -10.0911 -4.88282 -12.6953zM479.004 170.605c0 -7.48698 2.60417 -13.3464 7.8125 -17.5781c-2.27865 5.53385 -3.41797 11.2305 -3.41797 17.0898c0 9.4401 3.25521 19.2057 9.76562 29.2969
v0.488281c-9.4401 -7.48698 -14.1602 -17.2526 -14.1601 -29.2969zM443.848 180.371c0 -8.78906 3.58073 -15.1367 10.7422 -19.043v0.488281c-2.92969 2.60417 -4.39453 6.67318 -4.39453 12.207v2.44141c0 5.85938 2.76693 13.0208 8.30078 21.4844
c-9.4401 -7.16146 -14.1602 -11.556 -14.1602 -13.1836zM467.285 187.207l-1.46484 -15.1367c0 -16.276 8.30078 -28.9714 24.9023 -38.0859l4.88281 -3.90625h-0.976562c-21.1589 8.78906 -31.7383 20.3451 -31.7383 34.668v5.85938
c1.30208 11.0677 2.76693 16.6016 4.39459 16.6015z" />
  </g>

</svg>
