<?xml version="1.0" standalone="no"?>
<!DOCTYPE svg PUBLIC "-//W3C//DTD SVG 1.1//EN" "http://www.w3.org/Graphics/SVG/1.1/DTD/svg11.dtd" >
<svg xmlns="http://www.w3.org/2000/svg" xmlns:xlink="http://www.w3.org/1999/xlink" version="1.1" viewBox="0 -200 1000 1000">
  <g transform="matrix(1 0 0 -1 0 800)">
   <path fill="currentColor"
d="M209.33 252.334l1.81934 -195.237l-16.3711 -23.6465c-9.09473 -12.7324 -27.2852 -35.7734 -40.0176 -50.3252l-23.6465 -27.2852l-28.4971 36.3799c-38.1992 47.9004 -78.8223 133.392 -92.1621 193.418c-12.7324 57.6016 -13.9453 165.527 -3.03125 218.278
c42.4434 197.057 209.183 357.733 405.026 391.081c42.4434 6.66992 126.116 6.66992 169.772 0c169.771 -27.8906 318.928 -148.55 382.592 -309.833c43.6562 -109.745 46.6875 -232.224 9.09473 -346.213c-16.3711 -49.7188 -55.7812 -123.084 -65.4824 -123.084
c-9.70215 0.605469 -74.5791 100.649 -84.8857 130.966c-5.45801 15.7646 -12.127 68.5156 -15.1592 124.297c-12.126 198.876 -20.5186 259.632 -106.714 348.033c-88.6602 87.3936 -220.316 115.786 -332.874 58.207
c-44.2607 -21.8281 -104.894 -80.6416 -126.115 -122.479c-32.7422 -64.877 -35.7734 -89.7363 -33.3486 -302.558zM331.202 251.728c18.7959 14.5518 22.4336 20.6152 22.4336 40.0176c0 41.2305 -36.9863 66.6963 -60.0264 41.8369
c-18.1895 -19.4023 -17.583 -60.0264 1.21289 -81.8545l14.5518 -16.3711zM321.501 413.011c38.1992 0 58.208 -27.8906 62.4521 -87.3105l3.03125 -41.8369h42.4434h42.4424l1.81934 20.6152c3.6377 53.3564 9.09473 73.3662 23.6465 90.9492
c19.4023 22.4336 33.3486 29.1035 66.6963 29.1035c18.1904 0.606445 29.71 -3.6377 43.6553 -14.5518c37.5928 -32.1348 46.6875 -102.47 21.2217 -166.134l-9.70117 -24.8604l18.7959 -21.2207c21.8281 -25.4658 21.2217 -21.8281 9.09473 -63.665
c-13.3389 -44.8672 -8.48828 -64.2705 33.3486 -139.454c39.4111 -69.7285 63.0576 -124.904 58.207 -133.393c-6.06348 -9.70117 -94.5869 -43.0498 -140.668 -52.1445c-58.207 -12.126 -180.079 -8.48828 -235.255 6.66992
c-40.0176 11.5205 -93.375 36.3789 -137.636 64.2705l-28.498 18.1904l13.3389 28.4971c7.27637 15.7646 21.2217 41.2295 30.3164 57.6006c21.2217 35.7734 30.9229 36.3809 95.1934 4.24512c52.751 -26.6787 80.0352 -30.3174 110.958 -13.9463
c35.167 18.1904 161.89 104.895 161.89 110.958c0 12.7324 -26.6787 4.85059 -102.47 -30.3164c-97.6182 -44.8682 -112.17 -46.0801 -163.708 -11.5205c-20.0088 13.3398 -36.9863 27.2852 -36.9863 30.3164c0 7.27637 1.21289 7.27637 43.6562 -7.27539
c25.4658 -8.48926 44.2617 -10.9141 58.208 -8.48926c26.0713 4.85156 188.566 74.5791 201.3 85.4932c18.1895 17.583 -20.6152 8.48828 -99.4375 -22.4346c-119.446 -47.2939 -132.18 -46.6875 -214.034 7.88281c-38.1982 25.4648 -44.2617 32.1348 -44.2617 47.293
c0 11.5205 5.45703 21.2217 15.7646 29.71l16.3711 12.7324l-12.7324 29.1045c-37.5928 86.7041 -12.7334 164.921 51.5371 164.921zM511.282 288.714c0 -20.0088 1.81836 -22.4346 33.9541 -36.3799c18.7959 -8.48828 36.3789 -13.9443 38.8047 -12.126
c10.3086 6.06348 19.4033 46.6875 15.7646 66.6963c-2.4248 11.5205 -10.9141 26.0723 -20.0088 33.3486c-15.7646 12.126 -20.0098 13.3389 -40.0176 7.88184c-14.5518 -3.63867 -28.4971 -32.7432 -28.497 -59.4208z" />
  </g>

</svg>
