<?xml version="1.0" standalone="no"?>
<!DOCTYPE svg PUBLIC "-//W3C//DTD SVG 1.1//EN" "http://www.w3.org/Graphics/SVG/1.1/DTD/svg11.dtd" >
<svg xmlns="http://www.w3.org/2000/svg" xmlns:xlink="http://www.w3.org/1999/xlink" version="1.1" viewBox="0 -200 1000 1000">
  <g transform="matrix(1 0 0 -1 0 800)">
   <path fill="currentColor"
d="M623.291 446.24c-23.9258 45.0846 -58.5938 79.6712 -104.004 103.76s-92.3665 36.1328 -140.869 36.1328c-48.8281 0 -95.8659 -12.0443 -141.113 -36.1328c-45.2474 -24.0885 -79.834 -58.6751 -103.76 -103.76s-35.8887 -92.041 -35.8887 -140.869h-48.8281
c0 56.9661 14.1602 111.898 42.4805 164.795c28.3203 52.8971 68.929 93.5872 121.826 122.07c52.8971 28.4831 107.992 42.7246 165.283 42.7246c56.9661 0 111.979 -14.2415 165.039 -42.7246c53.0599 -28.4831 93.75 -69.1732 122.07 -122.07
c28.3203 -52.8971 42.4805 -107.829 42.4805 -164.795v-61.0352c40.6901 40.6901 97.6562 81.3802 170.898 122.07v-24.4141c-97.6562 -97.6562 -162.76 -195.312 -195.312 -292.969c-32.5521 97.6562 -97.6562 195.312 -195.312 292.969v24.4141
c73.2422 -40.6901 130.208 -81.3802 170.898 -122.07v61.0352c0 48.8281 -11.9629 95.7845 -35.8882 140.869z" />
  </g>

</svg>
