<?xml version="1.0" standalone="no"?>
<!DOCTYPE svg PUBLIC "-//W3C//DTD SVG 1.1//EN" "http://www.w3.org/Graphics/SVG/1.1/DTD/svg11.dtd" >
<svg xmlns="http://www.w3.org/2000/svg" xmlns:xlink="http://www.w3.org/1999/xlink" version="1.1" viewBox="0 -200 1000 1000">
  <g transform="matrix(1 0 0 -1 0 800)">
   <path fill="currentColor"
d="M774.902 461.621c0 -21.1589 -5.85938 -37.5977 -17.5781 -49.3164l-308.594 -307.129c-12.3698 -12.3698 -42.1549 -18.5547 -89.3555 -18.5547v-100.586c0 -14.974 -5.69661 -22.4609 -17.0898 -22.4609c-5.85938 0 -11.556 2.76693 -17.0898 8.30078l-236.328 236.816
c-3.90625 3.90625 -5.85938 8.6263 -5.85938 14.1602s1.95312 10.2539 5.85938 14.1602l236.328 236.816c5.53385 5.53385 11.2305 8.30078 17.0898 8.30078c11.3932 0 17.0898 -7.48698 17.0898 -22.4609v-100.586h142.578v361.816
c0 14.974 5.69661 22.4609 17.0898 22.4609c5.85938 0 11.556 -2.76693 17.0898 -8.30078l102.051 -102.539l102.539 102.539c5.53385 5.53385 11.2305 8.30078 17.0898 8.30078c11.3932 0 17.0898 -7.48698 17.0898 -22.4609v-259.277zM734.863 461.621v210.938
l-82.5195 -82.5195c-3.58073 -3.58073 -8.6263 -5.37109 -15.1367 -5.37109c-4.88281 0 -9.11458 1.79036 -12.6953 5.37109l-82.5195 82.5195v-313.477h104.98l82.0312 81.543c3.90625 3.90625 5.85938 10.9049 5.8598 20.996zM606.445 319.043h-267.09
c-13.3464 0 -20.0195 6.67318 -20.0195 20.0195v72.2656l-187.988 -188.477l187.988 -188.477v72.2656c0 13.3464 6.67318 20.0195 20.0195 20.0195c49.4792 0 76.4974 2.27865 81.0547 6.83594z" />
  </g>

</svg>
