<?xml version="1.0" standalone="no"?>
<!DOCTYPE svg PUBLIC "-//W3C//DTD SVG 1.1//EN" "http://www.w3.org/Graphics/SVG/1.1/DTD/svg11.dtd" >
<svg xmlns="http://www.w3.org/2000/svg" xmlns:xlink="http://www.w3.org/1999/xlink" version="1.1" viewBox="0 -200 1000 1000">
  <g transform="matrix(1 0 0 -1 0 800)">
   <path fill="currentColor"
d="M390.137 512.891c29.9479 0 58.6751 -7.32422 86.1816 -21.9727s48.584 -35.7259 63.2324 -63.2324s21.9727 -56.071 21.9727 -85.6934s-7.32422 -58.1868 -21.9727 -85.6934c-14.6484 -27.5065 -35.7259 -48.584 -63.2324 -63.2324s-56.2337 -21.9727 -86.1816 -21.9727
c-29.2969 0 -57.6986 7.32422 -85.2051 21.9727s-48.584 35.7259 -63.2324 63.2324c-14.6484 27.5065 -21.9727 56.071 -21.9727 85.6934s7.32422 58.1868 21.9727 85.6934s35.7259 48.584 63.2324 63.2324s55.9082 21.9727 85.2051 21.9727zM366.211 537.305v73.2422
h48.8281v-73.2422h-48.8281zM366.211 73.4375v73.2422h48.8281v-73.2422h-48.8281zM195.312 317.578h-73.2422v48.8281h73.2422v-48.8281zM659.18 317.578h-73.2422v48.8281h73.2422v-48.8281zM323.486 458.936c-21.6471 -11.556 -38.2487 -28.0762 -49.8047 -49.5605
s-17.334 -43.9453 -17.334 -67.3828c0 -23.112 5.77799 -45.4915 17.334 -67.1387c11.556 -21.6471 28.1576 -38.2487 49.8047 -49.8047s43.8639 -17.334 66.6504 -17.334c23.763 0 46.3867 5.77799 67.8711 17.334s38.0046 28.1576 49.5605 49.8047
c11.556 21.6471 17.334 44.0267 17.334 67.1387c0 23.4375 -5.77799 45.8984 -17.334 67.3828c-11.556 21.4844 -28.0762 38.0046 -49.5605 49.5605s-44.1081 17.334 -67.8711 17.334c-22.7865 0 -45.0033 -5.77799 -66.6504 -17.334zM235.352 462.598l-51.7578 52.2461
l34.1797 34.1797l52.2461 -51.7578zM563.477 134.961l-52.2461 51.7578l34.668 34.668l51.7578 -52.2461zM270.02 186.719l-52.2461 -51.7578l-34.1797 34.1797l51.7578 52.2461zM597.656 514.844l-51.7578 -52.2461l-34.668 34.668l52.2461 51.7578z" />
  </g>

</svg>
