<?xml version="1.0" standalone="no"?>
<!DOCTYPE svg PUBLIC "-//W3C//DTD SVG 1.1//EN" "http://www.w3.org/Graphics/SVG/1.1/DTD/svg11.dtd" >
<svg xmlns="http://www.w3.org/2000/svg" xmlns:xlink="http://www.w3.org/1999/xlink" version="1.1" viewBox="0 -200 1000 1000">
  <g transform="matrix(1 0 0 -1 0 800)">
   <path fill="currentColor"
d="M818.848 442.578c-9.76562 18.2292 -24.9023 41.6667 -45.4102 70.3125c5.20833 5.20833 10.7422 9.92839 16.6016 14.1602c15.9505 -36.4583 25.5534 -64.6159 28.8086 -84.4727zM958.984 300c0 -8.46354 -3.82487 -15.5436 -11.4746 -21.2402
s-15.7064 -8.54492 -24.1699 -8.54492c-10.4167 0 -26.0417 1.79036 -46.875 5.37109s-36.4583 5.37109 -46.875 5.37109c-3.25521 0 -6.83594 -0.488281 -10.7422 -1.46484c-4.55729 -72.2656 -30.9245 -135.905 -79.1016 -190.918
c1.6276 -2.60417 3.90625 -5.37109 6.83594 -8.30078c17.2526 -12.0443 41.8294 -31.5755 73.7305 -58.5938c7.8125 -7.8125 11.7188 -17.0898 11.7188 -27.832c0 -7.48698 -2.44141 -13.6719 -7.32422 -18.5547s-11.0677 -7.32422 -18.5547 -7.32422
c-10.7422 0 -20.0195 3.90625 -27.832 11.7188c-12.0443 17.2526 -31.5755 41.8294 -58.5938 73.7305c-2.92969 2.92969 -5.69661 5.20833 -8.30078 6.83594c-55.013 -48.5026 -118.652 -75.0326 -190.918 -79.5898c-0.976562 -4.23177 -1.46484 -7.64974 -1.46484 -10.2539
c0 -10.4167 1.79036 -26.0417 5.37109 -46.875s5.37109 -36.4583 5.37109 -46.875c0 -8.46354 -2.84831 -16.5202 -8.54492 -24.1699s-12.7767 -11.4746 -21.2402 -11.4746s-15.5436 3.82487 -21.2402 11.4746s-8.54492 15.7064 -8.54492 24.1699
c0 10.4167 1.79036 26.0417 5.37109 46.875s5.37109 36.4583 5.37109 46.875c0 2.60417 -0.488281 6.02214 -1.46484 10.2539c-72.2656 4.55729 -135.905 31.0872 -190.918 79.5898c-2.60417 -1.6276 -5.37109 -3.90625 -8.30078 -6.83594
c-7.48698 -7.48698 -17.2526 -19.7754 -29.2969 -36.8652c-12.0443 -17.0898 -21.8913 -29.4596 -29.541 -37.1094s-16.8457 -11.4746 -27.5879 -11.4746c-7.48698 0 -13.6719 2.44141 -18.5547 7.32422s-7.32422 11.0677 -7.32422 18.5547
c0 10.7422 3.82487 19.9382 11.4746 27.5879s20.0195 17.4967 37.1094 29.541s29.3783 21.8099 36.8652 29.2969c2.92969 2.92969 5.20833 5.69661 6.83594 8.30078c-48.1771 55.013 -74.5443 118.652 -79.1016 190.918
c-3.90625 0.976562 -7.48698 1.46484 -10.7422 1.46484c-10.4167 0 -26.0417 -1.79036 -46.875 -5.37109c-20.8333 -3.58073 -36.4583 -5.37109 -46.875 -5.37109c-8.46354 0 -16.5202 2.84831 -24.1699 8.54492s-11.4746 12.7767 -11.4746 21.2402
s3.82487 15.5436 11.4746 21.2402s15.7064 8.54492 24.1699 8.54492c10.4167 0 26.0417 -1.79036 46.875 -5.37109c20.8333 -3.58073 36.4583 -5.37109 46.875 -5.37109c3.25521 0 6.83594 0.488281 10.7422 1.46484c4.55729 72.2656 30.9245 135.905 79.1016 190.918
c-1.6276 2.60417 -3.90625 5.37109 -6.83594 8.30078c-17.2526 12.0443 -41.8294 31.5755 -73.7305 58.5938c-7.8125 7.8125 -11.7188 17.0898 -11.7188 27.832c0 7.48698 2.44141 13.6719 7.32422 18.5547s11.0677 7.32422 18.5547 7.32422
c10.7422 0 20.0195 -3.90625 27.832 -11.7188c12.0443 -17.2526 31.5755 -41.8294 58.5938 -73.7305c2.92969 -2.92969 5.69661 -5.20833 8.30078 -6.83594c55.013 48.5026 118.652 75.0326 190.918 79.5898c0.976562 4.23177 1.46484 7.64974 1.46484 10.2539
c0 10.4167 -1.79036 26.0417 -5.37109 46.875s-5.37109 36.4583 -5.37109 46.875c0 8.46354 2.84831 16.5202 8.54492 24.1699s12.7767 11.4746 21.2402 11.4746s15.5436 -3.82487 21.2402 -11.4746s8.54492 -15.7064 8.54492 -24.1699
c0 -10.4167 -1.79036 -26.0417 -5.37109 -46.875s-5.37109 -36.4583 -5.37109 -46.875c0 -2.60417 0.488281 -6.02214 1.46484 -10.2539c72.2656 -4.55729 135.905 -31.0872 190.918 -79.5898c2.60417 1.6276 5.37109 3.90625 8.30078 6.83594
c7.48698 7.48698 17.2526 19.7754 29.2969 36.8652s21.8913 29.4596 29.541 37.1094s16.8457 11.4746 27.5879 11.4746c7.48698 0 13.6719 -2.44141 18.5547 -7.32422s7.32422 -11.0677 7.32422 -18.5547c0 -10.7422 -3.82487 -19.9382 -11.4746 -27.5879
s-20.0195 -17.4967 -37.1094 -29.541s-29.3783 -21.8099 -36.8652 -29.2969c-2.92969 -2.92969 -5.20833 -5.69661 -6.83594 -8.30078c48.1771 -55.013 74.5443 -118.652 79.1016 -190.918c3.90625 -0.976562 7.48698 -1.46484 10.7422 -1.46484
c10.4167 0 26.0417 1.79036 46.875 5.37109s36.4583 5.37109 46.875 5.37109c8.46354 0 16.5202 -2.84831 24.1699 -8.54492s11.4746 -12.7767 11.4746 -21.2402zM729.004 15.8203c-23.763 -11.7188 -54.0365 -22.6237 -90.8203 -32.7148
c24.7396 14.3229 49.6419 29.9479 74.707 46.875c5.53385 -3.90625 10.9049 -8.6263 16.1133 -14.1602zM180.664 411.328c-12.6953 -23.112 -18.2292 -48.0143 -16.6016 -74.707c-8.13802 2.27865 -16.6016 3.41797 -25.3906 3.41797
c7.48698 34.1797 21.4844 57.9427 41.9922 71.289zM233.887 89.5508l-12.207 -13.6719c-5.85938 5.53385 -12.2884 15.5436 -19.2871 30.0293s-10.498 25.472 -10.498 32.959v10.7422c6.51042 -11.3932 20.5078 -31.4128 41.9921 -60.0586zM746.094 300
c0 68.0339 -24.0072 126.139 -72.0215 174.316c-48.0143 48.1771 -106.038 72.2656 -174.072 72.2656c-68.0339 0 -126.058 -24.0885 -174.072 -72.2656c-48.0143 -48.1771 -72.0215 -106.283 -72.0215 -174.316s24.0072 -126.139 72.0215 -174.316
s106.038 -72.2656 174.072 -72.2656c68.0339 0 126.058 24.0885 174.072 72.2656c48.014 48.1771 72.0215 106.283 72.0215 174.316zM685.059 447.461l-23.4375 -22.9492l-8.78906 8.30078c-2.60417 -0.976562 -5.37109 -2.92969 -8.30078 -5.85938
c-4.88281 -4.88281 -11.2305 -13.3464 -19.043 -25.3906s-14.1602 -20.5078 -19.043 -25.3906c-15.9505 -15.9505 -29.4596 -23.9258 -40.5273 -23.9258c-9.11458 0 -13.6719 4.55729 -13.6719 13.6719c0 11.0677 7.97526 24.5768 23.9258 40.5273
c4.88281 4.88281 13.3464 11.2305 25.3906 19.043s20.5078 14.1602 25.3906 19.043c2.92969 2.92969 4.88281 5.69661 5.85938 8.30078l-8.30078 8.78906l23.4375 23.4375c13.3464 -10.7422 25.7161 -23.2747 37.1094 -37.5977zM526.367 502.148h-12.207
c-1.30208 -2.60417 -1.95312 -6.02214 -1.95312 -10.2539c0 -7.16146 1.54622 -17.5781 4.63867 -31.25s4.63867 -24.0885 4.63867 -31.25c0 -33.5286 -7.16146 -50.293 -21.4844 -50.293c-14.3229 0 -21.4844 16.7643 -21.4844 50.293
c0 7.16146 1.54622 17.5781 4.63867 31.25s4.63867 24.0885 4.63867 31.25c0 4.23177 -0.651042 7.64974 -1.95312 10.2539h-12.207v33.2031c8.78906 0.976562 17.5781 1.46484 26.3672 1.46484s17.5781 -0.488281 26.3672 -1.46484zM736.328 300
c0 -8.78906 -0.488281 -17.5781 -1.46484 -26.3672h-32.7148v12.207c-2.60417 1.30208 -6.02214 1.95312 -10.2539 1.95312c-7.16146 0 -17.5781 -1.54622 -31.25 -4.63867s-24.0885 -4.63867 -31.25 -4.63867c-33.5286 0 -50.293 7.16146 -50.293 21.4844
s16.7643 21.4844 50.293 21.4844c7.16146 0 17.5781 -1.54622 31.25 -4.63867s24.0885 -4.63867 31.25 -4.63867c4.23177 0 7.64974 0.651042 10.2539 1.95312v12.207h32.7148c0.976562 -8.78906 1.46484 -17.5781 1.46484 -26.3672zM444.824 528.516
c-6.1849 -4.55729 -25.7161 -21.8099 -58.5938 -51.7578c-5.85938 3.25521 -12.207 8.46354 -19.043 15.625c27.9948 22.1354 53.8737 34.1797 77.6368 36.1328zM575.195 300c0 -21.1589 -7.32422 -39.0625 -21.9727 -53.7109s-32.3893 -21.9727 -53.2227 -21.9727
c-20.8333 0 -38.5742 7.32422 -53.2227 21.9727c-14.6485 14.6485 -21.9727 32.5521 -21.9727 53.7109s7.32422 39.0625 21.9727 53.7109s32.3893 21.9727 53.2227 21.9727c20.8333 0 38.5742 -7.32422 53.2227 -21.9727s21.9727 -32.5521 21.9727 -53.7109z
M685.059 152.539c-11.3932 -14.3229 -23.763 -26.8555 -37.1094 -37.5977l-23.4375 23.4375l8.30078 8.78906c-0.976562 2.60417 -2.92969 5.37109 -5.85938 8.30078c-4.88281 4.88281 -13.3464 11.2305 -25.3906 19.043s-20.5078 14.1602 -25.3906 19.043
c-15.9505 15.9505 -23.9258 29.4596 -23.9258 40.5273c0 9.11458 4.55729 13.6719 13.6719 13.6719c11.0677 0 24.5768 -7.97526 40.5273 -23.9258c4.88281 -4.88281 11.2305 -13.3464 19.043 -25.3906s14.1602 -20.5078 19.043 -25.3906
c2.92969 -2.92969 5.69661 -4.88281 8.30078 -5.85938l8.78906 8.30078zM434.082 352.246c-11.0677 0 -24.5768 7.97526 -40.5273 23.9258c-4.88281 4.88281 -11.2305 13.3464 -19.043 25.3906s-14.1602 20.5078 -19.043 25.3906
c-2.92969 2.92969 -5.69661 4.88281 -8.30078 5.85938l-8.78906 -8.30078l-23.4375 22.9492c11.3932 14.3229 23.763 26.8555 37.1094 37.5977l23.4375 -23.4375l-8.30078 -8.78906c0.976562 -2.60417 2.92969 -5.37109 5.85938 -8.30078
c4.88281 -4.88281 13.3464 -11.2305 25.3906 -19.043s20.5078 -14.1602 25.3906 -19.043c15.9505 -15.9505 23.9258 -29.4596 23.9258 -40.5273c0 -9.11458 -4.55729 -13.6719 -13.6719 -13.6719zM640.625 109.57c-26.0417 -17.2526 -49.1536 -28.8086 -69.3359 -34.668
c12.0443 9.76562 28.4831 26.0417 49.3164 48.8281c6.51042 -2.60417 13.1836 -7.32422 20.0195 -14.1601zM420.898 300c0 -14.3229 -16.7643 -21.4844 -50.293 -21.4844c-7.16146 0 -17.5781 1.54622 -31.25 4.63867s-24.0885 4.63867 -31.25 4.63867
c-4.23177 0 -7.64974 -0.651042 -10.2539 -1.95312v-12.207h-32.7148c-0.976562 8.78906 -1.46484 17.5781 -1.46484 26.3672s0.488281 17.5781 1.46484 26.3672h32.7148v-12.207c2.60417 -1.30208 6.02214 -1.95312 10.2539 -1.95312
c7.16146 0 17.5781 1.54622 31.25 4.63867s24.0885 4.63867 31.25 4.63867c33.5286 0 50.293 -7.16146 50.293 -21.4844zM526.367 64.6484c-8.78906 -0.976562 -17.5781 -1.46484 -26.3672 -1.46484s-17.5781 0.488281 -26.3672 1.46484v33.2031h12.207
c1.30208 2.60417 1.95312 6.02214 1.95312 10.2539c0 7.16146 -1.54622 17.5781 -4.63867 31.25s-4.63867 24.0885 -4.63867 31.25c0 33.5286 7.16146 50.293 21.4844 50.293c14.3229 0 21.4844 -16.7643 21.4844 -50.293c0 -7.16146 -1.54622 -17.5781 -4.63867 -31.25
s-4.63867 -24.0885 -4.63867 -31.25c0 -4.23177 0.651042 -7.64974 1.95312 -10.2539h12.207zM447.754 234.082c0 -11.0677 -7.97526 -24.5768 -23.9258 -40.5273c-4.88281 -4.88281 -13.3464 -11.2305 -25.3906 -19.043s-20.5078 -14.1602 -25.3906 -19.043
c-2.92969 -2.92969 -4.88281 -5.69661 -5.85938 -8.30078l8.30078 -8.78906l-23.4375 -23.4375c-13.3464 10.7422 -25.7161 23.2747 -37.1094 37.5977l23.4375 22.9492l8.78906 -8.30078c2.60417 0.976562 5.37109 2.92969 8.30078 5.85938
c4.88281 4.88281 11.2305 13.3464 19.043 25.3906s14.1602 20.5078 19.043 25.3906c15.9505 15.9505 29.4596 23.9258 40.5273 23.9258c9.11458 0 13.6719 -4.55729 13.6719 -13.6719zM545.898 300c0 13.0208 -4.47591 24.0072 -13.4277 32.959
s-19.7754 13.4277 -32.4707 13.4277s-23.5189 -4.47591 -32.4707 -13.4277s-13.4277 -19.9382 -13.4277 -32.959s4.47591 -24.0072 13.4277 -32.959s19.7754 -13.4277 32.4707 -13.4277s23.5189 4.47591 32.4707 13.4277s13.4277 19.9382 13.4277 32.959zM521.484 300
c0 -14.6484 -7.16146 -21.9727 -21.4844 -21.9727c-14.3229 0 -21.4844 7.32422 -21.4844 21.9727s7.16146 21.9727 21.4844 21.9727c14.3229 0 21.4844 -7.32422 21.4844 -21.9727z" />
  </g>

</svg>
