<?xml version="1.0" standalone="no"?>
<!DOCTYPE svg PUBLIC "-//W3C//DTD SVG 1.1//EN" "http://www.w3.org/Graphics/SVG/1.1/DTD/svg11.dtd" >
<svg xmlns="http://www.w3.org/2000/svg" xmlns:xlink="http://www.w3.org/1999/xlink" version="1.1" viewBox="0 -200 1000 1000">
  <g transform="matrix(1 0 0 -1 0 800)">
   <path fill="currentColor"
d="M741.211 300c0 -97.0052 -34.4238 -180.094 -103.271 -249.268s-151.774 -103.76 -248.779 -103.76s-180.094 34.5866 -249.268 103.76c-69.1732 69.1732 -103.76 152.262 -103.76 249.268c0 97.6562 34.4238 180.908 103.271 249.756
c68.8472 68.848 152.1 103.271 249.756 103.271c97.3307 0 180.339 -34.5052 249.023 -103.516c68.6849 -69.0104 103.027 -152.181 103.027 -249.512zM701.172 300c0 86.263 -30.5176 159.993 -91.5527 221.191c-61.0352 61.1979 -134.521 91.7969 -220.459 91.7969
c-86.5885 0 -160.4 -30.5176 -221.436 -91.5527s-91.5527 -134.847 -91.5527 -221.436c0 -85.9375 30.6803 -159.587 92.041 -220.947c61.3607 -61.3607 135.01 -92.041 220.947 -92.041s159.424 30.6803 220.459 92.041c61.0352 61.3607 91.5527 135.01 91.5527 220.947z
M699.219 302.93c0 -5.85938 -2.76693 -11.556 -8.30078 -17.0898l-287.598 -288.574c-3.90625 -3.90625 -8.6263 -5.85938 -14.1602 -5.85938s-10.2539 1.95312 -14.1602 5.85938l-288.574 288.574c-5.53385 5.53385 -8.30078 11.2305 -8.30078 17.0898
c0 11.3932 7.48698 17.0898 22.4609 17.0898h576.172c14.974 0 22.4609 -5.69661 22.4611 -17.0898zM628.418 279.98h-479.492l240.234 -240.234z" />
  </g>

</svg>
