<?xml version="1.0" standalone="no"?>
<!DOCTYPE svg PUBLIC "-//W3C//DTD SVG 1.1//EN" "http://www.w3.org/Graphics/SVG/1.1/DTD/svg11.dtd" >
<svg xmlns="http://www.w3.org/2000/svg" xmlns:xlink="http://www.w3.org/1999/xlink" version="1.1" viewBox="0 -200 1000 1000">
  <g transform="matrix(1 0 0 -1 0 800)">
   <path fill="currentColor"
d="M741.211 300.488c0 -97.6562 -34.4238 -180.908 -103.271 -249.756s-152.1 -103.271 -249.756 -103.271c-97.3307 0 -180.257 34.2611 -248.779 102.783c-68.5221 68.5221 -102.783 151.611 -102.783 249.268c0 72.2656 19.694 137.858 59.082 196.777
c6.51042 -18.2292 11.3932 -36.1328 14.6484 -53.7109c-22.4609 -44.2708 -33.6914 -91.9596 -33.6914 -143.066c0 -86.5885 30.2734 -160.238 90.8203 -220.947c60.5469 -60.7096 134.115 -91.0645 220.703 -91.0645s160.4 30.5176 221.436 91.5527
s91.5527 134.847 91.5527 221.436c0 86.263 -30.4362 159.831 -91.3086 220.703c-60.8724 60.8724 -134.44 91.3086 -220.703 91.3086c-51.1068 0 -98.7956 -11.3932 -143.066 -34.1797c-17.5781 3.25521 -35.4818 8.13802 -53.7109 14.6484
c58.9193 39.7135 124.512 59.5703 196.777 59.5703c97.3307 0 180.339 -34.3424 249.023 -103.027c68.6849 -68.6849 103.027 -151.693 103.027 -249.023zM610.84 99.3164c0 -14.3229 -7.16146 -21.4844 -21.4844 -21.4844c-4.55729 0 -8.46354 1.6276 -11.7188 4.88281
l-297.852 297.852l-88.3789 -87.8906c-5.53385 -5.53385 -11.3932 -8.30078 -17.5781 -8.30078c-11.0677 0 -16.6016 6.67318 -16.6016 20.0195c0 0.976562 0.16276 2.92969 0.488281 5.85938c4.23177 36.7839 6.34766 64.1276 6.34766 82.0312
c0 39.388 -8.95182 83.6589 -26.8555 132.812c-1.6276 4.55729 -2.44141 8.6263 -2.44141 12.207c0 11.0677 5.53385 16.6016 16.6016 16.6016c3.58073 0 7.64974 -0.813802 12.207 -2.44141c49.1536 -17.9036 93.4245 -26.8555 132.812 -26.8555
c17.9036 0 45.2474 2.11589 82.0312 6.34766c2.92969 0.325521 4.88281 0.488281 5.85938 0.488281c13.3464 0 20.0195 -5.53385 20.0195 -16.6016c0 -6.1849 -2.76693 -12.0443 -8.30078 -17.5781l-87.8906 -88.3789l297.852 -297.852
c3.25521 -3.25521 4.88281 -7.16146 4.88281 -11.7188zM326.66 484.57c-8.46354 -0.651042 -17.0898 -0.976562 -25.8789 -0.976562c-37.1094 0 -74.5443 5.53385 -112.305 16.6016c13.9974 -47.526 19.2057 -93.5872 15.625 -138.184z" />
  </g>

</svg>
