<?xml version="1.0" standalone="no"?>
<!DOCTYPE svg PUBLIC "-//W3C//DTD SVG 1.1//EN" "http://www.w3.org/Graphics/SVG/1.1/DTD/svg11.dtd" >
<svg xmlns="http://www.w3.org/2000/svg" xmlns:xlink="http://www.w3.org/1999/xlink" version="1.1" viewBox="0 -200 1000 1000">
  <g transform="matrix(1 0 0 -1 0 800)">
   <path fill="currentColor"
d="M665.039 515.332c0 -14.974 -11.8815 -22.4609 -35.6445 -22.4609h-156.25c-23.763 0 -35.6445 7.48698 -35.6445 22.4609c0 14.974 11.8815 22.4609 35.6445 22.4609h156.25c23.763 0 35.6445 -7.48698 35.6445 -22.4609zM665.039 38.2812
c0 -14.974 -11.8815 -22.4609 -35.6445 -22.4609h-170.898c-16.276 0 -27.3438 10.2539 -33.2031 30.7617l-126.953 446.289h-132.812c-23.763 0 -35.6445 7.48698 -35.6445 22.4609c0 14.974 11.8815 22.4609 35.6445 22.4609h162.598
c15.9505 0 26.8555 -10.2539 32.7148 -30.7617l127.441 -446.289h141.113c23.763 0 35.6445 -7.48698 35.6445 -22.4609z" />
  </g>

</svg>
