<?xml version="1.0" standalone="no"?>
<!DOCTYPE svg PUBLIC "-//W3C//DTD SVG 1.1//EN" "http://www.w3.org/Graphics/SVG/1.1/DTD/svg11.dtd" >
<svg xmlns="http://www.w3.org/2000/svg" xmlns:xlink="http://www.w3.org/1999/xlink" version="1.1" viewBox="0 -200 1000 1000">
  <g transform="matrix(1 0 0 -1 0 800)">
   <path fill="currentColor"
d="M678.711 -142.383h-599.609v54.6875h66.8945c0.976562 180.664 42.3177 310.547 124.023 389.648c-80.7292 73.8932 -122.07 205.241 -124.023 394.043h-66.8945v54.6875h599.609v-54.6875h-66.8945c-1.95312 -188.802 -43.2943 -320.15 -124.023 -394.043
c81.7057 -79.1016 123.047 -208.984 124.023 -389.648h66.8945v-54.6875zM557.129 -87.6953c-1.30208 156.25 -31.5755 267.253 -90.8203 333.008c-10.0911 9.11458 -20.0195 18.2292 -29.7852 27.3438c-14.3229 13.3464 -21.4844 23.2747 -21.4844 29.7852
c0 6.83594 7.32422 17.0898 21.9727 30.7617c10.7422 9.4401 21.3216 18.8802 31.7383 28.3203c56.9661 65.4297 86.4258 176.921 88.3789 334.473h-356.445c1.95312 -157.552 31.4128 -269.043 88.3789 -334.473c10.4167 -9.4401 20.9961 -18.8802 31.7383 -28.3203
c14.6484 -13.6719 21.9727 -23.9258 21.9727 -30.7617c0 -6.51042 -7.16146 -16.4388 -21.4844 -29.7852c-9.76562 -9.11458 -19.694 -18.2292 -29.7852 -27.3438c-59.2448 -65.7552 -89.5182 -176.758 -90.8203 -333.008zM504.883 474.316
c-3.25521 -9.4401 -6.1849 -17.5781 -8.78906 -24.4141h-234.863c-3.25521 8.13802 -6.1849 16.276 -8.78906 24.4141h252.441zM484.863 425.488c-4.88281 -10.0911 -9.4401 -18.2292 -13.6719 -24.4141h-185.059c-3.90625 6.1849 -8.46354 14.3229 -13.6719 24.4141
h212.402h0.0008zM452.637 376.66c-4.23177 -4.88281 -13.0208 -13.0208 -26.3672 -24.4141h-93.75c-6.1849 5.20833 -15.2995 13.3464 -27.3438 24.4141h147.461zM391.113 125.195h-24.4141v190.43h24.4141v-190.43zM524.414 44.6289h-291.016
c1.30208 8.46354 2.76693 16.6016 4.39453 24.4141h282.227c1.6276 -7.48698 3.09245 -15.625 4.39447 -24.4141zM530.762 -4.19922h-303.711c0.325521 4.55729 1.30208 12.6953 2.92969 24.4141h297.852c0.651042 -5.53385 1.6276 -13.6719 2.92931 -24.4141z
M534.18 -53.0273h-310.547c0.325521 6.1849 0.813802 14.3229 1.46484 24.4141h307.617c0.651042 -9.76562 1.13932 -17.9036 1.46516 -24.4141z" />
  </g>

</svg>
