<?xml version="1.0" standalone="no"?>
<!DOCTYPE svg PUBLIC "-//W3C//DTD SVG 1.1//EN" "http://www.w3.org/Graphics/SVG/1.1/DTD/svg11.dtd" >
<svg xmlns="http://www.w3.org/2000/svg" xmlns:xlink="http://www.w3.org/1999/xlink" version="1.1" viewBox="0 -200 1000 1000">
  <g transform="matrix(1 0 0 -1 0 800)">
   <path fill="currentColor"
d="M410.645 859.082c32.2266 0 64.7786 -11.556 97.6562 -34.668c26.0417 -18.5547 50.944 -43.7826 74.707 -75.6836c21.4844 -29.6224 41.0156 -62.1745 58.5938 -97.6562c22.7865 -47.8516 42.806 -100.26 60.0586 -157.227l15.625 -56.6406h0.488281
c30.2734 35.1562 45.4102 66.0807 45.4102 92.7734v3.41797c0 38.4115 -32.5521 71.2891 -97.6562 98.6328c-13.9974 6.83594 -20.9961 11.8815 -20.9961 15.1367c0 1.30208 1.79036 1.95312 5.37109 1.95312h0.488281c19.8568 0 53.8737 -9.27734 102.051 -27.832
c82.3568 -36.7839 123.535 -77.474 123.535 -122.07c0 -22.1354 -7.64974 -45.2474 -22.9492 -69.3359c-4.55729 -8.13802 -14.974 -20.3451 -31.25 -36.6211c-23.112 -20.5078 -41.1784 -34.1797 -54.1992 -41.0156c-2.60417 -2.27865 -12.207 -7.97526 -28.8086 -17.0898
v-0.488281c12.3698 -78.125 18.5547 -131.999 18.5547 -161.621c0 -12.0443 -3.09245 -18.0664 -9.27734 -18.0664h-1.46484c-6.1849 0 -10.4167 3.25521 -12.6953 9.76562c-2.27865 12.0443 -4.55729 22.1354 -6.83594 30.2734
c-13.0208 41.6667 -26.6927 79.7526 -41.0156 114.258h-0.488281c-39.388 -18.5547 -96.8424 -37.9232 -172.363 -58.1055c-45.8984 -12.0443 -96.5169 -22.7865 -151.855 -32.2266c-83.0078 -11.0677 -140.951 -16.6016 -173.828 -16.6016
c-14.6484 0 -24.2513 1.30208 -28.8086 3.90625c-10.7422 -34.1797 -32.0638 -51.2695 -63.9648 -51.2695h-2.44141c-15.625 0 -27.6693 6.9987 -36.1328 20.9961c-4.88281 9.4401 -7.32422 19.2057 -7.32422 29.2969c0 14.974 4.39453 56.8034 13.1836 125.488
c12.0443 75.1953 25.7161 137.695 41.0156 187.5c15.9505 52.4089 34.1797 99.2839 54.6875 140.625c13.6719 27.3438 30.9245 55.5013 51.7578 84.4727c59.8958 77.1484 126.953 115.723 201.172 115.723zM50.7812 204.785c0 -15.625 5.37109 -28.6458 16.1133 -39.0625
c7.48698 -6.1849 16.1133 -9.27734 25.8789 -9.27734h1.46484c31.5755 0 52.7344 17.4154 63.4766 52.2461c22.1354 67.3828 43.7826 125.651 64.9414 174.805c16.276 37.7604 36.1328 72.9167 59.5703 105.469c42.6432 56.6406 92.9362 84.9609 150.879 84.9609
c76.4974 0 147.135 -58.2682 211.914 -174.805c27.3438 -48.8281 52.7344 -108.887 76.1719 -180.176c8.46354 -25.7161 12.6953 -41.3411 12.6953 -46.875c1.6276 -10.4167 6.02214 -15.625 13.1836 -15.625h0.488281c5.20833 0 7.8125 5.85938 7.8125 17.5781
c0 29.2969 -6.51042 85.4492 -19.5312 168.457c-14.3229 75.1953 -30.7617 139.811 -49.3164 193.848c-24.4141 69.3359 -50.1302 125.977 -77.1484 169.922c-12.6953 20.5078 -27.0182 40.5273 -42.9688 60.0586c-50.7812 60.8724 -102.865 91.3086 -156.25 91.3086
c-63.8021 0 -122.721 -29.6224 -176.758 -88.8672c-22.1354 -25.7161 -37.5977 -46.7122 -46.3867 -62.9883c-19.8568 -30.2734 -38.737 -68.3594 -56.6406 -114.258c-17.5781 -42.9688 -34.1797 -99.1211 -49.8047 -168.457
c-9.11458 -42.3177 -16.9271 -90.8203 -23.4375 -145.508c-2.27865 -18.2292 -4.39453 -42.4805 -6.34762 -72.754zM411.133 828.32h0.488281c41.6667 0 83.3333 -23.6003 125 -70.8008c20.5078 -23.763 37.4349 -47.3633 50.7812 -70.8008
c27.6693 -43.9453 56.6406 -113.118 86.9141 -207.52c22.1354 -73.2422 33.2031 -122.396 33.2031 -147.461l-0.488281 -0.488281h-0.488281c-2.27865 0 -10.5794 16.7643 -24.9023 50.293c-11.7188 26.3672 -22.9492 49.1536 -33.6914 68.3594
c-65.1042 102.214 -136.882 153.32 -215.332 153.32c-84.9609 0 -156.413 -54.1992 -214.355 -162.598c-28.6458 -55.3385 -58.5938 -131.673 -89.8438 -229.004c-3.25521 -7.8125 -7.32422 -14.6484 -12.207 -20.5078
c-4.23177 -3.58073 -11.2305 -5.37109 -20.9961 -5.37109h-4.39453c-3.90625 0 -6.34766 1.30208 -7.32422 3.90625c-2.60417 4.88281 -3.90625 10.2539 -3.90625 16.1133c0 15.625 4.39453 56.9661 13.1836 124.023c12.0443 73.8932 25.5534 135.091 40.5273 183.594
c14.974 48.1771 31.901 91.4714 50.7812 129.883c12.6953 26.0417 29.7852 53.8737 51.2695 83.4961c52.7344 67.7083 111.328 101.562 175.781 101.562zM161.133 211.621c9.4401 2.27865 45.7357 9.92839 108.887 22.9492c119.466 27.6693 211.589 56.8034 276.367 87.4023
c30.9245 13.3464 62.1745 30.1107 93.75 50.293l12.6953 8.78906c-67.0573 127.604 -140.299 191.406 -219.727 191.406c-73.5677 0 -135.091 -47.0378 -184.57 -141.113c-27.9948 -51.7578 -57.1289 -125 -87.4023 -219.727z" />
  </g>

</svg>
