<?xml version="1.0" standalone="no"?>
<!DOCTYPE svg PUBLIC "-//W3C//DTD SVG 1.1//EN" "http://www.w3.org/Graphics/SVG/1.1/DTD/svg11.dtd" >
<svg xmlns="http://www.w3.org/2000/svg" xmlns:xlink="http://www.w3.org/1999/xlink" version="1.1" viewBox="0 -200 1000 1000">
  <g transform="matrix(1 0 0 -1 0 800)">
   <path fill="currentColor"
d="M702.637 49.0234c0 -19.5312 -5.53385 -30.2734 -16.6016 -32.2266c-3.58073 -0.651042 -9.11458 -0.976562 -16.6016 -0.976562h-573.73c-20.1823 0 -30.2734 6.67318 -30.2734 20.0195s11.0677 20.0195 33.2031 20.0195h563.965v612.793
c0 22.1354 6.67318 33.2031 20.0195 33.2031s20.0195 -10.0911 20.0195 -30.2734v-622.559zM582.52 147.656c0 -7.8125 -3.74349 -11.7188 -11.2305 -11.7188l-33.6914 20.0195c-41.0156 24.4141 -86.9141 36.6211 -137.695 36.6211
c-43.6198 0 -84.1471 -9.11458 -121.582 -27.3438c-23.4375 -11.3932 -34.668 -17.0898 -33.6914 -17.0898c-3.25521 0 -8.13802 3.25521 -14.6484 9.76562s-9.76562 11.3932 -9.76562 14.6484c0 3.90625 2.11589 6.9987 6.34766 9.27734
c61.849 32.8776 118.001 49.3164 168.457 49.3164c23.763 0 48.1771 -3.09245 73.2422 -9.27734l-395.02 395.02c-2.92969 2.92969 -4.39453 6.83594 -4.39453 11.7188c0 13.9974 6.9987 20.9961 20.9961 20.9961c4.88281 0 8.78906 -1.46484 11.7188 -4.39453
l395.02 -395.02c-5.85938 23.763 -8.78906 48.0143 -8.78906 72.7539c0 51.4323 16.276 107.747 48.8281 168.945c1.95312 3.90625 5.37109 5.85938 10.2539 5.85938c3.25521 0 7.97526 -3.33659 14.1602 -10.0098s9.27734 -11.6374 9.27734 -14.8926
c0 1.6276 -5.69661 -9.27734 -17.0898 -32.7148c-18.2292 -37.7604 -27.3438 -77.9622 -27.3438 -120.605c0 -50.7812 12.3698 -97.168 37.1094 -139.16c13.0208 -22.1354 19.5312 -33.0404 19.5312 -32.7148z" />
  </g>

</svg>
