<?xml version="1.0" standalone="no"?>
<!DOCTYPE svg PUBLIC "-//W3C//DTD SVG 1.1//EN" "http://www.w3.org/Graphics/SVG/1.1/DTD/svg11.dtd" >
<svg xmlns="http://www.w3.org/2000/svg" xmlns:xlink="http://www.w3.org/1999/xlink" version="1.1" viewBox="0 -200 1000 1000">
  <g transform="matrix(1 0 0 -1 0 800)">
   <path fill="currentColor"
d="M825.195 0.195312h-5.37109c-114.258 0 -200.358 50.293 -258.301 150.879c-46.5495 81.7057 -69.8242 184.245 -69.8242 307.617v208.008h49.8047v-80.0781c0 -139.323 13.9974 -245.605 41.9922 -318.848c43.2943 -113.281 123.861 -169.108 241.699 -167.48v-100.098z
M475.098 0.195312h-83.4961v666.504h83.4961v-666.504zM375 458.691c0 -123.698 -24.0885 -226.888 -72.2656 -309.57c-59.5703 -100.26 -146.647 -149.902 -261.23 -148.926v100.098c113.281 -1.6276 192.708 48.8281 238.281 151.367
c31.901 71.6146 47.8516 172.038 47.8516 301.27c0 17.5781 -0.244141 35.8073 -0.732422 54.6875s-1.05794 38.5742 -1.70898 59.082h49.8047v-208.008z" />
  </g>

</svg>
