<?xml version="1.0" standalone="no"?>
<!DOCTYPE svg PUBLIC "-//W3C//DTD SVG 1.1//EN" "http://www.w3.org/Graphics/SVG/1.1/DTD/svg11.dtd" >
<svg xmlns="http://www.w3.org/2000/svg" xmlns:xlink="http://www.w3.org/1999/xlink" version="1.1" viewBox="0 -200 1000 1000">
  <g transform="matrix(1 0 0 -1 0 800)">
   <path fill="currentColor"
d="M749.512 366.406c0 -3.58073 -4.39453 -7.8125 -13.1836 -12.6953c-50.1302 -28.3203 -87.5651 -66.7318 -112.305 -115.234c-2.60417 -6.1849 -6.67318 -15.625 -12.207 -28.3203c-3.90625 -8.46354 -9.76562 -12.6953 -17.5781 -12.6953
c-13.6719 0 -20.5078 6.34766 -20.5078 19.043c0 2.27865 0.488281 4.72005 1.46484 7.32422c16.9271 46.875 45.8984 87.7279 86.9141 122.559h-170.41c-30.599 0 -54.1992 -28.6458 -70.8008 -85.9375c-14.6484 -52.7344 -29.4596 -105.632 -44.4336 -158.691
c-24.4141 -57.2917 -61.3607 -85.9375 -110.84 -85.9375h-162.598c-13.3464 0 -20.0195 6.67318 -20.0195 20.0195s6.67318 20.0195 20.0195 20.0195h162.598c37.1094 0 64.9414 28.6458 83.4961 85.9375c14.3229 52.7344 28.6458 105.632 42.9688 158.691
c21.8099 57.2917 55.013 85.9375 99.6094 85.9375h170.898c-41.3411 34.8307 -70.4753 76.0091 -87.4023 123.535c-0.976562 2.60417 -1.46484 5.04557 -1.46484 7.32422c0 12.6953 6.83594 19.043 20.5078 19.043c7.8125 0 13.6719 -4.23177 17.5781 -12.6953
c2.60417 -6.51042 6.67318 -16.1133 12.207 -28.8086c24.4141 -48.5026 61.849 -87.0768 112.305 -115.723c8.78906 -4.88281 13.1836 -9.11458 13.1839 -12.6956zM788.086 35.8398c0 -13.3464 -6.02214 -20.0195 -18.0664 -20.0195h-339.844
c-12.6953 0 -19.043 6.67318 -19.043 20.0195s6.34766 20.0195 19.043 20.0195h339.844c12.0443 0 18.0664 -6.67318 18.0664 -20.0195z" />
  </g>

</svg>
