<?xml version="1.0" standalone="no"?>
<!DOCTYPE svg PUBLIC "-//W3C//DTD SVG 1.1//EN" "http://www.w3.org/Graphics/SVG/1.1/DTD/svg11.dtd" >
<svg xmlns="http://www.w3.org/2000/svg" xmlns:xlink="http://www.w3.org/1999/xlink" version="1.1" viewBox="0 -200 1000 1000">
  <g transform="matrix(1 0 0 -1 0 800)">
   <path fill="currentColor"
d="M1000 299.994c0 -276.129 -223.862 -499.991 -500.006 -499.991s-499.994 223.858 -499.994 499.991c0 276.151 223.848 500.006 499.991 500.006c276.143 0 500.009 -223.854 500.009 -500.006zM160.005 366.747c-36.876 0 -66.7559 -29.8799 -66.7559 -66.7559
c0 -36.8613 29.8799 -66.7451 66.7559 -66.7451c36.8613 0 66.7451 29.8838 66.7451 66.7451c0.00195312 36.8789 -29.8799 66.7559 -66.7451 66.7559zM636.633 63.3516c-31.9297 -18.4316 -42.8594 -59.2412 -24.4336 -91.1572
c18.4355 -31.9287 59.2412 -42.8662 91.1719 -24.4336c31.9199 18.4297 42.8555 59.2393 24.4229 91.166c-18.4297 31.9141 -59.2412 42.8545 -91.1612 24.4248zM305.004 300.002c0 65.9736 32.7832 124.245 82.917 159.529l-48.8027 81.749
c-58.4199 -39.0322 -101.874 -98.7002 -119.927 -168.585c21.0859 -17.1875 34.5586 -43.3604 34.5586 -72.7002c0 -29.333 -13.4717 -55.5059 -34.5605 -72.6895c18.0479 -69.8916 61.5059 -129.561 119.926 -168.589l48.8066 81.7559
c-50.1348 35.2773 -82.918 93.5459 -82.918 159.529v0.0008zM500.002 494.999c101.872 0 185.435 -78.1074 194.193 -177.705l95.1367 1.38965c-4.68066 73.5332 -36.8008 139.564 -86.165 188.097c-25.3789 -9.58789 -54.6982 -8.13477 -80.0381 6.49902
c-25.3721 14.6475 -41.292 39.3555 -45.6533 66.1699c-24.667 6.82715 -50.627 10.5488 -77.4707 10.5488c-46.1641 0 -89.7783 -10.8379 -128.521 -30.0283l46.376 -83.1143c24.9668 11.6172 52.7871 18.1436 82.1416 18.1436zM500.002 105.001
c-29.3584 0 -57.1748 6.52637 -82.1436 18.1436l-46.3838 -83.1221c38.7451 -19.1836 82.3623 -30.0254 128.527 -30.0254c26.8428 0 52.8037 3.72168 77.4736 10.5479c4.35938 26.8145 20.2852 51.5225 45.6592 66.1816c25.3408 14.627 54.6602 16.0801 80.0391 6.4873
c49.3613 48.5352 81.4814 114.568 86.1553 188.102l-95.1367 1.38965c-8.75293 -99.6113 -92.3184 -177.704 -194.19 -177.704zM636.622 536.655c31.9268 -18.4404 72.7383 -7.5 91.165 24.416c18.4355 31.9287 7.50684 72.7383 -24.4229 91.1758
c-31.9229 18.4287 -72.7314 7.49316 -91.168 -24.4375c-18.4287 -31.916 -7.49316 -72.7295 24.4259 -91.1543z" />
  </g>

</svg>
