<?xml version="1.0" standalone="no"?>
<!DOCTYPE svg PUBLIC "-//W3C//DTD SVG 1.1//EN" "http://www.w3.org/Graphics/SVG/1.1/DTD/svg11.dtd" >
<svg xmlns="http://www.w3.org/2000/svg" xmlns:xlink="http://www.w3.org/1999/xlink" version="1.1" viewBox="0 -200 1000 1000">
  <g transform="matrix(1 0 0 -1 0 800)">
   <path fill="currentColor"
d="M501.465 610.059c0 -36.7839 -10.4167 -73.4049 -31.25 -109.863c-1.95312 -3.58073 -3.58073 -9.4401 -4.88281 -17.5781l-6.34766 -41.0156l-68.3594 -32.7148l-9.76562 -24.9023c-12.3698 -4.23177 -29.1341 -6.34766 -50.293 -6.34766
c-20.1823 0 -36.9466 2.11589 -50.293 6.34766l-9.76562 24.9023l-68.3594 32.7148l-6.34766 41.0156c-1.30208 8.78906 -8.30078 24.0885 -20.9961 45.8984c-10.0911 17.2526 -15.1367 44.4336 -15.1367 81.543c0 46.5495 17.2526 83.1706 51.7578 109.863
c31.5755 24.4141 71.2891 36.6211 119.141 36.6211s87.5651 -12.207 119.141 -36.6211c34.5052 -26.6927 51.7578 -63.3138 51.7578 -109.863zM422.852 397.656l-12.207 -48.3398l-29.7852 -25.8789c-10.4167 -20.1823 -27.5065 -30.2734 -51.2695 -30.2734
c-23.4375 0 -40.5273 10.0911 -51.2695 30.2734l-29.7852 25.8789l-12.207 48.3398l17.5781 4.39453c0.976562 -2.92969 2.44141 -6.67318 4.39453 -11.2305c7.48698 -17.5781 15.9505 -29.0527 25.3906 -34.4238s24.0885 -8.05664 43.9453 -8.05664
c22.1354 0 37.4349 2.11589 45.8984 6.34766c10.7422 5.53385 19.8568 17.5781 27.3438 36.1328c0.976562 1.95312 2.44141 5.69661 4.39453 11.2305zM576.172 55.3711c0 -14.974 -15.9505 -25.0651 -47.8516 -30.2734
c-14.974 -18.2292 -27.3438 -27.3438 -37.1094 -27.3438c-12.0443 0 -23.4375 15.2995 -34.1797 45.8984c-0.976562 2.60417 -2.76693 7.32422 -5.37109 14.1602c-45.5729 37.4349 -86.5885 65.7552 -123.047 84.9609c-44.5964 -25.0651 -85.9375 -55.013 -124.023 -89.8438
c-5.20833 -36.7839 -16.276 -55.1758 -33.2031 -55.1758c-10.7422 0 -23.112 10.4167 -37.1094 31.25c-33.2031 0 -49.8047 9.11458 -49.8047 27.3438c0 16.9271 12.6953 29.1341 38.0859 36.6211c6.51042 1.95312 26.0417 5.37109 58.5938 10.2539
c29.6224 21.8099 64.7786 43.6198 105.469 65.4297c-54.6875 27.3438 -99.2839 44.1081 -133.789 50.293c-16.276 -14.3229 -30.1107 -21.4844 -41.5039 -21.4844c-17.2526 0 -25.8789 6.9987 -25.8789 20.9961c0 6.1849 7.16146 18.7174 21.4844 37.5977
c-3.25521 13.3464 -4.88281 23.4375 -4.88281 30.2734c0 19.2057 7.64974 28.8086 22.9492 28.8086c14.974 0 39.2253 -19.694 72.7539 -59.082c37.4349 -13.3464 82.3568 -33.3659 134.766 -60.0586c19.5312 10.7422 56.6406 27.832 111.328 51.2695
c3.25521 1.30208 10.0911 4.23177 20.5078 8.78906c37.7604 38.4115 62.3372 57.6172 73.7305 57.6172c13.3464 0 20.0195 -8.6263 20.0195 -25.8789c0 -7.48698 -1.13932 -18.0664 -3.41797 -31.7383c13.9974 -17.5781 20.9961 -30.599 20.9961 -39.0625
c0 -14.6484 -7.8125 -21.9727 -23.4375 -21.9727c-6.83594 0 -22.9492 7.97526 -48.3398 23.9258c-29.9479 -5.53385 -72.9167 -22.2982 -128.906 -50.293l15.625 -9.27734c20.1823 -11.7188 44.2708 -26.5299 72.2656 -44.4336
c2.92969 -1.95312 11.0677 -6.83594 24.4141 -14.6484c59.2448 -6.83594 88.8672 -21.8099 88.8672 -44.9219zM445.312 533.887c0 27.6693 -13.3464 41.5039 -40.0391 41.5039c-27.9948 0 -41.9922 -14.974 -41.9922 -44.9219c0 -31.25 13.6719 -46.875 41.0156 -46.875
s41.0156 16.7643 41.0157 50.293zM360.84 445.02c0 2.92969 -4.23177 10.4167 -12.6953 22.4609c-11.0677 14.974 -16.7643 22.7865 -17.0898 23.4375c-5.53385 -7.8125 -11.2305 -15.7878 -17.0898 -23.9258c-8.46354 -11.7188 -12.6953 -19.2057 -12.6953 -22.4609
c0 -10.4167 6.02214 -15.625 18.0664 -15.625c3.58073 0 7.48698 1.30208 11.7188 3.90625c4.23177 -2.60417 8.13802 -3.90625 11.7188 -3.90625c12.0443 0 18.0664 5.37109 18.0662 16.1133zM300.293 533.887c0 27.6693 -13.1836 41.5039 -39.5508 41.5039
c-27.9948 0 -41.9922 -14.974 -41.9922 -44.9219c0 -31.25 13.5091 -46.875 40.5273 -46.875c27.3438 0 41.0156 16.7643 41.0157 50.293z" />
  </g>

</svg>
