<?xml version="1.0" standalone="no"?>
<!DOCTYPE svg PUBLIC "-//W3C//DTD SVG 1.1//EN" "http://www.w3.org/Graphics/SVG/1.1/DTD/svg11.dtd" >
<svg xmlns="http://www.w3.org/2000/svg" xmlns:xlink="http://www.w3.org/1999/xlink" version="1.1" viewBox="0 -200 1000 1000">
  <g transform="matrix(1 0 0 -1 0 800)">
   <path fill="currentColor"
d="M353.516 828.32h35.1562c78.125 0 151.693 -34.5052 220.703 -103.516c55.9896 -63.4766 83.9844 -135.091 83.9844 -214.844v-5.85938c0 -116.211 -54.6875 -209.31 -164.062 -279.297c-52.4089 -26.0417 -99.2839 -39.0625 -140.625 -39.0625h-271.484
c-29.9479 0 -51.4323 16.9271 -64.4531 50.7812c-2.60417 5.20833 -3.90625 12.3698 -3.90625 21.4844v244.141c0 124.023 55.3385 219.727 166.016 287.109c49.8047 26.0417 96.0286 39.0625 138.672 39.0625zM310.547 597.852v-72.2656h-72.2656
c-76.4974 0 -127.93 -39.7135 -154.297 -119.141l-3.90625 -35.1562c0 -67.3828 34.5052 -116.211 103.516 -146.484c16.276 -5.20833 29.9479 -7.8125 41.0156 -7.8125h21.4844c47.526 0 88.5417 25.3906 123.047 76.1719c14.3229 21.8099 21.4844 53.0599 21.4844 93.75
v60.5469h74.2188c76.1719 0 126.953 40.3646 152.344 121.094l3.90625 33.2031c0 64.4531 -33.2031 112.63 -99.6094 144.531c-18.8802 6.51042 -37.1094 9.76562 -54.6875 9.76562h-1.95312c-62.8255 0 -109.701 -30.599 -140.625 -91.7969
c-9.11458 -19.2057 -13.6719 -41.3411 -13.6719 -66.4062zM521.484 736.523h1.95312c59.8958 -32.5521 89.8438 -77.474 89.8438 -134.766c0 -58.2682 -29.9479 -103.19 -89.8438 -134.766c-20.1823 -7.8125 -37.7604 -11.7188 -52.7344 -11.7188
c10.4167 10.7422 15.625 21.1589 15.625 31.25c-3.25521 19.5312 -9.11458 29.2969 -17.5781 29.2969v1.95312c39.0625 0 65.7552 22.7865 80.0781 68.3594v19.5312c0 30.599 -15.625 54.0365 -46.875 70.3125l17.5781 9.76562
c7.8125 8.13802 11.7188 17.2526 11.7188 27.3438c0 7.16146 -3.25521 14.974 -9.76562 23.4375zM464.844 677.93c50.7812 -9.11458 76.1719 -33.8542 76.1719 -74.2188v-3.90625c0 -36.4583 -21.4844 -61.1979 -64.4531 -74.2188h-80.0781l-5.85938 5.85938v78.125
c0 23.4375 14.974 43.6198 44.9219 60.5469zM230.469 517.773c-10.4167 -10.4167 -15.625 -20.8333 -15.625 -31.25c0 -11.3932 5.20833 -21.8099 15.625 -31.25c-35.1562 0 -60.5469 -20.8333 -76.1719 -62.5l-1.95312 -15.625v-17.5781
c0 -25.7161 16.276 -47.2005 48.8281 -64.4531v-1.95312c-20.8333 -2.27865 -31.25 -12.6953 -31.25 -31.25v-5.85938l7.8125 -19.5312h-1.95312c-58.5938 31.901 -87.8906 77.474 -87.8906 136.719c0 55.013 29.2969 99.2839 87.8906 132.812
c24.7396 7.8125 42.9688 11.7188 54.6875 11.7189zM304.688 447.461l5.85938 -5.85938v-72.2656c0 -38.0859 -22.7865 -62.8255 -68.3594 -74.2188h-7.8125c-35.8073 0 -60.5469 20.8333 -74.2188 62.5v17.5781c0 34.5052 21.4844 58.5938 64.4531 72.2656zM601.562 263.867
h17.5781v-5.85938h-5.85938v-17.5781h-5.85938v17.5781h-5.85938zM621.094 263.867h5.85938l1.95312 -9.76562h3.90625l1.95312 9.76562h5.85938v-23.4375h-3.90625v7.8125h-1.95312l-1.95312 -7.8125h-3.90625v3.90625h-1.95312v-3.90625h-5.85938z" />
  </g>

</svg>
