<?xml version="1.0" standalone="no"?>
<!DOCTYPE svg PUBLIC "-//W3C//DTD SVG 1.1//EN" "http://www.w3.org/Graphics/SVG/1.1/DTD/svg11.dtd" >
<svg xmlns="http://www.w3.org/2000/svg" xmlns:xlink="http://www.w3.org/1999/xlink" version="1.1" viewBox="0 -200 1000 1000">
  <g transform="matrix(1 0 0 -1 0 800)">
   <path fill="currentColor"
d="M365.723 853.223h1.46484v-0.488281c-13.3464 -0.976562 -22.7865 -1.95312 -28.3203 -2.92969h-1.46484l-2.44141 0.488281v0.488281zM320.312 848.34h0.488281v-0.488281c-8.13802 -3.90625 -12.8581 -6.51042 -14.1602 -7.8125l8.78906 0.976562h3.41797
l16.6016 -1.46484h1.46484l12.6953 1.46484v0.488281l-12.207 2.44141v0.488281h2.44141c9.76562 0 14.6484 -0.651042 14.6484 -1.95312c-1.6276 -1.30208 -7.32422 -2.76693 -17.0898 -4.39453c-4.23177 -1.30208 -6.34766 -2.27865 -6.34766 -2.92969l0.488281 -0.488281
h8.78906l22.9492 2.92969h2.92969c4.55729 0 8.95182 -0.813802 13.1836 -2.44141v0.976562l-0.976562 5.37109h0.488281c27.9948 -8.78906 46.3867 -15.1367 55.1758 -19.043l16.1133 -7.8125l15.1367 2.92969h2.44141c4.23177 0 8.46354 -1.13932 12.6953 -3.41797
c0 -5.20833 6.83594 -11.3932 20.5078 -18.5547v0.488281c-0.325521 1.30208 -3.58073 4.72005 -9.76562 10.2539h-0.488281v0.976562h0.488281c12.6953 -6.51042 27.9948 -17.5781 45.8984 -33.2031c18.5547 -18.5547 31.5755 -34.1797 39.0625 -46.875
c8.13802 -13.3464 14.4857 -26.6927 19.043 -40.0391l1.95312 -6.83594h-0.976562c-0.651042 2.60417 -2.44141 5.37109 -5.37109 8.30078h-0.488281v-0.488281l1.95312 -17.0898l-0.976562 -2.44141c4.23177 -10.0911 8.78906 -26.0417 13.6719 -47.8516v-1.95312
h-0.488281c-7.16146 27.0182 -14.6484 47.8516 -22.4609 62.5l-4.88281 7.8125h-0.488281c0 -2.92969 -1.13932 -4.39453 -3.41797 -4.39453l-7.8125 0.488281l-0.976562 -1.46484v-1.95312c1.30208 -10.7422 3.09245 -16.1133 5.37109 -16.1133h0.488281
c0.976562 0.325521 1.46484 1.30208 1.46484 2.92969h1.46484c3.90625 -3.90625 5.85938 -9.76562 5.85938 -17.5781c3.25521 -12.3698 4.88281 -19.8568 4.88281 -22.4609h-0.488281c-0.976562 0.651042 -3.58073 4.06901 -7.8125 10.2539h-0.976562
c2.27865 -11.3932 5.69661 -19.5312 10.2539 -24.4141h0.488281v-0.488281c0 -0.651042 -1.13932 -1.30208 -3.41797 -1.95312l-0.488281 -3.41797v-1.95312c0.325521 -11.3932 1.79036 -17.0898 4.39453 -17.0898c1.6276 0.976562 3.25521 1.46484 4.88281 1.46484
c-6.1849 -17.5781 -9.27734 -27.832 -9.27734 -30.7617l-0.488281 -4.88281l1.46484 -10.7422v-0.488281h-0.488281l-5.85938 17.0898h-0.488281v-1.46484l0.488281 -21.9727c0 -3.58073 -1.46484 -9.4401 -4.39453 -17.5781h-0.488281v0.488281
c2.60417 8.78906 3.90625 15.9505 3.90625 21.4844v4.39453c0 2.27865 -0.488281 3.58073 -1.46484 3.90625l-1.95312 -1.95312v-1.95312c0 -12.6953 -5.37109 -28.4831 -16.1133 -47.3633c-2.27865 -6.51042 -3.41797 -11.0677 -3.41797 -13.6719l0.488281 -2.44141
h-0.488281l-6.83594 8.78906c-4.88281 -6.51042 -7.8125 -11.8815 -8.78906 -16.1133l0.488281 -8.78906c0 -0.976562 -1.46484 -4.39453 -4.39453 -10.2539h-0.976562l1.95312 4.88281l-0.976562 2.44141c0 0.976562 0.651042 2.44141 1.95312 4.39453v0.488281
c-0.651042 0 -9.4401 -8.13802 -26.3672 -24.4141c-32.5521 -26.0417 -66.4062 -39.0625 -101.562 -39.0625h-9.76562c-17.9036 0 -38.5742 4.06901 -62.0117 12.207v-0.488281c4.23177 -5.20833 10.5794 -10.2539 19.043 -15.1367
c14.974 -5.53385 33.0404 -8.30078 54.1992 -8.30078h14.1602v-0.488281c-8.13802 -2.92969 -16.4388 -4.39453 -24.9023 -4.39453h-1.95312c-29.6224 0 -61.1979 12.0443 -94.7266 36.1328c-14.3229 12.3698 -23.112 21.8099 -26.3672 28.3203
c-0.651042 0.325521 -2.11589 2.60417 -4.39453 6.83594h0.976562c5.20833 -3.90625 13.5091 -12.6953 24.9023 -26.3672c6.1849 -5.85938 10.9049 -9.60286 14.1602 -11.2305v0.488281c-8.78906 8.13802 -15.625 16.276 -20.5078 24.4141h0.488281
c16.276 -16.6016 28.1576 -26.2044 35.6445 -28.8086c0.976562 -0.976562 3.58073 -2.44141 7.8125 -4.39453l0.976562 4.39453v0.976562c-0.325521 1.30208 -5.85938 5.85938 -16.6016 13.6719c-16.6016 13.6719 -28.3203 25.3906 -35.1562 35.1562
c-15.2995 19.8568 -22.9492 43.457 -22.9492 70.8008v4.39453c0 17.5781 1.46484 27.0182 4.39453 28.3203l9.76562 25.8789c3.58073 7.8125 7.64974 13.6719 12.207 17.5781c1.6276 0.651042 4.06901 4.23177 7.32422 10.7422
c19.5312 24.4141 44.7591 36.6211 75.6836 36.6211h0.976562c27.3438 0 51.9206 -12.3698 73.7305 -37.1094v-0.976562h-0.488281c-18.5547 15.9505 -39.0625 23.9258 -61.5234 23.9258h-4.39453c-24.0885 0 -47.0378 -9.60286 -68.8477 -28.8086
c-20.1823 -21.4844 -30.2734 -46.7122 -30.2734 -75.6836v-2.92969l0.488281 -2.44141c0.976562 0 1.95312 1.79036 2.92969 5.37109h0.488281v-5.37109c0 -24.4141 9.4401 -48.1771 28.3203 -71.2891c15.2995 -15.625 26.5299 -24.7396 33.6914 -27.3438
c17.9036 -10.0911 35.4818 -15.1367 52.7344 -15.1367c12.0443 0 24.2513 2.76693 36.6211 8.30078c0 -0.976562 0.488281 -1.46484 1.46484 -1.46484c9.4401 1.6276 18.8802 6.9987 28.3203 16.1133l9.76562 7.8125h0.488281v-0.488281l-6.83594 -7.8125v-0.976562
h0.976562v-0.488281c5.85938 1.30208 21.6471 14.1602 47.3633 38.5742l1.46484 5.37109l-0.488281 7.32422c1.6276 6.83594 3.90625 10.2539 6.83594 10.2539c4.55729 2.27865 6.83594 3.74349 6.83594 4.39453c7.16146 16.276 10.7422 29.4596 10.7422 39.5508v0.976562
h-0.488281c-0.976562 -3.25521 -2.76693 -6.83594 -5.37109 -10.7422v0.488281c3.58073 11.3932 5.37109 23.6003 5.37109 36.6211l-0.488281 27.3438v13.6719c-1.6276 0 -2.44141 0.325521 -2.44141 0.976562c0 18.5547 -6.67318 40.6901 -20.0195 66.4062
c-7.48698 14.6484 -19.2057 30.1107 -35.1562 46.3867c-31.5755 34.1797 -74.707 51.2695 -129.395 51.2695c-18.2292 0 -34.5052 -2.92969 -48.8281 -8.78906c1.30208 1.6276 6.34766 3.58073 15.1367 5.85938l0.488281 0.488281v0.976562h-0.488281
c-13.9974 0 -27.832 -4.06901 -41.5039 -12.207c-9.4401 -5.85938 -18.0664 -9.76562 -25.8789 -11.7188c-1.30208 0 -2.44141 -0.813802 -3.41797 -2.44141h0.976562v-0.488281l14.1602 2.92969v-0.488281c-3.25521 -3.90625 -8.30078 -5.85938 -15.1367 -5.85938
c-10.4167 -0.651042 -19.3685 -3.25521 -26.8555 -7.8125c-4.55729 -2.60417 -10.5794 -7.8125 -18.0664 -15.625v-0.488281h0.488281l8.78906 3.90625v-0.488281l-4.39453 -7.32422l-2.44141 0.488281c-15.2995 0 -40.0391 -18.8802 -74.2188 -56.6406l-8.30078 -10.7422
c-3.25521 -3.90625 -6.02214 -7.97526 -8.30078 -12.207c3.90625 -0.325521 5.85938 -0.813802 5.85938 -1.46484l-22.4609 -45.8984c-1.6276 0 -3.58073 -14.1602 -5.85938 -42.4805c-2.60417 -18.8802 -3.90625 -35.4818 -3.90625 -49.8047v-7.8125
c0 -16.9271 3.09245 -29.4596 9.27734 -37.5977l-1.95312 -17.0898l7.8125 -15.1367l-2.44141 -0.488281h-1.46484c3.90625 -12.6953 7.8125 -21.6471 11.7188 -26.8555c1.30208 -1.95312 6.02214 -3.58073 14.1602 -4.88281
c7.16146 -5.53385 12.3698 -13.0208 15.625 -22.4609c2.60417 -5.20833 3.90625 -8.46354 3.90625 -9.76562c-5.85938 1.95312 -9.92839 5.04557 -12.207 9.27734h-0.488281v-0.488281c1.95312 -8.78906 7.97526 -20.0195 18.0664 -33.6914l-4.39453 -4.39453
c1.95312 -4.23177 6.83594 -9.60286 14.6484 -16.1133h-0.976562l-3.90625 1.46484h-0.976562v-0.976562c0 -4.23177 9.27734 -18.3919 27.832 -42.4805v-0.488281h0.976562c0 0.976562 0.976562 2.60417 2.92969 4.88281c0 -8.46354 6.02214 -19.5312 18.0664 -33.2031
h9.27734c11.7188 -15.2995 21.1589 -22.9492 28.3203 -22.9492v-0.488281c-3.58073 -4.55729 -5.37109 -7.16146 -5.37109 -7.8125h0.488281c5.85938 -1.30208 13.3464 -5.53385 22.4609 -12.6953l14.1602 -5.85938l-4.88281 9.27734h0.488281l20.0195 -20.0195
c8.46354 -8.13802 20.1823 -13.9974 35.1562 -17.5781c20.8333 -3.25521 35.319 -6.1849 43.457 -8.78906v-0.488281c-37.1094 0 -63.9648 3.25521 -80.5664 9.76562c-15.9505 5.20833 -30.599 11.2305 -43.9453 18.0664
c-19.2057 9.76562 -39.0625 23.2747 -59.5703 40.5273c-22.1354 19.8568 -37.9232 35.9701 -47.3633 48.3398c-16.276 20.5078 -30.2734 41.5039 -41.9922 62.9883c-27.0182 53.0599 -40.5273 105.306 -40.5273 156.738l0.488281 16.1133l-0.488281 18.0664l0.976562 46.875
c0 5.20833 -0.813802 10.7422 -2.44141 16.6016c9.4401 32.8776 20.5078 62.5 33.2031 88.8672v0.488281l2.44141 -1.46484c4.88281 0 10.9049 9.92839 18.0664 29.7852c4.88281 10.4167 7.8125 15.625 8.78906 15.625c2.27865 0 3.74349 2.27865 4.39453 6.83594
c2.92969 7.48698 18.7174 24.0885 47.3633 49.8047c1.6276 0.976562 5.37109 4.55729 11.2305 10.7422l0.976562 -5.37109c17.2526 16.276 52.8971 34.9935 106.934 56.1523h0.488281l-1.46484 -1.95312v-0.976562l1.95312 -0.488281
c18.5547 3.58073 29.6224 5.37109 33.2031 5.37109zM67.3828 705.273h0.488281c0 -1.30208 0.325521 -1.95312 0.976562 -1.95312l4.88281 0.488281l0.488281 -1.46484c-1.6276 -7.48698 -3.58073 -11.2305 -5.85938 -11.2305l-4.88281 -3.90625h-0.488281v0.488281
c2.92969 3.25521 4.39453 9.11458 4.39454 17.5781zM55.1758 653.027v-0.488281c-1.6276 -9.4401 -3.41797 -17.5781 -5.37109 -24.4141h-0.488281l-0.488281 13.6719c0.651042 3.90625 2.76693 7.64974 6.34765 11.2305zM462.891 575.879h1.95312l0.976562 -5.85938
v-6.34766l-0.976562 -4.39453h-0.976562c-0.976562 0 -2.44141 3.25521 -4.39453 9.76562c0 2.27865 1.13932 4.55729 3.41797 6.83595zM589.355 541.211c0 -6.51042 -3.74349 -21.8099 -11.2305 -45.8984l-10.2539 -22.4609h-0.488281v0.976562
c5.53385 10.4167 10.9049 24.7396 16.1133 42.9688c2.60417 16.276 4.55729 24.4141 5.85938 24.4139zM456.543 533.398c-3.25521 -13.6719 -7.97526 -23.9258 -14.1602 -30.7617c0 2.60417 -1.95312 4.06901 -5.85938 4.39453l-1.46484 2.92969
c0 3.58073 3.90625 9.76562 11.7188 18.5547v-0.976562l-9.76562 -18.0664v-0.976562l0.488281 -0.488281c6.83594 2.60417 10.2539 5.04557 10.2539 7.32422c4.55729 7.48698 7.32422 13.5091 8.30078 18.0664zM409.668 489.453v-0.488281
c-6.83594 -6.51042 -10.7422 -9.76562 -11.7188 -9.76562c-14.3229 2.60417 -21.4844 5.04557 -21.4844 7.32422c0 0.651042 0.813802 0.976562 2.44141 0.976562v0.488281l8.30078 -0.488281h6.83594c5.53385 0 10.7422 0.651042 15.6251 1.95312zM264.648 487.988
h0.488281c1.6276 -4.55729 4.72005 -9.92839 9.27734 -16.1133l2.92969 -9.76562c-8.46354 13.0208 -12.6953 21.4844 -12.6953 25.3906zM255.371 471.875h0.488281l21.9727 -37.5977h-0.488281c-7.16146 6.51042 -14.4857 15.625 -21.9727 27.3438l-1.46484 1.95312z" />
  </g>

</svg>
