<?xml version="1.0" standalone="no"?>
<!DOCTYPE svg PUBLIC "-//W3C//DTD SVG 1.1//EN" "http://www.w3.org/Graphics/SVG/1.1/DTD/svg11.dtd" >
<svg xmlns="http://www.w3.org/2000/svg" xmlns:xlink="http://www.w3.org/1999/xlink" version="1.1" viewBox="0 -200 1124 1000">
  <g transform="matrix(1 0 0 -1 0 800)">
   <path fill="currentColor"
d="M85.4492 500.684v-463.867h1000.98v463.867h-1000.98zM257.324 537.305h865.723v-537.109h-1074.22v537.109h171.387v5.85938c0 14.974 2.27865 29.9479 6.83594 44.9219c8.78906 29.6224 23.763 54.6875 44.9219 75.1953
c20.8333 21.1589 46.224 36.2956 76.1719 45.4102c14.6484 4.55729 29.4596 6.83594 44.4336 6.83594s29.9479 -2.27865 44.9219 -6.83594c29.6224 -9.11458 54.8503 -24.2513 75.6836 -45.4102c16.6016 -16.276 36.6211 -27.832 60.0586 -34.668
c11.7188 -3.58073 23.2747 -5.37109 34.668 -5.37109c12.0443 0 23.9258 1.79036 35.6445 5.37109c23.4375 7.16146 43.2943 18.7174 59.5703 34.668c16.6016 16.6016 28.4831 36.6211 35.6445 60.0586c3.25521 11.7188 4.88281 23.4375 4.88281 35.1562
s-1.6276 23.4375 -4.88281 35.1562c-7.16146 23.112 -19.043 42.9688 -35.6445 59.5703l25.8789 25.8789c21.1589 -20.8333 36.2956 -46.0612 45.4102 -75.6836c4.55729 -14.974 6.83594 -29.9479 6.83594 -44.9219s-2.27865 -29.7852 -6.83594 -44.4336
c-9.11458 -29.9479 -24.2513 -55.3385 -45.4102 -76.1719c-20.8333 -20.8333 -46.0612 -35.8073 -75.6836 -44.9219c-14.6484 -4.55729 -29.4596 -6.83594 -44.4336 -6.83594s-29.9479 2.27865 -44.9219 6.83594c-29.9479 9.11458 -55.5013 24.0885 -76.6602 44.9219
c-16.276 16.276 -36.1328 27.9948 -59.5703 35.1562c-11.7188 3.25521 -23.4375 4.88281 -35.1562 4.88281s-23.4375 -1.6276 -35.1562 -4.88281c-23.4375 -7.16146 -43.2943 -18.8802 -59.5703 -35.1562c-16.6016 -16.276 -28.3203 -36.1328 -35.1562 -59.5703
c-3.58073 -11.7188 -5.37109 -23.6003 -5.37109 -35.6445v-5.37109zM189.453 458.203v-48.8281h-48.8281v48.8281h48.8281zM189.453 372.754v-48.8281h-48.8281v48.8281h48.8281zM250.488 372.754v-48.8281h-48.8281v48.8281h48.8281zM311.523 372.754v-48.8281h-48.8281
v48.8281h48.8281zM372.559 372.754v-48.8281h-48.8281v48.8281h48.8281zM433.594 372.754v-48.8281h-48.8281v48.8281h48.8281zM494.629 372.754v-48.8281h-48.8281v48.8281h48.8281zM555.664 372.754v-48.8281h-48.8281v48.8281h48.8281zM616.699 372.754v-48.8281
h-48.8281v48.8281h48.8281zM677.734 372.754v-48.8281h-48.8281v48.8281h48.8281zM738.77 372.754v-48.8281h-48.8281v48.8281h48.8281zM799.805 372.754v-48.8281h-48.8281v48.8281h48.8281zM860.84 372.754v-48.8281h-48.8281v48.8281h48.8281zM921.875 372.754v-48.8281
h-48.8281v48.8281h48.8281zM1031.74 372.754v-48.8281h-97.6562v48.8281h97.6562zM274.902 311.719v-48.8281h-48.8281v48.8281h48.8281zM335.938 311.719v-48.8281h-48.8281v48.8281h48.8281zM396.973 311.719v-48.8281h-48.8281v48.8281h48.8281zM458.008 311.719
v-48.8281h-48.8281v48.8281h48.8281zM519.043 311.719v-48.8281h-48.8281v48.8281h48.8281zM580.078 311.719v-48.8281h-48.8281v48.8281h48.8281zM641.113 311.719v-48.8281h-48.8281v48.8281h48.8281zM702.148 311.719v-48.8281h-48.8281v48.8281h48.8281z
M763.184 311.719v-48.8281h-48.8281v48.8281h48.8281zM824.219 311.719v-48.8281h-48.8281v48.8281h48.8281zM885.254 311.719v-48.8281h-48.8281v48.8281h48.8281zM946.289 311.719v-48.8281h-48.8281v48.8281h48.8281zM299.316 250.684v-48.8281h-48.8281v48.8281h48.8281
zM360.352 250.684v-48.8281h-48.8281v48.8281h48.8281zM421.387 250.684v-48.8281h-48.8281v48.8281h48.8281zM482.422 250.684v-48.8281h-48.8281v48.8281h48.8281zM543.457 250.684v-48.8281h-48.8281v48.8281h48.8281zM604.492 250.684v-48.8281h-48.8281v48.8281
h48.8281zM665.527 250.684v-48.8281h-48.8281v48.8281h48.8281zM726.562 250.684v-48.8281h-48.8281v48.8281h48.8281zM787.598 250.684v-48.8281h-48.8281v48.8281h48.8281zM848.633 250.684v-48.8281h-48.8281v48.8281h48.8281zM909.668 250.684v-48.8281h-48.8281
v48.8281h48.8281zM970.703 250.684v-48.8281h-48.8281v48.8281h48.8281zM323.73 189.648v-48.8281h-48.8281v48.8281h48.8281zM384.766 189.648v-48.8281h-48.8281v48.8281h48.8281zM445.801 189.648v-48.8281h-48.8281v48.8281h48.8281zM506.836 189.648v-48.8281h-48.8281
v48.8281h48.8281zM567.871 189.648v-48.8281h-48.8281v48.8281h48.8281zM628.906 189.648v-48.8281h-48.8281v48.8281h48.8281zM689.941 189.648v-48.8281h-48.8281v48.8281h48.8281zM750.977 189.648v-48.8281h-48.8281v48.8281h48.8281zM812.012 189.648v-48.8281
h-48.8281v48.8281h48.8281zM873.047 189.648v-48.8281h-48.8281v48.8281h48.8281zM885.254 140.82v48.8281h146.484v-48.8281h-146.484zM213.867 311.719v-48.8281h-73.2422v48.8281h73.2422zM238.281 250.684v-48.8281h-97.6562v48.8281h97.6562zM201.66 189.648v-48.8281
h-61.0352v48.8281h61.0352zM982.91 262.891h-24.4141v48.8281h73.2422v-109.863h-48.8281v61.0352zM262.695 189.648v-48.8281h-48.8281v48.8281h48.8281zM201.66 128.613v-48.8281h-61.0352v48.8281h61.0352zM274.902 128.613v-48.8281h-61.0352v48.8281h61.0352z
M348.145 128.613v-48.8281h-61.0352v48.8281h61.0352zM738.77 128.613v-48.8281h-378.418v48.8281h378.418zM1031.74 128.613v-48.8281h-61.0352v48.8281h61.0352zM812.012 128.613v-48.8281h-61.0352v48.8281h61.0352zM885.254 128.613v-48.8281h-61.0352v48.8281h61.0352z
M958.496 128.613v-48.8281h-61.0352v48.8281h61.0352zM848.633 458.203v-48.8281h-48.8281v48.8281h48.8281zM909.668 458.203v-48.8281h-48.8281v48.8281h48.8281zM970.703 458.203v-48.8281h-48.8281v48.8281h48.8281zM1031.74 458.203v-48.8281h-48.8281v48.8281h48.8281
zM567.871 458.203v-48.8281h-48.8281v48.8281h48.8281zM628.906 458.203v-48.8281h-48.8281v48.8281h48.8281zM689.941 458.203v-48.8281h-48.8281v48.8281h48.8281zM750.977 458.203v-48.8281h-48.8281v48.8281h48.8281zM287.109 458.203v-48.8281h-48.8281v48.8281
h48.8281zM348.145 458.203v-48.8281h-48.8281v48.8281h48.8281zM409.18 458.203v-48.8281h-48.8281v48.8281h48.8281zM470.215 458.203v-48.8281h-48.8281v48.8281h48.8281z" />
  </g>

</svg>
