<?xml version="1.0" standalone="no"?>
<!DOCTYPE svg PUBLIC "-//W3C//DTD SVG 1.1//EN" "http://www.w3.org/Graphics/SVG/1.1/DTD/svg11.dtd" >
<svg xmlns="http://www.w3.org/2000/svg" xmlns:xlink="http://www.w3.org/1999/xlink" version="1.1" viewBox="0 -200 1124 1000">
  <g transform="matrix(1 0 0 -1 0 800)">
   <path fill="currentColor"
d="M1108.4 310.742l-277.832 -277.832c-11.3932 -11.3932 -21.1589 -17.0898 -29.2969 -17.0898h-742.188c-17.5781 0 -26.3672 8.78906 -26.3672 26.3672v595.703c0 16.9271 8.78906 25.3906 26.3672 25.3906h742.188c7.48698 0 17.2526 -6.1849 29.2969 -18.5547
l277.832 -277.344c9.76562 -9.76562 14.6484 -19.2057 14.6484 -28.3203s-4.88281 -18.5547 -14.6484 -28.3203v0.0003zM1070.31 339.062l-272.461 272.461h-713.379v-543.945h714.355zM676.27 69.5312c-7.8125 0 -17.2526 5.53385 -28.3203 16.6016l-218.262 218.262
l-218.262 -218.262c-11.0677 -11.0677 -20.5078 -16.6016 -28.3203 -16.6016c-5.53385 0 -10.7422 2.44141 -15.625 7.32422s-7.32422 10.0911 -7.32422 15.625c0 7.8125 5.53385 17.2526 16.6016 28.3203l218.262 218.262l-218.262 218.262
c-11.0677 11.0677 -16.6016 20.5078 -16.6016 28.3203c0 5.53385 2.44141 10.7422 7.32422 15.625s10.0911 7.32422 15.625 7.32422c7.8125 0 17.2526 -5.53385 28.3203 -16.6016l218.262 -218.262l218.262 218.262c11.0677 11.0677 20.5078 16.6016 28.3203 16.6016
c5.53385 0 10.7422 -2.44141 15.625 -7.32422s7.32422 -10.0911 7.32422 -15.625c0 -7.8125 -5.53385 -17.2526 -16.6016 -28.3203l-218.262 -218.262l218.262 -218.262c11.0677 -11.0677 16.6016 -20.5078 16.6016 -28.3203c0 -5.53385 -2.44141 -10.7422 -7.32422 -15.625
s-10.0911 -7.32422 -15.625 -7.32422z" />
  </g>

</svg>
