<?xml version="1.0" standalone="no"?>
<!DOCTYPE svg PUBLIC "-//W3C//DTD SVG 1.1//EN" "http://www.w3.org/Graphics/SVG/1.1/DTD/svg11.dtd" >
<svg xmlns="http://www.w3.org/2000/svg" xmlns:xlink="http://www.w3.org/1999/xlink" version="1.1" viewBox="-1 -200 1173 1000">
  <g transform="matrix(1 0 0 -1 0 800)">
   <path fill="currentColor"
d="M519.043 497.754h14.1602c15.2995 -37.7604 27.181 -56.6406 35.6445 -56.6406h49.8047c11.3932 37.7604 23.112 56.6406 35.1562 56.6406c0 -118.49 28.4831 -177.734 85.4492 -177.734l35.6445 -6.83594c70.9635 11.7188 106.445 49.4792 106.445 113.281
c0 3.25521 -4.72005 19.8568 -14.1602 49.8047h7.32422c198.893 -74.5443 298.34 -150.228 298.34 -227.051v-35.6445c0 -79.4271 -78.125 -150.553 -234.375 -213.379c16.6016 18.2292 30.7617 44.2708 42.4805 78.125c0 38.0859 -21.3216 57.1289 -63.9648 57.1289
c-38.0859 0 -73.5677 -14.3229 -106.445 -42.9688h-14.6484c0 22.7865 -23.6003 37.1094 -70.8008 42.9688c-47.526 0 -92.6107 -45.0846 -135.254 -135.254c-53.7109 90.1693 -103.353 135.254 -148.926 135.254c-19.8568 0 -46.0612 -14.3229 -78.6133 -42.9688
c-39.388 28.6458 -77.1484 42.9688 -113.281 42.9688c-38.0859 0 -57.1289 -21.3216 -57.1289 -63.9648c4.88281 -17.9036 19.043 -41.6667 42.4805 -71.2891h-14.1602c-146.81 73.8932 -220.215 142.578 -220.215 206.055v21.4844
c0 97.3307 101.888 180.176 305.664 248.535l-7.32422 -49.8047v-28.3203c0 -39.7135 33.2031 -68.0339 99.6094 -84.9609c80.7292 0 121.094 49.6419 121.094 148.926z" />
  </g>

</svg>
