<?xml version="1.0" standalone="no"?>
<!DOCTYPE svg PUBLIC "-//W3C//DTD SVG 1.1//EN" "http://www.w3.org/Graphics/SVG/1.1/DTD/svg11.dtd" >
<svg xmlns="http://www.w3.org/2000/svg" xmlns:xlink="http://www.w3.org/1999/xlink" version="1.1" viewBox="0 -200 1000 1000">
  <g transform="matrix(1 0 0 -1 0 800)">
   <path fill="currentColor"
d="M389.916 563.25c-0.376953 2.03418 -0.649414 4.05762 -0.804688 6.03711c-1.88379 23.8145 7.38574 73.8701 35.4512 120.79c28.167 47.0908 75.2119 91.7627 148.801 105.41c7.61523 1.41211 15.3516 2.4834 23.2012 3.18066
c6.05957 2.5332 10.6191 2.09473 15.4326 -7.05078l0.15918 -0.371094c0.941406 -1.91797 1.07715 -2.6377 1.4873 -4.98926l0.178711 -1.0166c0.793945 -4.49219 1.27539 -9.44336 1.44531 -14.7891c1.15332 -36.3457 -14.3223 -85.5869 -44.8105 -128.053
c-30.5771 -42.5879 -76.3389 -78.8496 -135.739 -89.3467c-9.00293 -1.58887 -18.4961 -2.58008 -28.4854 -2.89746c-0.167969 -0.00390625 -0.141602 -0.0292969 -0.367188 -0.0546875h-0.0537109c-4.06738 -0.447266 -6.15039 -0.652344 -10.5791 2.83789
l0.0136719 0.0175781c-4.5918 3.56055 -4.85156 5.73047 -5.29883 9.99512zM447.839 676.155c-22.458 -37.5439 -31.4287 -76.2646 -31.7998 -98.2217c4.70215 0.447266 9.37109 1.08398 14.001 1.90137c51.5488 9.10938 91.5303 40.9492 118.417 78.3984
c26.9756 37.5723 40.6953 80.3262 39.709 111.366l-0.0292969 0.790039c-3.39355 -0.459961 -6.68848 -0.986328 -9.88379 -1.5791c-64.3564 -11.9346 -105.63 -51.2207 -130.414 -92.655zM480.251 519.845l-3.82129 -1.70605
c-42.1367 -18.8193 -61.6719 -27.5439 -116.785 -0.897461l-0.797852 0.423828c-0.174805 0.0996094 -61.3389 35.1123 -116.061 26.4082c-77.5039 -12.3291 -131.738 -48.958 -166.304 -99.7588c-23.2695 -34.2012 -37.8008 -75.0381 -44.6455 -119.385
c-6.93262 -44.9189 -5.98535 -93.2568 1.75 -141.884c21.9414 -137.934 97.9658 -278.052 203.471 -349.839c5.40137 -3.67383 28.9492 -7.96191 55.4922 -5.49414c17.0645 1.58691 34.6895 6.26855 48.1211 16.2832c18.2754 13.627 52.6816 20.75 86.8066 20.9395
c33.4707 0.1875 67.6768 -6.29395 87.0596 -19.8408c14.4922 -10.1299 43.0732 -15.04 71.0264 -13.6875c24.8428 1.20117 48.249 7.27246 59.0352 18.9229c4.60938 4.97754 9.32422 9.6416 14.6436 14.9033v0.0527344c33.3428 32.9805 90.5137 89.5459 118.094 205.14
c-32.8008 21.7646 -58.5684 47.4629 -77.5879 75.3848c-26.7578 39.2783 -40.125 82.9385 -40.9238 126.293c-0.797852 43.3467 10.9893 86.2939 34.5322 124.165c15.5049 24.9365 36.1025 47.6719 61.5469 66.8604c-26.9619 41.2891 -65.2822 64.4795 -106.788 74.6074
c-56.667 13.8291 -119.312 3.7334 -167.864 -17.8915zM465.375 542.903l3.82129 1.70605c53.3779 23.7744 122.483 34.8154 185.297 19.4863c51.6865 -12.6133 99.0977 -42.8223 130.335 -97.9727l6.16406 -10.8857l-10.3096 -7.02246
c-27.0986 -18.4609 -48.6211 -41.1367 -64.2617 -66.293c-20.7881 -33.4404 -31.1963 -71.2754 -30.4951 -109.394c0.702148 -38.1074 12.54 -76.6143 36.2471 -111.413c18.5156 -27.1836 44.3047 -52.127 77.7188 -72.8984l8.15527 -5.07031l-2.04297 -9.33105
c-28.4268 -129.746 -91.3379 -191.972 -127.632 -227.871l-0.0263672 0.0273438c-5.5625 -5.50098 -10.499 -10.3867 -13.8711 -14.0283c-16.0352 -17.3174 -46.4873 -26.1299 -77.6357 -27.6377c-33.2773 -1.60938 -68.499 5.07324 -87.8184 18.5762
c-14.6377 10.2305 -42.8877 15.1113 -71.4365 14.9521c-28.8779 -0.161133 -57.042 -5.47852 -70.6514 -15.626c-17.8916 -13.3408 -40.4355 -19.4912 -61.9395 -21.4912c-32.7188 -3.04297 -64.6865 4.24609 -73.2393 10.0654
c-111.636 75.958 -191.933 223.316 -214.95 368.011c-8.19434 51.5088 -9.19824 102.708 -1.85547 150.28c7.42969 48.1416 23.4053 92.7666 49.1094 130.546c38.6152 56.7529 98.8125 97.6104 184.477 111.237c61.0557 9.71191 126.759 -25.7314 133.187 -29.3057
c43.5811 -21.0068 59.4707 -13.915 93.6543 1.35254z" />
  </g>

</svg>
