<?xml version="1.0" standalone="no"?>
<!DOCTYPE svg PUBLIC "-//W3C//DTD SVG 1.1//EN" "http://www.w3.org/Graphics/SVG/1.1/DTD/svg11.dtd" >
<svg xmlns="http://www.w3.org/2000/svg" xmlns:xlink="http://www.w3.org/1999/xlink" version="1.1" viewBox="0 -200 1000 1000">
  <g transform="matrix(1 0 0 -1 0 800)">
   <path fill="currentColor"
d="M422.363 882.52h0.488281l87.8906 -87.8906v-0.488281h-76.6602v-231.934l-9.76562 -9.76562l-9.27734 9.76562v231.934h-80.5664zM157.227 771.68h125l-54.1992 -54.1992l164.062 -164.062v-13.6719h-13.1836l-164.062 164.062l-57.1289 -56.6406h-0.488281z
M570.801 771.68h120.605v-120.605l-55.1758 54.6875l-166.016 -166.016h-13.1836v13.6719l165.527 166.016zM311.523 771.191h80.5664v-186.035l-133.301 133.301zM457.031 771.191h76.6602c0.651042 0 18.8802 -18.0664 54.6875 -54.1992v-0.488281l-131.348 -131.348z
M636.719 673.535l54.6875 -55.1758v-78.6133h-187.988v0.488281zM214.355 671.094h0.488281l130.859 -130.859v-0.488281h-188.477v74.707zM714.355 594.922h0.488281l85.4492 -85.4492l-85.9375 -85.9375v74.2188h-234.375l-9.76562 9.76562l9.76562 9.27734h234.375z
M133.789 591.016h0.488281v-74.2188h234.863l9.27734 -9.27734l-9.27734 -9.76562h-234.863v-77.6367l-85.4492 85.4492v0.488281zM157.227 474.805h188.477l-132.812 -133.301l-55.6641 55.6641v77.6367zM378.418 474.805h13.6719v-13.1836l-166.016 -166.016
l52.2461 -52.2461v-0.488281h-121.094v121.582l55.6641 -55.1758zM457.031 474.805h13.1836l164.551 -163.574l56.6406 56.6406v-125h-124.512v0.488281l53.7109 54.1992l-163.574 164.062zM503.418 474.805h187.988v-74.2188l-57.1289 -57.1289zM424.316 461.621
l9.76562 -9.76562v-231.934h76.6602l-88.3789 -88.3789l-87.8906 88.3789h80.5664v231.934zM392.09 428.906v-186.035h-80.5664l-52.7344 52.7344zM457.031 428.906l131.348 -131.348l-54.6875 -54.6875h-76.6602v186.035z" />
  </g>

</svg>
