<?xml version="1.0" standalone="no"?>
<!DOCTYPE svg PUBLIC "-//W3C//DTD SVG 1.1//EN" "http://www.w3.org/Graphics/SVG/1.1/DTD/svg11.dtd" >
<svg xmlns="http://www.w3.org/2000/svg" xmlns:xlink="http://www.w3.org/1999/xlink" version="1.1" viewBox="0 -200 1000 1000">
  <g transform="matrix(1 0 0 -1 0 800)">
   <path fill="currentColor"
d="M705.078 361.035c-2.92969 47.2005 -15.9505 92.7734 -39.0625 136.719c-26.6927 49.8047 -64.9414 87.972 -114.746 114.502s-101.725 39.7949 -155.762 39.7949c-53.7109 0 -105.55 -13.265 -155.518 -39.7949c-49.9674 -26.5299 -88.1348 -64.6973 -114.502 -114.502
c-23.4375 -43.9453 -36.6211 -89.5182 -39.5508 -136.719h140.625l168.945 -292.969l169.434 292.969zM85.9375 324.414c2.60417 -48.1771 15.7878 -94.2383 39.5508 -138.184c26.3672 -49.8047 64.6159 -87.8906 114.746 -114.258
c42.9688 -23.112 87.5651 -36.2956 133.789 -39.5508l-167.969 291.992h-120.117zM416.992 32.4219c46.224 3.25521 90.9831 16.4388 134.277 39.5508c49.8047 26.3672 88.0534 64.4531 114.746 114.258c23.4375 43.9453 36.4583 90.0065 39.0625 138.184h-119.141z
M395.508 688.672c60.2214 0 118.083 -14.974 173.584 -44.9219s98.2259 -72.6725 128.174 -128.174c29.9479 -55.5013 44.9219 -113.363 44.9219 -173.584c0 -60.5469 -14.974 -118.49 -44.9219 -173.828s-72.6725 -97.9818 -128.174 -127.93
c-55.5013 -29.9479 -113.363 -44.9219 -173.584 -44.9219s-118.083 14.974 -173.584 44.9219c-55.5013 29.9479 -98.2259 72.5911 -128.174 127.93c-29.9481 55.3389 -44.9219 113.281 -44.9219 173.828c0 60.2214 14.974 118.083 44.9219 173.584
c29.9479 55.5013 72.6725 98.2259 128.174 128.174c55.5013 29.9479 113.363 44.9219 173.584 44.9219z" />
  </g>

</svg>
