<?xml version="1.0" standalone="no"?>
<!DOCTYPE svg PUBLIC "-//W3C//DTD SVG 1.1//EN" "http://www.w3.org/Graphics/SVG/1.1/DTD/svg11.dtd" >
<svg xmlns="http://www.w3.org/2000/svg" xmlns:xlink="http://www.w3.org/1999/xlink" version="1.1" viewBox="0 -200 1000 1000">
  <g transform="matrix(1 0 0 -1 0 800)">
   <path fill="currentColor"
d="M348.145 782.91h13.6719c53.7109 0 106.934 -16.1133 159.668 -48.3398c13.9974 -9.11458 29.4596 -21.4844 46.3867 -37.1094c22.7865 -23.4375 37.4349 -41.3411 43.9453 -53.7109c6.51042 -9.11458 13.0208 -20.5078 19.5312 -34.1797
c20.1823 -41.9922 30.2734 -86.263 30.2734 -132.812c0 -66.7318 -20.1823 -127.767 -60.5469 -183.105h-0.488281c-2.60417 2.60417 -6.51042 3.90625 -11.7188 3.90625l-0.488281 0.488281h-0.488281l-19.5312 -0.488281h-9.76562
c-5.85938 1.30208 -11.2305 1.95312 -16.1133 1.95312h-8.30078c-7.16146 0 -13.6719 -0.651042 -19.5312 -1.95312c1.95312 -3.25521 2.92969 -6.34766 2.92969 -9.27734v-0.976562c0 -4.88281 -9.11458 -10.2539 -27.3438 -16.1133
c-4.88281 -2.27865 -11.8815 -7.97526 -20.9961 -17.0898c-2.60417 -5.20833 -8.6263 -10.9049 -18.0664 -17.0898c-7.48698 -3.58073 -12.8581 -5.37109 -16.1133 -5.37109h-2.44141c-1.95312 0 -3.25521 0.976562 -3.90625 2.92969
c0 2.60417 1.79036 5.69661 5.37109 9.27734c8.13802 10.4167 20.3451 27.181 36.6211 50.293c9.76562 9.76562 14.6484 21.1589 14.6484 34.1797c1.30208 7.8125 4.06901 19.8568 8.30078 36.1328l0.488281 3.41797c0 1.30208 -1.46484 2.11589 -4.39453 2.44141
c-7.48698 -3.90625 -14.6484 -5.85938 -21.4844 -5.85938h-2.44141c-6.51042 0 -14.8112 1.46484 -24.9023 4.39453h-13.1836c-5.20833 -2.27865 -9.76562 -3.74349 -13.6719 -4.39453l-16.1133 5.37109l-10.7422 0.488281
c-12.6953 -2.60417 -25.3906 -3.90625 -38.0859 -3.90625h-11.2305c-18.5547 0 -32.3893 6.51042 -41.5039 19.5312c-16.9271 20.1823 -27.5065 30.2734 -31.7383 30.2734h-3.90625c-4.88281 -3.90625 -8.13802 -5.85938 -9.76562 -5.85938
c-3.25521 0 -9.4401 6.9987 -18.5547 20.9961c-8.78906 13.0208 -19.8568 19.5312 -33.2031 19.5312c-14.3229 -5.20833 -21.4844 -14.3229 -21.4844 -27.3438c0 -7.8125 3.74349 -15.4622 11.2305 -22.9492c3.90625 -4.55729 6.83594 -8.95182 8.78906 -13.1836
c5.53385 -5.85938 10.5794 -9.76562 15.1367 -11.7188c2.27865 -2.92969 3.41797 -5.53385 3.41797 -7.8125v-0.976562c-0.976562 -5.20833 -3.25521 -7.8125 -6.83594 -7.8125c-15.9505 0 -27.6693 6.51042 -35.1562 19.5312
c-7.16146 10.0911 -16.4388 15.1367 -27.832 15.1367h-4.88281l-25.3906 -1.46484h-5.85938l-30.2734 0.976562l1.46484 -15.625v-1.46484c-2.27865 -3.90625 -5.20833 -5.85938 -8.78906 -5.85938c-4.88281 1.6276 -7.32422 3.74349 -7.32422 6.34766
c-11.0677 29.9479 -16.6016 60.3841 -16.6016 91.3086v15.625c0 53.0599 15.7878 105.632 47.3633 157.715c9.11458 14.974 23.763 33.0404 43.9453 54.1992c23.4375 21.4844 45.0846 37.7604 64.9414 48.8281c48.1771 25.7161 95.8659 38.5742 143.066 38.5742z
M356.934 717.969h-2.92969c-8.13802 0 -28.4831 2.44141 -61.0352 7.32422c-14.974 0 -28.8086 -5.20833 -41.5039 -15.625c-5.20833 -5.53385 -9.4401 -13.3464 -12.6953 -23.4375c-9.4401 -33.2031 -14.1602 -54.8503 -14.1602 -64.9414
c0 -21.1589 14.8112 -36.1328 44.4336 -44.9219c6.83594 -2.92969 27.832 -9.27734 62.9883 -19.043c16.9271 -5.85938 27.5065 -11.3932 31.7383 -16.6016c1.6276 -2.60417 3.09245 -9.4401 4.39453 -20.5078c1.30208 -4.55729 6.1849 -11.3932 14.6484 -20.5078
l-9.76562 -0.488281c-9.11458 0 -20.0195 2.60417 -32.7148 7.8125c-42.3177 13.9974 -76.8229 28.9714 -103.516 44.9219c-5.53385 3.90625 -11.7188 9.4401 -18.5547 16.6016c-2.27865 2.92969 -3.41797 6.67318 -3.41797 11.2305
c0 6.83594 2.44141 15.2995 7.32422 25.3906h-0.488281l-39.5508 0.976562c-14.3229 -0.976562 -27.3438 -2.60417 -39.0625 -4.88281c-7.48698 -2.92969 -15.9505 -8.30078 -25.3906 -16.1133c-5.20833 -5.53385 -7.8125 -11.7188 -7.8125 -18.5547v-0.488281
c0 -39.388 57.9427 -87.2396 173.828 -143.555c25.3906 -12.3698 51.7578 -21.8099 79.1016 -28.3203c28.3203 -6.1849 58.1055 -9.27734 89.3555 -9.27734c43.6198 0 77.6367 7.64974 102.051 22.9492c8.46354 4.23177 19.5312 12.8581 33.2031 25.8789
c15.625 17.2526 23.4375 34.3424 23.4375 51.2695v4.88281c0 17.9036 -8.30078 31.901 -24.9023 41.9922c-9.4401 6.83594 -22.7865 13.9974 -40.0391 21.4844l-16.1133 5.85938h-0.488281c-1.30208 -8.78906 -5.20833 -18.0664 -11.7188 -27.832l-4.88281 -3.90625
l-0.488281 1.46484l6.83594 27.832l0.488281 10.2539c0 20.5078 -7.64974 47.0378 -22.9492 79.5898l-3.90625 11.2305c-3.25521 11.0677 -9.11458 23.6003 -17.5781 37.5977c-15.9505 20.1823 -40.2018 30.2734 -72.7539 30.2734
c-20.5078 -0.976562 -30.7617 -2.60417 -30.7617 -4.88281c-4.88281 -1.95312 -9.76562 -2.92969 -14.6482 -2.92934zM414.551 704.785h0.976562c15.625 0 25.8789 -4.72005 30.7617 -14.1602v-0.488281c-3.58073 -7.48698 -11.8815 -11.2305 -24.9023 -11.2305h-11.2305
v0.488281c7.48698 3.58073 11.2305 7.64974 11.2305 12.207c0 5.85938 -8.13802 9.27734 -24.4141 10.2539c0 0.651042 -1.6276 0.976562 -4.88281 0.976562v0.488281c7.48698 0.976562 14.974 1.46484 22.4609 1.46496zM269.043 668.164
c2.92969 -6.1849 8.78906 -10.9049 17.5781 -14.1602c6.1849 -1.30208 13.5091 -1.95312 21.9727 -1.95312h3.90625l15.1367 1.95312h0.488281c9.4401 0 17.0898 -2.92969 22.9492 -8.78906c-4.88281 -3.25521 -15.1367 -4.88281 -30.7617 -4.88281
c-13.3464 -1.6276 -22.7865 -4.39453 -28.3203 -8.30078c-3.25521 -2.92969 -4.88281 -5.04557 -4.88281 -6.34766c-10.4167 3.25521 -17.9036 8.6263 -22.4609 16.1133c-2.92969 5.20833 -4.39453 9.76562 -4.39453 13.6719c0 6.51042 2.92969 10.7422 8.78901 12.6953z
M416.504 329.785c2.27865 0 3.90625 -2.60417 4.88281 -7.8125c0 -6.83594 -4.39453 -11.556 -13.1836 -14.1602l-8.30078 -0.488281c-2.92969 0 -8.13802 1.6276 -15.625 4.88281c-10.0911 1.6276 -15.1367 3.74349 -15.1367 6.34766v1.46484
c0 4.23177 2.76693 7.16146 8.30078 8.78906h3.90625c1.95312 0 7.32422 -2.44141 16.1133 -7.32422l4.88281 -0.488281c3.58073 0 7.48698 2.76693 11.7188 8.30078z" />
  </g>

</svg>
