<?xml version="1.0" standalone="no"?>
<!DOCTYPE svg PUBLIC "-//W3C//DTD SVG 1.1//EN" "http://www.w3.org/Graphics/SVG/1.1/DTD/svg11.dtd" >
<svg xmlns="http://www.w3.org/2000/svg" xmlns:xlink="http://www.w3.org/1999/xlink" version="1.1" viewBox="0 -200 1000 1000">
  <g transform="matrix(1 0 0 -1 0 800)">
   <path fill="currentColor"
d="M633.789 480.664h-476.074l237.793 -412.598zM395.508 -4.6875c-60.2214 0 -118.083 14.974 -173.584 44.9219c-55.5013 29.9479 -98.2259 72.5911 -128.174 127.93s-44.9219 113.281 -44.9219 173.828c0 60.2214 14.974 118.083 44.9219 173.584
c29.9479 55.5013 72.6725 98.2259 128.174 128.174c55.5013 29.9479 113.363 44.9219 173.584 44.9219s118.164 -14.974 173.828 -44.9219c54.6875 -29.6224 97.168 -72.2656 127.441 -127.93s45.4102 -113.607 45.4102 -173.828
c0 -60.5469 -14.974 -118.49 -44.9219 -173.828s-72.6725 -97.9818 -128.174 -127.93c-55.5013 -29.9479 -113.363 -44.9219 -173.584 -44.9219zM416.992 32.4219c46.224 3.25521 90.9831 16.4388 134.277 39.5508c49.8047 26.3672 87.972 64.3717 114.502 114.014
s39.7949 101.644 39.7949 156.006c0 47.2005 -10.0911 92.9362 -30.2734 137.207zM654.297 517.285c-25.7161 40.3646 -60.0586 72.1029 -103.027 95.2148c-49.8047 26.3672 -101.725 39.5508 -155.762 39.5508c-53.7109 0 -105.469 -13.1836 -155.273 -39.5508
c-43.2943 -23.112 -77.7995 -54.8503 -103.516 -95.2148h517.578zM116.211 479.688c-20.5078 -44.2708 -30.7617 -90.1693 -30.7617 -137.695c0 -54.362 13.265 -106.364 39.7949 -156.006c26.5299 -49.6419 64.86 -87.6465 114.99 -114.014
c42.9688 -23.112 87.5651 -36.2956 133.789 -39.5508z" />
  </g>

</svg>
