<?xml version="1.0" standalone="no"?>
<!DOCTYPE svg PUBLIC "-//W3C//DTD SVG 1.1//EN" "http://www.w3.org/Graphics/SVG/1.1/DTD/svg11.dtd" >
<svg xmlns="http://www.w3.org/2000/svg" xmlns:xlink="http://www.w3.org/1999/xlink" version="1.1" viewBox="0 -442 2048 2048">
  <g transform="matrix(1 0 0 -1 0 1606)">
   <path fill="currentColor"
d="M885 774q0 -59 -59 -59t-59 59t59 59t59 -59zM745 868q0 -59 -59 -59t-59 59t59 59t59 -59zM979 634q0 -59 -59 -59t-59 59t59 59t59 -59zM579 901q0 -59 -59 -59t-59 59t59 59t59 -59zM1012 468q0 -59 -59 -59t-59 59t59 59t59 -59zM413 868q0 -59 -59 -59t-59 59t59 59
t59 -59zM979 302q0 -59 -59 -59t-59 59t59 59t59 -59zM273 774q0 -59 -59 -59t-59 59t59 59t59 -59zM885 162q0 -59 -59 -59t-59 59t59 59t59 -59zM179 634q0 -59 -59 -59t-59 59t59 59t59 -59zM745 68q0 -59 -59 -59t-59 59t59 59t59 -59zM146 468q0 -59 -59 -59t-59 59
t59 59t59 -59zM579 35q0 -59 -59 -59t-59 59t59 59t59 -59zM179 302q0 -59 -59 -59t-59 59t59 59t59 -59zM413 68q0 -59 -59 -59t-59 59t59 59t59 -59zM273 162q0 -59 -59 -59t-59 59t59 59t59 -59z" />
  </g>

</svg>
