<?xml version="1.0" standalone="no"?>
<!DOCTYPE svg PUBLIC "-//W3C//DTD SVG 1.1//EN" "http://www.w3.org/Graphics/SVG/1.1/DTD/svg11.dtd" >
<svg xmlns="http://www.w3.org/2000/svg" xmlns:xlink="http://www.w3.org/1999/xlink" version="1.1" viewBox="-694 -442 2048 2048">
  <g transform="matrix(1 0 0 -1 0 1606)">
   <path fill="currentColor"
d="M-346 1191q0 -8 -5 -19q-41 -91 -149 -91q-78 0 -136 53t-58 130q0 79 58 133t138 54q52 0 92 -21q50 -26 50 -73q0 -48 -52 -48t-52 48q0 24 21 38q-24 10 -58 10q-100 0 -100 -140q0 -55 24 -94q28 -45 81 -45q56 0 82.5 43.5t38.5 43.5q25 0 25 -22z" />
  </g>

</svg>
