<?xml version="1.0" standalone="no"?>
<!DOCTYPE svg PUBLIC "-//W3C//DTD SVG 1.1//EN" "http://www.w3.org/Graphics/SVG/1.1/DTD/svg11.dtd" >
<svg xmlns="http://www.w3.org/2000/svg" xmlns:xlink="http://www.w3.org/1999/xlink" version="1.1" viewBox="-859 -442 2048 2048">
  <g transform="matrix(1 0 0 -1 0 1606)">
   <path fill="currentColor"
d="M-254 1527l-294 -345h-34l105 345h223zM-181 1204q0 -45 -31.5 -76.5t-76.5 -31.5t-77 31.5t-32 76.5t32 77t77 32q46 0 77 -31.5t31 -77.5zM-642 1204q0 -44 -32 -76t-76 -32q-45 0 -77 31.5t-32 76.5t31.5 77t76.5 32q46 0 77.5 -31.5t31.5 -77.5z" />
  </g>

</svg>
