<?xml version="1.0" standalone="no"?>
<!DOCTYPE svg PUBLIC "-//W3C//DTD SVG 1.1//EN" "http://www.w3.org/Graphics/SVG/1.1/DTD/svg11.dtd" >
<svg xmlns="http://www.w3.org/2000/svg" xmlns:xlink="http://www.w3.org/1999/xlink" version="1.1" viewBox="-696 -442 2048 2048">
  <g transform="matrix(1 0 0 -1 0 1606)">
   <path fill="currentColor"
d="M-344 1191q0 -14 -16 -38q-48 -72 -137 -72q-80 0 -138 53q-61 54 -61 133q0 77 55.5 130.5t132.5 53.5q73 0 118.5 -43.5t45.5 -116.5q0 -30 -31 -30h-225q2 -135 107 -135q59 0 87 44t38 44q24 0 24 -23zM-427 1304q-7 103 -81 103q-79 0 -90 -103h171z" />
  </g>

</svg>
