<?xml version="1.0" standalone="no"?>
<!DOCTYPE svg PUBLIC "-//W3C//DTD SVG 1.1//EN" "http://www.w3.org/Graphics/SVG/1.1/DTD/svg11.dtd" >
<svg xmlns="http://www.w3.org/2000/svg" xmlns:xlink="http://www.w3.org/1999/xlink" version="1.1" viewBox="-662 -442 2048 2048">
  <g transform="matrix(1 0 0 -1 0 1606)">
   <path fill="currentColor"
d="M-379 1374q0 -46 -48 -95q-65 -66 -73 -80q-11 -20 -13 -55h-34q3 52 43 127q39 72 39 98q0 74 -73 74q-58 0 -58 -30q0 -6 11 -24t11 -28q0 -35 -38 -35q-50 0 -50 57q0 48 48 74q40 22 91 22q56 0 96 -24q48 -28 48 -81z" />
  </g>

</svg>
