<?xml version="1.0" standalone="no"?>
<!DOCTYPE svg PUBLIC "-//W3C//DTD SVG 1.1//EN" "http://www.w3.org/Graphics/SVG/1.1/DTD/svg11.dtd" >
<svg xmlns="http://www.w3.org/2000/svg" xmlns:xlink="http://www.w3.org/1999/xlink" version="1.1" viewBox="-675 -442 2048 2048">
  <g transform="matrix(1 0 0 -1 0 1606)">
   <path fill="currentColor"
d="M-365 1387q0 -46 -50 -46t-50 45q0 6 2 13q-64 -24 -64 -123v-121q0 -16 82 -16v-51q-45 3 -64 3h-87q7 0 -79 -2v50l40 -1q26 -1 26 21v200q0 26 -22 29q4 -1 -44 -1v50l144 10v-45q36 44 90 44q76 0 76 -59z" />
  </g>

</svg>
