<?xml version="1.0" standalone="no"?>
<!DOCTYPE svg PUBLIC "-//W3C//DTD SVG 1.1//EN" "http://www.w3.org/Graphics/SVG/1.1/DTD/svg11.dtd" >
<svg xmlns="http://www.w3.org/2000/svg" xmlns:xlink="http://www.w3.org/1999/xlink" version="1.1" viewBox="-1012 -442 2048 2048">
  <g transform="matrix(1 0 0 -1 0 1606)">
   <path fill="currentColor"
d="M-28 580q0 -110 -69 -192q-74 -87 -182 -87q-100 0 -247 116.5t-234 116.5q-139 0 -179 -131q-6 -29 -13 -58q-12 -43 -30 -43q-30 0 -30 57q0 109 72.5 193.5t179.5 84.5q101 0 248 -117t233 -117q93 0 140 60q27 35 49 113q16 60 34 60q28 0 28 -56z" />
  </g>

</svg>
