<?xml version="1.0" standalone="no"?>
<!DOCTYPE svg PUBLIC "-//W3C//DTD SVG 1.1//EN" "http://www.w3.org/Graphics/SVG/1.1/DTD/svg11.dtd" >
<svg xmlns="http://www.w3.org/2000/svg" xmlns:xlink="http://www.w3.org/1999/xlink" version="1.1" viewBox="-745 -442 2048 2048">
  <g transform="matrix(1 0 0 -1 0 1606)">
   <path fill="currentColor"
d="M-295 1090l-148 -11v41q-38 -39 -95 -39q-77 0 -109.5 31.5t-32.5 108.5v131q0 37 -28 37q-6 0 -18.5 -1t-18.5 -1v50l150 10v-262q0 -61 61 -61q41 0 65 32q23 29 23 71v132q0 26 -23 29q2 0 -42 -1v50l151 10v-280q0 -26 23 -29q-2 0 42 1v-49z" />
  </g>

</svg>
