<?xml version="1.0" standalone="no"?>
<!DOCTYPE svg PUBLIC "-//W3C//DTD SVG 1.1//EN" "http://www.w3.org/Graphics/SVG/1.1/DTD/svg11.dtd" >
<svg xmlns="http://www.w3.org/2000/svg" xmlns:xlink="http://www.w3.org/1999/xlink" version="1.1" viewBox="-739 -442 2048 2048">
  <g transform="matrix(1 0 0 -1 0 1606)">
   <path fill="currentColor"
d="M-301 1388q-60 0 -79 -42l-110 -243q-10 -22 -30 -22t-30 22l-121 265q-9 20 -68 19v52q68 -4 95 -4q-25 0 105 4v-52q-36 2 -35 2q-13 0 -13 -7q0 -5 86 -189q78 167 78 176q0 19 -41 19v51q75 -4 87 -4t76 5v-52z" />
  </g>

</svg>
