<?xml version="1.0" standalone="no"?>
<!DOCTYPE svg PUBLIC "-//W3C//DTD SVG 1.1//EN" "http://www.w3.org/Graphics/SVG/1.1/DTD/svg11.dtd" >
<svg viewBox="0 -410 2402 2048">
  <g transform="matrix(1 0 0 -1 0 1638)">
   <path fill="currentColor"
d="M1063 1019h29q47 -116 73 -116h102q35 116 72 116q0 -364 175 -364l73 -14q218 36 218 232q0 10 -29 102h15q611 -229 611 -465v-73q0 -244 -480 -437q51 56 87 160q0 117 -131 117q-117 0 -218 -88h-30q0 70 -145 88q-146 0 -277 -277q-165 277 -305 277q-61 0 -161 -88
q-121 88 -232 88q-117 0 -117 -131q15 -55 87 -146h-29q-451 227 -451 422v44q0 299 626 509l-15 -102v-58q0 -122 204 -174q248 0 248 305v73z" />
  </g>

</svg>
