<?xml version="1.0" encoding="UTF-8"?>
<!DOCTYPE svg PUBLIC "-//W3C//DTD SVG 1.1//EN" "http://www.w3.org/Graphics/SVG/1.1/DTD/svg11.dtd">
<!-- Creator: CorelDRAW X6 -->
<svg xmlns="http://www.w3.org/2000/svg" xml:space="preserve" width="130.793mm" height="99.3528mm" version="1.1" style="shape-rendering:geometricPrecision; text-rendering:geometricPrecision; image-rendering:optimizeQuality; fill-rule:evenodd; clip-rule:evenodd"
viewBox="0 0 12083493 9178811"
 xmlns:xlink="http://www.w3.org/1999/xlink">
 <defs>
  <style type="text/css">
   <![CDATA[
    .fil0 {fill:#110E05}
   ]]>
  </style>
 </defs>
 <g id="Layer_x0020_1">
  <metadata id="CorelCorpID_0Corel-Layer"/>
  <path class="fil0" d="M10652646 3409433c-267883,1567652 -8841,1513717 -1169580,3268544 -999829,1511639 -3021910,1552030 -4673569,1387269l-1111025 -355354c-76782,-31670 -111658,-43939 -162960,-67155 -79840,-36225 -106678,-53464 -202935,-104184 -282822,-148926 -415599,-245867 -641640,-399025 -141433,-95869 -129830,-122698 -285426,-221717l-890999 -734192c-703695,-823603 -343750,-1845854 -294434,-2270581l445559 -1245308c8204,-11003 18570,-28039 27171,-38645l377896 -409150c251576,-300144 533658,-477858 858950,-630609 255484,-119945 457625,-290480 881603,-425862l372519 -131013c544477,-151014 2263116,253914 2594467,160798 16639,-4629 31135,-11336 46655,-17304l120601 -72717c269296,-122439 543119,-9802 759182,20325 518434,72246 1073554,86205 1555458,494422 202482,171533 368325,359105 556367,542519 382709,373332 1004412,264251 836140,1248939zm1339440 355215c101071,-626784 171737,-711447 -87822,-1239137 -174221,-354282 -349977,-520854 -696729,-660662 -353608,-142625 -554215,-358042 -788062,-559970 -323878,-279810 -688636,-460609 -1045468,-665217 -92913,-53269 -107066,-71848 -191036,-127197 -155199,-102308 -281750,-138662 -426537,-201928 -308080,-134505 -655054,-183608 -1044387,-247613 -892588,-146718 -736761,-15761 -1028026,176439 -316801,208968 -569163,-113644 -972077,-153490 -888624,-87887 -596573,73927 -1144727,3012 -962395,-124509 -2166176,505296 -2851699,1070754 -1267028,1045061 -1824356,2049741 -1698027,3886884 17377,252777 3510,174489 71968,360379l307849 684885c382201,737740 1402356,1636416 2029435,2064893 1406882,961341 2129489,1064112 4121387,1010777 1289672,-34478 2955032,-195618 3836977,-1427382 804821,-1124080 1356431,-2421993 1606981,-3975427z"/>
  <path class="fil0" d="M2874619 5114482c-10698,379974 186971,605978 459889,709829l755616 300948c500815,271495 1683135,455851 2154793,447998 974461,-16103 1567801,-96331 2203047,-980862 128814,-179322 94326,-215140 81928,-497166 -146423,-142691 -353210,-294241 -608399,-330068 -404448,-56753 -449356,71045 -653761,278812 -333957,339315 -789475,451684 -1380884,424782 -417133,-18912 -1112569,-236740 -1506540,-339381 -433216,-112978 -1153781,-369849 -1505689,-14892z"/>
  <path class="fil0" d="M6308276 2770038c-57529,966839 1027175,874527 1122194,337773 114596,-647377 -607613,-917393 -1008550,-489655 -9396,9996 -22930,24815 -31596,34949l-82048 116933z"/>
  <path class="fil0" d="M3435911 2287894c-262331,397214 -245960,589608 99887,967707 225404,246338 521714,156714 654038,53196l78417 -116462c92516,-230365 18570,-500723 -96026,-659720 -248684,-345015 -465829,-228553 -489498,-228757 -81087,-609 -116471,-22006 -246818,-15964z"/>
 </g>
</svg>
