<?xml version="1.0" encoding="UTF-8"?>
<!DOCTYPE svg PUBLIC "-//W3C//DTD SVG 1.1//EN" "http://www.w3.org/Graphics/SVG/1.1/DTD/svg11.dtd">
<!-- Creator: CorelDRAW X6 -->
<svg xmlns="http://www.w3.org/2000/svg" xml:space="preserve" width="215.169mm" height="215.194mm" version="1.1" style="shape-rendering:geometricPrecision; text-rendering:geometricPrecision; image-rendering:optimizeQuality; fill-rule:evenodd; clip-rule:evenodd"
viewBox="0 0 21514440 21516940"
 xmlns:xlink="http://www.w3.org/1999/xlink">
 <defs>
  <style type="text/css">
   <![CDATA[
    .fil0 {fill:#373435}
   ]]>
  </style>
 </defs>
 <g id="Layer_x0020_1">
  <metadata id="CorelCorpID_0Corel-Layer"/>
  <path class="fil0" d="M10252509 928302c795237,-35456 1548600,7109 2281255,145013 346599,65243 679651,143694 996684,238973l747003 253530c7579,2950 16758,6609 24247,9429 892927,335701 1784553,858410 2501430,1409416 1001683,769921 1614292,1537552 2309271,2591689 183279,277998 297316,507781 444959,792588 584382,1127219 909804,2399141 1022001,3871450 164091,2153380 -518200,4133240 -1554149,5822004 -392045,639085 -589932,831573 -1061587,1372310 -709018,812876 -1839896,1630281 -2822522,2117254 -3106769,1539661 -6802020,1361112 -9699993,-511730 -434080,-280528 -697549,-516720 -1055498,-780750l-239672 -212695c-36815,-30756 -44305,-35256 -80150,-67622 -184599,-166681 -465966,-429510 -614039,-620468l-553066 -680411c-360318,-505251 -635016,-916533 -946150,-1525313 -551666,-1079434 -987135,-2489720 -1024481,-3864971 -42215,-1554569 156492,-2957416 698939,-4224829 245351,-573253 523199,-1170994 839702,-1631900 437670,-637366 1103332,-1503755 1680115,-1988879 110897,-93279 228974,-209086 345000,-290286 306824,-214725 635446,-520360 1069516,-765341 1481538,-836143 2774308,-1372991 4691185,-1458461zm545596 20588638l-249701 0c-1329575,-17728 -2709025,-292526 -4077846,-902335 -2747361,-1223938 -4765096,-3364259 -5790107,-6089803 -180519,-480004 -337171,-993344 -446548,-1530292 -53884,-264519 -212455,-1689484 -233903,-1741887l0 -994725c198097,-445198 -95499,-3832765 3147574,-7110294 800917,-809426 1779034,-1524053 2998242,-2113064 583862,-282077 1206260,-512981 1888601,-688010 349829,-89740 684210,-160602 1050907,-219855 196038,-31676 1104412,-97038 1171184,-126675l997654 0c35346,14808 1522554,189798 1770445,240422 3320624,678121 6233115,3063634 7600587,6256913 2011476,4697174 333251,9218539 -2272816,11855043 -1738388,1758685 -4503717,3131756 -7554273,3164562z"/>
  <path class="fil0" d="M4943056 6420124c-197897,685720 298905,1446592 1122959,1407537 462526,-21928 628127,-248982 838373,-445519 233463,645525 228843,1423565 66372,2085478l-4219410 -10909c-465176,-975926 36396,-3366709 1288661,-3825365 491502,-180019 1093693,-145213 1501815,74391 -246721,249561 -466356,255530 -598770,714387zm2597398 952779c-312324,-1191451 -1301239,-2411239 -2707276,-2459484 -1274841,-43745 -1967381,564035 -2462273,1687574 -228254,518220 -376887,1080015 -382316,1723590 -3910,462926 112937,1437873 339471,1748797 902685,47674 4664648,-71832 5096607,28696l55304 -227073c22237,-67722 35276,-115547 55154,-191878 37165,-142723 70051,-279708 97048,-420741 118067,-616829 63383,-1297779 -91719,-1889481z"/>
  <path class="fil0" d="M14144737 4910239c-2367315,-11948 -3985557,2724294 -2951987,5166800l5869198 2160c1002843,-2453895 -535328,-5156941 -2917211,-5168960zm-2528367 4557001c-226333,-1264973 -104148,-2275816 640026,-3065954 266309,-282757 667522,-636016 1194881,-788428 451208,-130415 1333455,-176190 1652158,136754 -1539901,1162095 315893,2948117 1439913,1602634 344760,410782 201856,1570287 105498,2114854l-5032476 140z"/>
  <path class="fil0" d="M9700263 11846394c-718027,-250 -6512123,-51044 -7054450,60l7579 597790 767091 7949c-47095,598651 49324,972137 230053,1532682 224994,697819 773190,1840546 1185632,2448006 678201,998874 1702692,2064410 2876476,2553143 1040249,433140 1778033,619718 3081102,567074 918613,-37126 2201984,-367357 2905532,-743493 104228,-55714 206146,-108098 301125,-155182l289357 -167121c655824,-374117 1489437,-1108251 1938305,-1696403 78240,-102508 128805,-168040 187808,-267199l170540 -287126c545297,-1000894 734984,-1788283 592591,-2974605 -69182,-576373 -269659,-970847 -367717,-1394428 -310884,-57923 -3026409,-22097 -3583664,-21367 -1175723,1549 -2351617,640 -3527360,220zm-676941 5395003c472585,-654624 1192501,-1170714 1998377,-1381660 1370621,-358788 2940389,166021 3728777,1255684 4380,6040 24247,32547 29387,40286 45694,68802 22517,29946 32746,57843 -88890,125475 -104108,102528 -223634,196777 -542217,427550 -963968,669932 -1576157,961968 -104738,49965 -227553,91080 -300695,162711 -55514,4150 -45325,-4979 -93339,13789 -85390,33376 -45465,16728 -88920,60153 -204836,15068 -666992,186888 -943590,242342 -356289,71431 -700859,118696 -1074105,124915 -678582,11329 -1505965,-90639 -2049632,-332881 -58803,-293966 361878,-1126389 560785,-1401927z"/>
 </g>
</svg>
