<?xml version="1.0" encoding="UTF-8"?>
<!DOCTYPE svg PUBLIC "-//W3C//DTD SVG 1.1//EN" "http://www.w3.org/Graphics/SVG/1.1/DTD/svg11.dtd">
<!-- Creator: CorelDRAW X6 -->
<svg xmlns="http://www.w3.org/2000/svg" xml:space="preserve" width="196.834mm" height="196.748mm" version="1.1" style="shape-rendering:geometricPrecision; text-rendering:geometricPrecision; image-rendering:optimizeQuality; fill-rule:evenodd; clip-rule:evenodd"
viewBox="0 0 19692744 19684070"
 xmlns:xlink="http://www.w3.org/1999/xlink">
 <defs>
  <style type="text/css">
   <![CDATA[
    .fil0 {fill:#96989A}
   ]]>
  </style>
 </defs>
 <g id="Layer_x0020_1">
  <metadata id="CorelCorpID_0Corel-Layer"/>
  <path class="fil0" d="M1724266 10936488c542647,-51134 6340162,-310 7058613,-60 1176437,421 2353024,1331 3529441,-220 557584,-730 3274710,-36577 3585778,21380 98116,423831 298711,818538 367934,1395251 142477,1187022 -47323,1974875 -592941,2976359l-170641 287296c-59038,99217 -109632,164788 -187919,267357 -449132,588499 -1283237,1323066 -1939448,1697404l-289527 167219c-95035,47112 -197013,99527 -301303,155273 -703963,376359 -1988091,706785 -2907246,743933 -1303838,52675 -2042057,-134014 -3082920,-567409 -1174476,-489022 -2199572,-1555186 -2878173,-2554650 -412685,-607817 -961205,-1751219 -1186332,-2449449 -180835,-560876 -277311,-934583 -230189,-1533587l-767543 -7953 -7584 -598144zm4781675 -1745406c-432215,-100588 -4196397,18989 -5099615,-28714 -226667,-311107 -343583,-1286629 -339671,-1749828 5433,-643955 154153,-1206081 382541,-1724607 495185,-1124202 1188133,-1732340 2463727,-1688569 1406866,48273 2396364,1268780 2708872,2460935 155194,592050 209910,1273403 91774,1890595 -27013,141117 -59919,278182 -97106,420989 -19890,76377 -32936,124229 -55186,191991l-55336 227208zm9642965 -22891l-5872660 -2161c-1034180,-2443947 585017,-5181803 2953728,-5169848 2383289,12026 3922368,2716666 2918932,5172009zm-6813456 -9156295c-1918008,85520 -3211540,622684 -4693952,1459321 -434326,245126 -763142,550940 -1070147,765792 -116095,81249 -234241,197124 -345203,290458 -577124,485410 -1243179,1352310 -1681106,1990052 -316690,461178 -594702,1059272 -840198,1632863 -542767,1268161 -741591,2671835 -699351,4227322 37367,1376061 473094,2787180 1025085,3867251 311317,609138 586178,1020663 946708,1526213l553392 680812c148160,191070 429694,454055 614401,620834 35867,32385 43361,36887 80198,67662l239814 212821c358159,264185 621784,500517 1056120,781210 2899683,1873947 6597113,2052601 9705715,512032 983206,-487261 2114752,-1305148 2824188,-2118503 471933,-541056 669937,-733657 1062213,-1373120 1036560,-1689760 1719254,-3670788 1555066,-5825439 -112263,-1473177 -437877,-2745850 -1022604,-3873734 -147730,-284975 -261834,-514894 -445221,-793055 -695389,-1054760 -1308360,-1822843 -2310634,-2593218 -717300,-551331 -1609452,-1074349 -2502905,-1410248 -7494,-2821 -16678,-6483 -24262,-9434l-747444 -253680c-317220,-95336 -650468,-173833 -997272,-239114 -733087,-137985 -1486894,-180575 -2282601,-145098z"/>
  <path class="fil0" d="M10700116 8555871l5035445 -140c96415,-544888 239403,-1705077 -105560,-2116102 -1124683,1346278 -2981572,-440799 -1440762,-1603579 -318891,-313128 -1201659,-267327 -1653133,-136835 -527670,152502 -929120,505970 -1195586,788894 -744613,790604 -866871,1802043 -640404,3067762z"/>
  <path class="fil0" d="M7544422 17737369c543988,242384 1371860,344413 2050841,333077 373467,-6223 718240,-53515 1074739,-124989 276761,-55486 739190,-227408 944147,-242485 43481,-43450 3532,-26792 88972,-60188 48043,-18779 37848,-9645 93395,-13797 73184,-71674 196072,-112813 300872,-162807 612550,-292208 1034550,-534733 1577087,-962536 119596,-94304 134824,-71343 223766,-196893 -10235,-27913 12956,10965 -32766,-57877 -5142,-7744 -25022,-34266 -29404,-40309 -788853,-1090307 -2359547,-1615425 -3730976,-1256425 -806352,211070 -1526693,727464 -1999557,1382474 -199024,275701 -619954,1108615 -561116,1402755z"/>
  <path class="fil0" d="M1829866 8545336l4221899 10915c162567,-662303 167190,-1440802 -66411,-2086708 -210370,196653 -376068,423841 -838867,445781 -824541,39079 -1321636,-722242 -1123622,-1408366 132493,-459128 352257,-465101 599123,-714809 -408363,-219734 -1010908,-254560 -1502701,-74435 -1253003,458927 -1754871,2851120 -1289421,3827622z"/>
 </g>
</svg>
