<?xml version="1.0" standalone="no"?>
<!DOCTYPE svg PUBLIC "-//W3C//DTD SVG 1.1//EN" "http://www.w3.org/Graphics/SVG/1.1/DTD/svg11.dtd" >
<svg viewBox="0 -410 2048 2048">
  <g transform="matrix(1 0 0 -1 0 1638)">
   <path fill="currentColor"
d="M899 1845h34q198 0 396 -110q58 -34 121 -87q65 -60 92 -93q192 -235 192 -528q0 -259 -156 -480q-31 -42 -87 -101q-89 -81 -137 -108q-202 -127 -438 -127q-279 0 -509 178q-84 69 -137 139q-44 59 -68 103q-102 191 -102 381v33q0 189 101 379q33 60 87 127
q59 68 115 114l59 43q155 100 315 126q71 11 122 11zM266 1028q0 -214 132 -393q20 -28 82 -90l18 -15q186 -152 416 -152h8q207 0 386 130q35 25 95 87l20 24q144 186 144 404v8q0 245 -172 439q-64 65 -99 87q-173 122 -380 122q-240 0 -432 -164q-75 -73 -87 -96
q-38 -48 -62 -99q-69 -138 -69 -292zM912 1487h8q174 0 311 -124q60 -61 81 -101q63 -111 63 -222v-25q0 -121 -77 -243q-19 -29 -69 -81l-25 -21q-38 -30 -78 -50q-100 -50 -196 -50h-25q-114 0 -229 67q-38 22 -95 78q-65 71 -97 159q-9 26 -15 54h217l14 -27
q48 -79 138 -111q39 -12 76 -12h5q95 0 170 68q78 79 78 178v7q0 115 -96 195q-70 53 -155 53q-121 0 -203 -104q-15 -23 -22 -38h-220q11 47 36 100q21 38 46 72q56 66 89 87q125 91 270 91z" />
  </g>

</svg>
