<?xml version="1.0" encoding="UTF-8"?>
<!DOCTYPE svg PUBLIC "-//W3C//DTD SVG 1.1//EN" "http://www.w3.org/Graphics/SVG/1.1/DTD/svg11.dtd">
<!-- Creator: CorelDRAW X6 -->
<svg xmlns="http://www.w3.org/2000/svg" xml:space="preserve" width="114.892mm" height="114.68mm" version="1.1" style="shape-rendering:geometricPrecision; text-rendering:geometricPrecision; image-rendering:optimizeQuality; fill-rule:evenodd; clip-rule:evenodd"
viewBox="0 0 10317974 10298890"
 xmlns:xlink="http://www.w3.org/1999/xlink">
 <defs>
  <style type="text/css">
   <![CDATA[
    .fil0 {fill:#373435}
   ]]>
  </style>
 </defs>
 <g id="Layer_x0020_1">
  <metadata id="CorelCorpID_0Corel-Layer"/>
  <path class="fil0" d="M2159863 5650799c-25020,-2195875 6259,-2452378 344090,-3121781 218965,-431669 844569,-1038504 1301258,-1263728 1161358,-594100 2519786,-301145 3434583,600585 889355,912121 975954,1539000 1101072,3590989 31279,575555 100097,1119841 156405,1282497 106348,312802 775751,1345056 875848,1351306 100098,0 506738,-756981 675654,-1269978 387879,-1176141 356600,-2439868 -93838,-3572219 -656884,-1664118 -2195884,-2909076 -3947580,-3196850 -450439,-68818 -1313777,-68818 -1751705,0 -2020710,344082 -3741126,2001940 -4179055,4035168 -112607,544276 -100097,1657858 31280,2252183 137636,619354 556786,1501453 950925,1995689l294033 375361 243984 -281523c131377,-150146 319062,-387880 412900,-519256l168915 -243985 -18769 -2014458z"/>
  <path class="fil0" d="M3417331 5657058l-225214 168916 -150147 -168916c-193935,-225214 -200194,-644373 -12519,-844568 237734,-256503 619354,6259 619354,431669 0,200195 -37538,262753 -231474,412899zm-100088 -1664117c-663143,0 -919646,807039 -531767,1701656l131377 300292 -168915 131377c-106357,87579 -162656,187676 -162656,306543 0,156406 62558,225224 456688,487977 844569,563046 975955,569305 2208394,81328 813290,-319061 1213679,-412899 1025995,-231474 -131377,112607 -1808005,832059 -2077009,882108 -143895,25019 -337831,0 -600584,-87588 -437929,-150146 -450439,-150146 -450439,-75069 0,31280 175166,175166 381621,312803 531766,356591 681912,344081 1689137,-118867 782010,-362851 1057274,-444179 1057274,-312802 0,62558 -1307518,957176 -1670368,1144861 -319062,168915 -600585,131376 -1144861,-143896 -663144,-331572 -763241,-325312 -982205,43798 -93838,168916 -237725,431669 -312803,594325l-137636 294033 294042 187685c456689,287782 1007225,544277 1420124,663143 569306,156406 1826774,193936 2427359,68818 475458,-93838 1388845,-437928 1451403,-538025 50049,-87579 -193935,-656884 -600575,-1376336 -431669,-775750 -481718,-975945 -344091,-1438893 125127,-431670 131377,-394131 -93838,-656893l-193935 -218956 100097 -256503c262754,-656883 168916,-1382594 -218964,-1714166 -143887,-112607 -262753,-156396 -450438,-150146 -344082,0 -487978,68818 -688172,300292 -150147,181426 -206446,387880 -243985,938416l-18769 212705 -437920 0 -437928 0 -31279 -431669c-43790,-613095 -250244,-900877 -644374,-900877zm1958150 1282497c0,-275263 143887,-575556 294033,-613103 206445,-56309 250244,-43790 412900,81328 93847,75068 181434,225214 206454,344081 37539,206455 -56299,625614 -162656,688172 -25029,18770 -206454,-37530 -400390,-125117 -331571,-143887 -350341,-168907 -350341,-375361z"/>
 </g>
</svg>
