<?xml version="1.0" encoding="UTF-8"?>
<!DOCTYPE svg PUBLIC "-//W3C//DTD SVG 1.1//EN" "http://www.w3.org/Graphics/SVG/1.1/DTD/svg11.dtd">
<!-- Creator: CorelDRAW X6 -->
<svg xmlns="http://www.w3.org/2000/svg" xml:space="preserve" width="64.8102mm" height="65.0622mm" version="1.1" style="shape-rendering:geometricPrecision; text-rendering:geometricPrecision; image-rendering:optimizeQuality; fill-rule:evenodd; clip-rule:evenodd"
viewBox="0 0 110 111"
 xmlns:xlink="http://www.w3.org/1999/xlink">
 <defs>
  <style type="text/css">
   <![CDATA[
    .fil0 {fill:#ADADAD}
   ]]>
  </style>
 </defs>
 <g id="Layer_x0020_1">
  <metadata id="CorelCorpID_0Corel-Layer"/>
  <path class="fil0" d="M64 72c3,-1 35,-1 38,1 2,2 0,6 -1,9 -1,5 3,4 0,8 -2,0 -4,0 -6,0 -1,-4 4,-10 2,-14 -3,-1 -8,-1 -11,0 -5,4 -3,16 -9,14 -1,-5 3,-9 2,-14 -2,-1 -5,-1 -8,0 -5,3 -3,16 -9,14 -1,-3 1,-6 2,-9 2,-6 -3,-5 0,-9zm-15 1c3,-2 3,-2 6,-1 1,2 0,5 -1,7 -2,7 0,4 1,8 -2,3 -5,4 -8,3 0,-2 2,-7 3,-9 2,-7 -3,-5 -1,-8zm6 -10c0,-3 2,-4 4,-3 1,4 -1,4 -4,3zm-38 29c-3,-2 2,-67 -2,-75l-5 -2c0,-4 10,-2 13,-2 4,0 14,0 17,1l0 2 -5 1c-3,4 -3,39 0,42 4,1 4,-1 6,-4 2,-1 4,-3 5,-5l20 -20c3,-4 9,-7 6,-13l-5 -1 0 -2c3,-1 27,-2 30,-1 1,4 -14,17 -19,21 -3,4 -17,19 -20,20 -3,1 -4,0 -7,4 -1,3 -1,5 -3,7 -2,3 -6,7 -9,10 -4,4 -19,21 -22,17zm-15 -77c0,6 5,7 7,9 1,2 1,18 0,21 -1,3 -8,7 -9,11 2,5 9,8 10,13 3,20 -9,31 11,31 7,0 8,-7 13,-9 5,1 17,18 22,20 4,-2 13,-16 18,-16 5,-1 9,3 11,-5 1,-3 2,-11 6,-9 2,4 -4,9 -1,13 1,0 12,1 13,1 3,-1 5,-9 5,-11 -1,-2 -2,-2 -1,-5 0,-2 2,-3 1,-5 0,-5 -4,-5 -7,-7 0,-4 8,-7 9,-12 -1,-5 -18,-17 -20,-22 1,-2 10,-10 12,-12 5,-5 4,-15 -4,-16 -8,0 -17,0 -26,0 -3,0 -8,2 -10,1 -3,-2 -4,-5 -7,-6 -4,1 -5,5 -8,7 -2,0 -2,-2 -5,-2 -1,-1 -4,0 -6,0 -5,0 -9,0 -14,0 -14,0 -20,-3 -20,10z"/>
 </g>
</svg>
