<?xml version="1.0" encoding="UTF-8"?>
<!DOCTYPE svg PUBLIC "-//W3C//DTD SVG 1.1//EN" "http://www.w3.org/Graphics/SVG/1.1/DTD/svg11.dtd">
<!-- Creator: CorelDRAW X6 -->
<svg xmlns="http://www.w3.org/2000/svg" xml:space="preserve" width="111.022mm" height="107.013mm" version="1.1" style="shape-rendering:geometricPrecision; text-rendering:geometricPrecision; image-rendering:optimizeQuality; fill-rule:evenodd; clip-rule:evenodd"
viewBox="0 0 11615199 11195795"
 xmlns:xlink="http://www.w3.org/1999/xlink">
 <defs>
  <style type="text/css">
   <![CDATA[
    .fil0 {fill:#242021}
   ]]>
  </style>
 </defs>
 <g id="Layer_x0020_1">
  <metadata id="CorelCorpID_0Corel-Layer"/>
  <path class="fil0" d="M11561696 10966204c91062,61632 51128,183662 -10692,204429 -42351,-617 -845913,-13412 -1806301,-155906 -224705,-33070 -400457,-52226 -615087,-52226 -185754,0 -400572,14395 -701504,46294 -376771,39746 -198675,45500 -1724204,113253 -57981,2908 -114362,-12116 -126477,-110344 13601,-113252 184154,-167530 238609,-182239 609521,-169005 910139,-474697 1043792,-1224473 144220,-824642 105709,-1525843 86417,-2247800l-3306909 -20464 -1448382 2053572c-429322,671823 382829,1373149 1278561,1536222 82096,63546 68192,269273 -51609,269273 -13109,0 -27327,-2407 -42968,-7669 -17869,-7480 -355701,-148541 -1123649,-220562 -205549,-19658 -575028,-82587 -1025609,-82587 -155101,0 -319784,7480 -490829,26521l-1620117 228105c-153176,-10201 -152872,-192618 314,-233859 782794,-101441 1720867,-682024 2271110,-1464013l6589776 -9191980c108806,-157821 341483,-249751 567799,-249751 283491,0 556478,144105 561730,483474l217036 9202307c70473,771851 587635,1098184 1239193,1280423zm-4549314 -4167039c335415,0 651056,1726 886327,6863l-87222 -3830516c-16624,-49758 -38940,-75411 -64530,-75411 -21081,0 -44391,17985 -67878,54769 -815740,1158331 -1939211,2578466 -2744562,3727831 -51620,91051 -188,122030 121842,122030 19470,1600 85611,2218 186246,2218 173283,0 448677,-1727 763942,-3516 315212,-2228 670410,-4268 1005835,-4268z"/>
 </g>
</svg>
