<?xml version="1.0" encoding="UTF-8"?>
<!DOCTYPE svg PUBLIC "-//W3C//DTD SVG 1.1//EN" "http://www.w3.org/Graphics/SVG/1.1/DTD/svg11.dtd">
<!-- Creator: CorelDRAW X6 -->
<svg xmlns="http://www.w3.org/2000/svg" xml:space="preserve" width="57.273mm" height="71.4365mm" version="1.1" style="shape-rendering:geometricPrecision; text-rendering:geometricPrecision; image-rendering:optimizeQuality; fill-rule:evenodd; clip-rule:evenodd"
viewBox="0 0 5727300 7143650"
 xmlns:xlink="http://www.w3.org/1999/xlink">
 <defs>
  <style type="text/css">
   <![CDATA[
    .fil0 {fill:#6B809B}
   ]]>
  </style>
 </defs>
 <g id="Layer_x0020_1">
  <metadata id="CorelCorpID_0Corel-Layer"/>
  <path class="fil0" d="M2864420 1614410c-53620,-289150 244600,-1519250 1445870,-1614370 480,-240 510,550 3540,17720 89360,505680 -432520,1579530 -1430650,1611270 -21460,690 -14960,5870 -18760,-14620z"/>
  <path class="fil0" d="M3389780 1860420c-300600,133890 -427120,201840 -802570,20320 0,0 -480960,-275360 -917990,-205840 -2535260,403320 -1868900,4191000 -82730,5406310 84680,57620 585640,136090 877660,-81650 232580,-173420 909190,-182690 1161260,-6510 237930,166300 879740,170380 1086140,-52550 219350,-236920 781910,-664190 1015750,-1731470 -1172830,-729130 -1137240,-2137350 -144720,-2813470 -479740,-846990 -1515380,-836870 -2192800,-535140z"/>
 </g>
</svg>
