<?xml version="1.0" standalone="no"?>
<!DOCTYPE svg PUBLIC "-//W3C//DTD SVG 1.1//EN" "http://www.w3.org/Graphics/SVG/1.1/DTD/svg11.dtd" >
<svg viewBox="0 -410 2048 2048">
  <g transform="matrix(1 0 0 -1 0 1638)">
   <path fill="currentColor"
d="M888 1633q67 0 85 -7q166 -42 218 -66q49 -25 49 -66v-6q0 -48 -67 -73q-36 -15 -119 -37q-94 -28 -126 -28l-63 -1h-392q-47 0 -47 -5q-8 -6 -16 -20q-12 -15 -12 -37l-1 -47v-404q0 -66 5 -71q20 -36 33 -36l22 -2h400q105 0 119 -8q132 -34 194 -56q31 -13 50 -28
q20 -21 20 -47v-6q0 -48 -68 -73q-40 -17 -146 -45q-69 -20 -101 -20l-72 -1h-487q-103 0 -105 6q-36 15 -74 40q-25 19 -44 44q-41 69 -41 87q-2 18 -2 62v713q0 66 6 77q16 40 44 80q26 30 44 40q22 15 63 33q10 8 63 8h568zM582 1225h9q67 0 467 -91q79 -20 148 -41
q67 -22 67 -45q1 0 1 -9h1q0 -17 -13 -29q-19 -17 -112 -44q-225 -58 -489 -107q-54 -8 -76 -8q-26 0 -32 13q-14 19 -14 59v2q0 35 15 39q9 6 33 15q30 14 37 28q10 12 10 32q0 40 -51 59q-32 14 -36 19q-8 7 -8 33v2q0 47 19 66q7 7 24 7z" />
  </g>

</svg>
