<?xml version="1.0" standalone="no"?>
<!DOCTYPE svg PUBLIC "-//W3C//DTD SVG 1.1//EN" "http://www.w3.org/Graphics/SVG/1.1/DTD/svg11.dtd" >
<svg viewBox="0 -410 2048 2048">
  <g transform="matrix(1 0 0 -1 0 1638)">
   <path fill="currentColor"
d="M713 1603h28q165 0 327 -99q43 -28 95 -76q70 -72 90 -110q20 -28 40 -70q62 -129 62 -272q0 -205 -124 -375h-1q-8 8 -24 8l-1 1h-1l-40 -1h-20q-18 4 -33 4h-17q-22 0 -40 -4q6 -10 6 -19v-2q0 -15 -56 -33q-15 -7 -43 -35q-8 -16 -37 -35q-23 -11 -33 -11h-5
q-6 0 -8 6q0 8 11 19q25 32 75 103q30 30 30 70q4 24 17 74l1 7q0 4 -9 5q-23 -12 -44 -12h-5q-20 0 -51 9h-27q-16 -7 -28 -9l-33 11l-22 1q-39 -8 -78 -8h-23q-57 0 -85 40q-52 62 -65 62h-8q-15 -12 -20 -12q-10 0 -38 43q-27 40 -68 40q-44 -16 -44 -56q0 -24 23 -47
q12 -14 18 -27q17 -18 31 -24q7 -9 7 -16v-2q-3 -16 -14 -16q-49 0 -72 40q-22 31 -57 31h-10l-52 -3h-12l-62 2l3 -32v-3q-7 -12 -18 -12q-15 5 -15 13q-34 92 -34 187v32q0 163 97 323q28 46 90 111q72 66 133 100q148 79 293 79zM731 1470h-6q-25 0 -125 15
q-46 0 -85 -32q-16 -17 -26 -48q-29 -102 -29 -133q0 -65 91 -92q21 -9 129 -39q52 -18 65 -34q5 -8 9 -42q4 -14 30 -42l-20 -1q-28 0 -67 16q-130 43 -212 92q-17 12 -38 34q-7 9 -7 23q0 21 15 52h-1l-81 2q-44 -3 -80 -10q-23 -9 -52 -33q-16 -17 -16 -38v-1
q0 -121 356 -294q78 -38 162 -58q87 -19 183 -19q134 0 209 47q26 13 68 53q48 53 48 105v10q0 55 -51 86q-29 21 -82 44l-33 12h-1q-4 -27 -24 -57l-10 -8l-1 3l14 57l1 21q0 63 -47 163l-8 23q-10 34 -36 77q-49 62 -149 62q-63 -3 -63 -10q-15 -6 -30 -6zM849 1443h2
q48 0 63 -29v-1q-11 -23 -51 -23h-23v1q23 11 23 25q0 18 -50 21q0 2 -10 2v1q23 3 46 3zM551 1368q9 -19 36 -29q19 -4 45 -4h8l31 4h1q29 0 47 -18q-15 -10 -63 -10q-41 -5 -58 -17q-10 -9 -10 -13q-32 10 -46 33q-9 16 -9 28q0 20 18 26zM853 675q7 0 10 -16
q0 -21 -27 -29l-17 -1q-9 0 -32 10q-31 5 -31 13v3q0 13 17 18h8q6 0 33 -15l10 -1q11 0 24 17z" />
  </g>

</svg>
