<?xml version="1.0" standalone="no"?>
<!DOCTYPE svg PUBLIC "-//W3C//DTD SVG 1.1//EN" "http://www.w3.org/Graphics/SVG/1.1/DTD/svg11.dtd" >
<svg viewBox="0 -410 2048 2048">
  <g transform="matrix(1 0 0 -1 0 1638)">
   <path fill="currentColor"
d="M1063 1900h2q-71 -106 -71 -296v-25q0 -124 74 -224q76 -85 160 -85h13q51 0 88 22q40 -42 65 -81q44 -67 69 -149q23 -79 23 -121h-240v1q0 24 -26 91q-19 43 -54 83q-7 12 -43 43q-99 78 -218 78q-48 0 -106 -17q-4 27 -4 66v21q0 189 100 384q36 68 98 141
q48 51 70 68zM1237 1610h3q67 0 112 -58q26 -38 26 -77v-7q0 -78 -76 -123q-34 -15 -63 -15q-78 0 -124 73q-17 36 -17 67q0 53 38 96q44 44 101 44zM573 1372h1l119 -207v-2q-31 -22 -68 -70q-64 -93 -64 -200q0 -132 96 -238l36 -33l-120 -207q-30 16 -101 88
q-93 108 -125 223q56 33 84 111q8 34 8 57q0 88 -73 153l-19 14q21 65 46 111q23 44 75 107q65 68 98 88zM237 1033h4q67 0 112 -58q26 -37 26 -79v-5q0 -67 -60 -113q-38 -25 -80 -25q-70 0 -117 63q-22 37 -22 70v16q0 52 50 100q42 31 87 31zM1246 845h240
q-7 -74 -27 -136q-24 -66 -53 -115q-26 -45 -75 -99l-1 -1h-1q-43 22 -93 22q-72 0 -134 -54q-39 -40 -50 -75q-13 -41 -13 -61q-65 -15 -127 -15h-13q-124 0 -242 55v1l119 207q66 -25 129 -25q158 0 270 130q36 50 51 88q20 60 20 78zM1230 456h15q59 0 106 -55
q27 -40 27 -81v-9q0 -45 -35 -88q-46 -46 -99 -46h-11q-57 0 -103 51q-31 41 -31 82v13q0 57 52 103q41 30 79 30z" />
  </g>

</svg>
