<?xml version="1.0" standalone="no"?>
<!DOCTYPE svg PUBLIC "-//W3C//DTD SVG 1.1//EN" "http://www.w3.org/Graphics/SVG/1.1/DTD/svg11.dtd" >
<svg viewBox="0 -410 2048 2048">
  <g transform="matrix(1 0 0 -1 0 1638)">
   <path fill="currentColor"
d="M865 1807h1l180 -180v-1h-157v-475l-20 -20l-19 20v475h-165zM322 1580h256v0l-111 -111l336 -336v-28h-27l-336 336l-117 -116h-1v255zM1169 1580h247v-247v0l-113 112l-340 -340h-27v28l339 340l-106 107v0zM638 1579h165v-381l-273 273zM936 1579h157q2 0 112 -111v-1
l-269 -269v381zM1304 1379l112 -113v-161h-385v1zM439 1374h1l268 -268v-1h-386v153zM1463 1218h1l175 -175l-176 -176v152h-480l-20 20l20 19h480v160zM274 1210h1v-152h481l19 -19l-19 -20h-481v-159l-175 175v1zM322 972h386v0l-272 -273l-114 114v159zM775 972h28v-27
l-340 -340l107 -107v-1h-248v249l114 -113zM936 972h27l337 -335l116 116v-256h-255v1l110 111l-335 336v27zM1031 972h385v-152l-117 -117l-268 269v0zM869 945l20 -20v-475h157l-181 -181l-180 181h165v475zM803 878v-381h-165l-108 108zM936 878l269 -269l-112 -112h-157
v381z" />
  </g>

</svg>
