<?xml version="1.0" encoding="UTF-8"?>
<!DOCTYPE svg PUBLIC "-//W3C//DTD SVG 1.1//EN" "http://www.w3.org/Graphics/SVG/1.1/DTD/svg11.dtd">
<!-- Creator: CorelDRAW X6 -->
<svg xmlns="http://www.w3.org/2000/svg" xml:space="preserve" width="59.3981mm" height="73.5082mm" version="1.1" style="shape-rendering:geometricPrecision; text-rendering:geometricPrecision; image-rendering:optimizeQuality; fill-rule:evenodd; clip-rule:evenodd"
viewBox="0 0 5952688 7366757"
 xmlns:xlink="http://www.w3.org/1999/xlink">
 <defs>
  <style type="text/css">
   <![CDATA[
    .fil0 {fill:#373435;fill-rule:nonzero}
   ]]>
  </style>
 </defs>
 <g id="Layer_x0020_1">
  <metadata id="CorelCorpID_0Corel-Layer"/>
  <path class="fil0" d="M2872414 1744083c-2776,-14992 -4780,-29895 -5923,-44476 -13880,-175440 54408,-544187 261155,-889835 207499,-346901 554069,-675993 1096182,-776530 56101,-10403 113094,-18290 170919,-23431 44637,-18660 78230,-15433 113686,51943l1173 2736c6935,14130 7937,19432 10954,36749l1322 7496c5843,33092 9391,69561 10644,108946 8498,267749 -105509,630494 -330105,943331 -225257,313738 -562376,580866 -999963,658194 -66323,11705 -136255,19011 -209844,21346 -1233,30 -1042,220 -2706,401l-391 0c-29964,3297 -45308,4810 -77938,-20906l100 -130c-33823,-26227 -35737,-42211 -39034,-73629l-231 -2205zm426703 -831749c-165438,276578 -231521,561825 -234257,723575 34635,-3297 69030,-7987 103144,-14010 379741,-67105 674278,-301663 872347,-577540 198720,-276788 299788,-591740 292523,-820405l-211 -5822c-25004,3387 -49276,7266 -72817,11635 -474096,87920 -778144,377326 -960729,682567z"/>
  <path class="fil0" d="M3537894 2063835l-28151 12567c-310412,138640 -454323,202909 -860331,6614l-5873 -3126c-1293,-732 -451868,-258660 -854990,-194541 -570955,90826 -970489,360660 -1225120,734900 -171421,251955 -278473,552785 -328892,879482 -51070,330906 -44095,686996 12888,1045221 161640,1016119 721692,2048342 1498923,2577176 39786,27068 213261,58657 408794,40477 125712,-11695 255553,-46180 354497,-119959 134632,-100387 388090,-152861 639484,-154254 246573,-1383 498558,46370 641347,146166 106761,74622 317307,110790 523232,100828 183016,-8849 355439,-53575 434901,-139401 33953,-36669 68689,-71024 107873,-109788l0 -390c245632,-242956 666793,-659658 869972,-1511210 -241642,-160337 -431463,-349646 -571576,-555341 -197117,-289356 -295590,-610992 -301472,-930373 -5883,-319321 80955,-635705 254390,-914689 114217,-183707 265955,-351189 453401,-492545 -198620,-304168 -480921,-475008 -786682,-549619 -417453,-101871 -878941,-27500 -1236615,131805zm-109587 -169868l28151 -12567c393220,-175139 902302,-256475 1365033,-143550 380763,92921 730029,315462 960147,721741l45408 80193 -75944 51732c-199632,135995 -358185,303046 -473404,488367 -153142,246343 -229818,525066 -224646,805873 5171,280728 92379,564401 267017,820756 136405,200253 326386,384001 572539,537022l60080 37351 -15053 68738c-209413,955808 -672865,1414210 -940234,1678672l-190 -201c-40979,40528 -77348,76516 -102191,103344 -118126,127576 -342461,192496 -571918,203600 -245150,11856 -504621,-37370 -646939,-136846 -107833,-75363 -315944,-111320 -526259,-110148 -212730,1183 -420209,40357 -520466,115109 -131805,98283 -297884,143591 -456297,158323 -241031,22418 -476531,-31278 -539537,-74151 -822389,-559560 -1413919,-1645119 -1583486,-2711045 -60360,-379451 -67756,-756627 -13669,-1107075 54738,-354647 172423,-683388 361783,-961700 284465,-418085 727924,-719076 1358990,-819463 449783,-71545 933800,189560 981152,215887 321055,154755 438108,102512 689933,-9962z"/>
 </g>
</svg>
