<?xml version="1.0" encoding="UTF-8"?>
<!DOCTYPE svg PUBLIC "-//W3C//DTD SVG 1.1//EN" "http://www.w3.org/Graphics/SVG/1.1/DTD/svg11.dtd">
<!-- Creator: CorelDRAW X6 -->
<svg xmlns="http://www.w3.org/2000/svg" xml:space="preserve" width="52.2063mm" height="54.1797mm" version="1.1" style="shape-rendering:geometricPrecision; text-rendering:geometricPrecision; image-rendering:optimizeQuality; fill-rule:evenodd; clip-rule:evenodd"
viewBox="0 0 4470917 4639918"
 xmlns:xlink="http://www.w3.org/1999/xlink">
 <defs>
  <style type="text/css">
   <![CDATA[
    .fil0 {fill:black}
   ]]>
  </style>
 </defs>
 <g id="Layer_x0020_1">
  <metadata id="CorelCorpID_0Corel-Layer"/>
  <path class="fil0" d="M428771 1891261c-236853,0 -428771,191918 -428771,428771 0,236758 191918,428702 428771,428702 236759,0 428702,-191944 428702,-428702 9,-236870 -191918,-428771 -428702,-428771zm3061361 1948699c-205081,118388 -275280,380504 -156935,585499 118414,205081 380505,275331 585594,156935 205021,-118371 275262,-380488 156866,-585551 -118371,-204987 -380505,-275254 -585525,-156883zm-2130041 -1519997c0,-423744 210570,-798022 532574,-1024650l-313457 -525072c-375229,250701 -654337,633946 -770284,1082816 135430,110398 221969,278499 221969,466949 0,188407 -86530,356517 -221986,466880 115922,448914 395055,832167 770284,1082842l313483 -525115c-322013,-226585 -532583,-600838 -532583,-1024650zm1252468 -1252459c654319,0 1191038,501684 1247295,1141393l611063 -8923c-30068,-472302 -236373,-896422 -553436,-1208141 -163006,61583 -351327,52248 -514085,-41741 -162963,-94083 -265217,-252782 -293229,-425011 -158433,-43847 -325173,-67749 -497591,-67749 -296509,0 -576645,69607 -825478,192868l297871 533842c160359,-74618 339046,-116538 527590,-116538zm0 2504944c-188570,0 -367231,-41920 -527608,-116538l-297922 533893c248860,123218 529012,192852 825530,192852 172409,0 339158,-23902 497608,-67750 28004,-172229 130291,-330928 293272,-425080 162757,-93946 351079,-103281 514085,-41672 317045,-311736 523351,-735865 553376,-1208166l-611063 -8924c-56222,639795 -592959,1141385 -1247278,1141385zm877504 -2772499c205064,118440 467197,48172 585551,-156823 118414,-205080 48215,-467197 -156866,-585619 -205038,-118371 -467154,-48129 -585568,156960 -118371,204995 -48129,467137 156883,585482z"/>
 </g>
</svg>
