<?xml version="1.0" encoding="UTF-8"?>
<!DOCTYPE svg PUBLIC "-//W3C//DTD SVG 1.1//EN" "http://www.w3.org/Graphics/SVG/1.1/DTD/svg11.dtd">
<!-- Creator: CorelDRAW X6 -->
<svg xmlns="http://www.w3.org/2000/svg" xml:space="preserve" width="215.9mm" height="279.4mm" version="1.1" style="shape-rendering:geometricPrecision; text-rendering:geometricPrecision; image-rendering:optimizeQuality; fill-rule:evenodd; clip-rule:evenodd"
viewBox="0 0 21590000 27940000"
 xmlns:xlink="http://www.w3.org/1999/xlink">
 <defs>
  <style type="text/css">
   <![CDATA[
    .fil0 {fill:#373435}
   ]]>
  </style>
 </defs>
 <g id="Layer_x0020_1">
  <metadata id="CorelCorpID_0Corel-Layer"/>
  <path class="fil0" d="M18401460 15013060c-505750,-1337040 -1388720,-2502070 -2063050,-3299050 -754810,-952070 -1493080,-1855990 -1478530,-3191050 32580,-2953000 174750,-5813130 -3361350,-5821160 -145750,-330 -297780,5850 -456320,18490 -4006860,322700 -2944210,4555740 -3003680,5973240 -73170,1036610 -283350,1853540 -996290,2866950 -837600,996060 -2016850,2608190 -2575490,4286360 -263650,792020 -389110,1599310 -273250,2363350 -36300,32500 -70850,66560 -103710,101630 -245920,262540 -427630,580650 -630090,794820 -189160,188690 -458660,260460 -754820,366720 -296270,106300 -602340,273680 -819010,641920 -163550,277970 -118160,776390 -72160,1076550 54590,356190 109860,692770 36500,921130 -234480,640900 -264420,1084220 -99350,1405790 165420,322240 505530,464470 889940,544760 878240,183430 1810680,117570 2631270,555970 878450,459280 1769030,622410 2479550,460120 515140,-117660 933310,-424400 1148070,-896390 555740,-2730 1165570,-238100 2142450,-291890 662710,-53380 1490550,235340 2442780,182460 24890,103310 60910,202680 110230,297100 367580,699120 988990,1083980 1787430,1020970 731890,-57760 1510050,-489320 2139060,-1237890 613880,-738030 1475260,-956910 2255450,-1427470 329930,-199000 597650,-448180 618330,-810090 27630,-483460 -381820,-972080 -680730,-1309980 -160450,-181320 -236990,-517380 -319250,-875250 -83910,-365090 -172660,-739210 -469360,-994980 -116860,-101830 -238300,-170940 -360590,-217370 408240,-1210730 248060,-2416320 -164030,-3505760zm-13455490 3186070l0 0zm1984840 2301700c-287000,-616250 -566180,-1171800 -866230,-1578770 -300050,-406970 -611470,-656670 -968600,-710770 -53090,-8040 -102920,-11970 -150000,-12130l-9380 0c-269140,1870 -447700,128120 -626130,318610 -211470,225770 -392160,543860 -632710,797630l-1340 1400 -1350 1380c-260200,260770 -589710,339070 -867600,438770 -277890,99690 -501790,204880 -654440,499120l-540 1040 -550 1010c-119220,221360 -93050,538940 -39540,888100 53510,349150 135080,721140 24860,1061120l-880 2710 -980 2680c-222870,607740 -220530,964180 -115650,1168480 104870,204310 333370,314260 683560,387410 700180,146230 1791720,97970 2709260,583950l730 390c829340,433430 1659660,572870 2272140,432980 612660,-139940 1011770,-525100 1065540,-1232620l130 -1800 190 -1800c41560,-414830 -277630,-956820 -690050,-1496780 -412420,-539960 -899100,-1069260 -1129730,-1550620l-340 -730 -370 -760zm7425170 326810c-32210,525400 -272840,1171820 -440320,1801380 -167480,629560 -250300,1226400 -51490,1604600l760 1430 730 1460c320470,643220 864050,904710 1494100,854990 630050,-49730 1345450,-433190 1932140,-1131380 675660,-818430 1733490,-1131550 2330510,-1491640 298640,-180110 460360,-345940 473130,-569310 12770,-223370 -137200,-573320 -603770,-1091070l-340 -390 -360 -390c-242690,-273170 -307400,-656610 -388320,-1008690 -80930,-352070 -174240,-666360 -370530,-832660l-910 -760 -880 -760c-255440,-223390 -505440,-240410 -803510,-233210 -64330,1560 -130570,4880 -198330,7590 -339800,390660 -1144610,869600 -1702820,722530 -510100,-128680 -798530,-723250 -834540,-1306250 -14500,7170 -29090,14750 -43780,22790 -315490,172630 -493550,479840 -606630,933440 -113090,453600 -150760,1041490 -184840,1714670l0 800 0 830zm-7602110 -2232430l0 0zm6999690 3497980c141410,-485830 280840,-944520 301700,-1283650l0 -350c34150,-674440 69620,-1274420 193340,-1770700 142540,-571790 423470,-1029100 949890,-1211930 4590,-41950 10610,-83320 18100,-123930 116990,-775050 809170,-813070 1677810,-430910 837490,378920 1151780,709930 1009910,1158730l184230 70c174210,-566180 -188110,-981030 -1167810,-1458090 -65850,-31170 -130830,-60060 -194800,-86640 130760,-531480 104780,-1070010 -17090,-1582270 -267260,-1123430 -1001860,-2118720 -1561430,-2613570 -103220,-4280 -93210,86250 115010,288300 515760,474630 1643640,2178940 1033310,3761210 -174420,-44610 -337290,-66100 -485200,-61570 -233430,-1289780 -773730,-2360300 -1045310,-2864150 -510930,-949680 -1305870,-2895680 -1647650,-4242970 -198960,283870 -548590,527250 -988310,664760 -189110,57010 -442620,250180 -703630,399430 -275360,157460 -611460,294050 -1052440,268530 -377810,-22010 -627880,-160970 -828060,-321840 -199780,-160560 -354030,-337350 -559410,-458300l-274030 -179750c-88920,1676920 -1208460,3780910 -1743710,4994200 -367470,874390 -586360,1809190 -612180,2725770 -966040,-1287970 -260480,-2937950 116930,-3652910 421110,-781990 486840,-996930 384570,-921680 -379880,619650 -975240,1607040 -1206960,2622280 -266390,1167110 -11870,2190020 1103660,2884080 814440,499480 1368690,999390 1695940,1442340 327270,442980 429950,830890 327720,1105880 -109230,293790 -423350,393180 -738190,392940 87500,109920 175520,221420 261210,333600 134180,175660 264530,353780 378170,533540 1676800,1144340 3651740,704580 5074710,-310450zm-3287070 -14435620l0 0zm-83360 3074770c401320,23220 696470,-97070 957300,-246220 260840,-149150 482080,-331190 735810,-413630l460 -210 490 -210c520360,-162490 891180,-489740 1007350,-800700 58090,-155480 56390,-303270 -13010,-439560 -69400,-136290 -211440,-265720 -453450,-365010l-620 -240 -600 -270c-502990,-215430 -721420,-230690 -1002140,-413240 -457020,-293840 -834520,-396690 -1148230,-395460 -164320,650 -311130,29870 -442700,75160 -382260,131590 -635860,405940 -794940,556520l-130 240 -490 480c-30990,29760 -71480,56540 -168810,127960 -97970,71890 -245050,179830 -456770,338500 -188320,141140 -249360,324750 -184320,539860 65030,215110 272250,463240 651810,677770l620 360 600 360c235640,138370 396560,324820 581230,473230 184660,148410 388890,264400 730540,284310zm1601610 -4891460l0 0zm-1105910 1697430c160980,38320 332500,100150 514510,190840 -12480,-71980 -17620,-146110 -15930,-227030 0,-5840 0,-10720 980,-16570 4870,-147210 30220,-271020 81890,-395810 51670,-124790 114070,-214470 197910,-284670 79910,-66900 157150,-97400 246100,-97670l13220 270c94570,2930 173530,38020 252500,115040 78970,77020 133560,169630 176460,298320 40940,122840 59460,242760 56540,383140 0,6820 -1950,11700 -1950,17550 -4870,146240 -30220,269080 -81890,394840 -34200,83260 -73100,149860 -119820,206010 128880,44720 283510,99660 485080,185990 29080,11960 57120,24420 84120,37380 79530,-96200 145970,-207320 203820,-339720 101390,-232020 147210,-459180 145260,-726300 -1950,-6830 -1950,-12680 -1950,-19500 -4870,-260300 -54590,-479650 -157930,-703880 -105290,-230080 -235930,-394840 -417260,-526450 -178500,-129550 -352270,-189190 -555750,-189210l-9720 0c-207660,1950 -383140,64340 -561550,199850 -178410,135510 -305140,302220 -407510,534250 -102360,232020 -146240,460150 -143310,726300l0 20480c1700,75110 7000,146940 16180,216550zm-830200 -270090c-12680,-230080 -58500,-425060 -144290,-620040 -85790,-194980 -188160,-333420 -323670,-441630 -124930,-99760 -245700,-144850 -380680,-145180 -11440,-50 -22990,240 -34640,880 -149160,7800 -272970,69220 -395810,191080 -122830,121860 -207650,270050 -271020,474780 -63370,204730 -85790,402630 -73120,632710l0 1940c13650,230080 59470,425060 145260,620040 72430,164610 155270,289630 261460,389110l125760 -92430c54840,-40300 86800,-64050 153730,-115560 -10610,-7460 -21270,-15820 -32050,-25130 -64340,-55570 -114060,-127710 -156960,-229100 -41920,-98470 -65320,-195960 -77020,-312950 0,-4870 -980,-8780 -980,-13650 -10720,-120890 -3900,-226180 21450,-333420 25340,-107230 60440,-188150 114060,-253470 53620,-65320 110170,-98470 178410,-104310 6400,-530 12740,-880 19010,-880 60610,-460 115710,22660 174020,73020 64340,55570 113090,127720 156960,230080 40950,98470 65320,195960 77020,311970 0,4880 0,8780 980,13650 8390,87350 6760,165700 -4170,242910 111790,-73810 240050,-142080 385580,-192180 25630,-8820 51790,-17030 78480,-24620 7620,-88090 8370,-179050 2230,-275680l0 -1940zm291330 2637130c-461030,0 -829360,-212920 -1105630,-431850 -138140,-109470 -252140,-219730 -343230,-305020 -45540,-42650 -85040,-79000 -121890,-107390 -36850,-28390 -66840,-56540 -128500,-56540l-2950 129570c-4420,43360 -8950,42020 -7160,43200 2880,1890 17180,6820 33880,19680 27090,20870 64700,54900 109340,96700 89270,83600 207900,198550 353950,314290 292100,231470 698330,468960 1212200,468960 514590,0 1001450,-240520 1411660,-477250 205100,-118360 391380,-236510 549790,-324950 158390,-88440 291660,-143890 368820,-148490l-10250 -171300c-135370,8070 -277150,77770 -442240,169940 -165090,92170 -350730,210060 -551920,326170 -402370,232200 -865560,454280 -1325870,454280z"/>
 </g>
</svg>
