<?xml version="1.0" encoding="UTF-8"?>
<!DOCTYPE svg PUBLIC "-//W3C//DTD SVG 1.1//EN" "http://www.w3.org/Graphics/SVG/1.1/DTD/svg11.dtd">
<!-- Creator: CorelDRAW X6 -->
<svg xmlns="http://www.w3.org/2000/svg" xml:space="preserve" width="124.849mm" height="124.678mm" version="1.1" style="shape-rendering:geometricPrecision; text-rendering:geometricPrecision; image-rendering:optimizeQuality; fill-rule:evenodd; clip-rule:evenodd"
viewBox="0 0 11302454 11286965"
 xmlns:xlink="http://www.w3.org/1999/xlink">
 <defs>
  <style type="text/css">
   <![CDATA[
    .fil0 {fill:#373435}
    .fil1 {fill:#373435;fill-rule:nonzero}
   ]]>
  </style>
 </defs>
 <g id="Layer_x0020_1">
  <metadata id="CorelCorpID_0Corel-Layer"/>
  <path class="fil0" d="M7749691 2333531c-922161,-908989 -2291525,-1204303 -3462234,-605420 -460365,227037 -1091006,838758 -1311733,1273902 -340551,674792 -372082,933360 -346861,3146914l18920 2030676 -170275 245949c-94593,132434 -283789,372082 -416224,523436l-207555 239485c203726,217495 425965,417473 664227,597435l117217 -250420c75682,-163966 220727,-428835 315320,-599110 220727,-372082 321631,-378392 990113,-44151 548658,277489 832447,315330 1154078,145054 365772,-189196 1683815,-1091016 1683815,-1154078 0,-132434 -277479,-50452 -1065785,315321 -1015334,466675 -1166689,479286 -1702736,119823 -208117,-138744 -384693,-283789 -384693,-315320 0,-75682 12611,-75682 454065,75673 264869,88293 460366,113514 605420,88293 271169,-50452 1961295,-775696 2093729,-889210 189196,-182886 -214417,-88292 -1034254,233338 -1242361,491906 -1374805,485596 -2226173,-81983 -397303,-264869 -460366,-334241 -460366,-491905 0,-119824 56753,-220728 163966,-309011l170276 -132435 -132435 -302709c-391002,-901820 -132434,-1715356 536048,-1715356 397303,0 605419,290099 649561,908129l31531 435145 441455 0 441445 0 18920 -214418c37841,-554968 94594,-763084 245949,-945970 201806,-233338 346860,-302710 693712,-302710 189196,-6301 309020,37841 454065,151355 391002,334241 485596,1065794 220727,1727966l-100904 258568 195497 220718c227028,264878 220727,227037 94594,662182 -138736,466675 -88284,668482 346860,1450478 392062,693658 634136,1248861 610327,1373148 714135,-389418 1326698,-941263 1787878,-1605807 -10510,7822 -19581,11932 -26986,11932 -100904,-6301 -775696,-1046865 -882900,-1362186 -56761,-163965 -126133,-712633 -157664,-1292822 -126125,-2068508 -213422,-2700435 -1109937,-3619899z"/>
  <path class="fil0" d="M6482099 5234487c-163965,-126124 -208116,-138744 -416223,-81974 -151355,37841 -296400,340551 -296400,618031 0,208116 18920,233338 353161,378383 195497,88292 378383,145045 403613,126124 107213,-63062 201807,-485596 163966,-693712 -25221,-119824 -113514,-271179 -208117,-346852z"/>
  <path class="fil0" d="M4129793 5739013c0,-428835 -384693,-693713 -624332,-435145 -189195,201807 -182886,624341 12611,851369l151355 170275 227028 -170275c195497,-151355 233338,-214418 233338,-416224z"/>
  <path class="fil1" d="M5651218 0c1559194,0 2971424,631682 3994226,1652964 1023771,1022241 1657010,2433194 1657010,3990514 0,1557302 -633230,2968264 -1657010,3990523 -1022802,1021282 -2435032,1652964 -3994226,1652964 -1559185,0 -2971405,-631692 -3994217,-1652973 -1023762,-1022250 -1657001,-2433212 -1657001,-3990514 0,-1557302 633230,-2968255 1657010,-3990514 1022803,-1021282 2435023,-1652964 3994208,-1652964zm3357700 2293038c-858700,-857416 -2045785,-1387751 -3357700,-1387751 -1311906,0 -2498981,530335 -3357682,1387751 -857724,856446 -1388249,2040933 -1388249,3350440 0,1309507 530525,2493993 1388240,3350440 858701,857424 2045785,1387760 3357691,1387760 1311915,0 2499000,-530336 3357700,-1387751 857724,-856447 1388249,-2040942 1388249,-3350449 0,-1309507 -530525,-2493994 -1388249,-3350440z"/>
 </g>
</svg>
