<?xml version="1.0" standalone="no"?>
<!DOCTYPE svg PUBLIC "-//W3C//DTD SVG 1.1//EN" "http://www.w3.org/Graphics/SVG/1.1/DTD/svg11.dtd" >
<svg viewBox="0 -410 2048 2048">
  <g transform="matrix(1 0 0 -1 0 1638)">
   <path fill="currentColor"
d="M801 1427h69q165 0 366 -64v1l1 9v38l3 3q148 -24 238 -53q63 -21 90 -42q28 -21 61 -123q11 -39 11 -46q-68 -51 -131 -51q-83 0 -231 96v-1q22 -53 27 -60q140 -68 195 -68q51 0 128 39l5 1l1 -1v-4q0 -17 -16 -46q-20 -17 -86 -43q-88 -26 -175 -26l-130 11h-8
q-68 0 -68 -72q0 -63 62 -152v-4q-4 0 -58 25q-72 32 -74 38q-63 73 -89 97q-63 50 -133 50q-85 0 -113 -61q-10 -31 -10 -65q0 -21 5 -61h-1l-76 36q-23 11 -23 13q-8 37 -19 63q-17 42 -62 90q-75 72 -169 72h-11q-103 0 -157 -88q-21 -34 -21 -76q0 -87 78 -142
q43 -24 92 -24q83 0 107 67q5 15 5 31q0 53 -51 88q-23 11 -48 11q-35 0 -50 -29l-2 -13q0 -24 26 -32l4 -1q6 0 29 6h7q13 0 23 -10q10 -11 10 -25q0 -36 -66 -43h-7q-45 0 -83 46q-17 30 -17 58v1q0 77 84 111q29 7 48 7q84 0 143 -76q31 -49 31 -101v-5q0 -75 -65 -135
q-57 -43 -132 -43h-5q-126 0 -211 102q-40 58 -47 108q-5 20 -5 48q0 162 167 311q61 49 105 74q83 50 163 81q142 54 266 54zM1385 1231q0 -53 55 -84q20 -7 35 -7h2q57 0 85 59q5 16 6 32q0 53 -55 84q-20 7 -35 7h-2q-57 0 -85 -59q-6 -20 -6 -32zM1476 1296h1
q39 0 58 -37q6 -12 6 -27v-1q0 -46 -49 -62l-16 -2q-38 0 -58 38q-6 15 -6 27q0 38 37 58q12 6 27 6zM1462 1246v-3q0 -13 28 -17q27 4 27 18q-4 19 -27 19h-1q-27 -3 -27 -17z" />
  </g>

</svg>
