<?xml version="1.0" encoding="UTF-8"?>
<!DOCTYPE svg PUBLIC "-//W3C//DTD SVG 1.1//EN" "http://www.w3.org/Graphics/SVG/1.1/DTD/svg11.dtd">
<!-- Creator: CorelDRAW X6 -->
<svg xmlns="http://www.w3.org/2000/svg" xml:space="preserve" width="147.836mm" height="130.192mm" version="1.1" style="shape-rendering:geometricPrecision; text-rendering:geometricPrecision; image-rendering:optimizeQuality; fill-rule:evenodd; clip-rule:evenodd"
viewBox="0 0 13538759 11922965"
 xmlns:xlink="http://www.w3.org/1999/xlink">
 <defs>
  <style type="text/css">
   <![CDATA[
    .fil0 {fill:#373435}
   ]]>
  </style>
 </defs>
 <g id="Layer_x0020_1">
  <metadata id="CorelCorpID_0Corel-Layer"/>
  <path class="fil0" d="M5961483 2562964c653878,0 1264723,184625 1782908,504540l0 -3205 0 -2792994c-562995,-176291 -1161880,-271305 -1782908,-271305 -1646024,0 -3136482,667359 -4215216,1746267 -1078908,1078734 -1746267,2569192 -1746267,4215216 0,1646033 667359,3136481 1746267,4215225 1078734,1078908 2569192,1746257 4215216,1746257 621028,0 1219913,-95004 1782908,-271304l0 -2792994 0 -3196c-518185,319905 -1129030,504539 -1782908,504539 -938664,0 -1788458,-380467 -2403259,-995269 -614792,-614792 -995260,-1464595 -995260,-2403258 0,-938664 380468,-1788458 995260,-2403259 614801,-614792 1464595,-995260 2403259,-995260z"/>
  <polygon class="fil0" points="7744391,3067504 7744391,5627171 11087320,5627171 13538759,3064299 7744391,3064299 "/>
  <polygon class="fil0" points="11087320,6295794 7744391,6295794 7744391,8855471 7744391,8858667 13538759,8858667 "/>
 </g>
</svg>
