<?xml version="1.0" standalone="no"?>
<!DOCTYPE svg PUBLIC "-//W3C//DTD SVG 1.1//EN" "http://www.w3.org/Graphics/SVG/1.1/DTD/svg11.dtd" >
<svg viewBox="0 -410 2048 2048">
  <g transform="matrix(1 0 0 -1 0 1638)">
   <path fill="currentColor"
d="M895 1857v-3l-20 -2v3l2 2h5h13zM913 1858h19v-3h-19v3zM950 1858l20 -1v-3l-20 1v3zM988 1857l20 -1v-4l-20 1v4zM857 1855v-4l-19 -3l-1 4zM1026 1854l19 -3v-3q-20 1 -20 3v1l1 1v1zM820 1850v-3l-20 -3v4h1zM1063 1848l19 -2v-4q-20 3 -20 4zM783 1844v-4l-19 -3
l-1 1v2zM1100 1842l19 -3v-5l-20 5zM746 1836v-4l-19 -4l-1 3zM1137 1834q19 -5 19 -6l-1 -3l-19 4v3l1 1v1zM709 1826h1v-4l-19 -4v2h-1l1 1zM1175 1823q17 -4 17 -6l-1 -3l-19 6v1q0 2 3 2zM674 1814l1 -3l-19 -6l-1 1v2q0 2 19 7v-1zM1208 1811l19 -5v-3l-1 -1v0l-18 6v3
zM638 1802h1v-2q0 -2 -18 -8v0l-1 3h1zM1244 1799l18 -7v-2q0 -2 -2 -2q-13 4 -17 8v1l1 1v1zM604 1788v-1v-2q0 -2 -18 -9v1v3zM1280 1783q17 -7 17 -9l-2 -2l-17 9zM570 1771l1 -3h-1q-13 -8 -17 -8l-1 1v3l18 8v-1zM1313 1767q17 -8 17 -10v-1l-2 -1l-17 9zM537 1754
l1 -1v-3l-17 -9l-1 1v2q9 8 17 10zM1345 1749h1q17 -9 17 -11v-1h-1v-1q-16 8 -17 10v3zM504 1735l1 -1v-2l-16 -11l-2 4zM1379 1729q16 -10 16 -11l-3 -2q-14 8 -15 11v1zM474 1714l1 -3l-16 -11h-2v2l-1 1l1 1q13 10 17 10zM1410 1708q14 -8 16 -12l-3 -2q-15 10 -15 12
t2 2zM442 1692l2 -2q-14 -12 -16 -12l-1 1v2zM1439 1686l17 -12v-1l-3 -2l-15 11zM412 1669l2 -2v-1l-14 -12h-1l-1 3zM1469 1662q3 0 15 -13v-1l-2 -2l-15 13v1zM384 1644l2 -2q-7 -9 -14 -14l-2 3zM1497 1636h1l14 -13q-2 0 -2 -3h-20v4h15l-10 10v1zM941 1628
q53 0 121 -35q22 -14 38 -32q32 -38 40 -79q10 -73 17 -246q4 -53 12 -80q8 -32 45 -76q85 47 188 131q106 90 179 119q14 6 31 9q14 0 23 -21h4v-31l-1 -4l1 -6v-16h-3l-1 1h-1q-2 -23 -39 -80q-42 -65 -75 -123h14q136 0 218 -16q9 0 16 -29v-7q0 -21 -32 -40
q-39 -29 -97 -63v-19h-4v16h-1q-30 -19 -67 -32q-46 -20 -97 -52q-111 -75 -150 -181q-8 -24 -13 -73q-13 -49 -27 -76q-9 -17 -25 -40q191 -19 191 -42q0 -6 -13 -18l2 -2l-16 -11l-2 2l5 6q-17 -9 -69 -25q-12 -9 -30 -33q-14 -10 -28 -10l8 -6l1 1h3q0 -4 26 -23
q15 -13 17 -18v-7q-16 -23 -61 -23q-21 0 -53 12h-2q-19 0 -33 -6l-5 -1q-10 0 -33 6l-13 -3l-2 1v2l7 1v1h-2q-21 -4 -44 -10h-1q-9 0 -40 11h-4l-44 -13h-8q-37 10 -37 26q0 10 36 35q55 43 55 62q0 18 -116 22h-10q-132 -14 -132 -31q2 -7 33 -30q56 -36 56 -53
q0 -14 -34 -16h-9q-18 0 -40 2q-5 0 -24 -18l-7 -1q0 -3 17 -4h10v-4h-16l-19 4l1 1v3l-55 18l-6 -2q1 -3 7 -3v-4l-16 3q-19 -6 -29 -7q-8 0 -31 18l-3 1l-46 -20l-7 -1q-59 0 -59 18v2q0 14 30 39l6 4v2q-3 0 -5 3l1 3l9 -3l6 5v1q-2 0 -19 21q-18 15 -43 15q-27 8 -42 16
v-1l10 -7l-1 -3h-1q-16 10 -16 12l1 2q-1 0 -15 9l-1 -1v-1q-9 6 -16 13l3 3q-8 6 -8 14v5q0 13 117 25l75 6q-32 61 -71 176q-18 67 -27 86q-12 23 -48 60q-86 75 -203 120q-75 33 -135 75q-37 31 -38 50v8q0 11 16 24q36 19 106 19h23v19h4v-19h1q37 0 94 -7
q-68 93 -90 171q-2 5 -6 23h-3v9l-2 37q0 23 3 27l-1 5v17h4v-12h1q5 13 21 13h1q42 0 192 -127q66 -53 115 -84q50 -32 79 -43q60 65 60 138v4l-3 120v27q0 168 106 223q56 27 120 27zM249 1624h20v-4h-20v4zM287 1624h19v-4h-19v4zM324 1624h20v-4h-20v4zM362 1624h20v-4
h-20v4zM400 1624h19v-4h-19v4zM437 1624h19v-4h-19v4zM475 1624h19v-4h-19v4zM512 1624h19v-4h-19v4zM549 1624h20v-4h-20v4zM587 1624h20v-4h-20v4zM625 1624h19v-4h-19v4zM662 1624h20v-4h-20v4zM700 1624h20v-4h-20v4zM738 1624h19v-4h-19v4zM775 1624h20v-4h-20v4z
M813 1624h20v-4h-20v4zM851 1624h19v-4h-19v4zM1001 1624h20v-4h-20v4zM1039 1624h19v-4h-19v4zM1077 1624h18v-4h-18v4zM1114 1624h19v-4h-19v4zM1151 1624h20v-4h-20v4zM1189 1624h19v-4h-19v4zM1226 1624h20v-4h-20v4zM1264 1624h20v-4h-20v4zM1302 1624h19v-4h-19v4z
M1339 1624h20v-4h-20v4zM1377 1624h20v-4h-20v4zM1415 1624h19v-4h-19v4zM1452 1624h20v-4h-20v4zM1528 1624h19v-4h-19v4zM1565 1624h20v-4h-20v4zM1603 1624h20v-4h-20v4zM1635 1619h4v-20h-4v20zM357 1618l2 -2l-14 -14l-2 3zM1524 1610q14 -12 14 -14l-3 -2l-14 14z
M245 1606h4v-20h-4v20zM331 1591l2 -2l-13 -15l-2 3zM1000 1570q0 -16 35 -32q27 -25 42 -55q14 -29 25 -70q4 -16 9 -16h4q8 0 15 13q-11 97 -18 97q-16 26 -60 58q-24 18 -29 18h-3q-19 -2 -19 -11zM1550 1583l13 -15l-3 -2q-4 4 -12 14zM1635 1581h4v-20h-4v20zM245 1568
h4v-20h-4v20zM306 1562l2 -1q-2 -6 -12 -16l-2 2v1zM1575 1554l11 -15l-1 -2h-1q-12 12 -12 16zM1635 1543h4v-19h-4v19zM282 1533h1l2 -2q-9 -15 -12 -16l-2 3zM245 1530h4v-19h-4v19zM1597 1524h1l11 -16l-3 -2l-11 16zM1635 1506h4v-19h-4v19zM260 1503l3 -3
q-10 -13 -10 -15h-1l-2 2v0zM1619 1494l11 -16l-2 -2h-1q-3 1 -11 15zM245 1493h4v-20h-4v20zM812 1387q0 -20 8 -48l18 1q-5 18 -5 36q0 49 31 68l9 2h6q22 0 36 -42l3 -23v-3l1 1h6l15 -1v15q0 44 -28 77q-17 17 -36 17q-41 0 -60 -66q-4 -21 -4 -34zM941 1383l1 -5h8
l12 -2v1q0 45 31 67l9 2h6q21 0 35 -39q4 -15 5 -31q-2 -27 -7 -37h7h12q3 0 7 18q2 12 2 26v12q0 50 -36 83q-13 9 -28 9q-42 0 -61 -70zM239 1471h1l3 -3l-10 -16l-3 1q0 3 9 18zM1635 1468h4v-3l10 -20v-1h-2l-1 -1l-1 1q-4 10 -6 10v-5h-4v19zM245 1455h4v-20h-4v20z
M220 1439l4 -2q-8 -16 -10 -17l-3 2zM1635 1431h4v-19h-4v19zM1659 1429l8 -17l-1 -1h-2q-2 0 -9 17l1 1h3zM245 1417h4v-19h-4v19zM203 1405l3 -1l-8 -18h-2l-1 1h-1zM1672 1395h4l7 -18h-2l-1 -1l-1 1l-7 17v1zM1635 1394h4v-20h-4v20zM245 1380h4v-20h-4v20zM188 1371
l1 -2l-7 -18l-3 2q4 14 9 18zM811 1324v-1q67 -40 133 -40q67 0 123 42v1l-5 4h-2q-49 0 -81 27q-9 6 -41 12l-8 1q-11 0 -35 -18q-49 -23 -62 -23t-22 -5zM1691 1361q6 -13 6 -18l-2 -1l-8 19h2l1 1zM1635 1356h4v-20h-4v20zM914 1343h4q2 0 4 -11q-2 -10 -5 -11
q-6 0 -6 13zM956 1343h3q3 0 4 -7v-6q0 -7 -5 -9q-4 0 -5 9v6q1 6 3 7zM171 1336h4q0 -4 -6 -19h-2l-1 1h-1zM1705 1327q6 -15 6 -19h-2l-1 -1l-1 1l-6 18zM810 1314v-1q42 -34 106 -65l18 -6q27 4 121 60l4 4q-59 -31 -120 -31q-66 0 -129 39zM159 1301h1l2 -2l-5 -18h-2
l-2 2zM935 1228q-14 0 -82 35l-32 21h-3q-2 0 -3 -25q-9 -59 -18 -80q0 -7 -22 -45q-11 -26 -22 -87q-7 -67 -11 -67q-26 -72 -55 -123q-21 -38 -21 -120q0 -81 18 -176q15 -43 82 -77q59 -28 172 -28l27 -1q173 0 213 85q33 69 33 164q0 92 -35 151q-22 47 -43 114
q-5 5 -30 101q-31 121 -31 130l-2 53v43q-53 -46 -135 -68zM1717 1292l6 -20h-4l-4 19zM149 1265h1l1 -2q-4 -18 -6 -18l-3 1q5 19 7 19zM1728 1256l5 -20h-4l-4 19zM1635 1243h4v-20h-4v20zM245 1229h4v-20h-4v20zM139 1228h3l-4 -19h-4v0q2 13 5 19zM1734 1219h3l4 -19
l-1 -1h-3zM1635 1205h4v-19h-4v19zM132 1191h2l-3 -19h-4q3 19 5 19zM245 1191h4v-19h-4v19zM1741 1181h2q2 0 5 -18l-1 -1h-2q-2 0 -4 19zM1635 1168h4v-20h-4v20zM125 1154h3l-3 -19h-3q1 19 3 19zM245 1154h4v-19h-4v19zM1747 1144h4l1 -19h-3zM1635 1130h4v-20h-4v20z
M120 1117h3l-1 -20h-4zM245 1117h4v-20h-4v20zM1751 1107h3l1 -16v-3l-3 -1v2zM1635 1092h4v-19h-4v19zM117 1080h2q2 0 2 -3l-1 -17h-4zM1752 1070h4l1 -5v-15h-4v13zM1363 1020l1 -3q0 -22 -12 -22q-5 -3 -5 -9l2 -10h4q40 0 49 13q0 8 116 10h8q120 0 171 -8v-1
q-7 -8 -7 -14v-1l3 -3h4q18 2 48 26l3 8v0q0 11 -29 18zM519 985q0 -48 62 -76l8 -1q13 3 13 22v1l-5 33q0 15 16 29h-34q-4 0 -36 23q-7 4 -13 4q-8 0 -11 -35zM158 997q0 -19 104 -71q29 -18 151 -84q32 -18 96 -67q19 -14 59 -56q7 -5 12 -5h1q5 2 5 9v13q-30 44 -84 100
q-52 44 -103 75q-63 38 -100 46q-51 15 -86 56h-12q-43 0 -43 -16zM854 987q118 0 195 -10v-1h-2q-113 0 -286 -16h-1q-12 0 -12 5q0 9 37 22h69zM119 967h4l1 -20h-3zM1750 963h3l-1 -20h-2l-1 1h-1zM754 932q9 0 9 -19v-17q0 -34 -22 -186v-10q0 -81 96 -158
q40 -27 91 -54q8 -4 8 -6q0 -3 -15 -4q-75 0 -142 36q-29 14 -49 57q-30 77 -30 163q0 64 54 198zM123 929h4l3 -19l-4 -1zM1747 926h3l-3 -20h-4v1q1 19 4 19zM129 892h3q2 0 4 -19h-1l-3 -1v1zM245 891h4v-20h-4v20zM1740 889h2l1 -2l-3 -18h-4zM1286 751v-2q0 -21 14 -21
h4q23 0 60 55q31 37 57 56l43 28v1q-24 8 -41 8h-12q-53 0 -101 -62q-24 -37 -24 -63zM1635 867h4v-19h-4v19zM141 855l4 -19h-4l-4 19h1l3 1v-1zM245 853h4v-19h-4v19zM1732 852h3v-1l-3 -19h-2q-2 0 -2 3zM1635 830h4v-20h-4v20zM146 819h4l5 -19h-4zM245 816h4v-20h-4v20
zM1724 816l2 -2q-4 -18 -6 -18l-3 1q5 18 7 19zM1635 792h4v-20h-4v20zM160 783l7 -18l-1 -1h-2q-3 0 -7 19h1h2zM1713 780h1l1 -2l-7 -18l-2 1q5 19 7 19zM245 778h4v-20h-4v20zM1635 754h4v-19h-4v19zM173 747l6 -18v-1h-3l-7 18l1 1h3zM1700 745l3 -2l-8 -18l-3 1
q6 19 8 19zM245 740h4v-19h-4v19zM1635 717h4v-20h-4v20zM188 713l7 -18l-1 -1h-2q-3 0 -8 18l1 1h3zM1686 709h1v0h1q-6 -16 -9 -18l-2 1q7 17 9 17zM245 703h4v-20h-4v20zM202 679q2 0 9 -18h-2l-1 -1l-1 1l-8 17l1 1h2zM1635 679h4v-20h-4v20zM1669 675h1l2 -2
q-7 -15 -10 -17l-2 3q8 16 9 16zM245 665h4v-20h-4v20zM219 645q3 0 10 -17l-1 -1h-3l-9 18h1h2zM1651 643l4 -2q-8 -16 -11 -17q-2 0 -2 2zM1635 641h4v-19h-4v19zM245 627h4v-19h-4v19zM239 614l10 -17l-4 -2l-10 16zM1632 610l3 -1q0 -3 -10 -18l-2 1q0 3 9 18zM1635 604
h4v-20h-4v20zM245 590h4v-19h-4v19zM259 582l11 -17h-1l-3 -1q-10 14 -10 17zM1612 579l3 -2q-9 -15 -11 -16h-3v1zM1635 566h4v-20h-4v20zM245 552h4v-19h-4v19zM281 552l11 -17l-2 -1l-12 15v2zM1590 548l3 -1v-2l-11 -15l-4 3zM1635 528h4v-19h-4v19zM303 522l13 -15
l-3 -2l-13 15zM1567 518l2 -2v-1l-12 -14l-2 3q8 11 12 14zM245 515h4v-19h-4v19zM327 493q9 -7 14 -15l-3 -1l-13 14zM1635 491h4v-20h-4v20zM1543 490l2 -3q-6 -9 -14 -14l-1 3q9 11 13 14zM245 478h4v-20h-4v20zM354 466l13 -14l-3 -2l-13 13zM1516 462h1l2 -2v-1
q-8 -9 -14 -12l-2 2v1zM1635 453h4v-20h-4v20zM245 440h4v-20h-4v20zM380 440l14 -13v-1l-2 -2v0l-14 13v1zM1247 438q-31 -34 -48 -42l-10 -6q0 -21 19 -28q26 -9 69 -37q28 5 36 14l9 9l-22 30v1l67 -11h9q20 0 48 22l4 9v1q0 16 -78 22q-51 7 -91 7q-4 0 -12 9zM1490 437
h1l1 -4l-14 -11h-1l-2 1zM617 427q-61 0 -146 -14q-21 -5 -21 -18q4 -10 23 -19q21 -10 30 -10l14 1v0h-5q0 2 55 18l-17 -33q23 -27 46 -27q18 13 72 45l7 8v3q-2 9 -30 27q-17 15 -18 23h-1q-3 -4 -9 -4zM1635 415h4v-19h-4v19zM408 414h1l14 -10v-2l-2 -2h-1l-14 13z
M1461 412h1l2 -2v-2l-15 -11h-2v3zM684 403q4 -14 4 -23v-6q0 -12 -17 -17q-75 -43 -116 -76q-11 -11 -11 -17q0 -13 27 -13h11q29 0 40 20l32 38h1v-1l1 -40l1 -3h-3v0q23 -9 33 -9h3q15 0 15 8q13 35 15 36l29 -50q6 -3 14 -3h6q10 0 26 13l-18 34v2h1q54 -35 61 -37
l25 -3q17 1 17 10v4q0 9 -17 15q-37 23 -69 54q-5 8 -5 16q0 12 17 26h1v1h-10q-69 0 -114 21zM1075 382h-11q17 -17 17 -27v-2q0 -22 -85 -73q-6 -3 -6 -11v-1q0 -12 18 -12q11 0 45 9q14 19 33 38v0v-1q-8 -31 -8 -38v-1q0 -12 26 -16h3q14 0 29 13l-6 38l36 -39l16 -3
q13 0 30 7v1q-3 0 -3 3l-1 35q51 -46 54 -46q13 -5 27 -5h13q22 0 24 13v1q-1 13 -52 46q-48 31 -89 53l-3 10v5q0 10 5 23q-44 -20 -112 -20zM245 402h4v-19h-4v19zM1635 378h4v-20h-4v20zM1402 367l2 -3l-15 -11h-1l-2 2q2 3 16 12zM245 365h4v-20h-4v20zM499 348h1l15 -9
v-2l-2 -2l-16 9v2zM1372 345l1 -3q-15 -9 -18 -9l-1 1v1q0 3 18 11v-1zM1635 340h4v-19h-4v19zM531 329l17 -10v-1l-2 -2l-16 10v1zM245 327h4v-20h-4v20zM1339 327l1 -1v-2q0 -3 -17 -10l-1 1v2q1 2 17 10zM1635 302h4v-18h-4v18zM245 289h4v-19h-4v19zM1635 265h4v-19h-4
v19zM245 252h4v-20h-4v20zM739 245h1q19 -4 19 -6l-1 -2l-19 4v4zM1131 243l1 -3h-1l-19 -3v3l19 4v-1zM1095 233h17v-4h-20v3l-17 -3v4l20 3v-3zM264 233h20v-4h-20v4zM302 233h20v-4h-20v4zM339 233h20v-4h-20v4zM377 233h20v-4h-20v4zM415 233h20v-4h-20v4zM452 233h20
v-4h-20v4zM490 233h20v-4h-20v4zM528 233h20v-4h-20v4zM565 233h20v-4h-20v4zM603 233h20v-4h-20v4zM641 233h19v-4h-19v4zM678 233h19v-4h-19v4zM716 233h19v-4h-19v4zM753 233h20v-4h-20v4zM828 233h20v-4h-20v4zM866 233h20v-4h-20v4zM903 233h20v-4h-20v4zM941 233h20
v-4h-20v4zM979 233h20v-4h-20v4zM1016 233h20v-4h-20v4zM1054 233h20v-4h-17l1 -1v-2h-1l-19 -2v4h1q15 0 15 3v2zM1129 233h20v-4h-20v4zM1167 233h20v-4h-20v4zM1205 233h20v-4h-20v4zM1242 233h20v-4h-20v4zM1280 233h19v-4h-19v4zM1317 233h20v-4h-20v4zM1354 233h20v-4
h-20v4zM1392 233h20v-4h-20v4zM1430 233h20v-4h-20v4zM1467 233h20v-4h-20v4zM1505 233h20v-4h-20v4zM1543 233h20v-4h-20v4zM1580 233h20v-4h-20v4zM1618 233h20v-4h-20v4zM813 230q20 -2 20 -3l-1 -3l-19 3v3zM850 226l20 -2v-4h-1l-19 2v4zM1020 225v-4l-18 -1l-1 -1
l-1 4l3 1zM888 222h8l11 -1v-3l-11 1h-8v3zM981 222h2v-3h-1l-19 -1v3zM925 221h20v-3h-20v3z" />
  </g>

</svg>
