<?xml version="1.0" encoding="UTF-8"?>
<!DOCTYPE svg PUBLIC "-//W3C//DTD SVG 1.1//EN" "http://www.w3.org/Graphics/SVG/1.1/DTD/svg11.dtd">
<!-- Creator: CorelDRAW X6 -->
<svg xmlns="http://www.w3.org/2000/svg" xml:space="preserve" width="163.236mm" height="142.835mm" version="1.1" style="shape-rendering:geometricPrecision; text-rendering:geometricPrecision; image-rendering:optimizeQuality; fill-rule:evenodd; clip-rule:evenodd"
viewBox="0 0 15815205 13838647"
 xmlns:xlink="http://www.w3.org/1999/xlink">
 <defs>
  <style type="text/css">
   <![CDATA[
    .fil0 {fill:#373435}
   ]]>
  </style>
 </defs>
 <g id="Layer_x0020_1">
  <metadata id="CorelCorpID_0Corel-Layer"/>
  <path class="fil0" d="M6215011 969c-415803,-8410 -865051,38473 -1336708,138410 -509394,107601 -1065487,279263 -1653707,516496 -5222,2054 -20917,10648 -26333,31943l-79204 255535 -1410680 4781040c-1686,4854 -5232,9718 -5232,16064 0,23165 9340,50438 21112,58654 2238,1870 8584,4108 10647,5232l5223 5232 89851 69302c2800,2238 8594,4108 10648,5222 17933,7101 21673,5793 26343,5232l5222 0c12895,-1115 42029,-15686 42223,-16064 1289447,-498930 2319251,-680125 3244079,-569725 394333,47067 776885,152420 1167662,314190 311022,129080 631557,298872 1009071,532365l5232 0 5232 0 5231 0 0 5232c185,0 28204,11578 52861,5232 0,-378 95083,-37175 95083,-37175l5222 -5232c12334,-8962 31575,-24279 36991,-48006l929867 -3135927 501924 -1687704 31750 -111883 26343 -79950c562,-2616 -562,-7470 0,-10648l0 -5231c0,-18864 -7102,-38667 -21112,-48007 -295694,-195573 -530311,-332123 -760821,-452610l-15870 -10647c-665553,-345755 -1308504,-512001 -2018150,-526766l0 194z"/>
  <path class="fil0" d="M9538488 1651682l-1474004 4983336c-4108,11772 -10648,27273 -10648,37175 0,54547 51737,79766 52861,79950 116931,76588 237979,149998 359212,218360 566547,344457 1126379,571042 1711799,697497 339031,73788 695065,113763 1051468,117125 385177,3546 785101,-33997 1194005,-111893 607084,-93959 1224447,-279262 1833400,-548429 11578,-5416 40159,-18312 52861,-42591 0,-930 1500531,-5031353 1500531,-5031353 2800,-8962 5232,-18301 5232,-26711 0,-43143 -37543,-80502 -73972,-111883 -20172,-18874 -49499,-39791 -68740,-48007 -40721,-18873 -82566,-12702 -95084,-5232 -367612,147944 -724954,269923 -1061931,367428 -322405,92836 -638280,165878 -935098,212945 -282625,44828 -556277,70794 -818914,74533 -247881,3546 -495200,-14755 -729062,-48006 -419737,-59401 -820038,-173532 -1225755,-356781 -403295,-181756 -765491,-408333 -1035598,-585604 -23165,-10279 -41466,-17371 -58092,-16063l-194 184c-16809,1492 -29327,11956 -52860,26711l0 -5232 -26334 21296c-50622,36797 -81451,65756 -89851,85181l-5232 16064z"/>
  <path class="fil0" d="M10278014 8525213c-421229,-59963 -817044,-172040 -1215107,-346133 -321475,-140474 -653598,-323723 -1035598,-574956 -23165,-10648 -38483,-16074 -52861,-16074l0 -184c-17003,562 -31574,10648 -58092,26712 -6540,4485 -22981,17371 -42223,31943 -39413,30267 -67054,52492 -73972,69302 -184,1124 0,5232 0,5232l-1474004 4972688c-25403,74534 45023,118055 52861,122541 377514,246951 735980,438600 1098922,591020 212760,90035 433184,168125 649868,229017 234986,66502 476511,114877 718599,149058 259459,36245 523781,53985 792580,53239 285424,-1492 579810,-20734 877006,-63886 314190,-45575 639405,-114499 966858,-207713 344262,-97505 702157,-223040 1061931,-372660 562,0 5232,-5231 5232,-5231 9901,-6346 30073,-18486 42213,-42591l1437022 -4892933 0 -5222c2054,-7286 5232,-14572 5232,-21295 0,-40353 -26149,-63325 -26343,-63887 0,562 -121601,-90597 -121601,-90597l0 -5232c-7847,-8400 -27835,-17933 -79203,-10648 -368543,121979 -727009,219116 -1061932,298126 -322599,75658 -635112,134497 -929876,170364 -556083,69108 -1058937,69108 -1537512,0z"/>
  <path class="fil0" d="M5808363 12182673l1463541 -4887517 52870 -165121c746,-4108 0,-11588 0,-16064 0,-19241 -7102,-32689 -21111,-42591l-5232 0 0 -5232c-622779,-411888 -1322892,-805650 -2250705,-926320 -232747,-30636 -476327,-43337 -723830,-37175l-378 -368c-261513,6530 -541143,32689 -824145,79940 -296625,49508 -611938,123480 -935099,218369 -337161,98630 -692827,223224 -1061931,372660l-5232 0c-12518,5600 -16994,18486 -21111,31943l-1474004 5020696c-8032,26711 9717,49314 26343,63886l95074 74534 5231 5232c23728,15685 48569,12139 58093,10638 550677,-208643 1041391,-358079 1500531,-457832 447562,-96759 854596,-140280 1236402,-138420 319422,2054 615678,36051 913997,101245 269545,59594 533858,139912 803034,255535 377514,165509 723647,375276 982728,537791 0,0 193,5232 0,5232 8032,4108 35121,10454 58102,0 0,0 65000,-36429 84610,-48007l5232 -5231c13263,-9156 31575,-19620 36990,-42591l0 -5232z"/>
 </g>
</svg>
