<?xml version="1.0" standalone="no"?>
<!DOCTYPE svg PUBLIC "-//W3C//DTD SVG 1.1//EN" "http://www.w3.org/Graphics/SVG/1.1/DTD/svg11.dtd" >
<svg viewBox="0 -410 2048 2048">
  <g transform="matrix(1 0 0 -1 0 1638)">
   <path fill="currentColor"
d="M749 1747h3v-1q-41 -3 -58 -6h-3l-5 1v1zM656 1737h1v-1q-25 -12 -29 -16l18 2h7l34 -3h3l26 3v1l-25 5v1h5q30 0 30 -4q-5 -4 -35 -9q-13 -4 -13 -6l1 -1h18l47 6h6q14 0 27 -5v2l-2 11h1q86 -27 113 -39l33 -16l31 6h5q13 0 26 -7q0 -16 42 -38v1q-1 4 -20 21h-1v2h1
q39 -20 94 -68q57 -57 80 -96q25 -41 39 -82l4 -14h-2q-2 8 -11 17h-1v-1l4 -35l-2 -5q13 -31 28 -98v-4h-1q-22 83 -46 128l-10 16h-1q0 -9 -7 -9l-16 1l-2 -3v-4q4 -33 11 -33h1q3 1 3 6h3q12 -12 12 -36q10 -38 10 -46h-1q-3 2 -16 21h-2q7 -35 21 -50h1v-1q0 -2 -7 -4
l-1 -7v-4q1 -35 9 -35q5 3 10 3q-19 -54 -19 -63l-1 -10l3 -22v-1h-1l-12 35h-1v-3l1 -45q0 -11 -9 -36h-1v1q8 27 8 44v9q0 7 -3 8l-4 -4v-4q0 -39 -33 -97q-7 -20 -7 -28l1 -5h-1l-14 18q-15 -20 -18 -33l1 -18q0 -3 -9 -21h-2l4 10l-2 5q0 3 4 9v1q-2 0 -54 -50
q-100 -80 -208 -80h-20q-55 0 -127 25v-1q13 -16 39 -31q46 -17 111 -17h29v-1q-25 -9 -51 -9h-4q-91 0 -194 74q-44 38 -54 58q-2 1 -9 14h2q16 -12 51 -54q19 -18 29 -23v1q-27 25 -42 50h1q50 -51 73 -59q3 -3 16 -9l2 9v2q-1 4 -34 28q-51 42 -72 72q-47 61 -47 145v9
q0 54 9 58l20 53q11 24 25 36q5 2 15 22q60 75 155 75h2q84 0 151 -76v-2h-1q-57 49 -126 49h-9q-74 0 -141 -59q-62 -66 -62 -155v-6l1 -5q3 0 6 11h1v-11q0 -75 58 -146q47 -48 69 -56q55 -31 108 -31q37 0 75 17q0 -3 3 -3q29 5 58 33l20 16h1v-1l-14 -16v-2h2v-1
q18 4 97 79l3 11l-1 15q5 21 14 21q14 7 14 9q22 50 22 81v2h-1q-3 -10 -11 -22v1q11 35 11 75l-1 56v28q-5 0 -5 2q0 57 -41 136q-23 45 -72 95q-97 105 -265 105q-56 0 -100 -18q4 5 31 12l1 1v2h-1q-43 0 -85 -25q-29 -18 -53 -24q-4 0 -7 -5h2v-1l29 6v-1
q-10 -12 -31 -12q-32 -2 -55 -16q-14 -8 -37 -32v-1h1l18 8v-1l-9 -15l-5 1q-47 0 -152 -116l-17 -22q-10 -12 -17 -25q12 -1 12 -3l-46 -94q-5 0 -12 -87q-8 -58 -8 -102v-16q0 -52 19 -77l-4 -35l16 -31l-5 -1h-3q12 -39 24 -55q4 -6 29 -10q22 -17 32 -46q8 -16 8 -20
q-18 6 -25 19h-1v-1q6 -27 37 -69l-9 -9q6 -13 30 -33h-2l-8 3h-2v-2q0 -13 57 -87v-1h2q0 3 6 10q0 -26 37 -68h19q36 -47 58 -47v-1q-11 -14 -11 -16h1q18 -4 46 -26l29 -12l-10 19h1l41 -41q26 -25 72 -36q64 -10 89 -18v-1q-114 0 -165 20q-49 16 -90 37q-59 30 -122 83
q-68 61 -97 99q-50 63 -86 129q-83 163 -83 321l1 33l-1 37l2 96q0 16 -5 34q29 101 68 182v1l5 -3q15 0 37 61q15 32 18 32q7 0 9 14q9 23 97 102q5 3 23 22l2 -11q53 50 219 115h1l-3 -4v-2l4 -1q57 11 68 11zM138 1444h1q0 -4 2 -4l10 1l1 -3q-5 -23 -12 -23l-10 -8h-1v1
q9 10 9 36zM113 1337v-1q-5 -29 -11 -50h-1l-1 28q2 12 13 23zM948 1179h4l2 -12v-13l-2 -9h-2q-3 0 -9 20q0 7 7 14zM1207 1108q0 -20 -23 -94l-21 -46h-1v2q17 32 33 88q8 50 12 50zM935 1092q-10 -42 -29 -63q0 8 -12 9l-3 6q0 11 24 38v-2l-20 -37v-2l1 -1q21 8 21 15
q14 23 17 37h1zM839 1002v-1q-21 -20 -24 -20q-44 8 -44 15q0 2 5 2v1l17 -1h14q17 0 32 4zM542 999h1q5 -14 19 -33l6 -20q-26 40 -26 52v1zM523 966h1l45 -77h-1q-22 20 -45 56l-3 4z" />
  </g>

</svg>
