<svg height="1000" width="785.714" xmlns="http://www.w3.org/2000/svg"><path d="M275.094 269.578q8.928 0 15.345 -6.417t6.417 -15.345 -6.417 -15.345 -15.345 -6.417 -15.066 6.417 -6.138 15.345 6.138 15.345 15.066 6.417zm235.476 0q8.928 0 15.066 -6.417t6.138 -15.345 -6.138 -15.345 -15.066 -6.417 -15.345 6.417 -6.417 15.345 6.417 15.345 15.345 6.417zm-453.096 102.672q23.436 0 40.176 16.74t16.74 40.176v239.94q0 23.994 -16.461 40.734t-40.455 16.74 -40.734 -16.74 -16.74 -40.734v-239.94q0 -23.436 16.74 -40.176t40.734 -16.74zm591.48 10.602v371.628q0 25.668 -17.856 43.524t-42.966 17.856h-41.85v126.666q0 23.994 -16.74 40.734t-40.734 16.74 -40.734 -16.74 -16.74 -40.734v-126.666h-77.004v126.666q0 23.994 -16.74 40.734t-40.734 16.74q-23.436 0 -40.176 -16.74t-16.74 -40.734l-.558 -126.666h-41.292q-25.668 0 -43.524 -17.856t-17.856 -43.524v-371.628h512.244zm-129.456 -225.99q59.706 30.69 95.418 85.653t35.712 120.249h-516.15q0 -65.286 35.712 -120.249t95.976 -85.653l-39.618 -73.098q-3.906 -7.254 2.79 -11.16 7.254 -3.348 11.16 3.348l40.176 73.656q53.01 -23.436 112.158 -23.436t112.158 23.436l40.176 -73.656q3.906 -6.696 11.16 -3.348 6.696 3.906 2.79 11.16zm266.166 272.304v239.94q0 23.994 -16.74 40.734t-40.734 16.74q-23.436 0 -40.176 -16.74t-16.74 -40.734v-239.94q0 -23.994 16.74 -40.455t40.176 -16.461q23.994 0 40.734 16.461t16.74 40.455z"/></svg>