<?xml version="1.0" standalone="no"?>
<!DOCTYPE svg PUBLIC "-//W3C//DTD SVG 1.1//EN" "http://www.w3.org/Graphics/SVG/1.1/DTD/svg11.dtd" >
<svg viewBox="0 -410 2048 2048">
  <g transform="matrix(1 0 0 -1 0 1638)">
   <path fill="currentColor"
d="M721 1783h18q131 0 337 -104q105 -54 227 -144q64 -48 153 -131q84 -90 112 -135q62 -96 62 -151q0 -80 -137 -221q-69 -68 -114 -104q-103 -86 -216 -163q-152 -98 -255 -152q-115 -62 -259 -117q-187 -68 -311 -68q-98 0 -161 43q-28 20 -47 48q-30 53 -30 94v14
q0 98 125 243q75 80 128 124q111 95 194 155q16 12 18 15q-125 57 -243 118q-198 108 -198 165v6q0 61 89 182q25 33 87 95l19 17q128 109 254 147q82 24 148 24zM196 1329v-1q0 -16 24 -40q24 -20 122 -74l246 -132q35 -18 47 -29q7 -7 7 -18q0 -31 -84 -94
q-94 -76 -158 -134q-26 -21 -97 -94q-72 -82 -103 -133q-25 -31 -25 -66v-4q0 -57 49 -94q38 -23 65 -33q38 -12 86 -12q57 0 134 23q95 27 182 63q117 51 261 136q180 107 338 228q61 47 148 129q112 109 119 143q4 12 4 23v5q0 29 -64 113q-36 43 -118 125
q-94 87 -153 128q-125 93 -242 152q-57 29 -128 53q-77 24 -157 24h-3q-35 0 -130 -32q-111 -43 -222 -142q-64 -64 -85 -94q-52 -64 -63 -119zM821 1466q44 0 107 -42q57 -44 74 -88q10 -24 10 -43v-3q0 -65 -65 -108q-32 -16 -62 -16h-2q-54 0 -125 49q-87 69 -87 137
q0 67 93 104q33 10 57 10zM756 1313v-7q0 -34 48 -72q36 -23 69 -23q43 0 69 42q4 11 4 18v6q0 38 -56 76q-35 18 -60 18h-5q-35 0 -58 -28q-11 -14 -11 -30z" />
  </g>

</svg>
