<?xml version="1.0" encoding="UTF-8"?>
<!DOCTYPE svg PUBLIC "-//W3C//DTD SVG 1.1//EN" "http://www.w3.org/Graphics/SVG/1.1/DTD/svg11.dtd">
<!-- Creator: CorelDRAW X6 -->
<svg xmlns="http://www.w3.org/2000/svg" xml:space="preserve" width="75.0001mm" height="74.9999mm" version="1.1" style="shape-rendering:geometricPrecision; text-rendering:geometricPrecision; image-rendering:optimizeQuality; fill-rule:evenodd; clip-rule:evenodd"
viewBox="0 0 7505224 7505204"
 xmlns:xlink="http://www.w3.org/1999/xlink">
 <defs>
  <style type="text/css">
   <![CDATA[
    .fil0 {fill:black}
   ]]>
  </style>
 </defs>
 <g id="Layer_x0020_1">
  <metadata id="CorelCorpID_0Corel-Layer"/>
  <path class="fil0" d="M7505224 3752657c0,2072409 -1680138,3752547 -3752657,3752547 -2072520,0 -3752567,-1680108 -3752567,-3752547 0,-2072580 1680027,-3752657 3752547,-3752657 2072519,0 3752677,1680077 3752677,3752657zm-6304350 -500998c-276762,0 -501018,224256 -501018,501018 0,276652 224256,500938 501018,500938 276652,0 500938,-224286 500938,-500938 10,-276782 -224256,-501018 -500938,-501018zm3577195 2277052c-239636,138336 -321663,444618 -183377,684155 138366,239636 444619,321723 684265,183377 239567,-138316 321644,-444599 183297,-684215 -138316,-239526 -444618,-321633 -684185,-183317zm-2488949 -1776114c0,-495144 246051,-932488 622312,-1197302l-366274 -613546c-438455,292943 -764591,740764 -900075,1265269 158250,128999 259370,325426 259370,545629 0,220153 -101110,416589 -259390,545549 135454,524554 461620,972385 900075,1265299l366304 -613596c-376271,-264764 -622322,-702078 -622322,-1197302zm1463507 -1463497c764571,0 1391727,586217 1457462,1333717l714026 -10428c-35134,-551883 -276202,-1047467 -646689,-1411710 -190472,71960 -410525,61052 -600707,-48774 -190423,-109937 -309906,-295375 -342638,-496625 -185129,-51236 -379964,-79165 -581434,-79165 -346471,0 -673808,81336 -964570,225366l348062 623794c187380,-87191 396175,-136175 616488,-136175zm0 2927023c-220343,0 -429108,-48984 -616508,-136174l-348122 623853c290792,143980 618149,225347 964630,225347 201460,0 396305,-27930 581454,-79165 32722,-201250 152245,-386689 342688,-496705 190182,-109777 410235,-120684 600707,-48694 370467,-364263 611535,-859857 646619,-1411741l-714026 -10427c-65695,747599 -692871,1333706 -1457442,1333706zm1025362 -3239660c239617,138396 545919,56289 684215,-183247 138367,-239637 56340,-545920 -183297,-684296 -239586,-138316 -545869,-56239 -684235,183408 -138316,239536 -56239,545849 183317,684135z"/>
 </g>
</svg>
