<?xml version="1.0" standalone="no"?>
<!DOCTYPE svg PUBLIC "-//W3C//DTD SVG 1.1//EN" "http://www.w3.org/Graphics/SVG/1.1/DTD/svg11.dtd" >
<svg viewBox="0 -410 2048 2048">
  <g transform="matrix(1 0 0 -1 0 1638)">
   <path fill="currentColor"
d="M724 1696h72q240 0 452 -212q172 -195 172 -440v-12q0 -357 -336 -572q-161 -80 -288 -80h-556q-92 0 -132 104q-8 16 -8 44v500q0 381 340 588q153 80 284 80zM636 1224v-148h-148q-235 0 -316 -244l-8 -72q0 -207 212 -300q50 -16 84 -16h44q146 0 252 156
q44 67 44 192v124h152q234 0 312 248l8 68q0 198 -204 296q-58 20 -112 20h-4q-193 0 -288 -188q-28 -59 -28 -136zM1068 1508h4q184 -100 184 -276q0 -179 -184 -276q-62 -24 -108 -24q32 33 32 64q-10 60 -36 60v4q120 0 164 140v40q0 94 -96 144l36 20q24 25 24 56
q0 22 -20 48zM952 1388q156 -28 156 -152v-8q0 -112 -132 -152h-164l-12 12v160q0 72 92 124zM472 1060q-32 -32 -32 -64q0 -35 32 -64q-108 0 -156 -128l-4 -32v-36q0 -79 100 -132v-4q-64 -7 -64 -64v-12l16 -40h-4q-180 98 -180 280q0 169 180 272q76 24 112 24zM624 916
l12 -12v-148q0 -117 -140 -152h-16q-110 0 -152 128v36q0 106 132 148h164zM1232 540h36v-12h-12v-36h-12v36h-12v12zM1272 540h12l4 -20h8l4 20h12v-48h-8v16h-4l-4 -16h-8v8h-4v-8h-12v48z" />
  </g>

</svg>
