<?xml version="1.0" standalone="no"?>
<!DOCTYPE svg PUBLIC "-//W3C//DTD SVG 1.1//EN" "http://www.w3.org/Graphics/SVG/1.1/DTD/svg11.dtd" >
<svg viewBox="0 -410 2048 2048">
  <g transform="matrix(1 0 0 -1 0 1638)">
   <path fill="currentColor"
d="M727 1903q18 0 23 -16q-1 -9 -32 -37q-56 -64 -56 -85l-1 -12q0 -35 17 -35q8 0 59 22q46 15 97 15q102 0 210 -61q17 -11 45 -40q10 -10 20 -10q30 0 85 37q7 9 7 27q0 59 -32 104q-9 17 -9 23v4q0 10 17 14l10 1q53 0 124 -119q31 -68 31 -117q0 -63 -61 -136
q-42 -46 -58 -54q-33 -26 -69 -49l1 -7v-18q0 -132 -86 -212q-59 -56 -59 -84l-1 -13q0 -24 28 -69q20 -42 20 -125v-14q0 -41 -16 -78l-2 -13q14 -78 64 -150q32 -38 59 -56q49 -33 114 -56q76 -22 210 -48q114 -27 153 -52q50 -33 50 -79v-2q0 -34 -58 -65
q-35 -13 -119 -28l-1 -1l3 -16q0 -9 -33 -9q-93 0 -269 -10q-16 1 -17 5v2q0 9 47 32q7 5 48 27q88 46 147 86l6 2h6q14 -11 26 -38q6 -21 19 -21q32 0 79 21q26 14 26 25q-5 16 -35 33q-31 14 -94 23q-182 24 -267 51q-117 35 -144 63q-28 16 -54 40q22 -43 47 -125
q8 -17 8 -38v-13q0 -17 -43 -32q-76 -38 -152 -55q-92 -14 -132 -14h-17q-90 0 -193 11q-47 11 -74 32l-7 11l-7 -1h-7q-139 0 -160 12q-41 17 -41 56v5q0 39 150 72q15 3 31 3h19q57 7 74 7l53 1q18 0 46 16q43 14 43 22v4q0 8 -15 44l-3 17v3q0 7 7 7q-54 74 -54 115v14
q0 31 18 65l1 3q0 2 -20 24q-6 12 -6 18v9l1 7q-32 4 -32 12l-11 9l-12 -1h-7q-34 0 -49 20q-13 11 -13 19l2 9q-22 0 -43 25q-7 9 -7 26q0 43 27 61v1l-52 43l-7 3q-56 -36 -93 -36q-87 0 -127 59q-23 25 -42 63q-6 16 -6 22q0 9 8 9h3q6 0 40 -23q17 -13 63 -26
q8 -6 8 -11v-2q0 -9 -20 -20l-1 -1v-3q2 -5 29 -13l24 -4h13q22 0 49 17l3 4v4q0 16 -44 47q0 1 -5 2q-18 -16 -23 -16q-8 0 -15 33l-34 69l-1 9v2l5 4q6 0 56 -28q21 -9 53 -13q4 -3 4 -7l-9 -18v-1q2 -5 33 -27q16 -15 22 -15q21 10 21 30q0 27 -29 51q-4 0 -20 -12h-4
q-9 0 -15 27q-15 34 -38 63l-4 10q2 4 3 4h2q7 0 77 -34q31 -11 31 -20v-2q0 -4 -6 -12q15 -10 26 -22q17 -28 17 -65q0 -26 -16 -47v-3q15 -17 36 -32q14 29 62 29h22q23 0 44 -26q8 -18 8 -34q0 -28 -18 -37v-1h5q28 0 87 -8q22 0 28 36v3q0 13 -12 26q-44 20 -64 40
q-75 49 -91 49q-52 19 -85 75q-17 30 -17 58v7q0 45 46 95q21 30 21 46q20 73 20 90v4l-16 94l-4 36q0 28 21 79q22 28 46 53q47 47 78 68q77 53 104 53zM485 1650q0 -18 20 -125v-11q0 -13 -6 -35v-1h1q22 75 56 128q22 26 50 56q25 25 54 25q35 0 41 -25l3 -15v-1l-3 -1
q-4 0 -9 21q-9 14 -32 14q-31 0 -61 -37q-41 -41 -59 -79q-17 -36 -41 -109q-4 -7 -21 -57q-13 -21 -44 -59q-16 -32 -16 -55v-3q0 -56 58 -107q20 -16 51 -26q15 -1 93 -55q12 -14 46 -27q21 -13 21 -36v-2q0 -29 -24 -42l-12 -2l-48 6h-1v-1q20 -9 28 -25q4 -11 4 -29v-2
l-1 -1v-1q32 23 61 23h11q58 0 111 -46q26 -15 45 -15h3q32 0 42 12h3l2 -2v-3q-11 -14 -48 -14h-4q-31 0 -76 38q-40 23 -82 23h-4q-31 0 -59 -22h-2v-1q8 0 18 -33v-4q0 -5 -16 -23q-21 -38 -58 -38q-2 -4 -2 -11v-2q0 -17 23 -37q0 -6 18 -9q16 -8 49 -8l12 1l1 -1v-6
l-5 -1h-5q-39 0 -65 11q20 -34 64 -48l38 -6l6 1h7l2 -2v-2q0 -3 -13 -4l-22 2h-1v-1q38 -24 77 -24q17 3 89 24l65 10q82 34 99 45q33 29 33 66v26q0 102 -32 144q-16 28 -16 53v1q0 42 47 84q58 59 63 76q36 62 36 147v6l-1 22q58 37 109 82q79 84 79 153q0 48 -33 119
q-70 110 -115 110q-14 0 -20 -8v-2q0 -6 26 -53q15 -28 15 -79q0 -29 -23 -39q-47 -29 -78 -29q-16 0 -44 33q-36 29 -69 41q-83 37 -161 37q-71 0 -139 -34q-9 -3 -17 -3h-1q-22 0 -22 43q0 30 21 54q18 27 55 64q8 6 12 13v3q0 5 -16 8q-43 -8 -134 -79q-92 -85 -94 -112
q-13 -34 -13 -55zM802 1680h10q53 0 68 -60l7 -27l-1 -3h-4q-3 1 -12 39q-17 44 -57 44h-9q-16 0 -49 -20h-2l-3 3v1q7 7 39 21zM653 1628q17 0 26 -25l1 -7q0 -11 -34 -94q-27 -94 -41 -116q-23 -33 -44 -33h-4q-30 0 -41 43l-1 13v1q0 64 28 106q0 7 39 64q27 37 58 46z
M522 1410q0 -38 29 -49l8 -1q25 0 50 49q35 113 59 169l5 18q0 18 -21 25q-22 0 -53 -31l-26 -36q-50 -78 -50 -121zM780 1615h6q23 0 42 -38q7 -23 7 -47v-6q0 -101 -41 -170q-34 -49 -78 -49h-1l-1 -1q-30 0 -54 25q-22 28 -22 74q0 55 68 161q24 35 66 50zM645 1402
q0 -61 40 -83q13 -7 26 -7h6q33 0 64 37q47 66 47 176v4q0 57 -33 76l-11 3h-2q-28 0 -66 -43q-35 -52 -53 -94q-18 -43 -18 -69zM576 1491h3q17 0 23 -28l1 -12v-3q0 -42 -28 -68q-9 -7 -19 -7q-15 0 -22 27l-2 15q0 42 31 72zM551 1438q3 -19 8 -19h3q13 0 17 29v4
q0 18 -11 18q-17 -7 -17 -32zM712 1471h6q23 0 32 -39l1 -12v-8q0 -40 -31 -69q-12 -10 -25 -10h-1q-23 0 -33 28q-4 11 -4 24v5q0 46 36 75q10 6 19 6zM682 1411q3 -19 8 -19h3q13 0 17 29v4q0 18 -11 18q-17 -7 -17 -32zM568 1342q29 0 51 -19v-5h-5q-22 17 -48 17
q-31 0 -45 -27q-3 -10 -3 -17v-11q0 -17 23 -33q17 -12 50 -12l42 5h4l23 -8q19 0 19 10v5q0 14 -12 24v2l3 3h1q15 -10 15 -27v-8q0 -16 -26 -16l-24 8h-2l-43 -5q-58 0 -77 38l-3 12v14q0 34 36 47q10 3 21 3zM282 1296q19 -26 35 -56q9 -28 13 -32q15 12 22 12h1
q13 -3 29 -30q7 -14 7 -30q0 -23 -26 -35l-4 -1q-7 1 -44 32q-16 9 -16 18v2q0 4 8 16q0 2 -28 6q-21 4 -61 29l-14 6v-1q6 -16 26 -54q10 -19 16 -45l1 -1h1q17 15 21 15h2q9 0 35 -25q20 -15 20 -29v-6q-4 -21 -58 -28h-16q-59 8 -59 26q0 5 17 16l5 7q0 6 -38 16
q-20 7 -65 38h-4v-2h-1q5 -34 64 -101q32 -28 61 -32q24 -4 44 -4q32 0 90 36h4q9 0 64 -50h1q7 4 15 4v1q-12 17 -12 40l1 7q-41 30 -41 41l14 28l3 21q0 53 -34 76q-9 3 -10 7v2q0 3 7 13v1q-2 6 -41 20q-13 8 -55 26zM506 1208q28 0 36 -14q63 -67 81 -73q32 -19 74 -19
h6q32 0 58 13q66 31 76 46q12 9 29 9h14l3 -3v-2q0 -6 -6 -6h-6q-24 0 -31 -12q-29 -23 -86 -47q-20 -9 -52 -9h-4q-79 0 -132 63q-2 0 -40 40q-7 3 -24 3l-2 3v5q1 3 6 3zM445 1052q0 -32 30 -50q13 -5 27 -5h7q50 0 58 21q3 5 4 18q0 34 -27 48q-9 6 -20 6h-17
q-52 0 -61 -31zM407 945q0 -32 37 -44q13 -3 41 -4q23 0 48 26q8 12 8 26q0 13 -12 34l-9 7h-19q-28 0 -44 16l-1 1h-1q-29 0 -45 -37q-2 -6 -3 -25zM532 990l4 -6h1l8 7h-3zM541 977q7 -19 7 -29q0 -39 -50 -56l-14 -2l-27 2l-2 -8q11 -20 34 -30l22 -2h2q31 0 61 16
q53 54 53 67v4q0 32 -27 43q-13 8 -28 8q-20 0 -31 -13zM544 845v-2q0 -8 32 -11h1q26 4 36 12l34 44q0 9 -12 29q-10 0 -28 -25q-34 -39 -50 -39q-13 -5 -13 -8zM921 707v-1q75 -47 90 -58q6 -7 6 -19q0 -13 -19 -29l-5 -1h-8q-5 0 -70 43q-30 17 -66 46l-4 6
q-69 -22 -81 -22q-48 0 -93 33q-3 0 -3 4q-16 0 -52 29l-15 18h-1q-15 -30 -15 -59v-8q0 -40 44 -101q0 -10 40 -36l7 1h19q19 0 36 -20h1q16 0 16 2q15 0 19 -25v-2h3q14 40 25 40q8 6 26 6q22 0 54 -29h1q0 10 52 10l50 17l4 1q7 0 19 -14q26 -24 44 -36q47 -36 78 -45
q52 -23 150 -47q75 -17 238 -39q62 -13 85 -38q10 -12 10 -20q0 -28 -86 -49l-27 -3q-18 0 -28 33q-13 22 -19 26q-4 0 -43 -26q-53 -31 -173 -96q-17 -10 -26 -17l8 -1q126 8 290 11l4 1l1 1v1l-3 16q0 7 39 12q80 15 102 31q37 27 37 50v1q0 80 -168 116q-53 13 -190 42
q-133 33 -202 101q-40 40 -68 105q-22 59 -22 77l3 19q-17 -20 -53 -32q-53 -24 -61 -26zM854 696v-1q27 -26 78 -55q51 -34 55 -34h3q11 0 20 23v2q0 13 -36 32q-24 17 -47 30q-13 11 -16 11q-18 -4 -57 -8zM632 563v-4q0 -8 18 -53v-11q0 -15 -51 -30q-23 -15 -46 -15
q-71 0 -97 -5v-1q14 -1 42 -27q7 -6 7 -17v-1h1q48 23 102 23h6l29 -2q12 8 69 27q43 10 43 16q4 0 8 15l-2 20l1 1v1q-5 27 -12 27l-18 -1q-7 0 -24 18l-13 2l-36 -1l-19 14zM769 488l1 -9q0 -29 -45 -36q-5 0 -70 -24q0 -2 25 -8q14 -5 33 -21q46 22 83 32q49 9 74 20
q8 7 8 17v4q0 25 -4 51q-29 33 -57 33q-29 0 -40 -40q-4 -14 -8 -19zM881 520q4 -36 4 -56v-4q0 -21 -19 -28q-24 -8 -88 -22l-59 -25v-1q25 -30 25 -66h1q80 0 183 27q51 15 110 47l8 2q-20 70 -43 118q-15 34 -21 34q-43 -19 -75 -19q-24 0 -26 -7zM652 506h11
q32 0 71 -14l3 -3v-4l-3 -1q-38 15 -74 15h-3q-5 0 -6 4zM779 499q29 0 95 -14l1 -1v-3l-3 -3q-66 14 -93 14l-1 1v4l1 1v1zM968 497q18 0 28 -28v-7q0 -31 -24 -40h-6q-32 4 -32 31q0 30 27 43zM938 452q0 -21 27 -26h5q22 7 22 37v3q0 18 -24 27q-18 0 -28 -28zM636 478
q24 -2 81 -20l2 -3q-1 -4 -4 -4q-32 12 -77 20q-5 0 -5 3zM771 467q40 0 90 -14v-5l-3 -1q-53 13 -88 13l-2 3v2q0 2 3 2zM596 461q31 -5 65 -18l4 -4v-2l-2 -2l-42 14q-28 4 -28 7v2zM528 445q47 0 99 -15v-2h1q-1 -4 -3 -4q-57 14 -98 14l-1 1v5h2v1zM256 398
q34 -27 107 -27q104 3 104 5q6 7 29 18l2 6v2q0 11 -38 34q-19 6 -39 6h-12q-47 0 -133 -33zM742 442q32 0 55 -9l1 -1v-5l-4 -1q-20 9 -55 9l-1 1v3q0 2 4 3zM693 431q33 0 59 -16l1 -1q-1 -4 -3 -4h-1q-32 14 -55 14h-3l-1 1v4q0 2 3 2zM459 357l31 -21q46 -21 145 -21
l96 2q6 0 6 2q0 26 -19 55q-34 41 -103 41h-8q-67 0 -132 -41q-15 -14 -16 -17zM234 372v-1q0 -61 107 -61q33 -2 88 -2h2l10 1l-1 1v19q0 17 13 32l4 6h-1l-93 -3q-75 0 -110 27l-5 2q-14 -10 -14 -21zM635 308q-137 0 -171 38l-8 5q-9 -8 -9 -22v-11q0 -23 23 -31
q44 -25 97 -25q84 -7 152 -7h10q60 0 162 20q64 18 157 65q5 7 5 12q0 35 -5 35h-1l-66 -31q-63 -28 -166 -40q-87 -8 -180 -8z" />
  </g>

</svg>
