<?xml version="1.0" standalone="no"?>
<!DOCTYPE svg PUBLIC "-//W3C//DTD SVG 1.1//EN" "http://www.w3.org/Graphics/SVG/1.1/DTD/svg11.dtd" >
<svg viewBox="0 -410 2048 2048">
  <g transform="matrix(1 0 0 -1 0 1638)">
   <path fill="currentColor"
d="M841 1759q99 0 200 -71q80 -57 153 -155q66 -91 120 -200q70 -147 123 -322l32 -116h1q93 108 93 190v7q0 118 -200 202q-43 21 -43 31q0 4 11 4h1q61 0 209 -57q253 -113 253 -250q0 -68 -47 -142q-14 -25 -64 -75q-71 -63 -111 -84q-8 -7 -59 -35v-1q38 -240 38 -331
q0 -37 -19 -37h-3q-19 0 -26 20q-7 37 -14 62q-40 128 -84 234h-1q-121 -57 -353 -119q-141 -37 -311 -66q-255 -34 -356 -34q-45 0 -59 8q-33 -105 -131 -105h-5q-48 0 -74 43q-15 29 -15 60q0 46 27 257q37 231 84 384q49 161 112 288q42 84 106 173q184 237 412 237z
M104 419q0 -48 33 -80q23 -19 53 -19h3q97 0 130 107q68 207 133 358q50 116 122 216q131 174 309 174q235 0 434 -358q84 -150 156 -369q26 -79 26 -96q5 -32 27 -32h1q16 0 16 36q0 90 -40 345q-44 231 -101 397q-75 213 -158 348q-39 63 -88 123q-156 187 -320 187
q-196 0 -362 -182q-68 -79 -95 -129q-61 -93 -116 -234q-54 -132 -102 -345q-28 -130 -48 -298q-7 -56 -13 -149zM842 1696h1q128 0 256 -145q63 -73 104 -145q85 -135 178 -425q68 -225 68 -302l-1 -1h-1q-7 0 -51 103q-36 81 -69 140q-200 314 -441 314q-261 0 -439 -333
q-88 -170 -184 -469q-10 -24 -25 -42q-13 -11 -43 -11h-9q-12 0 -15 8q-8 15 -8 33q0 48 27 254q37 227 83 376q46 148 104 266q39 80 105 171q162 208 360 208zM330 433v0q29 7 223 47q367 85 566 179q95 41 192 103l26 18q-206 392 -450 392q-226 0 -378 -289
q-86 -159 -179 -450z" />
  </g>

</svg>
