<?xml version="1.0" standalone="no"?>
<!DOCTYPE svg PUBLIC "-//W3C//DTD SVG 1.1//EN" "http://www.w3.org/Graphics/SVG/1.1/DTD/svg11.dtd" >
<svg viewBox="0 -410 2048 2048">
  <g transform="matrix(1 0 0 -1 0 1638)">
   <path fill="currentColor"
d="M465 1810h25q108 0 203 -60q22 -7 42 -7q14 0 34 6v-1q-44 -66 -117 -66l-111 6q-169 0 -227 -130q-18 -43 -18 -88q0 -75 44 -120q17 -15 29 -15h8q61 0 186 161q101 120 202 120q76 0 174 -73q69 59 128 59q73 0 188 -110l27 -33q24 -37 64 -77q31 -26 59 -26
q58 0 87 86q8 33 8 58q0 68 -42 131q-27 32 -69 43q-12 6 -126 9q-33 0 -67 22q-27 28 -27 48v2l3 3h1q9 0 51 -18l12 -2h5q29 0 105 42q59 29 112 29q92 0 158 -71q28 -37 39 -67q32 -85 32 -168v-16q0 -116 -65 -213q-79 -108 -211 -108h-2v-1q49 -104 66 -104h2q4 0 9 17
l1 1h2q3 0 5 -11q0 -34 -32 -44q-9 -3 -23 -3h-11q-5 0 -7 3q-10 -2 -27 -2h-12q-16 0 -49 13q-18 0 -51 14q-48 27 -58 55h-1l-1 -9l4 -65v-6q0 -17 -2 -17q0 -10 29 -19q39 16 52 16h2q14 0 18 -20q18 -45 18 -70q0 -30 -35 -59q-42 -41 -45 -55q8 -10 41 -37l2 -7v-4
q0 -10 -33 -33q-25 -22 -38 -22v-1q15 -7 17 -41q0 -39 -27 -53l-10 -2l-25 4q-45 -4 -56 -37q-3 -6 -3 -16v-5q16 -22 16 -40v-7q0 -42 -72 -79q-44 -26 -44 -72v-12q0 -22 12 -43l4 -1l11 3v-1q-3 -7 -9 -7h-7v-1q6 -13 21 -13l26 5q-10 -11 -25 -11h-5q-22 0 -29 24
l-10 13q-14 20 -14 42q0 45 51 82q52 40 52 83l-2 17v1h1q3 -12 3 -27v-2q0 -37 -40 -69v-1q65 33 65 74q0 23 -29 53v10q0 8 -4 9q-10 0 -24 -16q-10 -17 -10 -32v-4q0 -9 12 -20q4 -8 4 -17v-6q0 -21 -58 -67q-30 -29 -30 -65t27 -61h1v-2h-1q-64 27 -64 68q0 53 77 83
l20 24q15 16 17 30q0 12 -23 33q-3 8 -3 15q0 8 5 26q-11 11 -28 11h-8l-25 -3h-4l-3 3q0 18 51 28q24 0 65 16q14 3 28 3h1q54 -6 68 -6q35 0 35 8q10 13 10 33q0 28 -23 38q-33 11 -58 11h-5q-33 0 -97 -23l-20 -2h-4q-36 0 -86 45q-51 57 -57 77q-38 75 -64 75l-7 1v1
l5 1h6q35 0 55 -45q5 -8 10 -8q4 0 18 32q16 21 28 23q-25 -26 -32 -64l-1 -12v-2q2 -23 48 -74q31 -26 59 -26h11q18 0 40 11q4 2 11 2h2q5 0 7 -4v-5q-21 0 -39 -11q-16 -3 -29 -3l-14 1h-1v-1q14 -8 30 -8q23 0 90 31q33 11 70 11h7q30 0 63 -4q12 0 30 24v2q0 9 -33 34
q-6 9 -6 14v3h-1l-4 -3l-23 2h-3q-17 0 -41 -10h-2l-2 2v2q0 3 42 35q11 10 15 10q4 -5 7 -5q47 36 58 36h1v-2q29 17 29 35v2q0 28 -14 74q-8 13 -19 13h-2q-12 0 -38 -14h-3q-39 0 -53 46q-46 99 -69 128q-22 22 -41 58q-3 8 -3 17v10q0 58 35 101q8 6 22 8l6 -3
q0 -4 -19 -8v-2q10 0 14 -12v-1q0 -4 -32 -41q-9 -13 -9 -19v-1h1q13 21 42 21q22 -1 22 -11v-1q-1 -10 -4 -10h-3q0 13 -10 13l-4 1h-5q-20 0 -39 -27q-6 -11 -6 -24q0 -5 2 -5q25 15 49 15h3q19 0 33 -9l4 22l-6 -5h-2l-2 2v2q0 4 8 12q7 8 7 29v1q0 30 -44 69
q-20 22 -20 28q0 2 4 3q12 0 52 -51q18 -27 18 -48v-6q0 -12 -9 -35v-14l-1 -12q15 -6 15 -18v-3q0 -12 -9 -14h-3q-3 0 -5 13l-10 6v-2h-1q2 -4 2 -16q0 -19 -19 -26l-14 -2l-6 1h-4v-2q3 -8 22 -10q21 0 27 17l5 2l2 -4q-1 -7 -6 -13h1q7 5 13 17l1 1h5l2 -2v-4
q0 -9 -14 -17l-1 -5q4 -22 13 -46h1l2 38l19 -31q23 -35 72 -50q37 -10 50 -10l30 5h1l5 -1v-3q-2 -5 -26 -8v-1q9 -3 17 -3q13 0 46 6q1 -6 3 -6h7q25 0 39 19l-1 -1h-11q-9 0 -21 22q-22 34 -53 92l-61 119q-15 28 -36 52q-54 45 -112 56h-6q-5 0 -20 -9q-4 0 -23 22
l-16 1q-33 0 -63 -37q8 -17 8 -29q-4 -34 -32 -34h-4l-20 3v2q19 0 26 29l1 7q0 26 -29 40q-29 22 -29 61l-5 9h-1v-3q0 -53 42 -86q7 -12 7 -19l-4 -15h-2l1 9q0 23 -40 33q-41 20 -41 53h-1v-7q0 -34 33 -46q17 -2 35 -19q8 -15 8 -21q-24 27 -35 28q-31 7 -41 20
q-12 17 -12 35v11q-48 -5 -76 -28q-2 -5 -8 -9h-4l-29 9q-12 4 -46 6q-91 0 -211 -62q-31 -19 -61 -51q-86 -108 -86 -238q-5 -20 -30 -37q-11 -10 -11 -21l3 -20q0 -13 -55 -65q-5 -10 -5 -15q0 -18 14 -18q13 0 42 27q9 6 15 6h7l5 -1q9 21 35 21q20 20 39 20h9l13 -1
q82 0 161 116q18 29 27 71q9 81 16 107q10 34 40 65l9 8v-1q-33 -45 -38 -73q-5 -14 -16 -108q-14 -66 -54 -113q-41 -45 -64 -57q-33 -22 -83 -31q-8 -4 -27 -25l-2 -51q0 -160 91 -264q17 -25 84 -95q6 -11 6 -21q0 -22 -26 -32h-4l-5 1q13 10 13 23q0 17 -27 38
q-137 134 -137 325q0 36 6 74h-1l-3 -2h-5q-8 0 -17 14q-38 -42 -62 -42q-5 0 -20 6q-22 -12 -34 -12q-17 3 -17 22v2q0 25 37 51q23 21 23 34l-1 22q0 16 28 37q9 11 9 35v22h-4q-90 0 -184 89q-64 72 -83 138q-18 52 -18 101v23q0 99 67 208q62 94 179 135q64 20 119 20z
M113 1441q0 -138 103 -252q82 -78 162 -78h4v1q-42 0 -105 39q-92 65 -120 132q-35 86 -35 152v19q0 143 142 266q84 69 240 69q70 0 124 -38q49 -24 68 -24l1 -1q7 0 7 -6t-18 -14q-16 -5 -30 -5q-82 8 -122 8h-20q-86 0 -132 -39q-39 -27 -70 -72q-44 -67 -44 -141
q0 -90 58 -130q19 -12 44 -12q74 0 161 116q30 42 86 97q72 66 157 66q76 0 151 -63v1q-25 30 -44 40q-56 32 -113 32q-113 0 -224 -155q-52 -62 -99 -98q-43 -30 -64 -30h-8q-24 3 -55 29q-39 44 -39 113q0 65 44 137q73 104 199 104h19l106 -6q61 0 97 34q-14 -4 -26 -4
q-30 0 -64 28q-80 44 -160 44h-22q-112 0 -219 -80q-55 -50 -66 -70q-74 -99 -74 -209zM1235 1724q-15 0 -48 14v-1q6 -18 28 -32q20 -11 87 -11q112 0 151 -39q26 -26 33 -43q27 -53 27 -101v-17q0 -69 -52 -130q-24 -21 -55 -21q-67 0 -145 128q-23 31 -33 31h-1
q-3 -1 -3 -6v-4q0 -16 36 -54q42 -45 68 -62q51 -45 69 -46l17 -2h1q66 0 114 104q21 53 21 104q0 83 -56 128q-16 15 -72 32q-48 11 -86 11q-16 0 -66 -6q-27 0 -57 10v3q31 0 162 51q47 14 76 14q86 0 144 -77q53 -73 53 -169q0 -123 -68 -230q-35 -44 -64 -51
q-12 0 -27 -19q-15 -33 -44 -44q-23 -7 -33 -7v-1l9 -1q133 0 206 123q47 85 47 188q0 112 -47 203q-38 64 -108 88q-37 10 -62 10h-16q-57 0 -152 -52q-37 -16 -54 -16zM132 1440v-11q0 -51 16 -67h2q4 0 9 97q8 63 18 94q17 45 47 88q18 23 18 29v1h-3q-28 -10 -69 -74
q-38 -68 -38 -157zM609 1490q1 -10 7 -10l57 38q58 30 107 30h8q42 0 102 -28h3l3 3v5q0 29 -89 51l-42 4q-57 0 -123 -48q-33 -28 -33 -45zM971 1487v-2q0 -7 14 -40q0 -27 20 -48q10 -8 18 -8h4q16 0 34 24q-4 -2 -11 -2h-2l-1 1h-1q0 -5 -20 -10h-3q-22 0 -31 33l-1 7
l1 8q-16 17 -20 37h-1zM958 1446v-12q0 -28 22 -54l10 -5q-25 29 -25 69v11zM942 1444q2 -27 14 -48q5 -6 7 -6v1q-14 27 -14 61v1zM1011 1453l-2 -12l4 -17l-1 -7q3 -9 17 -9l15 3l-12 8q0 4 -15 8q-5 4 -5 26h-1zM933 1433v-5h1v5h-1zM1036 1373v-1q7 -13 7 -30v-5l-2 -13
q7 7 7 24l-1 10h2q4 -10 4 -19v-2q0 -8 -2 -13v-1h1q6 13 6 21v1q0 15 -22 28zM798 1372l1 -5v-16q0 -46 -59 -90l-16 -14v1q33 43 33 72v3q0 12 -8 12q-26 -7 -52 -44q-17 -24 -39 -47l-22 -18h-1v1q35 37 50 78q20 40 62 40q32 0 43 15zM922 1348h2v-1q-10 -11 -23 -11
l-4 1v3q11 8 25 8zM949 1347v-2q-19 -14 -32 -14l-1 1v2q2 5 29 13h4zM943 1333q4 -1 4 -3q0 -5 -18 -9h-1l-5 1v2q0 9 20 9zM974 1308h2l2 -2v-3q-6 -3 -13 -3h-2l-3 3q0 4 14 5zM978 1291l3 -1v-1q-6 -8 -20 -8l-2 2q0 5 19 8zM879 1287q21 0 21 -6l-3 -9q18 -12 18 -23
q0 -5 -4 -7h-3q-6 0 -11 10q-16 9 -16 16l5 8v1q-53 0 -91 -28l-7 -1h-1q0 13 42 30q26 9 50 9zM982 1278l4 -1v-2q-4 -6 -10 -6h-3v3q0 3 9 6zM990 1272h3v-1q-4 -7 -19 -12l-3 1v2q0 5 19 10zM990 1260h3v-3q0 -4 -14 -8h-2q-2 0 -2 3q0 5 15 8zM1145 1254h3l-2 -2h-3z
M994 1247h4v-1q-6 -8 -16 -8h-1l-2 2q5 7 15 7zM1004 1241l1 -1v-1q-5 -7 -16 -7l-1 1v2q0 3 16 6zM798 1239q2 0 5 -18l5 -3q47 18 78 18q30 0 30 -9q12 -14 12 -29v-2q-11 16 -30 16l-3 -1q8 -8 8 -18q0 -25 -26 -34l-14 -2q-29 3 -29 22v2q0 12 10 22h-1q-47 -15 -47 -31
q3 -8 32 -29v-4h-1q-15 0 -32 20q-7 13 -14 15q-2 0 -2 5v7q0 9 9 18l-5 -1h-5v3q0 4 19 33h1zM1007 1230h1v-2h1q-8 -12 -11 -14h-1v5q2 11 10 11zM1110 1209q2 -7 14 -17q6 22 18 22v1l-15 2q-17 -2 -17 -8zM1008 1205h2v-5q0 -6 -9 -14h-5q0 6 12 19zM865 1192q3 -7 7 -7
q4 1 6 5v3q0 5 -4 7h-4q-5 -3 -5 -8zM917 1188h2q5 0 6 -30q0 -8 -13 -17l-4 -1h-2l-2 2v2q11 10 11 17v3l-1 19q1 5 3 5zM809 1173h3q15 -17 27 -22q22 -5 47 -5h11l2 -2q0 -7 -9 -7h-26q-35 0 -57 29v5zM942 1149h3l2 -2q-4 -17 -22 -34h-1q-4 1 -4 5q1 4 14 18z
M1156 1142v-1q58 -97 58 -116q1 0 3 -7h1v9q0 43 -21 96l-3 13l-12 -2h-4q-11 0 -21 8h-1zM685 1107l5 -5v-2l-7 -15l-1 -8q0 -13 24 -64l2 -8v-4l-3 -3h-2q-10 4 -28 72l-1 13q1 24 11 24zM1005 1034h4q60 0 135 -88v-1h-1q-86 76 -137 76h-5q-34 0 -61 -35
q-10 -15 -10 -33q0 -19 16 -44h-1q-25 21 -25 52q0 41 44 64q19 9 41 9zM579 970h1v-1l-1 -34v-12q0 -134 71 -188l65 -54q42 -40 59 -70q26 -45 40 -90l2 -5h-2q-32 95 -127 159q-36 23 -74 65q-40 54 -40 139v11q0 33 6 80zM1021 952q36 0 45 -55v-14q0 -12 -7 -27h-2
l2 23v8q0 36 -27 56h-2q-8 -1 -8 -7q3 -9 21 -17l1 -1v-7q-4 -6 -12 -6q-39 5 -39 24l-1 4q0 10 9 14q10 5 20 5zM432 926q5 -12 16 -12q27 26 27 29l-1 1h-1q-19 0 -41 -17v-1zM1061 934q40 -36 40 -78v-15h-1q0 25 -15 45q-4 -10 -6 -10h-3v3q0 23 -15 54v1zM398 911h2
q17 6 17 10v2q-19 -7 -19 -12zM822 920q5 -2 5 -4v-5l-9 1q-25 -16 -29 -16l-1 1v2q0 13 33 21h1zM358 890v-1l2 -2h4q17 0 32 13v1l-13 1q-18 0 -25 -12zM927 635h1l3 -5v-8l-9 -9h-1v1q1 21 6 21zM1081 630v-1q-12 -10 -34 -10q-16 0 -24 8v1q9 -4 19 -4h10q17 0 29 6z
M956 622q4 0 11 -8q14 -6 14 -10v-1q-3 -3 -23 -5l-9 -8h-6v3q11 13 18 13q-8 10 -8 14zM856 575h1v-1q-22 -23 -22 -50q0 -17 11 -34l1 -1h1v14q0 25 20 37v-1q-13 -16 -13 -40v-4q0 -19 8 -25q34 -42 42 -59q7 -6 9 -6q9 3 9 10q0 14 -33 45q-17 21 -17 38v2q0 23 29 39h1
q-20 -19 -20 -37q0 -31 52 -71q9 -10 10 -19v-5q0 -10 -14 -35l-2 -14q0 -16 20 -40v-1q-26 7 -38 22q-7 12 -7 25v10q-17 -19 -17 -36v-3q0 -26 38 -45v-2q-50 16 -50 49v6q0 25 27 52v1q0 24 -72 95q-13 15 -13 34q0 16 10 40h1v-1q-4 -15 -4 -27l3 -21h1q0 44 28 59z
M1120 567l-4 2l-1 -1q0 -8 7 -15l4 18zM1063 564q-7 -13 -7 -23v-2q0 -8 5 -12v5q0 14 11 29zM967 347q2 -18 8 -18h2v2h1l-4 25q0 28 39 64v1q-46 -23 -46 -74zM1017 365v-4l15 30q8 10 26 27q-8 0 -31 -27q-10 -18 -10 -26zM981 349q0 -23 16 -36q-7 17 -7 35q0 29 20 60
v1q-29 -23 -29 -60zM909 369q0 -27 22 -39v1q-9 8 -9 25v5q0 18 17 44q-29 -22 -29 -27zM957 383l-3 -31q0 -50 51 -78l10 -8h-2q-65 27 -65 71v12q4 34 9 34z" />
  </g>

</svg>
