<?xml version="1.0" standalone="no"?>
<!DOCTYPE svg PUBLIC "-//W3C//DTD SVG 1.1//EN" "http://www.w3.org/Graphics/SVG/1.1/DTD/svg11.dtd" >
<svg xmlns="http://www.w3.org/2000/svg" xmlns:xlink="http://www.w3.org/1999/xlink" version="1.1" viewBox="0 -200 1000 1000">
  <g transform="matrix(1 0 0 -1 0 800)">
   <path fill="currentColor"
d="M975.586 300c0 -132.161 -46.224 -244.466 -138.672 -336.914c-92.4479 -92.4479 -204.753 -138.672 -336.914 -138.672s-244.466 46.224 -336.914 138.672c-92.4479 92.4479 -138.672 204.753 -138.672 336.914s46.224 244.466 138.672 336.914
c92.4479 92.4479 204.753 138.672 336.914 138.672c132.161 0 244.466 -46.224 336.914 -138.672s138.672 -204.753 138.672 -336.914zM661.621 24.1211v36.6211h-74.2188c-19.5312 0 -29.2969 9.92839 -29.2969 29.7852v484.375h-28.8086
c-55.3385 -29.9479 -118.978 -47.2005 -190.918 -51.7578v-35.1562h83.9844c20.5078 0 30.7617 -8.78906 30.7617 -26.3672v-359.375c0 -27.6693 -13.5091 -41.5039 -40.5273 -41.5039h-58.1055v-36.6211h307.129v-0.0001z" />
  </g>

</svg>
