<?xml version="1.0" standalone="no"?>
<!DOCTYPE svg PUBLIC "-//W3C//DTD SVG 1.1//EN" "http://www.w3.org/Graphics/SVG/1.1/DTD/svg11.dtd" >
<svg xmlns="http://www.w3.org/2000/svg" xmlns:xlink="http://www.w3.org/1999/xlink" version="1.1" viewBox="0 -200 1000 1000">
  <g transform="matrix(1 0 0 -1 0 800)">
   <path fill="currentColor"
d="M975.586 300c0 -132.161 -46.224 -244.466 -138.672 -336.914c-92.4479 -92.4479 -204.753 -138.672 -336.914 -138.672s-244.466 46.224 -336.914 138.672c-92.4479 92.4479 -138.672 204.753 -138.672 336.914s46.224 244.466 138.672 336.914
c92.4479 92.4479 204.753 138.672 336.914 138.672c132.161 0 244.466 -46.224 336.914 -138.672s138.672 -204.753 138.672 -336.914zM666.992 24.1211v76.6602h-113.281v477.051h-90.332c-2.92969 -51.1068 -46.3867 -76.4974 -130.371 -76.1719v-70.3125h116.211
v-330.566h-116.211v-76.6602h333.984v-0.0006z" />
  </g>

</svg>
