<?xml version="1.0" standalone="no"?>
<!DOCTYPE svg PUBLIC "-//W3C//DTD SVG 1.1//EN" "http://www.w3.org/Graphics/SVG/1.1/DTD/svg11.dtd" >
<svg xmlns="http://www.w3.org/2000/svg" xmlns:xlink="http://www.w3.org/1999/xlink" version="1.1" viewBox="0 -200 1000 1000">
  <g transform="matrix(1 0 0 -1 0 800)">
   <path fill="currentColor"
d="M912.109 300c0 -73.5677 -18.4733 -142.09 -55.4199 -205.566s-87.321 -113.77 -151.123 -150.879s-132.324 -55.6641 -205.566 -55.6641c-73.5677 0 -142.09 18.4733 -205.566 55.4199c-63.4766 36.9466 -113.77 87.321 -150.879 151.123
c-37.1094 63.8021 -55.6641 132.324 -55.6641 205.566c0 73.5677 18.4733 142.171 55.4199 205.811c36.9466 63.6393 87.321 113.932 151.123 150.879c63.8021 36.9466 132.324 55.4199 205.566 55.4199c73.5677 0 142.09 -18.4733 205.566 -55.4199
s113.77 -87.321 150.879 -151.123c37.1094 -63.8021 55.6641 -132.324 55.6641 -205.566zM856.934 300c0 64.1276 -15.7064 123.617 -47.1191 178.467c-31.4128 54.8503 -74.707 98.3073 -129.883 130.371s-115.153 48.0957 -179.932 48.0957
c-64.1276 0 -123.617 -15.7064 -178.467 -47.1191s-98.3073 -74.707 -130.371 -129.883s-48.0957 -115.153 -48.0957 -179.932c0 -63.8021 15.7064 -123.21 47.1191 -178.223s74.707 -98.5514 129.883 -130.615s115.153 -48.0957 179.932 -48.0957
c64.1276 0 123.617 15.7878 178.467 47.3633c54.8503 31.5755 98.3073 74.8698 130.371 129.883c32.0637 55.0132 48.0957 114.909 48.0957 179.688zM544.922 87.1094h-69.8242v275.879c0 31.25 1.30208 60.8724 3.90625 88.8672
c-12.3698 -12.3698 -45.4102 -38.2487 -99.1211 -77.6367l-33.6914 48.8281l126.953 91.7969h71.7773v-427.734z" />
  </g>

</svg>
