<?xml version="1.0" standalone="no"?>
<!DOCTYPE svg PUBLIC "-//W3C//DTD SVG 1.1//EN" "http://www.w3.org/Graphics/SVG/1.1/DTD/svg11.dtd" >
<svg xmlns="http://www.w3.org/2000/svg" xmlns:xlink="http://www.w3.org/1999/xlink" version="1.1" viewBox="0 -200 1000 1000">
  <g transform="matrix(1 0 0 -1 0 800)">
   <path fill="currentColor"
d="M912.109 300c0 -73.5677 -18.4733 -142.09 -55.4199 -205.566s-87.321 -113.77 -151.123 -150.879s-132.324 -55.6641 -205.566 -55.6641c-73.5677 0 -142.09 18.4733 -205.566 55.4199c-63.4766 36.9466 -113.77 87.321 -150.879 151.123
c-37.1094 63.8021 -55.6641 132.324 -55.6641 205.566c0 73.5677 18.4733 142.171 55.4199 205.811c36.9466 63.6393 87.321 113.932 151.123 150.879c63.8021 36.9466 132.324 55.4199 205.566 55.4199c73.5677 0 142.09 -18.4733 205.566 -55.4199
s113.77 -87.321 150.879 -151.123c37.1094 -63.8021 55.6641 -132.324 55.6641 -205.566zM702.148 88.0859l-171.387 429.199h-56.6406l-173.34 -429.199h68.3594l50.7812 129.883h162.109l51.7578 -129.883h68.3594zM562.988 272.168h-121.094l44.9219 122.07
c8.78906 23.763 13.1836 43.7826 13.1836 60.0586h3.90625l14.1602 -60.0586z" />
  </g>

</svg>
