<?xml version="1.0" standalone="no"?>
<!DOCTYPE svg PUBLIC "-//W3C//DTD SVG 1.1//EN" "http://www.w3.org/Graphics/SVG/1.1/DTD/svg11.dtd" >
<svg xmlns="http://www.w3.org/2000/svg" xmlns:xlink="http://www.w3.org/1999/xlink" version="1.1" viewBox="0 -200 1000 1000">
  <g transform="matrix(1 0 0 -1 0 800)">
   <path fill="currentColor"
d="M786.133 256.543c-25.0651 -70.9635 -68.5221 -128.581 -130.371 -172.852c-62.8255 -45.2474 -132.975 -67.8711 -210.449 -67.8711c-99.6094 0 -184.733 35.319 -255.371 105.957s-105.957 155.762 -105.957 255.371s35.319 184.733 105.957 255.371
c70.638 70.638 155.762 105.957 255.371 105.957c77.474 0 147.624 -22.6237 210.449 -67.8711c61.849 -44.2708 105.306 -101.888 130.371 -172.852h-437.012v120.117l-241.211 -240.723l241.211 -240.723v120.117h437.012v0.0022z" />
  </g>

</svg>
