<?xml version="1.0" standalone="no"?>
<!DOCTYPE svg PUBLIC "-//W3C//DTD SVG 1.1//EN" "http://www.w3.org/Graphics/SVG/1.1/DTD/svg11.dtd" >
<svg xmlns="http://www.w3.org/2000/svg" xmlns:xlink="http://www.w3.org/1999/xlink" version="1.1" viewBox="0 -200 1000 1000">
  <g transform="matrix(1 0 0 -1 0 800)">
   <path fill="currentColor"
d="M806.641 377.148c0 -99.6094 -35.319 -184.733 -105.957 -255.371s-155.762 -105.957 -255.371 -105.957s-184.733 35.319 -255.371 105.957c-70.638 70.638 -105.957 155.762 -105.957 255.371c0 77.474 22.6237 147.624 67.8711 210.449
c44.2708 61.849 101.888 105.306 172.852 130.371v-437.012h-120.117l240.723 -241.211l240.723 241.211h-120.117v437.012c70.9635 -25.0651 128.581 -68.5221 172.852 -130.371c45.2474 -62.8255 67.8711 -132.975 67.8711 -210.449z" />
  </g>

</svg>
