<?xml version="1.0" standalone="no"?>
<!DOCTYPE svg PUBLIC "-//W3C//DTD SVG 1.1//EN" "http://www.w3.org/Graphics/SVG/1.1/DTD/svg11.dtd" >
<svg xmlns="http://www.w3.org/2000/svg" xmlns:xlink="http://www.w3.org/1999/xlink" version="1.1" viewBox="0 -201 1000 1000">
  <g transform="matrix(1 0 0 -1 0 800)">
   <path fill="currentColor"
d="M576.576 151.352c-27.0264 -36.0361 18.0186 -27.0273 0 -81.0811c-9.00879 -27.0273 -27.0264 -54.0547 -18.0176 -81.0811c54.0537 -18.0186 36.0361 99.0986 81.0811 126.126c27.0273 9.00879 54.0537 9.00879 72.0723 0
c9.00879 -45.0449 -27.0273 -81.0811 -18.0186 -126.126c54.0547 -18.0186 36.0361 90.0898 81.0811 126.126c27.0273 9.00879 72.0723 9.00879 99.0996 0c18.0176 -36.0361 -27.0273 -90.0898 -18.0186 -126.126h54.0547c27.0264 36.0361 -9.00879 27.0264 0 72.0723
c9.00879 27.0264 27.0264 63.0625 9.00879 81.0811c-27.0273 18.0176 -315.315 18.0176 -342.343 9.0088zM441.441 142.343c-18.0176 -27.0273 27.0273 -9.00977 9.00879 -72.0723c-9.00879 -18.0186 -27.0264 -63.0635 -27.0264 -81.0811
c27.0264 -9.00879 54.0537 0 72.0713 27.0264c-9.00879 36.0361 -27.0264 9.00977 -9.00879 72.0723c9.00879 18.0186 18.0186 45.0449 9.00879 63.0635c-27.0264 9.00879 -27.0264 9.00879 -54.0537 -9.0088zM495.495 232.433
c27.0273 -9.00879 45.0459 -9.00879 36.0361 27.0264c-18.0176 9.00977 -36.0361 0 -36.0361 -27.0264zM153.153 -28.8291c27.0273 -36.0361 162.162 117.117 198.198 153.153c27.0264 27.0273 63.0625 63.0635 81.0811 90.0898
c18.0176 18.0186 18.0176 36.0361 27.0264 63.0635c27.0273 36.0361 36.0361 27.0273 63.0635 36.0361s153.153 144.144 180.181 180.18c45.0449 36.0361 180.18 153.153 171.171 189.189c-27.0273 9.00879 -243.243 0 -270.271 -9.00879v-18.0186l45.0449 -9.00879
c27.0273 -54.0537 -27.0264 -81.0811 -54.0537 -117.117l-180.181 -180.18c-9.00879 -18.0186 -27.0264 -36.0361 -45.0449 -45.0449c-18.0176 -27.0273 -18.0176 -45.0459 -54.0537 -36.0361c-27.0273 27.0264 -27.0273 342.342 0 378.378l45.0449 9.00879v18.0186
c-27.0273 9.00879 -117.117 9.00879 -153.153 9.00879c-27.0264 0 -117.117 18.0186 -117.117 -18.0176l45.0449 -18.0186c36.0361 -72.0723 -9.00879 -657.657 18.0186 -675.676zM18.0176 664.865c0 117.117 54.0547 90.0898 180.181 90.0898h126.126
c18.0186 0 45.0449 9.00879 54.0537 0c27.0273 0 27.0273 -18.0186 45.0459 -18.0186c27.0264 18.0186 36.0352 54.0547 72.0713 63.0635c27.0273 -9.00879 36.0361 -36.0361 63.0635 -54.0537c18.0176 -9.00977 63.0635 9.00879 90.0898 9.00879h234.234
c72.0723 -9.00879 81.0811 -99.0996 36.0361 -144.145c-18.0176 -18.0176 -99.0996 -90.0898 -108.108 -108.107c18.0186 -45.0459 171.172 -153.153 180.181 -198.198c-9.00879 -45.0459 -81.0811 -72.0723 -81.0811 -108.108
c27.0264 -18.0186 63.0625 -18.0186 63.0625 -63.0635c9.00977 -18.0176 -9.00879 -27.0264 -9.00879 -45.0449c-9.00879 -27.0264 0 -27.0264 9.00879 -45.0449c0 -18.0176 -18.0176 -90.0898 -45.0449 -99.0986c-9.00879 0 -108.108 9.00879 -117.117 9.00879
c-27.0264 36.0361 27.0273 81.0811 9.00879 117.117c-36.0352 18.0176 -45.0449 -54.0547 -54.0537 -81.0811c-18.0176 -72.0723 -54.0537 -36.0361 -99.0986 -45.0449c-45.0449 0 -126.126 -126.127 -162.162 -144.145c-45.0459 18.0176 -153.153 171.171 -198.198 180.181
c-45.0449 -18.0186 -54.0547 -81.082 -117.117 -81.082c-180.181 0 -72.0723 99.0996 -99.0996 279.279c-9.00879 45.0459 -72.0723 72.0723 -90.0898 117.117c9.00879 36.0361 72.0723 72.0723 81.0811 99.0996s9.00879 171.171 0 189.189
c-18.0176 18.0176 -63.0635 27.0264 -63.0635 81.0811z" />
  </g>

</svg>
