<?xml version="1.0" standalone="no"?>
<!DOCTYPE svg PUBLIC "-//W3C//DTD SVG 1.1//EN" "http://www.w3.org/Graphics/SVG/1.1/DTD/svg11.dtd" >
<svg xmlns="http://www.w3.org/2000/svg" xmlns:xlink="http://www.w3.org/1999/xlink" version="1.1" viewBox="0 -200 1000 1000">
  <g transform="matrix(1 0 0 -1 0 800)">
   <path fill="currentColor"
d="M391.113 696.973h33.6914c53.7109 0 113.281 -10.4167 178.711 -31.25v0.488281l0.488281 4.39453v18.5547l1.46484 1.46484c48.1771 -7.8125 86.9141 -16.4388 116.211 -25.8789c20.5078 -6.83594 35.1562 -13.6719 43.9453 -20.5078
c9.11458 -6.83594 19.043 -26.8555 29.7852 -60.0586c3.58073 -12.6953 5.37109 -20.1823 5.37109 -22.4609c-22.1354 -16.6016 -43.457 -24.9023 -63.9648 -24.9023c-27.0182 0 -64.6159 15.625 -112.793 46.875v-0.488281
c7.16146 -17.2526 11.556 -27.0182 13.1836 -29.2969c45.5729 -22.1354 77.3112 -33.2031 95.2148 -33.2031c16.6016 0 37.4349 6.34766 62.5 19.043l2.44141 0.488281l0.488281 -0.488281v-1.95312c0 -5.53385 -2.60417 -13.0208 -7.8125 -22.4609
c-6.51042 -5.53385 -20.5078 -12.5326 -41.9922 -20.9961c-28.6458 -8.46354 -57.1289 -12.6953 -85.4492 -12.6953l-63.4766 5.37109h-3.90625c-22.1354 0 -33.2031 -11.7188 -33.2031 -35.1562c0 -20.5078 10.0911 -45.2474 30.2734 -74.2188v-1.95312
c-1.30208 0 -10.7422 4.06901 -28.3203 12.207c-23.4375 10.4167 -35.4818 16.6016 -36.1328 18.5547c-20.5078 23.763 -34.9935 39.5508 -43.457 47.3633c-20.5078 16.276 -42.1549 24.4141 -64.9414 24.4141c-27.6693 0 -46.0612 -9.92839 -55.1758 -29.7852
c-3.25521 -10.0911 -4.88281 -20.6706 -4.88281 -31.7383c0 -6.83594 0.813802 -16.7643 2.44141 -29.7852h-0.488281l-37.1094 17.5781c-7.48698 3.58073 -11.2305 5.69661 -11.2305 6.34766c-2.60417 12.0443 -5.69661 22.2982 -9.27734 30.7617
c-5.53385 13.6719 -15.625 28.3203 -30.2734 43.9453c-24.4141 23.4375 -51.9206 35.1562 -82.5195 35.1562h-5.37109c-33.5286 0 -59.082 -14.3229 -76.6602 -42.9688c-6.83594 -11.0677 -10.2539 -23.4375 -10.2539 -37.1094
c0 -28.3203 12.6953 -51.4323 38.0859 -69.3359c13.9974 -7.8125 28.9714 -11.7188 44.9219 -11.7188c27.0182 0 44.4336 10.9049 52.2461 32.7148c1.6276 4.88281 2.44141 9.92839 2.44141 15.1367c0 17.2526 -8.30078 31.5755 -24.9023 42.9688
c-7.48698 3.58073 -15.2995 5.37109 -23.4375 5.37109c-11.3932 0 -19.5312 -4.72005 -24.4141 -14.1602l-0.976562 -6.34766c0 -7.8125 4.23177 -13.0208 12.6953 -15.625l1.95312 -0.488281c1.95312 0 6.67318 0.976562 14.1602 2.92969h3.41797
c4.23177 0 7.97526 -1.6276 11.2305 -4.88281c3.25521 -3.58073 4.88281 -7.64974 4.88281 -12.207c0 -11.7188 -10.7422 -18.7174 -32.2266 -20.9961h-3.41797c-14.6484 0 -28.1576 7.48698 -40.5273 22.4609c-5.53385 9.76562 -8.30078 19.2057 -8.30078 28.3203v0.488281
c0 25.0651 13.6719 43.1315 41.0156 54.1992c9.4401 2.27865 17.2526 3.41797 23.4375 3.41797c27.3438 0 50.6185 -12.3698 69.8242 -37.1094c10.0911 -15.9505 15.1367 -32.3893 15.1367 -49.3164v-2.44141c0 -24.4141 -10.5794 -46.3867 -31.7383 -65.918
c-18.5547 -13.9974 -40.0391 -20.9961 -64.4531 -20.9961h-2.44141c-41.0156 0 -75.3581 16.6016 -103.027 49.8047c-13.0208 18.8802 -20.6706 36.4583 -22.9492 52.7344c-1.6276 6.51042 -2.44141 14.3229 -2.44141 23.4375c0 52.7344 27.181 103.353 81.543 151.855
c19.8568 15.9505 36.9466 27.9948 51.2695 36.1328c27.0182 16.276 53.5482 29.4596 79.5898 39.5508c46.224 17.5781 89.5182 26.3672 129.883 26.3672zM676.27 601.27c0 -17.2526 8.95182 -30.9245 26.8555 -41.0156c6.51042 -2.27865 12.207 -3.41797 17.0898 -3.41797
h0.976562c18.5547 0 32.3893 9.60286 41.5039 28.8086c1.6276 5.20833 2.60417 10.4167 2.92969 15.625c0 17.2526 -8.95182 30.9245 -26.8555 41.0156c-6.51042 2.27865 -12.207 3.41797 -17.0898 3.41797h-0.976562c-18.5547 0 -32.3893 -9.60286 -41.5039 -28.8086
c-1.95312 -6.51042 -2.92969 -11.7188 -2.92969 -15.625zM720.703 633.008h0.488281c12.6953 0 22.1354 -6.02214 28.3203 -18.0664c1.95312 -3.90625 2.92969 -8.30078 2.92969 -13.1836v-0.488281c0 -14.974 -7.97526 -25.0651 -23.9258 -30.2734l-7.8125 -0.976562
c-12.3698 0 -21.8099 6.1849 -28.3203 18.5547c-1.95312 4.88281 -2.92969 9.27734 -2.92969 13.1836c0 12.3698 6.02214 21.8099 18.0664 28.3203c3.90625 1.95312 8.30078 2.92969 13.1836 2.92964zM713.867 608.594v-1.46484
c0 -4.23177 4.55729 -6.9987 13.6719 -8.30078c8.78906 1.30208 13.1836 4.23177 13.1836 8.78906c-1.30208 6.1849 -5.69661 9.27734 -13.1836 9.27734h-0.488281c-8.78906 -0.976562 -13.1836 -3.74349 -13.1836 -8.30078z" />
  </g>

</svg>
