<?xml version="1.0" standalone="no"?>
<!DOCTYPE svg PUBLIC "-//W3C//DTD SVG 1.1//EN" "http://www.w3.org/Graphics/SVG/1.1/DTD/svg11.dtd" >
<svg xmlns="http://www.w3.org/2000/svg" xmlns:xlink="http://www.w3.org/1999/xlink" version="1.1" viewBox="0 -200 1000 1000">
  <g transform="matrix(1 0 0 -1 0 800)">
   <path fill="currentColor"
d="M92.4092 392.394c51.0322 0 92.3965 -41.3584 92.3945 -92.4092c0 -51.0264 -41.3682 -92.3945 -92.3945 -92.3945c-51.0469 0 -92.4092 41.3682 -92.4092 92.3945c0 51.0469 41.3623 92.4092 92.4092 92.4092zM752.197 -27.5918
c44.1855 25.5107 100.682 10.3672 126.192 -33.8115c25.5166 -44.1963 10.3789 -100.688 -33.8076 -126.199c-44.2012 -25.5166 -100.688 -10.376 -126.208 33.8232c-25.5059 44.1807 -10.376 100.672 33.8232 126.188zM293.128 299.999
c0 -91.3398 45.3828 -172 114.783 -220.834l-67.5625 -113.173c-80.8691 54.0254 -141.028 136.625 -166.012 233.375c29.1934 23.7861 47.8418 60.0166 47.8418 100.623c0 40.6143 -18.6504 76.8438 -47.8389 100.637c24.9893 96.7412 85.1426 179.339 166.013 233.37
l67.5566 -113.164c-69.3984 -48.8438 -114.781 -129.508 -114.781 -220.834zM563.062 569.931c-40.6357 0 -79.1465 -9.03516 -113.707 -25.1162l-64.1973 115.054c53.6289 26.5654 114.004 41.5674 177.908 41.5674c37.1592 0 73.0957 -5.15137 107.241 -14.6016
c6.03711 -37.1191 28.0752 -71.3223 63.1973 -91.5986c35.0771 -20.2568 75.6641 -22.2686 110.796 -8.99609c68.334 -67.1826 112.797 -158.589 119.277 -260.38l-131.697 -1.92285c-12.125 137.87 -127.799 245.994 -268.818 245.994zM563.062 30.0625
c141.02 0 256.697 108.103 268.814 245.992l131.697 -1.92285c-6.47168 -101.791 -50.9346 -193.2 -119.265 -260.386c-35.1309 13.2783 -75.7188 11.2666 -110.796 -8.98145c-35.126 -20.291 -57.1709 -54.4941 -63.2061 -91.6133
c-34.1494 -9.4502 -70.0879 -14.6016 -107.245 -14.6016c-63.9062 0 -124.284 15.0078 -177.919 41.5635l64.208 115.065c34.5645 -16.082 73.0703 -25.1162 113.711 -25.1162zM752.182 627.594c-44.1836 25.5059 -59.3223 82.0029 -33.8115 126.185
c25.5215 44.2002 82.0127 59.3389 126.202 33.8281c44.1992 -25.5225 59.3291 -82.0146 33.8086 -126.214c-25.5078 -44.1807 -82.0029 -59.3252 -126.199 -33.7991z" />
  </g>

</svg>
