<?xml version="1.0" standalone="no"?>
<!DOCTYPE svg PUBLIC "-//W3C//DTD SVG 1.1//EN" "http://www.w3.org/Graphics/SVG/1.1/DTD/svg11.dtd" >
<svg xmlns="http://www.w3.org/2000/svg" xmlns:xlink="http://www.w3.org/1999/xlink" version="1.1" viewBox="0 -200 1000 1000">
  <g transform="matrix(1 0 0 -1 0 800)">
   <path fill="currentColor"
d="M354.98 929.395c5.85938 0 9.60286 -2.60417 11.2305 -7.8125c-0.325521 -2.92969 -5.53385 -8.95182 -15.625 -18.0664c-18.2292 -20.8333 -27.3438 -34.668 -27.3438 -41.5039l-0.488281 -5.85938c0 -11.3932 2.76693 -17.0898 8.30078 -17.0898
c2.60417 0 12.207 3.58073 28.8086 10.7422c14.974 4.88281 30.7617 7.32422 47.3633 7.32422c33.2031 0 67.3828 -9.92839 102.539 -29.7852c5.53385 -3.58073 12.8581 -10.0911 21.9727 -19.5312c3.25521 -3.25521 6.51042 -4.88281 9.76562 -4.88281
c9.76562 0 23.6003 6.02214 41.5039 18.0664c2.27865 2.92969 3.41797 7.32422 3.41797 13.1836c0 19.2057 -5.20833 36.1328 -15.625 50.7812c-2.92969 5.53385 -4.39453 9.27734 -4.39453 11.2305v1.95312c0 3.25521 2.76693 5.53385 8.30078 6.83594l4.88281 0.488281
c17.2526 0 37.4349 -19.3685 60.5469 -58.1055c10.0911 -22.1354 15.1367 -41.1784 15.1367 -57.1289c0 -20.5078 -9.92839 -42.6432 -29.7852 -66.4062c-13.6719 -14.974 -23.112 -23.763 -28.3203 -26.3672c-10.7422 -8.46354 -21.9727 -16.4388 -33.6914 -23.9258
l0.488281 -3.41797v-8.78906c0 -42.9688 -13.9974 -77.474 -41.9922 -103.516c-19.2057 -18.2292 -28.8086 -31.901 -28.8086 -41.0156l-0.488281 -6.34766c0 -7.8125 4.55729 -19.043 13.6719 -33.6914c6.51042 -13.6719 9.76562 -34.0169 9.76562 -61.0352v-6.83594
c0 -13.3464 -2.60417 -26.0417 -7.8125 -38.0859l-0.976562 -6.34766c4.55729 -25.3906 14.974 -49.8047 31.25 -73.2422c10.4167 -12.3698 20.0195 -21.4844 28.8086 -27.3438c15.9505 -10.7422 34.5052 -19.8568 55.6641 -27.3438
c24.7396 -7.16146 58.9193 -14.974 102.539 -23.4375c37.1094 -8.78906 62.0117 -17.2526 74.707 -25.3906c16.276 -10.7422 24.4141 -23.6003 24.4141 -38.5742v-0.976562c0 -11.0677 -9.4401 -21.6471 -28.3203 -31.7383
c-11.3932 -4.23177 -30.7617 -8.78906 -58.1055 -13.6719l-0.488281 -0.488281l1.46484 -7.8125c0 -2.92969 -5.37109 -4.39453 -16.1133 -4.39453c-30.2734 0 -74.056 -1.6276 -131.348 -4.88281c-5.20833 0.325521 -7.97526 1.13932 -8.30078 2.44141v0.976562
c0 2.92969 7.64974 8.13802 22.9492 15.625c2.27865 1.6276 10.0911 6.02214 23.4375 13.1836c28.6458 14.974 52.5716 28.9714 71.7773 41.9922l2.92969 0.976562h2.92969c4.55729 -3.58073 8.78906 -9.76562 12.6953 -18.5547
c1.95312 -6.83594 5.04557 -10.2539 9.27734 -10.2539c10.4167 0 23.2747 3.41797 38.5742 10.2539c8.46354 4.55729 12.6953 8.6263 12.6953 12.207c-1.6276 5.20833 -7.32422 10.5794 -17.0898 16.1133c-10.0911 4.55729 -25.3906 8.30078 -45.8984 11.2305
c-59.2448 7.8125 -102.702 16.1133 -130.371 24.9023c-38.0859 11.3932 -61.5234 21.6471 -70.3125 30.7617c-9.11458 5.20833 -17.9036 11.7188 -26.3672 19.5312c7.16146 -13.9974 14.8112 -34.3424 22.9492 -61.0352c2.60417 -5.53385 3.90625 -11.7188 3.90625 -18.5547
v-6.34766c0 -5.53385 -6.9987 -10.7422 -20.9961 -15.625c-24.7396 -12.3698 -49.4792 -21.3216 -74.2188 -26.8555c-29.9479 -4.55729 -51.4323 -6.83594 -64.4531 -6.83594h-8.30078c-29.2969 0 -60.7096 1.79036 -94.2383 5.37109
c-15.2995 3.58073 -27.3438 8.78906 -36.1328 15.625l-3.41797 5.37109l-3.41797 -0.488281h-3.41797c-45.2474 0 -71.2891 1.95312 -78.125 5.85938c-13.3464 5.53385 -20.0195 14.6484 -20.0195 27.3438v2.44141c0 12.6953 24.4141 24.4141 73.2422 35.1562
c4.88281 0.976562 9.92839 1.46484 15.1367 1.46484h9.27734c18.5547 2.27865 30.599 3.41797 36.1328 3.41797l25.8789 0.488281c5.85938 0 13.3464 2.60417 22.4609 7.8125c13.9974 4.55729 20.9961 8.13802 20.9961 10.7422v1.95312
c0 2.60417 -2.44141 9.76562 -7.32422 21.4844l-1.46484 8.30078v1.46484c0 2.27865 1.13932 3.41797 3.41797 3.41797c-17.5781 24.0885 -26.3672 42.806 -26.3672 56.1523v6.83594c0 10.0911 2.92969 20.6706 8.78906 31.7383l0.488281 1.46484
c0 0.651042 -3.25521 4.55729 -9.76562 11.7188c-1.95312 3.90625 -2.92969 6.83594 -2.92969 8.78906v4.39453l0.488281 3.41797c-10.4167 1.30208 -15.625 3.25521 -15.625 5.85938l-5.37109 4.39453l-5.85938 -0.488281h-3.41797
c-11.0677 0 -19.043 3.25521 -23.9258 9.76562c-4.23177 3.58073 -6.34766 6.67318 -6.34766 9.27734l0.976562 4.39453c-7.16146 0 -14.1602 4.06901 -20.9961 12.207c-2.27865 2.92969 -3.41797 7.16146 -3.41797 12.6953c0 13.9974 4.39453 23.9258 13.1836 29.7852
v0.488281l-25.3906 20.9961l-3.41797 1.46484c-18.2292 -11.7188 -33.3659 -17.5781 -45.4102 -17.5781c-28.3203 0 -48.9909 9.60286 -62.0117 28.8086c-7.48698 8.13802 -14.3229 18.3919 -20.5078 30.7617c-1.95312 5.20833 -2.92969 8.78906 -2.92969 10.7422
c0 2.92969 1.30208 4.39453 3.90625 4.39453h1.46484c1.95312 0 8.46354 -3.74349 19.5312 -11.2305c5.53385 -4.23177 15.7878 -8.46354 30.7617 -12.6953c2.60417 -1.95312 3.90625 -3.74349 3.90625 -5.37109v-0.976562c0 -2.92969 -3.25521 -6.1849 -9.76562 -9.76562
l-0.488281 -0.488281v-1.46484c0.651042 -1.6276 5.37109 -3.74349 14.1602 -6.34766l11.7188 -1.95312h6.34766c7.16146 0 15.1367 2.76693 23.9258 8.30078l1.46484 1.95312v1.95312c0 5.20833 -7.16146 12.8581 -21.4844 22.9492
c0 0.325521 -0.813802 0.651042 -2.44141 0.976562c-5.85938 -5.20833 -9.60286 -7.8125 -11.2305 -7.8125c-2.60417 0 -5.04557 5.37109 -7.32422 16.1133l-16.6016 33.6914l-0.488281 4.39453v0.976562l2.44141 1.95312c1.95312 0 11.0677 -4.55729 27.3438 -13.6719
c6.83594 -2.92969 15.4622 -5.04557 25.8789 -6.34766c1.30208 -0.976562 1.95312 -2.11589 1.95312 -3.41797l-4.39453 -8.78906v-0.488281c0.651042 -1.6276 6.02214 -6.02214 16.1133 -13.1836c5.20833 -4.88281 8.78906 -7.32422 10.7422 -7.32422
c6.83594 3.25521 10.2539 8.13802 10.2539 14.6484c0 8.78906 -4.72005 17.0898 -14.1602 24.9023c-1.30208 0 -4.55729 -1.95312 -9.76562 -5.85938h-1.95312c-2.92969 0 -5.37109 4.39453 -7.32422 13.1836c-4.88281 11.0677 -11.0677 21.3216 -18.5547 30.7617
l-1.95312 4.88281c0.651042 1.30208 1.13932 1.95312 1.46484 1.95312h0.976562c2.27865 0 14.8112 -5.53385 37.5977 -16.6016c10.0911 -3.58073 15.1367 -6.83594 15.1367 -9.76562v-0.976562c0 -1.30208 -0.976562 -3.25521 -2.92969 -5.85938
c4.88281 -3.25521 9.11458 -6.83594 12.6953 -10.7422c5.53385 -9.11458 8.30078 -19.694 8.30078 -31.7383c0 -8.46354 -2.60417 -16.1133 -7.8125 -22.9492v-1.46484c4.88281 -5.53385 10.7422 -10.7422 17.5781 -15.625c4.55729 9.4401 14.6484 14.1602 30.2734 14.1602
h10.7422c7.48698 0 14.6484 -4.23177 21.4844 -12.6953c2.60417 -5.85938 3.90625 -11.3932 3.90625 -16.6016c0 -9.11458 -2.92969 -15.1367 -8.78906 -18.0664v-0.488281h2.44141c9.11458 0 23.2747 -1.30208 42.4805 -3.90625c7.16146 0 11.7188 5.85938 13.6719 17.5781
v1.46484c0 4.23177 -1.95312 8.46354 -5.85938 12.6953c-14.3229 6.51042 -24.7396 13.0208 -31.25 19.5312c-24.4141 15.9505 -39.2253 23.9258 -44.4336 23.9258c-16.9271 6.1849 -30.7617 18.3919 -41.5039 36.6211c-5.53385 9.76562 -8.30078 19.2057 -8.30078 28.3203
v3.41797c0 14.6484 7.48698 30.1107 22.4609 46.3867c6.83594 9.76562 10.2539 17.2526 10.2539 22.4609c6.51042 23.763 9.76562 38.4115 9.76562 43.9453v1.95312l-7.8125 45.8984l-1.95312 17.5781c0 9.11458 3.41797 21.9727 10.2539 38.5742
c7.16146 9.11458 14.6484 17.7409 22.4609 25.8789c15.2995 15.2995 27.9948 26.3672 38.0859 33.2031c25.0651 17.2526 41.9922 25.8789 50.7812 25.8789zM236.816 805.859c0 -5.85938 3.25521 -26.2044 9.76562 -61.0352v-5.37109
c0 -4.23177 -0.976562 -9.92839 -2.92969 -17.0898v-0.488281h0.488281c7.16146 24.4141 16.276 45.2474 27.3438 62.5c7.16146 8.46354 15.2995 17.5781 24.4141 27.3438c8.13802 8.13802 16.9271 12.207 26.3672 12.207c11.3932 0 18.0664 -4.06901 20.0195 -12.207
l1.46484 -7.32422v-0.488281l-1.46484 -0.488281c-1.30208 0 -2.76693 3.41797 -4.39453 10.2539c-2.92969 4.55729 -8.13802 6.83594 -15.625 6.83594c-10.0911 0 -20.0195 -6.02214 -29.7852 -18.0664c-13.3464 -13.3464 -22.9492 -26.2044 -28.8086 -38.5742
c-5.53385 -11.7188 -12.207 -29.4596 -20.0195 -53.2227c-1.30208 -2.27865 -4.72005 -11.556 -10.2539 -27.832c-4.23177 -6.83594 -11.3932 -16.4388 -21.4844 -28.8086c-5.20833 -10.4167 -7.8125 -19.3685 -7.8125 -26.8555v-1.46484
c0 -18.2292 9.4401 -35.6445 28.3203 -52.2461c6.51042 -5.20833 14.8112 -9.4401 24.9023 -12.6953c4.88281 -0.325521 20.0195 -9.27734 45.4102 -26.8555c3.90625 -4.55729 11.3932 -8.95182 22.4609 -13.1836c6.83594 -4.23177 10.2539 -10.0911 10.2539 -17.5781
v-0.976562c0 -9.4401 -3.90625 -16.276 -11.7188 -20.5078l-5.85938 -0.976562l-23.4375 2.92969h-0.488281v-0.488281c6.51042 -2.92969 11.0677 -6.9987 13.6719 -12.207c1.30208 -3.58073 1.95312 -8.30078 1.95312 -14.1602v-0.976562l-0.488281 -0.488281v-0.488281
c10.4167 7.48698 20.3451 11.2305 29.7852 11.2305h5.37109c18.8802 0 36.9466 -7.48698 54.1992 -22.4609c8.46354 -4.88281 15.7878 -7.32422 21.9727 -7.32422h1.46484c10.4167 0 17.2526 1.95312 20.5078 5.85938h1.46484l0.976562 -0.976562v-1.46484
c-3.58073 -4.55729 -11.3932 -6.83594 -23.4375 -6.83594h-1.95312c-10.0911 0 -22.4609 6.1849 -37.1094 18.5547c-13.0208 7.48698 -26.3672 11.2305 -40.0391 11.2305h-1.95312c-10.0911 0 -19.694 -3.58073 -28.8086 -10.7422h-0.976562v-0.488281
c2.60417 0 5.53385 -5.37109 8.78906 -16.1133v-1.95312c0 -1.6276 -2.60417 -5.37109 -7.8125 -11.2305c-6.83594 -12.3698 -16.276 -18.5547 -28.3203 -18.5547c-0.651042 -1.30208 -0.976562 -3.09245 -0.976562 -5.37109v-0.976562
c0 -5.53385 3.74349 -11.556 11.2305 -18.0664c0 -1.95312 2.92969 -3.41797 8.78906 -4.39453c5.20833 -2.60417 13.1836 -3.90625 23.9258 -3.90625l5.85938 0.488281l0.488281 -0.488281v-2.92969l-2.44141 -0.488281h-2.44141
c-12.6953 0 -23.2747 1.79036 -31.7383 5.37109c6.51042 -11.0677 16.9271 -18.8802 31.25 -23.4375l18.5547 -2.92969l2.92969 0.488281h3.41797l0.976562 -0.976562v-0.976562c0 -0.976562 -2.11589 -1.6276 -6.34766 -1.95312l-10.7422 0.976562h-0.488281v-0.488281
c12.3698 -7.8125 24.9023 -11.7188 37.5977 -11.7188c5.53385 0.976562 20.0195 4.88281 43.457 11.7188l31.7383 4.88281c26.6927 11.0677 42.806 18.3919 48.3398 21.9727c10.7422 9.4401 16.1133 20.1823 16.1133 32.2266v12.6953
c0 33.2031 -5.20833 56.6406 -15.625 70.3125c-5.20833 9.11458 -7.8125 17.7409 -7.8125 25.8789v0.488281c0 13.6719 7.64974 27.3438 22.9492 41.0156c18.8802 19.2057 29.1341 31.5755 30.7617 37.1094c11.7188 20.1823 17.5781 44.1081 17.5781 71.7773v2.92969
l-0.488281 10.7422c18.8802 12.0443 36.6211 25.3906 53.2227 40.0391c25.7161 27.3438 38.5742 52.2461 38.5742 74.707c0 15.625 -5.37109 34.9935 -16.1133 58.1055c-22.7865 35.8073 -41.5039 53.7109 -56.1523 53.7109c-4.55729 0 -7.8125 -1.30208 -9.76562 -3.90625
v-0.976562c0 -1.95312 4.23177 -10.5794 12.6953 -25.8789c4.88281 -9.11458 7.32422 -21.9727 7.32422 -38.5742c0 -9.4401 -3.74349 -15.7878 -11.2305 -19.043c-15.2995 -9.4401 -27.9948 -14.1602 -38.0859 -14.1602c-5.20833 0 -12.3698 5.37109 -21.4844 16.1133
c-11.7188 9.4401 -22.9492 16.1133 -33.6914 20.0195c-27.0182 12.0443 -53.2227 18.0664 -78.6133 18.0664c-23.112 0 -45.7357 -5.53385 -67.8711 -16.6016c-2.92969 -0.976562 -5.69661 -1.46484 -8.30078 -1.46484h-0.488281
c-7.16146 0 -10.7422 6.9987 -10.7422 20.9961c0 9.76562 3.41797 18.5547 10.2539 26.3672c5.85938 8.78906 14.8112 19.2057 26.8555 31.25c2.60417 1.95312 4.55729 4.06901 5.85938 6.34766v1.46484c0 1.6276 -2.60417 2.92969 -7.8125 3.90625
c-13.9974 -2.60417 -35.8073 -15.4622 -65.4297 -38.5742c-29.9479 -27.6693 -45.2474 -45.8984 -45.8984 -54.6875c-4.23177 -11.0677 -6.34766 -20.0195 -6.34761 -26.8555zM391.602 820.508h4.88281c17.2526 0 28.3203 -9.76562 33.2031 -29.2969l3.41797 -13.1836
l-0.488281 -1.46484h-1.95312c-0.976562 0.325521 -2.92969 6.67318 -5.85938 19.043c-5.53385 14.3229 -14.8112 21.4844 -27.832 21.4844h-4.39453c-5.20833 0 -13.1836 -3.25521 -23.9258 -9.76562h-0.976562l-1.46484 1.46484v0.488281
c2.27865 2.27865 8.6263 5.69661 19.043 10.2539zM318.848 795.117c5.53385 0 9.76562 -4.06901 12.6953 -12.207l0.488281 -3.41797c0 -3.58073 -5.53385 -18.8802 -16.6016 -45.8984c-8.78906 -30.599 -15.4622 -49.4792 -20.0195 -56.6406
c-7.48698 -10.7422 -14.6484 -16.1133 -21.4844 -16.1133h-1.95312c-9.76562 0 -16.4388 6.9987 -20.0195 20.9961l-0.488281 6.34766v0.488281c0 20.8333 4.55729 38.0859 13.6719 51.7578c0 2.27865 6.34766 12.6953 19.043 31.25
c8.78906 12.0443 18.2292 19.5312 28.3203 22.4609zM254.883 688.672c0 -12.3698 4.72005 -20.3451 14.1602 -23.9258l3.90625 -0.488281c8.13802 0 16.276 7.97526 24.4141 23.9258c11.3932 36.7839 20.9961 64.2904 28.8086 82.5195l2.44141 8.78906
c0 5.85938 -3.41797 9.92839 -10.2539 12.207c-7.16146 0 -15.7878 -5.04557 -25.8789 -15.1367l-12.6953 -17.5781c-16.276 -25.3906 -24.4141 -45.0846 -24.4141 -59.082zM380.859 788.77h2.92969c7.48698 0 14.3229 -6.1849 20.5078 -18.5547
c2.27865 -7.48698 3.41797 -15.1367 3.41797 -22.9492v-2.92969c0 -32.8776 -6.67318 -60.5469 -20.0195 -83.0078c-11.0677 -15.9505 -23.763 -23.9258 -38.0859 -23.9258h-0.488281l-0.488281 -0.488281c-9.76562 0 -18.5547 4.06901 -26.3672 12.207
c-7.16146 9.11458 -10.7422 21.1589 -10.7422 36.1328c0 17.9036 11.0677 44.1081 33.2031 78.6133c7.8125 11.3932 18.5547 19.5312 32.2266 24.4141zM314.941 684.766c0 -19.8568 6.51042 -33.3659 19.5312 -40.5273c4.23177 -2.27865 8.46354 -3.41797 12.6953 -3.41797
h2.92969c10.7422 0 21.1589 6.02214 31.25 18.0664c15.2995 21.4844 22.9492 50.1302 22.9492 85.9375v1.95312c0 18.5547 -5.37109 30.9245 -16.1133 37.1094l-5.37109 1.46484h-0.976562c-9.11458 0 -19.8568 -6.9987 -32.2266 -20.9961
c-11.3932 -16.9271 -20.0195 -32.2266 -25.8789 -45.8984c-5.85938 -13.9974 -8.78906 -25.2279 -8.78894 -33.6915zM281.25 728.223h1.46484c5.53385 0 9.27734 -4.55729 11.2305 -13.6719l0.488281 -5.85938v-1.46484c0 -13.6719 -4.55729 -24.7396 -13.6719 -33.2031
c-2.92969 -2.27865 -6.02214 -3.41797 -9.27734 -3.41797c-4.88281 0 -8.46354 4.39453 -10.7422 13.1836l-0.976562 7.32422c0 13.6719 5.04557 25.3906 15.1367 35.1562zM269.043 702.344c0.976562 -6.1849 2.27865 -9.27734 3.90625 -9.27734h1.46484
c4.23177 0 6.9987 4.72005 8.30078 14.1602v1.95312c0 5.85938 -1.79036 8.78906 -5.37109 8.78906c-5.53385 -2.27865 -8.30078 -7.48698 -8.30078 -15.625zM347.656 718.457h2.92969c7.48698 0 12.6953 -6.34766 15.625 -19.043l0.488281 -5.85938v-3.90625
c0 -13.0208 -5.04557 -24.2513 -15.1367 -33.6914c-3.90625 -3.25521 -7.97526 -4.88281 -12.207 -4.88281h-0.488281c-7.48698 0 -12.8581 4.55729 -16.1133 13.6719c-1.30208 3.58073 -1.95312 7.48698 -1.95312 11.7188v2.44141c0 14.974 5.85938 27.181 17.5781 36.6211
c3.25521 1.95312 6.34766 2.92969 9.27733 2.92963zM333.008 689.16c0.976562 -6.1849 2.27865 -9.27734 3.90625 -9.27734h1.46484c4.23177 0 6.9987 4.72005 8.30078 14.1602v1.95312c0 5.85938 -1.79036 8.78906 -5.37109 8.78906
c-5.53385 -2.27865 -8.30078 -7.48698 -8.30078 -15.625zM277.344 655.469c9.4401 0 17.7409 -3.09245 24.9023 -9.27734v-2.44141h-2.44141c-7.16146 5.53385 -14.974 8.30078 -23.4375 8.30078c-10.0911 0 -17.4154 -4.39453 -21.9727 -13.1836
c-0.976562 -3.25521 -1.46484 -6.02214 -1.46484 -8.30078v-5.37109c0 -5.53385 3.74349 -10.9049 11.2305 -16.1133c5.53385 -3.90625 13.6719 -5.85938 24.4141 -5.85938l20.5078 2.44141h1.95312l11.2305 -3.90625c6.1849 0 9.27734 1.6276 9.27734 4.88281v2.44141
c0 4.55729 -1.95312 8.46354 -5.85938 11.7188v0.976562l1.46484 1.46484h0.488281c4.88281 -3.25521 7.32422 -7.64974 7.32422 -13.1836v-3.90625c0 -5.20833 -4.23177 -7.8125 -12.6953 -7.8125l-11.7188 3.90625h-0.976562l-20.9961 -2.44141
c-18.8802 0 -31.4128 6.1849 -37.5977 18.5547l-1.46484 5.85938v6.83594c0 11.0677 5.85938 18.7174 17.5781 22.9492c3.25521 0.976562 6.67318 1.46484 10.254 1.46483zM137.695 633.008c6.1849 -8.46354 11.8815 -17.5781 17.0898 -27.3438
c2.92969 -9.11458 5.04557 -14.3229 6.34766 -15.625c4.88281 3.90625 8.46354 5.85938 10.7422 5.85938h0.488281c4.23177 -0.976562 8.95182 -5.85938 14.1602 -14.6484c2.27865 -4.55729 3.41797 -9.4401 3.41797 -14.6484
c0 -7.48698 -4.23177 -13.1836 -12.6953 -17.0898l-1.95312 -0.488281c-2.27865 0.325521 -9.4401 5.53385 -21.4844 15.625c-5.20833 2.92969 -7.8125 5.85938 -7.8125 8.78906v0.976562c0 1.30208 1.30208 3.90625 3.90625 7.8125
c0 0.651042 -4.55729 1.6276 -13.6719 2.92969c-6.83594 1.30208 -16.7643 6.02214 -29.7852 14.1602l-6.83594 2.92969v-0.488281c1.95312 -5.20833 6.1849 -13.9974 12.6953 -26.3672c3.25521 -6.1849 5.85938 -13.5091 7.8125 -21.9727l0.488281 -0.488281h0.488281
c5.53385 4.88281 8.95182 7.32422 10.2539 7.32422h0.976562c2.92969 0 8.6263 -4.06901 17.0898 -12.207c6.51042 -4.88281 9.76562 -9.60286 9.76562 -14.1602v-2.92969c-1.30208 -6.83594 -10.7422 -11.3932 -28.3203 -13.6719h-7.8125
c-19.2057 2.60417 -28.8086 6.83594 -28.8086 12.6953c0 1.6276 2.76693 4.23177 8.30078 7.8125l2.44141 3.41797c0 1.95312 -6.1849 4.55729 -18.5547 7.8125c-6.51042 2.27865 -17.0898 8.46354 -31.7383 18.5547h-1.95312v-0.976562h-0.488281
c1.6276 -11.0677 12.0443 -27.5065 31.25 -49.3164c10.4167 -9.11458 20.3451 -14.3229 29.7852 -15.625c7.8125 -1.30208 14.974 -1.95312 21.4844 -1.95312c10.4167 0 25.0651 5.85938 43.9453 17.5781h1.95312c2.92969 0 13.3464 -8.13802 31.25 -24.4141h0.488281
c2.27865 1.30208 4.72005 1.95312 7.32422 1.95312v0.488281c-3.90625 5.53385 -5.85938 12.0443 -5.85938 19.5312l0.488281 3.41797c-13.3464 9.76562 -20.0195 16.4388 -20.0195 20.0195l6.83594 13.6719l1.46484 10.2539c0 17.2526 -5.53385 29.6224 -16.6016 37.1094
c-2.92969 0.976562 -4.55729 2.11589 -4.88281 3.41797v0.976562c0 0.976562 1.13932 3.09245 3.41797 6.34766v0.488281c-0.651042 1.95312 -7.32422 5.20833 -20.0195 9.76562c-4.23177 2.60417 -13.1836 6.83594 -26.8554 12.6954zM247.07 590.039
c9.11458 0 14.974 -2.27865 17.5781 -6.83594c20.5078 -21.8099 33.6914 -33.6914 39.5508 -35.6445c10.4167 -6.1849 22.4609 -9.27734 36.1328 -9.27734h2.92969c10.4167 0 19.8568 2.11589 28.3203 6.34766c21.4844 10.0911 33.8542 17.5781 37.1094 22.4609
c3.90625 2.92969 8.6263 4.39453 14.1602 4.39453h6.83594l1.46484 -1.46484v-0.976562c0 -1.95312 -0.976562 -2.92969 -2.92969 -2.92969h-2.92969c-7.8125 0 -12.8581 -1.95312 -15.1367 -5.85938c-9.4401 -7.48698 -23.4375 -15.1367 -41.9922 -22.9492
c-6.51042 -2.92969 -14.974 -4.39453 -25.3906 -4.39453h-1.95312c-25.7161 0 -47.2005 10.2539 -64.4531 30.7617c-0.651042 0 -7.16146 6.51042 -19.5312 19.5312c-2.27865 0.976562 -6.1849 1.46484 -11.7188 1.46484l-0.976562 1.46484v2.44141
c0.325521 0.976562 1.30208 1.46484 2.92959 1.4649zM217.285 513.867c0 -10.4167 4.88281 -18.5547 14.6484 -24.4141c4.23177 -1.6276 8.6263 -2.44141 13.1836 -2.44141h3.41797c16.276 0 25.7161 3.41797 28.3203 10.2539
c0.976562 1.6276 1.6276 4.55729 1.95312 8.78906c0 11.0677 -4.39453 18.8802 -13.1836 23.4375c-2.92969 1.95312 -6.1849 2.92969 -9.76562 2.92969h-8.30078c-16.9271 0 -26.8555 -5.04557 -29.7852 -15.1367zM198.73 461.621
c0 -10.4167 6.02214 -17.5781 18.0664 -21.4844c4.23177 -0.976562 10.9049 -1.6276 20.0195 -1.95312c7.48698 0 15.2995 4.23177 23.4375 12.6953c2.60417 3.90625 3.90625 8.13802 3.90625 12.6953c0 4.23177 -1.95312 9.76562 -5.85938 16.6016l-4.39453 3.41797
h-9.27734c-9.11458 0 -16.276 2.60417 -21.4844 7.8125l-0.488281 0.488281h-0.488281c-9.4401 0 -16.7643 -6.02214 -21.9727 -18.0664c-0.651042 -1.95312 -1.13932 -6.02214 -1.46474 -12.207zM259.766 483.594l1.95312 -2.92969h0.488281l3.90625 3.41797h-1.46484z
M264.16 477.246c2.27865 -6.1849 3.41797 -10.9049 3.41797 -14.1602c0 -12.6953 -8.13802 -21.8099 -24.4141 -27.3438l-6.83594 -0.976562l-13.1836 0.976562l-0.976562 -3.90625c3.58073 -6.51042 9.11458 -11.3932 16.6016 -14.6484l10.7422 -0.976562h0.976562
c10.0911 0 20.0195 2.60417 29.7852 7.8125c17.2526 17.5781 25.8789 28.4831 25.8789 32.7148v1.95312c0 10.4167 -4.39453 17.4154 -13.1836 20.9961c-4.23177 2.60417 -8.78906 3.90625 -13.6719 3.90625c-6.51042 0 -11.556 -2.11589 -15.1367 -6.34756z
M265.625 412.793v-0.976562c0 -2.60417 5.20833 -4.39453 15.625 -5.37109h0.488281c8.46354 1.30208 14.3229 3.25521 17.5781 5.85938l16.6016 21.4844c0 2.92969 -1.95312 7.64974 -5.85938 14.1602c-3.25521 0 -7.8125 -4.06901 -13.6719 -12.207
c-11.0677 -12.6953 -19.2057 -19.043 -24.4141 -19.043c-4.23177 -1.6276 -6.34766 -2.92969 -6.3476 -3.90633zM449.707 345.41v-0.488281c24.4141 -15.2995 39.0625 -24.7396 43.9453 -28.3203c1.95312 -2.27865 2.92969 -5.37109 2.92969 -9.27734
c0 -4.23177 -3.09245 -8.95182 -9.27734 -14.1602l-2.44141 -0.488281h-3.90625c-1.6276 0 -13.0208 6.9987 -34.1797 20.9961c-9.76562 5.53385 -20.5078 13.0208 -32.2266 22.4609l-1.95312 2.92969c-22.4609 -7.16146 -35.6445 -10.7422 -39.5508 -10.7422
c-15.625 0 -30.7617 5.37109 -45.4102 16.1133c-0.976562 0 -1.46484 0.651042 -1.46484 1.95312c-5.20833 0 -13.6719 4.72005 -25.3906 14.1602l-7.32422 8.78906h-0.488281c-4.88281 -9.76562 -7.32422 -19.3685 -7.32422 -28.8086v-3.90625
c0 -13.0208 7.16146 -29.4596 21.4844 -49.3164c0 -3.25521 6.51042 -9.11458 19.5312 -17.5781l3.41797 0.488281h9.27734c6.1849 0 12.0443 -3.25521 17.5781 -9.76562h0.488281c5.20833 0 7.8125 0.325521 7.8125 0.976562c4.88281 0 7.97526 -4.06901 9.27734 -12.207
v-0.976562h1.46484c4.55729 13.0208 8.6263 19.5312 12.207 19.5312c2.60417 1.95312 6.83594 2.92969 12.6953 2.92969c7.16146 0 15.9505 -4.72005 26.3672 -14.1602h0.488281c0 3.25521 8.46354 4.88281 25.3906 4.88281l24.4141 8.30078l1.95312 0.488281
c2.27865 0 5.37109 -2.27865 9.27734 -6.83594c8.46354 -7.8125 15.625 -13.6719 21.4844 -17.5781c15.2995 -11.7188 27.9948 -19.043 38.0859 -21.9727c16.9271 -7.48698 41.3411 -15.1367 73.2422 -22.9492c24.4141 -5.53385 63.151 -11.8815 116.211 -19.043
c20.1823 -4.23177 34.0169 -10.4167 41.5039 -18.5547c3.25521 -3.90625 4.88281 -7.16146 4.88281 -9.76562c0 -9.11458 -13.9974 -17.0898 -41.9922 -23.9258l-13.1836 -1.46484c-5.85938 0 -10.4167 5.37109 -13.6719 16.1133
c-4.23177 7.16146 -7.32422 11.3932 -9.27734 12.6953c-1.30208 0 -8.30078 -4.23177 -20.9961 -12.6953c-17.2526 -10.0911 -45.4102 -25.7161 -84.4727 -46.875c-5.53385 -3.25521 -9.76562 -6.02214 -12.6953 -8.30078l3.90625 -0.488281
c41.0156 2.60417 88.2161 4.39453 141.602 5.37109l1.95312 0.488281l0.488281 0.488281v0.488281l-1.46484 7.8125c0 2.27865 6.34766 4.23177 19.043 5.85938c26.0417 4.88281 42.6432 9.92839 49.8047 15.1367c12.0443 8.78906 18.0664 16.9271 18.0664 24.4141v0.488281
c0 26.0417 -27.3438 44.9219 -82.0312 56.6406c-17.2526 4.23177 -48.1771 11.0677 -92.7734 20.5078c-43.2943 10.7422 -76.1719 27.181 -98.6328 49.3164c-13.0208 13.0208 -24.0885 30.1107 -33.2031 51.2695c-7.16146 19.2057 -10.7422 31.7383 -10.7422 37.5977
l1.46484 9.27734c-5.53385 -6.51042 -14.1602 -11.7188 -25.8789 -15.625c-17.2526 -7.8125 -27.181 -12.0443 -29.7855 -12.6952zM416.992 340.039v-0.488281c8.78906 -8.46354 21.4844 -17.4154 38.0859 -26.8555c16.6016 -11.0677 25.5534 -16.6016 26.8555 -16.6016
h1.46484c3.58073 0 6.83594 3.74349 9.76562 11.2305v0.976562c0 4.23177 -5.85938 9.4401 -17.5781 15.625c-7.8125 5.53385 -15.4622 10.4167 -22.9492 14.6484c-4.23177 3.58073 -6.83594 5.37109 -7.8125 5.37109
c-5.85938 -1.30208 -15.1367 -2.60417 -27.8321 -3.90617zM308.594 275.098v-1.95312c0 -2.60417 2.92969 -11.2305 8.78906 -25.8789v-5.37109c0 -4.88281 -8.30078 -9.76562 -24.9023 -14.6484c-7.48698 -4.88281 -14.974 -7.32422 -22.4609 -7.32422
c-23.112 0 -38.8997 -0.813802 -47.3633 -2.44141v-0.488281c4.55729 -0.325521 11.3932 -4.72005 20.5078 -13.1836c2.27865 -1.95312 3.41797 -4.72005 3.41797 -8.30078v-0.488281h0.488281c15.625 7.48698 32.2266 11.2305 49.8047 11.2305h2.92969l14.1602 -0.976562
c3.90625 2.60417 15.1367 6.9987 33.6914 13.1836c13.9974 3.25521 20.9961 5.85938 20.9961 7.8125c1.30208 0 2.60417 2.44141 3.90625 7.32422l-0.976562 9.76562l0.488281 0.488281v0.488281c-1.6276 8.78906 -3.58073 13.1836 -5.85938 13.1836l-8.78906 -0.488281
c-2.27865 0 -6.1849 2.92969 -11.7188 8.78906l-6.34766 0.976562l-17.5781 -0.488281l-9.27734 6.83594zM375.488 238.477l0.488281 -4.39453c0 -9.4401 -7.32422 -15.2995 -21.9727 -17.5781c-1.6276 0 -13.0208 -3.90625 -34.1797 -11.7188
c0 -0.651042 4.06901 -1.95312 12.207 -3.90625c4.55729 -1.6276 9.92839 -5.04557 16.1133 -10.2539c14.974 7.16146 28.4831 12.3698 40.5273 15.625c15.9505 2.92969 27.9948 6.1849 36.1328 9.76562c2.60417 2.27865 3.90625 5.04557 3.90625 8.30078v1.95312
c0 8.13802 -0.651042 16.4388 -1.95312 24.9023c-9.4401 10.7422 -18.7174 16.1133 -27.832 16.1133c-9.4401 0 -15.9505 -6.51042 -19.5312 -19.5312c-1.30208 -4.55729 -2.60417 -7.64974 -3.90621 -9.27734zM430.176 254.102
c1.30208 -11.7188 1.95312 -20.8333 1.95312 -27.3438v-1.95312c0 -6.83594 -3.09245 -11.3932 -9.27734 -13.6719c-7.8125 -2.60417 -22.1354 -6.1849 -42.9688 -10.7422l-28.8086 -12.207v-0.488281c8.13802 -9.76562 12.207 -20.5078 12.207 -32.2266h0.488281
c26.0417 0 55.8268 4.39453 89.3555 13.1836c16.6016 4.88281 34.5052 12.5326 53.7109 22.9492l3.90625 0.976562c-6.51042 22.7865 -13.5091 41.9922 -20.9961 57.6172c-4.88281 11.0677 -8.30078 16.6016 -10.2539 16.6016
c-13.9974 -6.1849 -26.2044 -9.27734 -36.6211 -9.27734c-7.8125 0 -12.0443 -1.13932 -12.6952 -3.41792zM318.359 247.266h5.37109c10.4167 0 21.9727 -2.27865 34.668 -6.83594l1.46484 -1.46484v-1.95312l-1.46484 -0.488281
c-12.3698 4.88281 -24.4141 7.32422 -36.1328 7.32422h-1.46484c-1.6276 0 -2.60417 0.651042 -2.92969 1.95312zM380.371 243.848c9.4401 0 24.9023 -2.27865 46.3867 -6.83594l0.488281 -0.488281v-1.46484l-1.46484 -1.46484
c-21.4844 4.55729 -36.6211 6.83594 -45.4102 6.83594l-0.488281 0.488281v1.95312l0.488281 0.488281zM472.656 242.871c5.85938 0 10.4167 -4.55729 13.6719 -13.6719v-3.41797c0 -10.0911 -3.90625 -16.6016 -11.7188 -19.5312h-2.92969
c-10.4167 1.30208 -15.625 6.34766 -15.625 15.1367c0 9.76562 4.39453 16.7643 13.1836 20.9961zM458.008 220.898c0 -6.83594 4.39453 -11.0677 13.1836 -12.6953h2.44141c7.16146 2.27865 10.7422 8.30078 10.7422 18.0664v1.46484
c0 5.85938 -3.90625 10.2539 -11.7188 13.1836c-5.85938 0 -10.4167 -4.55729 -13.6719 -13.6719zM310.547 233.594c7.8125 -0.651042 20.9961 -3.90625 39.5508 -9.76562l0.976562 -1.46484c-0.325521 -1.30208 -0.976562 -1.95312 -1.95312 -1.95312
c-10.4167 3.90625 -22.9492 7.16146 -37.5977 9.76562c-1.6276 0 -2.44141 0.488281 -2.44141 1.46484zM376.465 228.223c13.0208 0 27.6693 -2.27865 43.9453 -6.83594v-2.44141l-1.46484 -0.488281c-17.2526 4.23177 -31.5755 6.34766 -42.9688 6.34766l-0.976562 1.46484
v0.976562c0 0.651042 0.488281 0.976562 1.4649 0.976569zM291.016 225.293c10.0911 -1.6276 20.6706 -4.55729 31.7383 -8.78906l1.95312 -1.95312v-0.976562l-0.976562 -0.976562l-20.5078 6.83594c-9.11458 1.30208 -13.6719 2.44141 -13.6719 3.41797v0.976562z
M257.812 217.48c15.2995 0 31.4128 -2.44141 48.3398 -7.32422v-0.976562h0.488281c-0.325521 -1.30208 -0.813802 -1.95312 -1.46484 -1.95312c-18.5547 4.55729 -34.5052 6.83594 -47.8516 6.83594l-0.488281 0.488281v2.44141h0.976562zM125 194.531
c11.0677 -8.78906 28.4831 -13.1836 52.2461 -13.1836c33.8542 0.976562 50.7812 1.79036 50.7812 2.44141c1.95312 2.27865 6.67318 5.20833 14.1602 8.78906l0.976562 2.92969v0.976562c0 3.58073 -6.1849 9.11458 -18.5547 16.6016
c-6.1849 1.95312 -12.5326 2.92969 -19.043 2.92969h-5.85938c-15.2995 0 -36.9466 -5.37109 -64.9414 -16.1133zM362.305 216.016c10.4167 0 19.3685 -1.46484 26.8555 -4.39453l0.488281 -0.488281v-2.44141l-1.95312 -0.488281
c-6.51042 2.92969 -15.4622 4.39453 -26.8555 4.39453l-0.488281 0.488281v1.46484c0 0.651042 0.651042 1.13932 1.95312 1.46485zM338.379 210.645c10.7422 0 20.3451 -2.60417 28.8086 -7.8125l0.488281 -0.488281
c-0.325521 -1.30208 -0.813802 -1.95312 -1.46484 -1.95312h-0.488281c-10.4167 4.55729 -19.3685 6.83594 -26.8555 6.83594h-1.46484l-0.488281 0.488281v1.95312c0 0.651042 0.488281 0.976562 1.46486 0.97656zM224.121 174.512l15.1367 -10.2539
c14.974 -6.83594 38.5742 -10.2539 70.8008 -10.2539l46.875 0.976562c1.95312 0 2.92969 0.325521 2.92969 0.976562c0 8.46354 -3.09245 17.4154 -9.27734 26.8555c-11.0677 13.3464 -27.832 20.0195 -50.293 20.0195h-3.90625
c-21.8099 0 -43.2943 -6.67318 -64.4531 -20.0195c-4.88281 -4.55729 -7.48698 -7.32422 -7.8125 -8.30082zM114.258 181.836v-0.488281c0 -19.8568 17.4154 -29.7852 52.2461 -29.7852c10.7422 -0.651042 25.0651 -0.976562 42.9688 -0.976562h0.976562l4.88281 0.488281
l-0.488281 0.488281v9.27734c0 5.53385 2.11589 10.7422 6.34766 15.625l1.95312 2.92969h-0.488281l-45.4102 -1.46484c-24.4141 0 -42.3177 4.39453 -53.7109 13.1836l-2.44141 0.976562c-4.55729 -3.25521 -6.83594 -6.67318 -6.83598 -10.2539zM310.059 150.586
c-44.5964 0 -72.4284 6.1849 -83.4961 18.5547l-3.90625 2.44141c-2.92969 -2.60417 -4.39453 -6.1849 -4.39453 -10.7422v-5.37109c0 -7.48698 3.74349 -12.5326 11.2305 -15.1367c14.3229 -8.13802 30.1107 -12.207 47.3633 -12.207
c27.3438 -2.27865 52.0833 -3.41797 74.2188 -3.41797h4.88281c19.5312 0 45.8984 3.25521 79.1016 9.76562c20.8333 5.85938 46.3867 16.4388 76.6602 31.7383c1.6276 2.27865 2.44141 4.23177 2.44141 5.85938c0 11.3932 -0.813802 17.0898 -2.44141 17.0898h-0.488281
l-32.2266 -15.1367c-20.5078 -9.11458 -47.526 -15.625 -81.0547 -19.5312c-28.3203 -2.60417 -57.6172 -3.90625 -87.8907 -3.90635z" />
  </g>

</svg>
