<?xml version="1.0" standalone="no"?>
<!DOCTYPE svg PUBLIC "-//W3C//DTD SVG 1.1//EN" "http://www.w3.org/Graphics/SVG/1.1/DTD/svg11.dtd" >
<svg xmlns="http://www.w3.org/2000/svg" xmlns:xlink="http://www.w3.org/1999/xlink" version="1.1" viewBox="0 -200 1000 1000">
  <g transform="matrix(1 0 0 -1 0 800)">
   <path fill="currentColor"
d="M437.012 906.934v-1.46484l-9.76562 -0.976562v1.46484l0.976562 0.976562h2.44141h6.34765zM445.801 907.422h9.27734v-1.46484h-9.27734v1.46484zM463.867 907.422l9.76562 -0.488281v-1.46484l-9.76562 0.488281v1.46484zM482.422 906.934l9.76562 -0.488281v-1.95312
l-9.76562 0.488281v1.95312zM418.457 905.957v-1.95312l-9.27734 -1.46484l-0.488281 1.95312zM500.977 905.469l9.27734 -1.46484v-1.46484c-6.51042 0.325521 -9.76562 0.813802 -9.76562 1.46484v0.488281l0.488281 0.488281zM400.391 903.516v-1.46484
l-9.76562 -1.46484v1.95312h0.488281zM519.043 902.539l9.27734 -0.976562v-1.95312c-6.51042 0.976562 -9.76562 1.6276 -9.76562 1.95312zM382.324 900.586v-1.95312l-9.27734 -1.46484l-0.488281 0.488281v0.976562zM537.109 899.609l9.27734 -1.46484v-2.44141
l-9.76562 2.44141zM364.258 896.68v-1.95312l-9.27734 -1.95312l-0.488281 1.46484zM555.176 895.703c6.1849 -1.6276 9.27734 -2.60417 9.27734 -2.92969l-0.488281 -1.46484l-9.27734 1.95312v1.46484l0.488281 0.488281v0.488289zM346.191 891.797h0.488281v-1.95312
l-9.27734 -1.95312v0.976562h-0.488281l0.488281 0.488281zM573.73 890.332c5.53385 -1.30208 8.30078 -2.27865 8.30078 -2.92969l-0.488281 -1.46484l-9.27734 2.92969v0.488281c0 0.651042 0.488281 0.976562 1.46484 0.976559zM329.102 885.938l0.488281 -1.46484
l-9.27734 -2.92969l-0.488281 0.488281v0.976562c0 0.651042 3.09245 1.79036 9.27734 3.41797v-0.488283zM589.844 884.473l9.27734 -2.44141v-1.46484l-0.488281 -0.488281l-8.78906 2.92969zM311.523 880.078h0.488281v-0.976562
c0 -0.651042 -2.92969 -1.95312 -8.78906 -3.90625l-0.488281 1.46484h0.488281zM607.422 878.613l8.78906 -3.41797v-0.976562c0 -0.651042 -0.325521 -0.976562 -0.976562 -0.976562c-4.23177 1.30208 -6.9987 2.60417 -8.30078 3.90625v0.488281l0.488281 0.488281z
M294.922 873.242v-0.488281v-0.976562c0 -0.651042 -2.92969 -2.11589 -8.78906 -4.39453v0.488281v1.46484zM625 870.801c5.53385 -2.27865 8.30078 -3.74349 8.30078 -4.39453l-0.976562 -0.976562l-8.30078 4.39453zM278.32 864.941l0.488281 -1.46484h-0.488281
c-4.23177 -2.60417 -6.9987 -3.90625 -8.30078 -3.90625l-0.488281 0.488281v1.46484l8.78906 3.90625zM641.113 862.988c5.53385 -2.60417 8.30078 -4.23177 8.30078 -4.88281v-0.488281l-0.976562 -0.488281l-8.30078 4.39453zM262.207 856.641l0.488281 -0.488281
v-1.46484l-8.30078 -4.39453l-0.488281 0.488281v0.976562c2.92969 2.60417 5.69661 4.23177 8.30078 4.88281zM656.738 854.199h0.488281c5.53385 -2.92969 8.30078 -4.72005 8.30078 -5.37109v-0.488281h-0.488281v-0.488281
c-5.20833 2.60417 -7.97526 4.23177 -8.30078 4.88281v1.46484zM246.094 847.363l0.488281 -0.488281v-0.976562l-7.8125 -5.37109l-0.976562 1.95312zM673.34 844.434c5.20833 -3.25521 7.8125 -5.04557 7.8125 -5.37109l-1.46484 -0.976562
c-4.55729 2.60417 -6.9987 4.39453 -7.32422 5.37109v0.488281zM231.445 837.109l0.488281 -1.46484l-7.8125 -5.37109h-0.976562v0.976562l-0.488281 0.488281l0.488281 0.488281c4.23177 3.25521 6.9987 4.88281 8.30078 4.88281zM688.477 834.18
c4.55729 -2.60417 7.16146 -4.55729 7.8125 -5.85938l-1.46484 -0.976562c-4.88281 3.25521 -7.32422 5.20833 -7.32422 5.85938s0.325521 0.976562 0.97656 0.976562zM215.82 826.367l0.976562 -0.976562c-4.55729 -3.90625 -7.16146 -5.85938 -7.8125 -5.85938
l-0.488281 0.488281v0.976562zM702.637 823.438l8.30078 -5.85938v-0.488281l-1.46484 -0.976562l-7.32422 5.37109zM201.172 815.137l0.976562 -0.976562v-0.488281l-6.83594 -5.85938h-0.488281l-0.488281 1.46484zM717.285 811.719
c0.976562 0 3.41797 -2.11589 7.32422 -6.34766v-0.488281l-0.976562 -0.976562l-7.32422 6.34766v0.488281zM187.5 802.93l0.976562 -0.976562c-2.27865 -2.92969 -4.55729 -5.20833 -6.83594 -6.83594l-0.976562 1.46484zM730.957 799.023h0.488281l6.83594 -6.34766
c-0.651042 0 -0.976562 -0.488281 -0.976562 -1.46484h-9.76562v1.95312h7.32422l-4.88281 4.88281v0.488281zM459.473 795.117c17.2526 0 36.9466 -5.69661 59.082 -17.0898c7.16146 -4.55729 13.3464 -9.76562 18.5547 -15.625
c10.4167 -12.3698 16.9271 -25.2279 19.5312 -38.5742c3.25521 -23.763 6.02214 -63.8021 8.30078 -120.117c1.30208 -17.2526 3.25521 -30.2734 5.85938 -39.0625c2.60417 -10.4167 9.92839 -22.7865 21.9727 -37.1094c27.6693 15.2995 58.2682 36.6211 91.7969 63.9648
c34.5052 29.2969 63.6393 48.6654 87.4023 58.1055c4.55729 1.95312 9.60286 3.41797 15.1367 4.39453c4.55729 0 8.30078 -3.41797 11.2305 -10.2539h1.95312v-15.1367l-0.488281 -1.95312l0.488281 -2.92969v-7.8125h-1.46484l-0.488281 0.488281h-0.488281
c-0.651042 -7.48698 -6.9987 -20.5078 -19.043 -39.0625c-13.6719 -21.1589 -25.8789 -41.1784 -36.6211 -60.0586h6.83594c44.2708 0 79.7526 -2.60417 106.445 -7.8125c2.92969 0 5.53385 -4.72005 7.8125 -14.1602v-3.41797
c0 -6.83594 -5.20833 -13.3464 -15.625 -19.5312c-12.6953 -9.4401 -28.4831 -19.694 -47.3633 -30.7617v-9.27734h-1.95312v7.8125h-0.488281c-9.76562 -6.1849 -20.6706 -11.3932 -32.7148 -15.625c-14.974 -6.51042 -30.7617 -14.974 -47.3633 -25.3906
c-36.1328 -24.4141 -60.5469 -53.8737 -73.2422 -88.3789c-2.60417 -7.8125 -4.72005 -19.694 -6.34766 -35.6445c-4.23177 -15.9505 -8.6263 -28.3203 -13.1836 -37.1094c-2.92969 -5.53385 -6.9987 -12.0443 -12.207 -19.5312
c62.1745 -6.1849 93.2617 -13.0208 93.2617 -20.5078c0 -1.95312 -2.11589 -4.88281 -6.34766 -8.78906l0.976562 -0.976562l-7.8125 -5.37109l-0.976562 0.976562l2.44141 2.92969c-5.53385 -2.92969 -16.7643 -6.9987 -33.6914 -12.207
c-3.90625 -2.92969 -8.78906 -8.30078 -14.6484 -16.1133c-4.55729 -3.25521 -9.11458 -4.88281 -13.6719 -4.88281l3.90625 -2.92969l0.488281 0.488281h1.46484c0 -1.30208 4.23177 -5.04557 12.6953 -11.2305c4.88281 -4.23177 7.64974 -7.16146 8.30078 -8.78906
v-3.41797c-5.20833 -7.48698 -15.1367 -11.2305 -29.7852 -11.2305c-6.83594 0 -15.4622 1.95312 -25.8789 5.85938h-0.976562c-6.1849 0 -11.556 -0.976562 -16.1133 -2.92969l-2.44141 -0.488281c-3.25521 0 -8.6263 0.976562 -16.1133 2.92969l-6.34766 -1.46484
l-0.976562 0.488281v0.976562l3.41797 0.488281v0.488281h-0.976562c-6.83594 -1.30208 -13.9974 -2.92969 -21.4844 -4.88281h-0.488281c-2.92969 0 -9.4401 1.79036 -19.5312 5.37109h-1.95312l-21.4844 -6.34766h-3.90625
c-12.0443 3.25521 -18.0664 7.48698 -18.0664 12.6953c0 3.25521 5.85938 8.95182 17.5781 17.0898c17.9036 13.9974 26.8555 24.0885 26.8555 30.2734c0 5.85938 -18.8802 9.4401 -56.6406 10.7422h-4.88281c-42.9688 -4.55729 -64.4531 -9.60286 -64.4531 -15.1367
c0.651042 -2.27865 6.02214 -7.16146 16.1133 -14.6484c18.2292 -11.7188 27.3438 -20.3451 27.3438 -25.8789c0 -4.55729 -5.53385 -7.16146 -16.6016 -7.8125h-4.39453c-5.85938 0 -12.3698 0.325521 -19.5312 0.976562c-1.6276 0 -5.53385 -2.92969 -11.7188 -8.78906
l-3.41797 -0.488281c0 -0.976562 2.76693 -1.6276 8.30078 -1.95312h4.88281v-1.95312h-7.8125l-9.27734 1.95312l0.488281 0.488281v1.46484l-26.8555 8.78906l-2.92969 -0.976562c0.325521 -0.976562 1.46484 -1.46484 3.41797 -1.46484v-1.95312l-7.8125 1.46484
c-6.1849 -1.95312 -10.9049 -3.09245 -14.1602 -3.41797c-2.60417 0 -7.64974 2.92969 -15.1367 8.78906l-1.46484 0.488281l-22.4609 -9.76562l-3.41797 -0.488281c-19.2057 0 -28.8086 2.92969 -28.8086 8.78906v0.976562c0 4.55729 4.88281 10.9049 14.6484 19.043
l2.92969 1.95312v0.976562c-0.976562 0 -1.79036 0.488281 -2.44141 1.46484l0.488281 1.46484l4.39453 -1.46484l2.92969 2.44141v0.488281c-0.651042 0 -3.74349 3.41797 -9.27734 10.2539c-5.85938 4.88281 -12.8581 7.32422 -20.9961 7.32422
c-8.78906 2.60417 -15.625 5.20833 -20.5078 7.8125v-0.488281l4.88281 -3.41797l-0.488281 -1.46484h-0.488281c-5.20833 3.25521 -7.8125 5.20833 -7.8125 5.85938l0.488281 0.976562c-0.325521 0 -2.76693 1.46484 -7.32422 4.39453l-0.488281 -0.488281v-0.488281
c-2.92969 1.95312 -5.53385 4.06901 -7.8125 6.34766l1.46484 1.46484c-2.60417 1.95312 -3.90625 4.23177 -3.90625 6.83594v2.44141c0 4.23177 19.043 8.30078 57.1289 12.207l36.6211 2.92969c-10.4167 19.8568 -21.9727 48.5026 -34.668 85.9375
c-5.85938 21.8099 -10.2539 35.8073 -13.1836 41.9922c-3.90625 7.48698 -11.7188 17.2526 -23.4375 29.2969c-27.9948 24.4141 -61.0352 43.9453 -99.1211 58.5938c-24.4141 10.7422 -46.3867 22.9492 -65.918 36.6211c-12.0443 10.0911 -18.2292 18.2292 -18.5547 24.4141
v3.90625c0 3.58073 2.60417 7.48698 7.8125 11.7188c11.7188 6.1849 28.9714 9.27734 51.7578 9.27734h11.2305v9.27734h1.95312v-9.27734h0.488281c12.0443 0 27.3438 -1.13932 45.8984 -3.41797c-22.1354 30.2734 -36.7839 58.1055 -43.9453 83.4961
c-0.651042 1.6276 -1.6276 5.37109 -2.92969 11.2305h-1.46484v4.39453l-0.976562 18.0664c0 7.48698 0.488281 11.8815 1.46484 13.1836l-0.488281 2.44141v8.30078h1.95312v-5.85938h0.488281c1.6276 4.23177 5.04557 6.34766 10.2539 6.34766h0.488281
c13.6719 0 44.9219 -20.6706 93.75 -62.0117c21.4844 -17.2526 40.2018 -30.9245 56.1523 -41.0156c16.276 -10.4167 29.1341 -17.4154 38.5742 -20.9961c19.5312 21.1589 29.2969 43.6198 29.2969 67.3828v1.95312l-1.46484 58.5938v13.1836
c0 54.6875 17.2526 90.9831 51.7578 108.887c18.2292 8.78906 37.7604 13.1836 58.5938 13.1836zM121.582 793.164h9.76562v-1.95312h-9.76562zM140.137 793.164h9.27734v-1.95312h-9.27734v1.95312zM158.203 793.164h9.76562v-1.95312h-9.76562v1.95312zM176.758 793.164
h9.76562v-1.95312h-9.76562v1.95312zM195.312 793.164h9.27734v-1.95312h-9.27734v1.95312zM213.379 793.164h9.27734v-1.95312h-9.27734v1.95312zM231.934 793.164h9.27734v-1.95312h-9.27734v1.95312zM250 793.164h9.27734v-1.95312h-9.27734zM268.066 793.164h9.76562
v-1.95312h-9.76562v1.95312zM286.621 793.164h9.76562v-1.95312h-9.76562v1.95312zM305.176 793.164h9.27734v-1.95312h-9.27734v1.95312zM323.242 793.164h9.76562v-1.95312h-9.76562v1.95312zM341.797 793.164h9.76562v-1.95312h-9.76562v1.95312zM360.352 793.164
h9.27734v-1.95312h-9.27734v1.95312zM378.418 793.164h9.76562v-1.95312h-9.76562v1.95312zM396.973 793.164h9.76562v-1.95312h-9.76562v1.95312zM415.527 793.164h9.27734v-1.95312h-9.27734v1.95312zM488.77 793.164h9.76562v-1.95312h-9.76562v1.95312zM507.324 793.164
h9.27734v-1.95312h-9.27734zM525.879 793.164h8.78906v-1.95312h-8.78906v1.95312zM543.945 793.164h9.27734v-1.95312h-9.27734v1.95312zM562.012 793.164h9.76562v-1.95312h-9.76562v1.95312zM580.566 793.164h9.27734v-1.95312h-9.27734v1.95312zM598.633 793.164
h9.76562v-1.95312h-9.76562v1.95312zM617.188 793.164h9.76562v-1.95312h-9.76562v1.95312zM635.742 793.164h9.27734v-1.95312h-9.27734v1.95312zM653.809 793.164h9.76562v-1.95312h-9.76562v1.95312zM672.363 793.164h9.76562v-1.95312h-9.76562v1.95312z
M690.918 793.164h9.27734v-1.95312h-9.27734v1.95312zM708.984 793.164h9.76562v-1.95312h-9.76562v1.95312zM746.094 793.164h9.27734v-1.95312h-9.27734v1.95312zM764.16 793.164h9.76562v-1.95312h-9.76562v1.95312zM782.715 793.164h9.76562v-1.95312h-9.76562v1.95312z
M798.34 790.723h1.95312v-9.76562h-1.95312v9.76562zM174.316 790.234l0.976562 -0.976562l-6.83594 -6.83594l-0.976562 1.46484zM744.141 786.328c4.55729 -3.90625 6.83594 -6.1849 6.83594 -6.83594l-1.46484 -0.976562l-6.83594 6.83594zM119.629 784.375h1.95312
v-9.76562h-1.95312v9.76562zM161.621 777.051l0.976562 -0.976562l-6.34766 -7.32422l-0.976562 1.46484zM488.281 766.797c0 -5.20833 5.69661 -10.4167 17.0898 -15.625c8.78906 -8.13802 15.625 -17.0898 20.5078 -26.8555
c4.55729 -9.4401 8.6263 -20.8333 12.207 -34.1797c1.30208 -5.20833 2.76693 -7.8125 4.39453 -7.8125h1.95312c2.60417 0 5.04557 2.11589 7.32422 6.34766c-3.58073 31.5755 -6.51042 47.3633 -8.78906 47.3633c-5.20833 8.46354 -14.974 17.9036 -29.2969 28.3203
c-7.8125 5.85938 -12.5326 8.78906 -14.1602 8.78906h-1.46484c-6.1849 -0.651042 -9.27734 -2.44141 -9.27734 -5.37109zM756.836 773.145l6.34766 -7.32422l-1.46484 -0.976562c-1.30208 1.30208 -3.25521 3.58073 -5.85938 6.83594zM798.34 772.168h1.95312v-9.76562
h-1.95312v9.76562zM119.629 765.82h1.95312v-9.76562h-1.95312v9.76562zM149.414 762.891l0.976562 -0.488281c-0.651042 -1.95312 -2.60417 -4.55729 -5.85938 -7.8125l-0.976562 0.976562v0.488281zM769.043 758.984l5.37109 -7.32422l-0.488281 -0.976562h-0.488281
c-3.90625 3.90625 -5.85938 6.51042 -5.85938 7.8125zM798.34 753.613h1.95312v-9.27734h-1.95312v9.27734zM137.695 748.73h0.488281l0.976562 -0.976562c-2.92969 -4.88281 -4.88281 -7.48698 -5.85938 -7.8125l-0.976562 1.46484zM119.629 747.266h1.95312v-9.27734
h-1.95312v9.27734zM779.785 744.336h0.488281l5.37109 -7.8125l-1.46484 -0.976562l-5.37109 7.8125zM798.34 735.547h1.95312v-9.27734h-1.95312v9.27734zM126.953 734.082l1.46484 -1.46484c-3.25521 -4.23177 -4.88281 -6.67318 -4.88281 -7.32422h-0.488281
l-0.976562 0.976562zM790.527 729.688l5.37109 -7.8125l-0.976562 -0.976562h-0.488281c-0.976562 0.325521 -2.76693 2.76693 -5.37109 7.32422zM119.629 729.199h1.95312v-9.76562h-1.95312v9.76562zM396.484 677.441c0 -6.51042 1.30208 -14.3229 3.90625 -23.4375
l8.78906 0.488281c-1.6276 5.85938 -2.44141 11.7188 -2.44141 17.5781c0 15.9505 5.04557 27.0182 15.1367 33.2031l4.39453 0.976562h2.92969c7.16146 0 13.0208 -6.83594 17.5781 -20.5078l1.46484 -11.2305v-1.46484l0.488281 0.488281h2.92969l7.32422 -0.488281
v7.32422c0 14.3229 -4.55729 26.8555 -13.6719 37.5977c-5.53385 5.53385 -11.3932 8.30078 -17.5781 8.30078c-13.3464 0 -23.112 -10.7422 -29.2969 -32.2266c-1.30208 -6.83594 -1.95312 -12.3698 -1.95305 -16.6015zM459.473 675.488l0.488281 -2.44141h3.90625
l5.85938 -0.976562v0.488281c0 14.6484 5.04557 25.5534 15.1367 32.7148l4.39453 0.976562h2.92969c6.83594 0 12.5326 -6.34766 17.0898 -19.043c1.30208 -4.88281 2.11589 -9.92839 2.44141 -15.1367c-0.651042 -8.78906 -1.79036 -14.8112 -3.41797 -18.0664h3.41797
h5.85938c0.976562 0 2.11589 2.92969 3.41797 8.78906c0.651042 3.90625 0.976562 8.13802 0.976562 12.6953v5.85938c0 16.276 -5.85938 29.7852 -17.5781 40.5273c-4.23177 2.92969 -8.78906 4.39453 -13.6719 4.39453c-13.6719 0 -23.6003 -11.3932 -29.7852 -34.1797z
M116.699 718.457h0.488281l1.46484 -1.46484l-4.88281 -7.8125l-1.46484 0.488281c0 0.976562 1.46484 3.90625 4.39453 8.78906zM798.34 716.992h1.95312v-1.46484l4.88281 -9.76562v-0.488281h-0.976562l-0.488281 -0.488281l-0.488281 0.488281
c-1.30208 3.25521 -2.27865 4.88281 -2.92969 4.88281v-2.44141h-1.95312zM119.629 710.645h1.95312v-9.76562h-1.95312v9.76562zM107.422 702.832l1.95312 -0.976562c-2.60417 -5.20833 -4.23177 -7.97526 -4.88281 -8.30078l-1.46484 0.976562zM798.34 698.926h1.95312
v-9.27734h-1.95312v9.27734zM810.059 697.949l3.90625 -8.30078l-0.488281 -0.488281h-0.976562c-0.651042 0 -2.11589 2.76693 -4.39453 8.30078l0.488281 0.488281h1.46484zM119.629 692.09h1.95312v-9.27734h-1.95312v9.27734zM99.1211 686.23l1.46484 -0.488281
l-3.90625 -8.78906h-0.976562l-0.488281 0.488281h-0.488281zM816.406 681.348h1.95312l3.41797 -8.78906h-0.976562l-0.488281 -0.488281l-0.488281 0.488281l-3.41797 8.30078zM798.34 680.859h1.95312v-9.76562h-1.95312v9.76562zM119.629 674.023h1.95312v-9.76562
h-1.95312v9.76562zM91.7969 669.629l0.488281 -0.976562l-3.41797 -8.78906l-1.46484 0.976562c1.30208 4.55729 2.76693 7.48698 4.39453 8.78906zM395.996 646.68v-0.488281c21.8099 -13.0208 43.457 -19.5312 64.9414 -19.5312
c21.8099 0 41.8294 6.83594 60.0586 20.5078v0.488281l-2.44141 1.95312h-0.976562c-15.9505 0 -29.1341 4.39453 -39.5508 13.1836c-2.92969 1.95312 -9.60286 3.90625 -20.0195 5.85938l-3.90625 0.488281c-3.58073 0 -9.27734 -2.92969 -17.0898 -8.78906
c-15.9505 -7.48698 -26.0417 -11.2305 -30.2734 -11.2305s-7.8125 -0.813802 -10.7423 -2.44142zM825.684 664.746c1.95312 -4.23177 2.92969 -7.16146 2.92969 -8.78906l-0.976562 -0.488281l-3.90625 9.27734h0.976562l0.488281 0.488281zM798.34 662.305h1.95312
v-9.76562h-1.95312v9.76562zM446.289 655.957h1.95312c0.651042 0 1.30208 -1.79036 1.95312 -5.37109c-0.651042 -3.25521 -1.46484 -5.04557 -2.44141 -5.37109c-1.95312 0 -2.92969 2.11589 -2.92969 6.34766zM466.797 655.957h1.46484
c0.976562 0 1.6276 -1.13932 1.95312 -3.41797v-2.92969c0 -2.27865 -0.813802 -3.74349 -2.44141 -4.39453c-1.30208 0 -2.11589 1.46484 -2.44141 4.39453v2.92969c0.325521 1.95312 0.813802 3.09245 1.46486 3.41797zM83.4961 652.539h1.95312
c0 -1.30208 -0.976562 -4.39453 -2.92969 -9.27734h-0.976562l-0.488281 0.488281h-0.488281zM832.52 648.145c1.95312 -4.88281 2.92969 -7.97526 2.92969 -9.27734h-0.976562l-0.488281 -0.488281l-0.488281 0.488281l-2.92969 8.78906zM395.508 641.797v-0.488281
c13.6719 -11.0677 30.9245 -21.6471 51.7578 -31.7383l8.78906 -2.92969c8.78906 1.30208 28.4831 11.0677 59.082 29.2969l1.95312 1.95312c-19.2057 -10.0911 -38.737 -15.1367 -58.5938 -15.1367c-21.4844 0 -42.4805 6.34766 -62.9882 19.043zM77.6367 635.449h0.488281
l0.976562 -0.976562l-2.44141 -8.78906h-0.976562l-0.976562 0.976562zM456.543 599.805c-4.55729 0 -17.9036 5.69661 -40.0391 17.0898l-15.625 10.2539h-1.46484c-0.651042 0 -1.13932 -4.06901 -1.46484 -12.207c-2.92969 -19.2057 -5.85938 -32.2266 -8.78906 -39.0625
c0 -2.27865 -3.58073 -9.60286 -10.7422 -21.9727c-3.58073 -8.46354 -7.16146 -22.6237 -10.7422 -42.4805c-2.27865 -21.8099 -4.06901 -32.7148 -5.37109 -32.7148c-8.46354 -23.4375 -17.4154 -43.457 -26.8555 -60.0586
c-6.83594 -12.3698 -10.2539 -31.901 -10.2539 -58.5938c0 -26.3672 2.92969 -55.013 8.78906 -85.9375c4.88281 -13.9974 18.2292 -26.5299 40.0391 -37.5977c19.2057 -9.11458 47.2005 -13.6719 83.9844 -13.6719l13.1836 -0.488281
c56.3151 0 90.9831 13.8346 104.004 41.5039c10.7422 22.4609 16.1133 49.1536 16.1133 80.0781c0 29.9479 -5.69661 54.5247 -17.0898 73.7305c-7.16146 15.2995 -14.1602 33.8542 -20.9961 55.6641c-1.6276 1.6276 -6.51042 18.0664 -14.6484 49.3164
c-10.0911 39.388 -15.1367 60.5469 -15.1367 63.4766l-0.976562 25.8789v20.9961c-17.2526 -14.974 -39.2253 -26.0417 -65.9182 -33.203zM838.379 631.055l2.92969 -9.76562h-1.95312l-1.95312 9.27734zM72.7539 617.871h0.488281l0.488281 -0.976562
c-1.30208 -5.85938 -2.27865 -8.78906 -2.92969 -8.78906l-1.46484 0.488281c1.6276 6.1849 2.76693 9.27734 3.41797 9.27734zM843.75 613.477l2.44141 -9.76562h-1.95312l-1.95312 9.27734zM798.34 607.129h1.95312v-9.76562h-1.95312v9.76562zM119.629 600.293h1.95312
v-9.76562h-1.95312v9.76562zM67.8711 599.805h1.46484l-1.95312 -9.27734h-1.95312c0.651042 4.23177 1.46484 7.32422 2.4414 9.27734zM846.68 595.41h1.46484l1.95312 -9.27734l-0.488281 -0.488281h-1.46484zM798.34 588.574h1.95312v-9.27734h-1.95312v9.27734z
M64.4531 581.738h0.976562l-1.46484 -9.27734h-1.95312c0.976562 6.1849 1.79036 9.27734 2.4414 9.27734zM119.629 581.738h1.95312v-9.27734h-1.95312v9.27734zM850.098 576.855h0.976562c0.651042 0 1.46484 -2.92969 2.44141 -8.78906l-0.488281 -0.488281h-0.976562
c-0.651042 0 -1.30208 3.09245 -1.95313 9.27734zM798.34 570.508h1.95312v-9.76562h-1.95312v9.76562zM61.0352 563.672h1.46484l-1.46484 -9.27734h-1.46484c0.325521 6.1849 0.813802 9.27734 1.46484 9.27734zM119.629 563.672h1.95312v-9.27734h-1.95312v9.27734z
M853.027 558.789h1.95312l0.488281 -9.27734h-1.46484zM798.34 551.953h1.95312v-9.76562h-1.95312v9.76562zM58.5938 545.605h1.46484l-0.488281 -9.76562h-1.95312zM119.629 545.605h1.95312v-9.76562h-1.95312v9.76562zM854.98 540.723h1.46484l0.488281 -7.8125
v-1.46484l-1.46484 -0.488281v0.976562zM798.34 533.398h1.95312v-9.27734h-1.95312v9.27734zM57.1289 527.539h0.976562c0.651042 0 0.976562 -0.488281 0.976562 -1.46484l-0.488281 -8.30078h-1.95312zM855.469 522.656h1.95312l0.488281 -2.44141v-7.32422h-1.95312
v6.34766zM665.527 498.242l0.488281 -1.46484c0 -7.16146 -1.95312 -10.7422 -5.85938 -10.7422c-1.6276 -0.976562 -2.44141 -2.44141 -2.44141 -4.39453l0.976562 -4.88281h1.95312c13.0208 0 20.9961 2.11589 23.9258 6.34766c0 2.60417 18.8802 4.23177 56.6406 4.88281
h3.90625c39.0625 0 66.8945 -1.30208 83.4961 -3.90625v-0.488281c-2.27865 -2.60417 -3.41797 -4.88281 -3.41797 -6.83594v-0.488281l1.46484 -1.46484h1.95312c5.85938 0.651042 13.6719 4.88281 23.4375 12.6953l1.46484 3.90625
c0 3.58073 -4.72005 6.51042 -14.1602 8.78906zM253.418 481.152c0 -15.625 10.0911 -27.9948 30.2734 -37.1094l3.90625 -0.488281c4.23177 0.976562 6.34766 4.55729 6.34766 10.7422v0.488281l-2.44141 16.1133c0 4.88281 2.60417 9.60286 7.8125 14.1602h-16.6016
c-1.30208 0 -7.16146 3.74349 -17.5781 11.2305c-2.27865 1.30208 -4.39453 1.95312 -6.34766 1.95312c-2.60417 0 -4.39453 -5.69661 -5.37104 -17.0899zM77.1484 487.012c0 -6.1849 16.9271 -17.7409 50.7812 -34.668c9.4401 -5.85938 34.0169 -19.5312 73.7305 -41.0156
c10.4167 -5.85938 26.0417 -16.7643 46.875 -32.7148c6.1849 -4.55729 15.7878 -13.6719 28.8086 -27.3438c2.27865 -1.6276 4.23177 -2.44141 5.85938 -2.44141h0.488281c1.6276 0.651042 2.44141 2.11589 2.44141 4.39453v6.34766
c-9.76562 14.3229 -23.4375 30.599 -41.0156 48.8281c-16.9271 14.3229 -33.6914 26.5299 -50.293 36.6211c-20.5078 12.3698 -36.7839 19.8568 -48.8281 22.4609c-16.6016 4.88281 -30.599 13.9974 -41.9922 27.3438h-5.85938
c-13.9974 0 -20.9961 -2.60417 -20.9961 -7.81248zM416.992 482.129c38.4115 0 70.1497 -1.6276 95.2148 -4.88281v-0.488281h-0.976562c-36.7839 0 -83.3333 -2.60417 -139.648 -7.8125h-0.488281c-3.90625 0 -5.85938 0.813802 -5.85938 2.44141
c0 2.92969 6.02214 6.51042 18.0664 10.7422zM58.1055 472.363h1.95312l0.488281 -9.76562h-1.46484zM854.492 470.41h1.46484l-0.488281 -9.76562h-0.976562l-0.488281 0.488281h-0.488281zM368.164 455.273c2.92969 0 4.39453 -3.09245 4.39453 -9.27734v-8.30078
c0 -11.0677 -3.58073 -41.3411 -10.7422 -90.8203v-4.88281c0 -26.3672 15.625 -52.0833 46.875 -77.1484c13.0208 -8.78906 27.832 -17.5781 44.4336 -26.3672c2.60417 -1.30208 3.90625 -2.27865 3.90625 -2.92969c0 -0.976562 -2.44141 -1.6276 -7.32422 -1.95312
c-24.4141 0 -47.526 5.85938 -69.3359 17.5781c-9.4401 4.55729 -17.4154 13.8346 -23.9258 27.832c-9.76562 25.0651 -14.6484 51.5951 -14.6484 79.5898c0 20.8333 8.78906 53.0599 26.3671 96.6797zM60.0586 453.809h1.95312l1.46484 -9.27734l-1.95312 -0.488281z
M853.027 452.344h1.46484l-1.46484 -9.76562h-1.95312v0.488281c0.325521 6.1849 0.976562 9.27734 1.95312 9.27734zM62.9883 435.742h1.46484c0.651042 0 1.30208 -3.09245 1.95312 -9.27734h-0.488281l-1.46484 -0.488281v0.488281zM119.629 435.254h1.95312v-9.76562
h-1.95312v9.76562zM849.609 434.277h0.976562l0.488281 -0.976562l-1.46484 -8.78906h-1.95312zM627.93 366.895v-0.976562c0 -6.83594 2.27865 -10.2539 6.83594 -10.2539h1.95312c7.48698 0 17.2526 8.95182 29.2969 26.8555
c10.0911 12.0443 19.3685 21.1589 27.832 27.3438l20.9961 13.6719v0.488281c-7.8125 2.60417 -14.4857 3.90625 -20.0195 3.90625h-5.85938c-17.2526 0 -33.6914 -10.0911 -49.3164 -30.2734c-7.8125 -12.0443 -11.7188 -22.2982 -11.7188 -30.7619zM798.34 423.535
h1.95312v-9.27734h-1.95312v9.27734zM68.8477 417.676l1.95312 -9.27734h-1.95312l-1.95312 9.27734h0.488281l1.46484 0.488281zM119.629 416.699h1.95312v-9.27734h-1.95312v9.27734zM845.703 416.211h1.46484v-0.488281l-1.46484 -9.27734h-0.976562
c-0.651042 0 -0.976562 0.488281 -0.976562 1.46484zM798.34 405.469h1.95312v-9.76562h-1.95312v9.76562zM71.2891 400.098h1.95312l2.44141 -9.27734h-1.95312zM119.629 398.633h1.95312v-9.76562h-1.95312v9.76562zM841.797 398.633l0.976562 -0.976562
c-1.30208 -5.85938 -2.27865 -8.78906 -2.92969 -8.78906l-1.46484 0.488281c1.6276 5.85938 2.76693 8.95182 3.41797 9.27734zM798.34 386.914h1.95312v-9.76562h-1.95312v9.76562zM78.125 382.52l3.41797 -8.78906l-0.488281 -0.488281h-0.976562
c-0.976562 0 -2.11589 3.09245 -3.41797 9.27734h0.488281zM836.426 381.055h0.488281l0.488281 -0.976562l-3.41797 -8.78906l-0.976562 0.488281c1.6276 6.1849 2.76693 9.27734 3.41797 9.27734zM119.629 380.078h1.95312v-9.76562h-1.95312v9.76562zM798.34 368.359
h1.95312v-9.27734h-1.95312v9.27734zM84.4727 364.941l2.92969 -8.78906v-0.488281h-1.46484l-3.41797 8.78906l0.488281 0.488281h1.46484zM830.078 363.965l1.46484 -0.976562l-3.90625 -8.78906l-1.46484 0.488281c1.95312 6.1849 3.25521 9.27734 3.90625 9.27734z
M119.629 361.523h1.95312v-9.27734h-1.95312v9.27734zM798.34 350.293h1.95312v-9.76562h-1.95312v9.76562zM91.7969 348.34l3.41797 -8.78906l-0.488281 -0.488281h-0.976562c-0.976562 0 -2.27865 2.92969 -3.90625 8.78906l0.488281 0.488281h1.46484zM823.242 346.387
h0.488281h0.488281c-1.95312 -5.20833 -3.41797 -8.13802 -4.39453 -8.78906l-0.976562 0.488281c2.27865 5.53385 3.74349 8.30078 4.39453 8.30078zM119.629 343.457h1.95312v-9.76562h-1.95312v9.76562zM98.6328 331.738c0.651042 0 2.11589 -2.92969 4.39453 -8.78906
h-0.976562l-0.488281 -0.488281l-0.488281 0.488281l-3.90625 8.30078l0.488281 0.488281zM798.34 331.738h1.95312v-9.76562h-1.95312v9.76562zM814.941 329.785h0.488281l0.976562 -0.976562c-2.27865 -4.88281 -3.90625 -7.64974 -4.88281 -8.30078l-0.976562 1.46484
c2.60417 5.20833 4.06901 7.8125 4.39453 7.8125zM119.629 324.902h1.95312v-9.76562h-1.95312v9.76562zM106.934 315.137c0.976562 0 2.60417 -2.76693 4.88281 -8.30078l-0.488281 -0.488281h-1.46484l-4.39453 8.78906h0.488281zM806.152 314.16l1.95312 -0.976562
c-2.60417 -5.20833 -4.39453 -7.97526 -5.37109 -8.30078c-0.651042 0 -0.976562 0.325521 -0.976562 0.976562zM798.34 313.184h1.95312v-9.27734h-1.95312v9.27734zM119.629 306.348h1.95312v-9.27734h-1.95312v9.27734zM116.699 300l4.88281 -8.30078l-1.95312 -0.976562
l-4.88281 7.8125zM796.875 298.047l1.46484 -0.488281c0 -0.976562 -1.6276 -3.90625 -4.88281 -8.78906l-0.976562 0.488281c0 0.976562 1.46484 3.90625 4.39453 8.78906zM798.34 295.117h1.95312v-9.76562h-1.95312v9.76562zM119.629 288.281h1.95312v-9.27734h-1.95312
v9.27734zM126.465 284.375l5.37109 -8.30078h-0.488281l-1.46484 -0.488281c-3.25521 4.55729 -4.88281 7.32422 -4.88281 8.30078zM787.109 282.91l1.46484 -0.976562c-2.92969 -4.88281 -4.72005 -7.48698 -5.37109 -7.8125h-1.46484v0.488281zM798.34 276.562h1.95312
v-9.76562h-1.95312v9.76562zM119.629 269.727h1.95312v-9.27734h-1.95312v9.27734zM137.207 269.727l5.37109 -8.30078l-0.976562 -0.488281l-5.85938 7.32422v0.976562zM776.367 267.773l1.46484 -0.488281v-0.976562l-5.37109 -7.32422l-1.95312 1.46484zM798.34 258.008
h1.95312v-9.27734h-1.95312v9.27734zM147.949 255.078l6.34766 -7.32422l-1.46484 -0.976562l-6.34766 7.32422zM765.137 253.125l0.976562 -0.976562v-0.488281l-5.85938 -6.83594l-0.976562 1.46484c2.60417 3.58073 4.55729 5.85938 5.85938 6.83594zM119.629 251.66
h1.95312v-9.27734h-1.95312v9.27734zM159.668 240.918c2.92969 -2.27865 5.20833 -4.72005 6.83594 -7.32422l-1.46484 -0.488281l-6.34766 6.83594zM798.34 239.941h1.95312v-9.76562h-1.95312v9.76562zM753.418 239.453l0.976562 -1.46484
c-1.95312 -2.92969 -4.23177 -5.20833 -6.83594 -6.83594l-0.488281 1.46484c2.92969 3.58073 5.04557 5.85938 6.34766 6.83594zM119.629 233.594h1.95312v-9.76562h-1.95312v9.76562zM172.852 227.734l6.34766 -6.83594l-1.46484 -0.976562l-6.34766 6.34766z
M740.234 225.781h0.488281l0.976562 -0.976562v-0.488281c-2.60417 -2.92969 -4.88281 -4.88281 -6.83594 -5.85938l-0.976562 0.976562v0.488281zM798.34 221.387h1.95312v-9.76562h-1.95312v9.76562zM119.629 215.039h1.95312v-9.76562h-1.95312v9.76562zM185.547 215.039
l6.83594 -6.34766v-0.488281l-0.976562 -0.976562l-6.83594 6.34766v0.488281zM608.887 214.062c-10.0911 -11.0677 -17.9036 -17.9036 -23.4375 -20.5078l-4.88281 -2.92969c0 -6.83594 3.09245 -11.3932 9.27734 -13.6719
c8.46354 -2.92969 19.694 -8.95182 33.6914 -18.0664c9.11458 1.6276 14.974 3.90625 17.5781 6.83594l4.39453 4.39453l-10.7422 14.6484v0.488281l32.7148 -5.37109h4.39453c6.51042 0 14.3229 3.58073 23.4375 10.7422l1.95312 4.39453v0.488281
c0 5.20833 -12.6953 8.78906 -38.0859 10.7422c-16.6016 2.27865 -31.4128 3.41797 -44.4336 3.41797c-1.30208 0 -3.25521 1.46484 -5.85931 4.39455zM727.539 213.574h0.488281l0.488281 -1.95312l-6.83594 -5.37109h-0.488281l-0.976562 0.488281zM301.27 208.691
c-19.8568 0 -43.6198 -2.27865 -71.2891 -6.83594c-6.83594 -1.6276 -10.2539 -4.55729 -10.2539 -8.78906c1.30208 -3.25521 5.04557 -6.34766 11.2305 -9.27734c6.83594 -3.25521 11.7188 -4.88281 14.6484 -4.88281l6.83594 0.488281h-2.44141
c0 0.651042 8.95182 3.58073 26.8555 8.78906l-8.30078 -16.1133c7.48698 -8.78906 14.974 -13.1836 22.4609 -13.1836c5.85938 4.23177 17.5781 11.556 35.1562 21.9727l3.41797 3.90625v1.46484c-0.651042 2.92969 -5.53385 7.32422 -14.6484 13.1836
c-5.53385 4.88281 -8.46354 8.6263 -8.78906 11.2305h-0.488281c-0.976562 -1.30208 -2.44141 -1.95312 -4.39448 -1.95318zM798.34 202.832h1.95312v-9.27734h-1.95312v9.27734zM199.219 202.344h0.488281l6.83594 -4.88281v-0.976562l-0.976562 -0.976562h-0.488281
l-6.83594 6.34766zM713.379 201.367h0.488281l0.976562 -0.976562v-0.976562l-7.32422 -5.37109h-0.976562v1.46484zM333.984 196.973c1.30208 -4.55729 1.95312 -8.30078 1.95312 -11.2305v-2.92969c0 -3.90625 -2.76693 -6.67318 -8.30078 -8.30078
c-24.4141 -13.9974 -43.2943 -26.3672 -56.6406 -37.1094c-3.58073 -3.58073 -5.37109 -6.34766 -5.37109 -8.30078c0 -4.23177 4.39453 -6.34766 13.1836 -6.34766h5.37109c9.4401 0 15.9505 3.25521 19.5312 9.76562l15.625 18.5547h0.488281v-0.488281l0.488281 -19.5312
l0.488281 -1.46484h-1.46484c7.48698 -2.92969 12.8581 -4.39453 16.1133 -4.39453h1.46484c4.88281 0 7.32422 1.30208 7.32422 3.90625c4.23177 11.3932 6.67318 17.2526 7.32422 17.5781l14.1602 -24.4141c1.95312 -0.976562 4.23177 -1.46484 6.83594 -1.46484h2.92969
c3.25521 0 7.48698 2.11589 12.6953 6.34766l-8.78906 16.6016v0.976562h0.488281c17.5781 -11.3932 27.5065 -17.4154 29.7852 -18.0664l12.207 -1.46484c5.53385 0.325521 8.30078 1.95312 8.30078 4.88281v1.95312c0 2.92969 -2.76693 5.37109 -8.30078 7.32422
c-12.0443 7.48698 -23.2747 16.276 -33.6914 26.3672c-1.6276 2.60417 -2.44141 5.20833 -2.44141 7.8125c0 3.90625 2.76693 8.13802 8.30078 12.6953h0.488281v0.488281h-4.88281c-22.4609 0 -41.0156 3.41797 -55.6641 10.2539zM524.902 186.719h-5.37109
c5.53385 -5.53385 8.30078 -9.92839 8.30078 -13.1836v-0.976562c0 -7.16146 -13.8346 -19.043 -41.5039 -35.6445c-1.95312 -0.976562 -2.92969 -2.76693 -2.92969 -5.37109v-0.488281c0 -3.90625 2.92969 -5.85938 8.78906 -5.85938
c3.58073 0 10.9049 1.46484 21.9727 4.39453c4.55729 6.1849 9.92839 12.3698 16.1133 18.5547v-0.488281c-2.60417 -10.0911 -3.90625 -16.276 -3.90625 -18.5547v-0.488281c0 -3.90625 4.23177 -6.51042 12.6953 -7.8125h1.46484
c4.55729 0 9.27734 2.11589 14.1602 6.34766l-2.92969 18.5547l17.5781 -19.043l7.8125 -1.46484c4.23177 0 9.11458 1.13932 14.6484 3.41797v0.488281c-0.976562 0 -1.46484 0.488281 -1.46484 1.46484l-0.488281 17.0898
c16.6016 -14.974 25.3906 -22.4609 26.3672 -22.4609c4.23177 -1.6276 8.6263 -2.44141 13.1836 -2.44141h6.34766c7.16146 0 11.0677 2.11589 11.7188 6.34766v0.488281c-0.325521 4.23177 -8.78906 11.7188 -25.3906 22.4609
c-15.625 10.0911 -30.1107 18.7174 -43.457 25.8789l-1.46484 4.88281v2.44141c0 3.25521 0.813802 6.9987 2.44141 11.2305c-14.3229 -6.51042 -32.5521 -9.76562 -54.6877 -9.76562zM119.629 196.484h1.95312v-9.27734h-1.95312v9.27734zM798.34 184.766h1.95312v-9.76562
h-1.95312v9.76562zM684.57 179.395l0.976562 -1.46484l-7.32422 -5.37109h-0.488281l-0.976562 0.976562c0.651042 0.976562 3.25521 2.92969 7.8125 5.85937zM119.629 178.418h1.95312v-9.76562h-1.95312v9.76562zM243.652 170.117h0.488281l7.32422 -4.39453v-0.976562
l-0.976562 -0.976562l-7.8125 4.39453v0.976562zM669.922 168.652l0.488281 -1.46484c-4.88281 -2.92969 -7.8125 -4.39453 -8.78906 -4.39453l-0.488281 0.488281v0.488281c0 0.976562 2.92969 2.76693 8.78906 5.37109v-0.488282zM798.34 166.211h1.95312v-9.27734
h-1.95312v9.27734zM259.277 160.84l8.30078 -4.88281v-0.488281l-0.976562 -0.976562l-7.8125 4.88281v0.488281zM119.629 159.863h1.95312v-9.76562h-1.95312v9.76562zM653.809 159.863l0.488281 -0.488281v-0.976562c0 -0.976562 -2.76693 -2.60417 -8.30078 -4.88281
l-0.488281 0.488281v0.976562c0.325521 0.651042 3.09245 2.27865 8.30078 4.88281zM798.34 147.656h1.95312v-8.78906h-1.95312v8.78906zM119.629 141.309h1.95312v-9.27734h-1.95312v9.27734zM798.34 129.59h1.95312v-9.27734h-1.95312v9.27734zM119.629 123.242h1.95312
v-9.76562h-1.95312v9.76562zM360.84 119.824h0.488281c6.1849 -1.30208 9.27734 -2.27865 9.27734 -2.92969l-0.488281 -0.976562l-9.27734 1.95312v1.95313zM552.246 118.848l0.488281 -1.46484h-0.488281l-9.27734 -1.46484v1.46484l9.27734 1.95312v-0.48828z
M534.668 113.965h8.30078v-1.95312h-9.76562v1.46484l-8.30078 -1.46484v1.95312l9.76562 1.46484v-1.46484zM128.906 113.965h9.76562v-1.95312h-9.76562v1.95312zM147.461 113.965h9.76562v-1.95312h-9.76562v1.95312zM165.527 113.965h9.76562v-1.95312h-9.76562v1.95312
zM184.082 113.965h9.76562v-1.95312h-9.76562v1.95312zM202.637 113.965h9.76562v-1.95312h-9.76562v1.95312zM220.703 113.965h9.76562v-1.95312h-9.76562v1.95312zM239.258 113.965h9.76562v-1.95312h-9.76562v1.95312zM257.812 113.965h9.76562v-1.95312h-9.76562
v1.95312zM275.879 113.965h9.76562v-1.95312h-9.76562v1.95312zM294.434 113.965h9.76562v-1.95312h-9.76562v1.95312zM312.988 113.965h9.27734v-1.95312h-9.27734v1.95312zM331.055 113.965h9.27734v-1.95312h-9.27734v1.95312zM349.609 113.965h9.27734v-1.95312
h-9.27734v1.95312zM367.676 113.965h9.76562v-1.95312h-9.76562v1.95312zM404.297 113.965h9.76562v-1.95312h-9.76562v1.95312zM422.852 113.965h9.76562v-1.95312h-9.76562v1.95312zM440.918 113.965h9.76562v-1.95312h-9.76562v1.95312zM459.473 113.965h9.76562
v-1.95312h-9.76562v1.95312zM478.027 113.965h9.76562v-1.95312h-9.76562v1.95312zM496.094 113.965h9.76562v-1.95312h-9.76562v1.95312zM514.648 113.965h9.76562v-1.95312h-8.30078l0.488281 -0.488281v-0.976562h-0.488281l-9.27734 -0.976562v1.95312h0.488281
c4.88281 0 7.32422 0.488281 7.32422 1.46484zM551.27 113.965h9.76562v-1.95312h-9.76562v1.95312zM569.824 113.965h9.76562v-1.95312h-9.76562v1.95312zM588.379 113.965h9.76562v-1.95312h-9.76562v1.95312zM606.445 113.965h9.76562v-1.95312h-9.76562v1.95312z
M625 113.965h9.27734v-1.95312h-9.27734v1.95312zM643.066 113.965h9.76562v-1.95312h-9.76562v1.95312zM661.133 113.965h9.76562v-1.95312h-9.76562v1.95312zM679.688 113.965h9.76562v-1.95312h-9.76562v1.95312zM698.242 113.965h9.76562v-1.95312h-9.76562v1.95312z
M716.309 113.965h9.76562v-1.95312h-9.76562v1.95312zM734.863 113.965h9.76562v-1.95312h-9.76562v1.95312zM753.418 113.965h9.76562v-1.95312h-9.76562v1.95312zM771.484 113.965h9.76562v-1.95312h-9.76562v1.95312zM790.039 113.965h9.76562v-1.95312h-9.76562v1.95312
zM396.973 112.5c6.51042 -0.651042 9.76562 -1.13932 9.76562 -1.46484l-0.488281 -1.46484l-9.27734 1.46484zM415.039 110.547l9.76562 -0.976562v-1.95312h-0.488281l-9.27734 0.976562zM498.047 110.059v-1.95312l-8.78906 -0.488281l-0.488281 -0.488281
l-0.488281 1.95312l1.46484 0.488281zM433.594 108.594h3.90625l5.37109 -0.488281v-1.46484l-5.37109 0.488281h-3.90625v1.46484zM479.004 108.594h0.976562v-1.46484h-0.488281l-9.27734 -0.488281v1.46484zM451.66 108.105h9.76562v-1.46484h-9.76562v1.46484z" />
  </g>

</svg>
