<?xml version="1.0" standalone="no"?>
<!DOCTYPE svg PUBLIC "-//W3C//DTD SVG 1.1//EN" "http://www.w3.org/Graphics/SVG/1.1/DTD/svg11.dtd" >
<svg xmlns="http://www.w3.org/2000/svg" xmlns:xlink="http://www.w3.org/1999/xlink" version="1.1" viewBox="0 -201 1000 1000">
  <g transform="matrix(1 0 0 -1 0 800)">
   <path fill="currentColor"
d="M400.975 574.008c-7.50586 40.4766 34.2402 212.671 202.399 225.986c0.0664062 0.0341797 0.0712891 -0.0771484 0.495117 -2.48047c12.5088 -70.7871 -60.5459 -221.109 -200.269 -225.553c-3.00391 -0.0966797 -2.09473 -0.821289 -2.62598 2.04688zM474.517 539.57
c94.8281 42.2373 239.802 43.6543 306.958 -74.9111c-138.938 -94.6465 -143.92 -291.775 20.2588 -393.843c-32.7344 -149.402 -111.484 -209.214 -142.189 -242.379c-28.8926 -31.2061 -118.736 -30.6357 -152.043 -7.35547
c-35.2861 24.6621 -130.001 23.3643 -162.559 -0.912109c-40.8779 -30.4795 -111.005 -19.4951 -122.858 -11.4297c-250.036 170.125 -343.316 700.341 11.5811 756.8c61.1768 9.73145 128.504 -28.8145 128.504 -28.8145
c52.5576 -25.4102 70.2686 -15.8984 112.348 2.84473z" />
  </g>

</svg>
