<?xml version="1.0" standalone="no"?>
<!DOCTYPE svg PUBLIC "-//W3C//DTD SVG 1.1//EN" "http://www.w3.org/Graphics/SVG/1.1/DTD/svg11.dtd" >
<svg xmlns="http://www.w3.org/2000/svg" xmlns:xlink="http://www.w3.org/1999/xlink" version="1.1" viewBox="-1 -200 1000 1000">
  <g transform="matrix(1 0 0 -1 0 800)">
   <path fill="currentColor"
d="M440.327 610.694c-69.332 0 -132.099 -28.1025 -177.51 -73.5117c-45.4092 -45.4111 -73.5117 -108.178 -73.5117 -177.51c0 -69.3311 28.1025 -132.1 73.5117 -177.51c45.4111 -45.4102 108.178 -73.5127 177.51 -73.5127c48.2969 0 93.415 13.6377 131.689 37.2666
v-0.236328v-206.296c-41.584 -13.0215 -85.8193 -20.0391 -131.689 -20.0391c-121.579 0 -231.667 49.292 -311.345 128.982c-79.6904 79.6777 -128.982 189.766 -128.982 311.345s49.292 231.667 128.982 311.345c79.6777 79.6904 189.766 128.982 311.345 128.982
c45.8701 0 90.1055 -7.01758 131.689 -20.0391v-206.296v-0.237305c-38.2744 23.6299 -83.3926 37.2666 -131.689 37.2666v0.001033zM572.017 573.428v0.237305h427.983l-181.068 -189.299h-246.915v189.062zM818.932 334.979l181.068 -189.299h-427.983v0.236328v189.062
h246.915v0.000672z" />
  </g>

</svg>
