<?xml version="1.0" standalone="no"?>
<!DOCTYPE svg PUBLIC "-//W3C//DTD SVG 1.1//EN" "http://www.w3.org/Graphics/SVG/1.1/DTD/svg11.dtd" >
<svg xmlns="http://www.w3.org/2000/svg" xmlns:xlink="http://www.w3.org/1999/xlink" version="1.1" viewBox="0 -200 1000 1000">
  <g transform="matrix(1 0 0 -1 0 800)">
   <path fill="currentColor"
d="M392.977 799.938v0.0126953c44.8711 -0.933594 85.5254 -11.4453 127.608 -33.3076l1.00391 -0.672852c14.5752 -7.61914 29.4102 -16.2529 48.1064 -28.6191c0.885742 -0.59082 1.33496 -1.84277 1.33496 -3.03516v-0.331055
c-0.0351562 -0.201172 0.0361328 -0.507812 0 -0.672852l-1.66504 -5.05566l-2.00781 -7.07422l-31.7373 -106.714l-58.7959 -198.286c-0.341797 -1.5 -1.55859 -2.46875 -2.33887 -3.03516l-0.330078 -0.331055s-6.01172 -2.32617 -6.01172 -2.35059
c-1.55957 -0.401367 -3.33105 0.331055 -3.34277 0.331055v0.331055h-0.330078h-0.331055h-0.331055c-23.8701 14.7637 -44.1377 25.499 -63.8037 33.6611c-24.709 10.2285 -48.8984 16.8906 -73.832 19.8662c-58.4766 6.98047 -123.592 -4.47656 -205.124 -36.0234
c-0.0117188 -0.0244141 -1.85449 -0.945312 -2.66992 -1.01562h-0.330078c-0.294922 -0.0361328 -0.53125 -0.118164 -1.66504 0.330078c-0.129883 0.0712891 -0.496094 0.189453 -0.673828 0.331055l-5.68066 4.38184l-0.331055 0.330078
c-0.129883 0.0712891 -0.53125 0.212891 -0.672852 0.331055c-0.744141 0.519531 -1.33496 2.24414 -1.33496 3.70898c0 0.401367 0.224609 0.708984 0.331055 1.01562l89.1973 302.307l5.00879 16.1572c0.341797 1.34668 1.33398 1.89062 1.66504 2.02051
c37.1934 15 72.3545 25.8545 104.563 32.6582c29.8232 6.31836 58.2295 9.2832 84.5205 8.75098zM603.121 695.563l0.331055 1.01562c0.53125 1.22852 2.48047 3.05957 5.68164 5.38672l1.66504 1.3457v-0.330078c1.4873 0.932617 2.2793 1.59473 3.3418 1.68848
l0.0126953 0.0117188c1.05078 0.0830078 2.20801 -0.365234 3.67285 -1.01562c17.0791 -11.209 39.9805 -25.5352 65.4814 -37.0283c25.6533 -11.5869 50.9648 -18.8027 77.5049 -22.5586c14.7871 -2.10254 30.4248 -3.25977 46.0986 -3.03613
c16.6064 0.236328 33.9102 1.87891 51.7803 4.71289c18.7676 2.97656 38.7402 7.59473 59.127 13.4648c21.3066 6.16504 43.9014 13.8779 67.1455 23.2324c0.791992 0.472656 3.4375 0.862305 6.0127 -0.331055c1.2168 -0.519531 3.07031 -1.8418 4.3457 -3.03516
c2.30371 -1.98438 4.67773 -4.34668 4.67773 -7.07422c0 -0.532227 -0.15332 -1.12207 -0.331055 -1.68945c0 0 -94.8789 -318.075 -94.8789 -318.134c-0.802734 -1.53516 -2.61035 -2.35059 -3.34277 -2.69238c-38.5039 -17.0195 -77.54 -28.7363 -115.926 -34.6777
c-25.8555 -4.92578 -51.1426 -7.29883 -75.4971 -7.0752c-22.5361 0.212891 -45.0479 2.74023 -66.4854 7.40625c-37.0156 7.99512 -72.4141 22.3223 -108.237 44.1025c-7.66504 4.32227 -15.3193 8.96484 -22.7129 13.8066
c-0.0712891 0.0117188 -3.34277 1.60645 -3.34277 5.05566c0 0.625977 0.414062 1.60645 0.673828 2.35059zM649.882 260.948c30.2607 -4.37012 62.0557 -4.37012 97.2178 0c18.6377 2.26758 38.3975 5.98828 58.7959 10.7725
c21.1768 4.99512 43.8428 11.1377 67.1465 18.8506c3.24805 0.459961 4.51172 -0.142578 5.00781 -0.673828v-0.330078s7.68848 -5.76465 7.68848 -5.72852c0.0126953 -0.0361328 1.66602 -1.48828 1.66602 -4.04004c0 -0.424805 -0.201172 -0.885742 -0.331055 -1.34668
v-0.330078l-90.8633 -309.382c-0.767578 -1.52344 -2.04297 -2.29102 -2.66895 -2.69238c0 0 -0.294922 -0.331055 -0.331055 -0.331055c-22.748 -9.46094 -45.3779 -17.3984 -67.1455 -23.5635c-20.7051 -5.89355 -41.2686 -10.252 -61.1348 -13.1338
c-18.792 -2.72852 -37.4062 -3.94531 -55.4541 -4.03906c-16.9961 -0.0478516 -33.709 1.07422 -50.1143 3.36621c-15.3076 2.16113 -30.5791 5.21973 -45.4375 9.4248c-13.7012 3.85059 -27.6387 8.78809 -41.0918 14.4805
c-22.9482 9.6377 -45.6143 21.7559 -69.4854 37.3711c-0.495117 0.283203 -4.94824 3.03516 -3.3418 7.74805l93.2012 314.425s-0.0117188 0.259766 0 0.330078c0.4375 1.06348 2.18555 2.46875 4.67773 4.38184c1.2168 0.921875 2.25586 1.73633 2.66992 2.02051
c1.67676 1.01562 2.59766 1.65332 3.67285 1.68848v-0.0117188c0.90918 0 1.87793 -0.342773 3.34277 -1.01562c24.1533 -15.8857 45.1543 -27.4727 65.4805 -36.3555c25.1699 -11.0078 50.1973 -18.0938 76.8321 -21.8858zM367.265 29.6865v-0.331055
c-0.342773 -1.45312 -1.5 -2.11426 -2.33887 -2.69336l-0.331055 -0.331055c-1.24023 -0.731445 -5.34961 -3.03516 -5.34961 -3.03516c-1.45312 -0.661133 -3.16602 -0.259766 -3.67383 0c0.0117188 0 0 0.331055 0 0.331055
c-16.3818 10.2754 -38.2686 23.5391 -62.1387 34.0049c-17.0195 7.31055 -33.7324 12.3887 -50.7754 16.1572c-18.8633 4.12207 -37.5957 6.27148 -57.793 6.40137c-24.1416 0.118164 -49.8779 -2.63379 -78.1777 -8.75195
c-29.0312 -6.30762 -60.0596 -15.7568 -94.8789 -28.9492c-0.602539 -0.0947266 -2.17285 -0.318359 -3.67383 0.672852l-0.330078 0.331055l-6.01172 4.71289c-1.05176 0.920898 -2.17383 2.35059 -1.66602 4.03906l93.2021 317.46
c0.259766 0.851562 0.542969 1.66602 1.33496 2.02051h0.330078c23.3389 9.44824 45.8281 17.3262 67.1465 23.5635c20.4336 5.99902 40.3711 10.6768 59.127 13.8066c17.8945 2.98828 35.5752 4.64258 52.1104 5.05469l0.0244141 -0.0224609
c15.6494 0.389648 31.0508 -0.414062 45.7676 -2.35059c58.666 -7.63086 102.935 -32.5283 142.312 -58.5723v-0.330078h0.331055c0.885742 -0.626953 1.33496 -1.47656 1.33496 -2.69336c0 -0.283203 0.046875 -0.755859 0 -1.01562l-3.34277 -10.4404z" />
  </g>

</svg>
