<?xml version="1.0" standalone="no"?>
<!DOCTYPE svg PUBLIC "-//W3C//DTD SVG 1.1//EN" "http://www.w3.org/Graphics/SVG/1.1/DTD/svg11.dtd" >
<svg xmlns="http://www.w3.org/2000/svg" xmlns:xlink="http://www.w3.org/1999/xlink" version="1.1" viewBox="0 -200 1000 1000">
  <g transform="matrix(1 0 0 -1 0 800)">
   <path fill="currentColor"
d="M658.606 262.668c14.749 -38.9922 20.4824 -82.1416 5.87109 -125.475c4.37598 -1.66211 8.72266 -4.13574 12.9053 -7.78027c10.6191 -9.1543 13.7959 -22.5439 16.7988 -35.6113c2.94434 -12.8086 5.68359 -24.8359 11.4268 -31.3262
c10.6982 -12.0938 25.3525 -29.5811 24.3633 -46.8848c-0.740234 -12.9531 -10.3213 -21.8721 -22.1299 -28.9941c-27.9238 -16.8418 -58.7539 -24.6758 -80.7256 -51.0908c-22.5127 -26.792 -50.3633 -42.2373 -76.5586 -44.3047
c-28.5771 -2.25586 -50.8174 11.5186 -63.9736 36.541c-1.76562 3.37988 -3.05469 6.93652 -3.94531 10.6338c-34.0811 -1.89258 -63.7109 8.44043 -87.4297 6.53027c-34.9639 -1.9248 -56.79 -10.3496 -76.6807 -10.4473
c-7.68652 -16.8926 -22.6533 -27.8711 -41.0898 -32.082c-25.4307 -5.80859 -57.3057 0.0292969 -88.7461 16.4678c-29.3691 15.6904 -62.7422 13.334 -94.1758 19.8984c-13.7578 2.87402 -25.9307 7.96484 -31.8516 19.498
c-5.9082 11.5088 -4.83691 27.376 3.55566 50.3145c2.62598 8.17285 0.647461 20.2197 -1.30664 32.9678c-1.64551 10.7432 -3.27051 28.582 2.58301 38.5312c7.75488 13.1797 18.709 19.1699 29.3135 22.9746c10.5996 3.80273 20.2451 6.37207 27.0156 13.125
c7.24609 7.66602 13.75 19.0508 22.5518 28.4473c1.17578 1.25586 2.41211 2.47461 3.71191 3.6377c-4.14746 27.3457 0.342773 56.2393 9.7793 84.5869c19.9941 60.0635 62.2012 117.763 92.1797 153.413c25.5166 36.2705 33.0391 65.5098 35.6582 102.61
c2.12793 50.7344 -35.9053 202.239 107.505 213.788c5.67383 0.453125 11.1152 0.673828 16.332 0.662109c126.561 -0.287109 121.472 -102.654 120.306 -208.345c-0.520508 -47.7832 25.9023 -80.1357 52.918 -114.211c24.1348 -28.5244 55.7373 -70.2227 73.8389 -118.076
zM177.021 148.636v0zM248.061 66.2549c-10.2725 22.0566 -20.2646 41.9404 -31.0029 56.5059c-10.7393 14.5664 -21.8857 23.5029 -34.668 25.4395c-1.89941 0.288086 -3.68359 0.428711 -5.36816 0.433594h-0.335938
c-9.63281 -0.0664062 -16.0234 -4.58496 -22.4092 -11.4033c-7.56934 -8.08008 -14.0361 -19.4648 -22.6455 -28.5479l-0.0478516 -0.0498047l-0.0488281 -0.0498047c-9.3125 -9.33301 -21.1064 -12.1357 -31.0518 -15.7041
c-9.94629 -3.56738 -17.96 -7.33203 -23.4238 -17.8633l-0.0185547 -0.0371094l-0.0195312 -0.0361328c-4.26758 -7.92285 -3.33105 -19.29 -1.41602 -31.7861c1.91602 -12.4971 4.83496 -25.8105 0.890625 -37.9785l-0.0322266 -0.0976562l-0.0351562 -0.0957031
c-7.97656 -21.751 -7.89258 -34.5088 -4.13867 -41.8213c3.75293 -7.31152 11.9316 -11.2471 24.4648 -13.8652c25.0605 -5.2334 64.1279 -3.50684 96.9668 -20.9004l0.0263672 -0.0136719c29.6836 -15.5127 59.4014 -20.5039 81.3223 -15.4971
c21.9277 5.00879 36.2119 18.7939 38.1367 44.1172l0.00488281 0.0644531l0.00683594 0.0644531c1.4873 14.8467 -9.93652 34.2451 -24.6973 53.5713c-14.7617 19.3252 -32.1797 38.2695 -40.4346 55.498l-0.0126953 0.0253906zM513.814 54.5586
c-1.15234 -18.8047 -9.76465 -41.9404 -15.7598 -64.4736c-5.99414 -22.5322 -8.95801 -43.8936 -1.84277 -57.4297l0.0273438 -0.0517578l0.0263672 -0.0517578c11.4697 -23.0215 30.9248 -32.3809 53.4756 -30.6016c22.5498 1.78027 48.1543 15.5049 69.1533 40.4932
c24.1816 29.293 62.043 40.5 83.4111 53.3877c10.6885 6.44629 16.4766 12.3818 16.9336 20.376c0.457031 7.99512 -4.91113 20.5195 -21.6094 39.0508l-0.0126953 0.0136719l-0.0126953 0.0136719c-8.68652 9.77734 -11.002 23.501 -13.8984 36.1025
c-2.89648 12.6006 -6.23633 23.8496 -13.2617 29.8018l-0.0322266 0.0273438l-0.03125 0.0273438c-9.14258 7.99512 -18.0908 8.60449 -28.7588 8.34668c-2.30273 -0.0556641 -4.67285 -0.174805 -7.09863 -0.271484c-12.1611 -13.9824 -40.9668 -31.124 -60.9453 -25.8604
c-18.2568 4.60547 -28.5801 25.8857 -29.8691 46.752c-0.518555 -0.256836 -1.04102 -0.52832 -1.56641 -0.81543c-11.292 -6.17871 -17.665 -17.1748 -21.7119 -33.4092c-4.04785 -16.2344 -5.39648 -37.2754 -6.61621 -61.3701v-0.0283203v-0.0292969zM241.728 134.459v0z
M492.253 9.2627c5.06152 17.3887 10.0518 33.8057 10.7988 45.9434v0.0126953c1.22168 24.1387 2.49121 45.6123 6.91992 63.375c5.10156 20.4648 15.1562 36.833 33.9971 43.376c0.164062 1.50195 0.379883 2.98242 0.647461 4.43555
c4.1875 27.7402 28.9619 29.1006 60.0508 15.4229c29.9746 -13.5615 41.2236 -25.4092 36.1455 -41.4717l6.59375 -0.00292969c6.23535 20.2646 -6.73242 35.1123 -41.7969 52.1865c-2.35645 1.11523 -4.68262 2.14941 -6.97168 3.10059
c4.67969 19.0225 3.75 38.2969 -0.612305 56.6318c-9.56543 40.208 -35.8574 75.8311 -55.8848 93.542c-3.69434 0.15332 -3.33594 -3.08691 4.11621 -10.3184c18.46 -16.9883 58.8271 -77.9863 36.9834 -134.618c-6.24316 1.59668 -12.0723 2.36621 -17.3662 2.2041
c-8.35449 46.1621 -27.6924 84.4775 -37.4121 102.511c-18.2871 33.9902 -46.7383 103.639 -58.9717 151.86c-7.12012 -10.1602 -19.6338 -18.8711 -35.3721 -23.793c-6.76855 -2.04004 -15.8418 -8.9541 -25.1836 -14.2959
c-9.85547 -5.63574 -21.8848 -10.5244 -37.668 -9.61133c-13.5225 0.788086 -22.4727 5.76172 -29.6367 11.5195c-7.15039 5.74609 -12.6719 12.0742 -20.0225 16.4033l-9.80762 6.43262c-3.18262 -60.0186 -43.252 -135.322 -62.4092 -178.747
c-13.1523 -31.2949 -20.9863 -64.7529 -21.9102 -97.5576c-34.5752 46.0977 -9.32324 105.152 4.18457 130.741c15.0723 27.9883 17.4248 35.6807 13.7646 32.9873c-13.5967 -22.1777 -34.9053 -57.5176 -43.1982 -93.8535
c-9.53418 -41.7725 -0.424805 -78.3828 39.501 -103.225c29.1494 -17.876 48.9863 -35.7686 60.6992 -51.6221c11.7129 -15.8545 15.3887 -29.7383 11.7295 -39.5811c-3.90918 -10.5146 -15.1523 -14.0723 -26.4209 -14.0635
c3.13184 -3.93457 6.28223 -7.9248 9.34961 -11.9395c4.80176 -6.28711 9.46777 -12.6621 13.5352 -19.0967c60.0137 -40.957 130.699 -25.2168 181.628 11.1113zM374.605 525.928v0zM371.622 415.879c14.3643 -0.831055 24.9277 3.47461 34.2627 8.8125
c9.33594 5.33789 17.2549 11.8535 26.3359 14.8047l0.0166016 0.00683594l0.0175781 0.0078125c18.624 5.81543 31.8955 17.5283 36.0537 28.6582c2.0791 5.56445 2.01855 10.8535 -0.46582 15.7314c-2.4834 4.87891 -7.56738 9.51074 -16.2295 13.0645
l-0.0224609 0.00878906l-0.0214844 0.00976562c-18.002 7.70996 -25.8203 8.25684 -35.8672 14.79c-16.3574 10.5166 -29.8682 14.1982 -41.0967 14.1543c-5.88086 -0.0234375 -11.1348 -1.06934 -15.8438 -2.69043c-13.6816 -4.70996 -22.7588 -14.5293 -28.4521 -19.918
l-0.00488281 -0.00878906l-0.0175781 -0.0175781c-1.1084 -1.06543 -2.55762 -2.02344 -6.04199 -4.58008c-3.50586 -2.57227 -8.77051 -6.43555 -16.3477 -12.1152c-6.74023 -5.05078 -8.9248 -11.623 -6.59766 -19.3213
c2.32812 -7.69922 9.74414 -16.5801 23.3291 -24.2588l0.0224609 -0.0126953l0.0214844 -0.0126953c8.43359 -4.95215 14.1934 -11.626 20.8027 -16.9375s13.9189 -9.46289 26.1467 -10.1757zM428.945 590.949v0zM389.364 530.196
c5.76172 -1.37109 11.9004 -3.58398 18.415 -6.83008c-0.447266 2.57617 -0.630859 5.22949 -0.570312 8.12598c0 0.208984 0 0.382812 0.0351562 0.592773c0.173828 5.26855 1.08105 9.7002 2.93066 14.166c1.84961 4.4668 4.08301 7.67676 7.08301 10.1885
c2.86035 2.39453 5.625 3.48633 8.80859 3.49609l0.472656 -0.00976562c3.38477 -0.104492 6.21094 -1.36035 9.03711 -4.11719c2.82715 -2.75684 4.78027 -6.07129 6.31641 -10.6768c1.46484 -4.39746 2.12793 -8.68945 2.02344 -13.7139
c0 -0.244141 -0.0703125 -0.417969 -0.0703125 -0.62793c-0.173828 -5.2334 -1.08105 -9.63086 -2.93066 -14.1318c-1.22363 -2.97949 -2.61621 -5.36328 -4.28809 -7.37305c4.6123 -1.60059 10.1465 -3.56641 17.3613 -6.65625
c1.04102 -0.428711 2.04395 -0.874023 3.01074 -1.33789c2.84668 3.44238 5.22461 7.41992 7.29492 12.1582c3.62891 8.30469 5.26855 16.4346 5.19922 25.9951c-0.0703125 0.245117 -0.0703125 0.454102 -0.0703125 0.698242
c-0.173828 9.31641 -1.9541 17.167 -5.65234 25.1924c-3.76855 8.23438 -8.44434 14.1318 -14.9336 18.8418c-6.38965 4.63672 -12.6084 6.77148 -19.8916 6.77246h-0.347656c-7.43262 -0.0703125 -13.7129 -2.30273 -20.0986 -7.15332
c-6.38477 -4.84961 -10.9209 -10.8164 -14.585 -19.1211c-3.66309 -8.30371 -5.23438 -16.4688 -5.12891 -25.9951v-0.732422c0.0605469 -2.68848 0.25 -5.25977 0.579181 -7.75095zM359.65 539.863c-0.454102 8.23438 -2.09375 15.2129 -5.16406 22.1914
s-6.73438 11.9336 -11.585 15.8066c-4.4707 3.57031 -8.79395 5.18457 -13.625 5.19629c-0.40918 0.00195312 -0.822266 -0.00878906 -1.23926 -0.03125c-5.33887 -0.279297 -9.77051 -2.47754 -14.167 -6.83887c-4.39551 -4.36133 -7.43164 -9.66602 -9.7002 -16.9932
c-2.26758 -7.32715 -3.07031 -14.4102 -2.61621 -22.6455v-0.0693359c0.488281 -8.23438 2.12793 -15.2129 5.19824 -22.1914c2.59277 -5.8916 5.55762 -10.3662 9.3584 -13.9268l4.50098 3.30762c1.96289 1.44238 3.10645 2.29297 5.50195 4.13672
c-0.379883 0.266602 -0.760742 0.56543 -1.14648 0.899414c-2.30371 1.98828 -4.08301 4.57031 -5.61816 8.19922c-1.5 3.52441 -2.33789 7.01367 -2.75684 11.2012c0 0.173828 -0.0351562 0.314453 -0.0351562 0.488281
c-0.383789 4.32715 -0.139648 8.0957 0.767578 11.9336s2.16406 6.73438 4.08301 9.07227c1.91895 2.33691 3.94238 3.52344 6.38477 3.73242c0.229492 0.0195312 0.456055 0.0322266 0.680664 0.0322266c2.16992 0.0166016 4.1416 -0.811523 6.22852 -2.61328
c2.30273 -1.98926 4.04785 -4.57129 5.61816 -8.23535c1.46484 -3.52441 2.33789 -7.01367 2.75586 -11.166c0 -0.173828 0 -0.313477 0.0351562 -0.488281c0.300781 -3.12598 0.242188 -5.93066 -0.149414 -8.69336c4.00195 2.6416 8.5918 5.08496 13.8008 6.87793
c0.916992 0.31543 1.85352 0.609375 2.80859 0.880859c0.272461 3.15332 0.299805 6.4082 0.0800781 9.86719zM370.077 445.478c16.4756 0 33.0527 7.94922 47.4541 16.2598c7.20117 4.15527 13.8457 8.375 19.7539 11.6738
c5.90918 3.29883 10.9834 5.79297 15.8281 6.08203l0.367188 -6.13086c-2.76172 -0.165039 -7.53125 -2.14941 -13.2002 -5.31445c-5.66992 -3.16602 -12.3369 -7.39453 -19.6777 -11.6309c-14.6816 -8.47266 -32.1074 -17.0811 -50.5244 -17.0811
c-18.3926 0 -32.9316 8.5 -43.3867 16.7852c-5.22656 4.1416 -9.47266 8.25586 -12.668 11.248c-1.59766 1.49609 -2.94336 2.71387 -3.91309 3.46094c-0.597656 0.460938 -1.10938 0.636719 -1.21289 0.705078c-0.0634766 0.0419922 0.0986328 -0.00585938 0.256836 1.5459
l0.105469 4.6377c2.20703 0 3.28027 -1.00781 4.59863 -2.02441c1.31934 -1.01562 2.73242 -2.31641 4.3623 -3.84277c3.26074 -3.05273 7.34082 -6.99902 12.2852 -10.917c9.8877 -7.83594 23.0703 -15.457 39.5713 -15.457z" />
  </g>

</svg>
