<?xml version="1.0" standalone="no"?>
<!DOCTYPE svg PUBLIC "-//W3C//DTD SVG 1.1//EN" "http://www.w3.org/Graphics/SVG/1.1/DTD/svg11.dtd" >
<svg xmlns="http://www.w3.org/2000/svg" xmlns:xlink="http://www.w3.org/1999/xlink" version="1.1" viewBox="0 -200 1000 1000">
  <g transform="matrix(1 0 0 -1 0 800)">
   <path fill="currentColor"
d="M352.051 870.801h8.78906c42.6432 0 97.4935 -16.9271 164.551 -50.7812c34.1797 -17.5781 71.1263 -41.0156 110.84 -70.3125c20.8333 -15.625 45.7357 -36.9466 74.707 -63.9648c27.3438 -29.2969 45.5729 -51.2695 54.6875 -65.918
c20.1823 -31.25 30.2734 -55.8268 30.2734 -73.7305c0 -26.0417 -22.2982 -62.0117 -66.8945 -107.91c-22.4609 -22.1354 -41.0156 -39.0625 -55.6641 -50.7812c-33.5286 -27.9948 -68.6849 -54.5247 -105.469 -79.5898
c-49.4792 -31.901 -90.9831 -56.6406 -124.512 -74.2188c-37.4349 -20.1823 -79.5898 -39.2253 -126.465 -57.1289c-60.8724 -22.1354 -111.491 -33.2031 -151.855 -33.2031c-31.901 0 -58.1055 6.9987 -78.6133 20.9961
c-9.11458 6.51042 -16.7643 14.3229 -22.9492 23.4375c-9.76562 17.2526 -14.6484 32.5521 -14.6484 45.8984v6.83594c0 31.901 20.3451 71.4518 61.0352 118.652c24.4141 26.0417 45.2474 46.224 62.5 60.5469c36.1328 30.9245 67.7083 56.1523 94.7266 75.6836
c5.20833 3.90625 8.13802 6.34766 8.78906 7.32422c-40.6901 18.5547 -80.2409 37.7604 -118.652 57.6172c-64.4531 35.1562 -96.6797 62.0117 -96.6797 80.5664v2.92969c0 19.8568 14.4857 49.4792 43.457 88.8672c8.13802 10.7422 22.2982 26.2044 42.4805 46.3867
l9.27734 8.30078c41.6667 35.4818 83.0078 59.4076 124.023 71.7773c26.6927 7.8125 50.7812 11.7188 72.2655 11.7189zM95.7031 649.121v-0.488281c0 -5.20833 3.90625 -11.7188 11.7188 -19.5312c7.8125 -6.51042 27.6693 -18.5547 59.5703 -36.1328l120.117 -64.4531
c11.3932 -5.85938 19.043 -10.5794 22.9492 -14.1602c2.27865 -2.27865 3.41797 -5.20833 3.41797 -8.78906c0 -10.0911 -13.6719 -25.3906 -41.0156 -45.8984c-30.599 -24.7396 -56.3151 -46.5495 -77.1484 -65.4297
c-8.46354 -6.83594 -24.2513 -22.1354 -47.3633 -45.8984c-23.4375 -26.6927 -40.2018 -48.3398 -50.293 -64.9414c-8.13802 -10.0911 -12.207 -20.8333 -12.207 -32.2266v-1.95312c0 -18.5547 7.97526 -33.8542 23.9258 -45.8984
c12.3698 -7.48698 22.9492 -12.8581 31.7383 -16.1133c12.3698 -3.90625 26.3672 -5.85938 41.9922 -5.85938c18.5547 0 40.3646 3.74349 65.4297 11.2305c30.9245 8.78906 60.5469 19.043 88.8672 30.7617c38.0859 16.6016 80.5664 38.737 127.441 66.4062
c58.5938 34.8307 113.607 71.9401 165.039 111.328c19.8568 15.2995 43.9453 36.2956 72.2656 62.9883c36.4583 35.4818 55.8268 58.7565 58.1055 69.8242c1.30208 3.90625 1.95312 7.64974 1.95312 11.2305v2.44141c0 9.4401 -10.4167 27.832 -31.25 55.1758
c-11.7188 13.9974 -30.9245 34.3424 -57.6172 61.0352c-30.599 28.3203 -55.5013 49.1536 -74.707 62.5c-40.6901 30.2734 -80.0781 55.013 -118.164 74.2188c-18.5547 9.4401 -39.388 18.0664 -62.5 25.8789c-25.0651 7.8125 -50.6185 11.7188 -76.6602 11.7188h-1.46484
c-11.3932 0 -32.5521 -5.20833 -63.4766 -15.625c-36.1328 -13.9974 -72.2656 -37.1094 -108.398 -69.3359c-20.8333 -20.8333 -34.668 -36.1328 -41.5039 -45.8984c-16.9271 -20.8333 -27.181 -40.2018 -30.7616 -58.1057zM400.879 716.016
c14.3229 0 31.7383 -6.83594 52.2461 -20.5078c18.5547 -14.3229 30.599 -28.6458 36.1328 -42.9688c3.25521 -7.8125 4.88281 -14.8112 4.88281 -20.9961v-1.46484c0 -21.1589 -10.5794 -38.737 -31.7383 -52.7344c-10.4167 -5.20833 -20.5078 -7.8125 -30.2734 -7.8125
h-0.976562c-17.5781 0 -37.9232 7.97526 -61.0352 23.9258c-28.3203 22.4609 -42.4805 44.7591 -42.4805 66.8945c0 21.8099 15.1367 38.737 45.4102 50.7812c10.7422 3.25521 20.0195 4.88281 27.8321 4.88294zM369.141 641.309v-3.41797
c0 -11.0677 7.8125 -22.7865 23.4375 -35.1562c11.7188 -7.48698 22.9492 -11.2305 33.6914 -11.2305c13.9974 0 25.2279 6.83594 33.6914 20.5078c1.30208 3.58073 1.95312 6.51042 1.95312 8.78906v2.92969c0 12.3698 -9.11458 24.7396 -27.3438 37.1094
c-11.3932 5.85938 -21.1589 8.78906 -29.2969 8.78906h-2.44141c-11.3932 0 -20.8333 -4.55729 -28.3203 -13.6719c-3.58073 -4.55729 -5.37109 -9.4401 -5.37101 -14.6484z" />
  </g>

</svg>
