<?xml version="1.0" standalone="no"?>
<!DOCTYPE svg PUBLIC "-//W3C//DTD SVG 1.1//EN" "http://www.w3.org/Graphics/SVG/1.1/DTD/svg11.dtd" >
<svg xmlns="http://www.w3.org/2000/svg" xmlns:xlink="http://www.w3.org/1999/xlink" version="1.1" viewBox="0 -200 1000 1000">
  <g transform="matrix(1 0 0 -1 0 800)">
   <path fill="currentColor"
d="M439.453 683.789v-683.594l-195.312 195.312h-195.312v292.969h195.312zM499.023 182.324c38.737 43.9453 58.1055 97.0052 58.1055 159.18c0 62.8255 -19.2057 116.211 -57.6172 160.156c-3.58073 3.90625 -7.16146 7.64974 -10.7422 11.2305
c14.3229 -8.46354 27.5065 -18.5547 39.5508 -30.2734c38.4115 -38.737 57.6172 -85.7747 57.6172 -141.113c0 -54.6875 -19.5312 -101.4 -58.5938 -140.137c-11.7188 -11.7188 -24.7396 -21.8099 -39.0625 -30.2734c3.58073 3.58073 7.16146 7.32422 10.7422 11.2305
v-0.0002z" />
  </g>

</svg>
