<?xml version="1.0" standalone="no"?>
<!DOCTYPE svg PUBLIC "-//W3C//DTD SVG 1.1//EN" "http://www.w3.org/Graphics/SVG/1.1/DTD/svg11.dtd" >
<svg xmlns="http://www.w3.org/2000/svg" xmlns:xlink="http://www.w3.org/1999/xlink" version="1.1" viewBox="0 -200 1000 1000">
  <g transform="matrix(1 0 0 -1 0 800)">
   <path fill="currentColor"
d="M926.27 325.879c0 -150.391 -50.7812 -289.876 -152.344 -418.457l-35.6445 27.832c95.3776 117.839 143.066 248.047 143.066 390.625c0 139.648 -47.526 269.694 -142.578 390.137l35.6445 27.832c101.237 -128.581 151.855 -267.904 151.855 -417.969z
M818.848 325.879c0 -124.674 -41.9922 -241.862 -125.977 -351.562l-35.6445 26.8555c77.7995 101.562 116.699 209.798 116.699 324.707c0 114.583 -38.8997 222.656 -116.699 324.219l35.6445 26.8555c83.9844 -107.422 125.977 -224.447 125.977 -351.074v-0.001z
M711.426 325.879c0 -98.6328 -33.3659 -193.522 -100.098 -284.668l-36.1328 26.3672c60.8724 81.3802 91.3086 167.48 91.3086 258.301c0 89.1927 -30.4362 175.293 -91.3086 258.301l36.1328 26.3672c66.7318 -91.1458 100.098 -186.035 100.098 -284.668v-0.0004z
M472.656 -29.5898l-229.98 212.402h-145.02v286.133h145.508l229.492 211.914v-710.449z" />
  </g>

</svg>
