<?xml version="1.0" standalone="no"?>
<!DOCTYPE svg PUBLIC "-//W3C//DTD SVG 1.1//EN" "http://www.w3.org/Graphics/SVG/1.1/DTD/svg11.dtd" >
<svg xmlns="http://www.w3.org/2000/svg" xmlns:xlink="http://www.w3.org/1999/xlink" version="1.1" viewBox="0 -200 1000 1000">
  <g transform="matrix(1 0 0 -1 0 800)">
   <path fill="currentColor"
d="M940.918 222.852c-23.763 -27.3438 -56.1523 -41.0156 -97.168 -41.0156c-27.9948 0 -64.6159 8.30078 -109.863 24.9023l-298.828 109.863l-6.34766 -1.95312c-26.3672 -9.11458 -52.8158 -18.2292 -79.3457 -27.3438s-53.6296 -15.2995 -81.2988 -18.5547
c-15.625 -1.6276 -23.4375 -7.64974 -23.4375 -18.0664c0 -1.95312 2.11589 -7.97526 6.34766 -18.0664c6.51042 -15.625 9.76562 -28.4831 9.76562 -38.5742c0 -28.3203 -10.0098 -51.5951 -30.0293 -69.8242c-20.0195 -18.2292 -44.3522 -27.3438 -72.998 -27.3438
c-29.6224 0 -54.362 7.8125 -74.2188 23.4375c-21.1589 16.9271 -31.7383 40.0391 -31.7383 69.3359c0 46.224 21.9727 78.6133 65.918 97.168c20.5078 8.78906 52.5716 12.5326 96.1914 11.2305c51.7578 -1.30208 89.3555 4.88281 112.793 18.5547
s37.1094 29.4596 41.0156 47.3633c-8.46354 22.1354 -25.7161 39.0625 -51.7578 50.7812c-22.1354 10.0911 -46.224 14.8112 -72.2656 14.1602l-62.9883 -1.95312c-31.901 -0.976562 -58.1055 4.23177 -78.6133 15.625c-35.4818 19.5312 -53.2227 47.6888 -53.2227 84.4727
c0 31.25 10.2539 55.8268 30.7617 73.7305c19.5312 17.2526 45.2474 25.8789 77.1484 25.8789c26.3672 0 49.8047 -8.95182 70.3125 -26.8555s30.7617 -39.8763 30.7617 -65.918c0 -10.4167 -2.52279 -22.5423 -7.56836 -36.377s-7.56836 -21.7285 -7.56836 -23.6816
c0 -10.4167 12.6953 -16.4388 38.0859 -18.0664c37.7604 -2.60417 89.1927 -17.9036 154.297 -45.8984l301.758 112.793c48.8281 18.2292 85.7747 27.3438 110.84 27.3438c32.8776 0 63.9648 -13.6719 93.2617 -41.0156l-377.93 -145.02zM225.586 529.98
c0 20.5078 -7.8125 37.1094 -23.4375 49.8047c-14.3229 11.3932 -32.0638 17.0898 -53.2227 17.0898c-19.5312 0 -35.7259 -6.42904 -48.584 -19.2871s-19.2871 -29.0527 -19.2871 -48.584c0 -20.1823 8.6263 -36.9466 25.8789 -50.293
c15.625 -12.6953 33.8542 -19.043 54.6875 -19.043c19.8568 0 35.4818 6.67318 46.875 20.0195s17.0898 30.1107 17.0899 50.2931zM228.027 197.949c0 19.5312 -6.10352 35.5632 -18.3105 48.0957c-12.207 12.5326 -28.2389 18.7988 -48.0957 18.7988
c-21.8099 0 -40.3646 -7.56836 -55.6641 -22.7051s-22.9492 -33.61 -22.9492 -55.4199c0 -18.2292 7.64974 -32.8776 22.9492 -43.9453c13.6719 -10.0911 29.9479 -15.1367 48.8281 -15.1367c20.8333 0 38.2487 6.42904 52.2461 19.2871s20.9961 29.8665 20.9961 51.0254z
" />
  </g>

</svg>
