<?xml version="1.0" standalone="no"?>
<!DOCTYPE svg PUBLIC "-//W3C//DTD SVG 1.1//EN" "http://www.w3.org/Graphics/SVG/1.1/DTD/svg11.dtd" >
<svg xmlns="http://www.w3.org/2000/svg" xmlns:xlink="http://www.w3.org/1999/xlink" version="1.1" viewBox="0 -200 1073 1000">
  <g transform="matrix(1 0 0 -1 0 800)">
   <path fill="currentColor"
d="M1072.27 89.5508c-51.1068 -42.3177 -105.632 -63.4766 -163.574 -63.4766c-3.90625 0 -10.0911 0.325521 -18.5547 0.976562l-417.48 261.719l-49.3164 -26.8555c-33.8542 -18.5547 -50.6185 -36.2956 -50.293 -53.2227l0.488281 -20.0195v-12.207
c0 -51.7578 -15.2995 -93.9128 -45.8984 -126.465c-31.5755 -33.2031 -73.0794 -49.8047 -124.512 -49.8047c-36.7839 0 -67.7897 12.0443 -93.0176 36.1328c-25.2279 24.0885 -37.8418 54.362 -37.8418 90.8203c0 68.3594 50.7812 117.839 152.344 148.438l68.3594 20.5078
c25.3906 7.48698 42.4805 14.4857 51.2695 20.9961c15.625 10.7422 23.4375 26.2044 23.4375 46.3867c0 27.0182 -21.8099 46.875 -65.4297 59.5703l-70.8008 20.5078c-106.12 30.599 -159.18 81.8685 -159.18 153.809c0 36.4583 13.0208 66.569 39.0625 90.332
c26.0417 23.763 57.4544 35.6445 94.2383 35.6445c47.2005 0 86.9954 -17.0085 119.385 -51.0254s48.584 -74.6257 48.584 -121.826v-38.0859c-1.30208 -13.3464 12.8581 -28.8086 42.4805 -46.3867l56.6406 -33.6914l426.27 260.742
c65.1042 0 122.884 -20.8333 173.34 -62.5l-473.633 -270.02zM503.906 362.988c0 18.8802 -9.4401 28.3203 -28.3203 28.3203s-28.3203 -9.4401 -28.3203 -28.3203c0 -18.5547 9.4401 -27.832 28.3203 -27.832s28.3203 9.27734 28.3203 27.832zM312.988 554.395
c0 27.0182 -11.2305 51.8392 -33.6914 74.4629s-47.2005 33.9355 -74.2188 33.9355c-18.8802 0 -35.8073 -6.51042 -50.7812 -19.5312s-22.4609 -28.8086 -22.4609 -47.3633c0 -32.8776 27.181 -59.7331 81.543 -80.5664l30.7617 -11.7188
c16.276 -6.1849 26.5299 -9.27734 30.7617 -9.27734c25.3906 0 38.0859 20.0195 38.0859 60.0586zM312.988 169.141c0 36.1328 -13.9974 54.1992 -41.9922 54.1992c-10.0911 0 -19.3685 -1.6276 -27.832 -4.88281l-39.0625 -15.1367
c-47.8516 -18.5547 -71.7773 -44.2708 -71.7773 -77.1484c0 -18.5547 7.97526 -34.3424 23.9258 -47.3633c14.974 -12.3698 31.901 -18.5547 50.7812 -18.5547c28.6458 0 53.4668 10.9863 74.4629 32.959s31.4941 47.2819 31.4941 75.9277z" />
  </g>

</svg>
