<?xml version="1.0" standalone="no"?>
<!DOCTYPE svg PUBLIC "-//W3C//DTD SVG 1.1//EN" "http://www.w3.org/Graphics/SVG/1.1/DTD/svg11.dtd" >
<svg xmlns="http://www.w3.org/2000/svg" xmlns:xlink="http://www.w3.org/1999/xlink" version="1.1" viewBox="0 -200 1000 1000">
  <g transform="matrix(1 0 0 -1 0 800)">
   <path fill="currentColor"
d="M971.68 -59.8633c0 -7.8125 -6.1849 -18.2292 -18.5547 -31.25c-9.4401 -8.78906 -18.8802 -17.7409 -28.3203 -26.8555c-9.11458 -10.4167 -23.763 -24.9023 -43.9453 -43.457c-3.25521 -2.60417 -7.8125 -3.90625 -13.6719 -3.90625
c-7.16146 0 -20.6706 10.7422 -40.5273 32.2266l-141.113 140.625c-12.6953 11.0677 -30.1107 28.6458 -52.2461 52.7344c-2.27865 2.92969 -3.41797 7.16146 -3.41797 12.6953c0 10.0911 6.9987 20.1823 20.9961 30.2734l-35.6445 35.6445
c-71.2891 -52.4089 -145.345 -78.6133 -222.168 -78.6133c-94.7266 0 -177.246 35.2376 -247.559 105.713c-70.3125 70.4753 -105.469 153.239 -105.469 248.291c0 94.7266 35.319 177.165 105.957 247.314c70.638 70.1497 153.32 105.225 248.047 105.225
c95.3776 0 178.223 -35.1562 248.535 -105.469s105.469 -153.158 105.469 -248.535c0 -74.5443 -25.7161 -147.461 -77.1484 -218.75l34.1797 -34.1797c12.6953 11.0677 22.1354 16.6016 28.3203 16.6016c9.11458 0 22.9492 -9.60286 41.5039 -28.8086
c28.9714 -28.6458 72.4284 -71.7773 130.371 -129.395c14.974 -13.6719 35.8073 -34.9935 62.5 -63.9648c2.60417 -3.58073 3.90625 -8.30078 3.90625 -14.1602zM696.289 150.098c-12.0443 12.0443 -23.763 22.9492 -35.1562 32.7148
c-6.83594 -6.1849 -12.6953 -12.5326 -17.5781 -19.043c7.48698 -8.13802 19.3685 -19.5312 35.6445 -34.1797zM711.426 421.582c0 86.263 -31.0872 160.563 -93.2617 222.9s-136.393 93.5059 -222.656 93.5059c-86.5885 0 -160.726 -31.0872 -222.412 -93.2617
s-92.5293 -136.556 -92.5293 -223.145c0 -86.9141 30.7617 -161.051 92.2852 -222.412c61.5234 -61.3607 135.742 -92.041 222.656 -92.041c86.5885 0 160.889 30.7617 222.9 92.2852s93.0176 135.579 93.0176 222.168zM667.48 123.242l-33.6914 32.2266
c-2.27865 -1.6276 -5.04557 -4.39453 -8.30078 -8.30078l33.6914 -34.1797c4.23177 4.23177 6.9987 7.64974 8.30078 10.2539zM879.395 -120.41l-196.777 196.289l63.9648 63.9648c-5.53385 4.23177 -9.92839 6.34766 -13.1836 6.34766
c-4.55729 0 -17.6595 -10.9863 -39.3066 -32.959s-32.4707 -35.5632 -32.4707 -40.7715c0 -3.58073 2.60417 -8.13802 7.8125 -13.6719c19.2057 -20.5078 53.0599 -54.5247 101.562 -102.051c57.9427 -56.9661 89.3555 -85.4492 94.2383 -85.4492
c6.1849 0 10.9049 2.76693 14.1602 8.30078zM670.898 422.559c0 -77.474 -26.3672 -142.415 -79.1016 -194.824c-52.7344 -52.4089 -117.676 -78.9388 -194.824 -79.5898h-13.6719c-67.0573 -0.651042 -127.604 25.6348 -181.641 78.8574s-81.0547 113.525 -81.0547 180.908
c13.0208 -59.5703 42.1549 -107.992 87.4023 -145.264c45.2474 -37.2721 98.1445 -55.9082 158.691 -55.9082c68.0339 0 126.139 24.0885 174.316 72.2656c48.1771 48.1771 72.2656 106.283 72.2656 174.316c0 57.6172 -17.5781 108.887 -52.7344 153.809
c-34.8307 43.9453 -80.2409 73.7305 -136.23 89.3555h4.88281c21.4844 0 49.4792 -7.8125 83.9844 -23.4375c49.4792 -22.4609 88.1348 -56.071 115.967 -100.83s41.748 -94.6452 41.7485 -149.658zM344.238 544.141c0 -24.4141 -9.0332 -45.6543 -27.0996 -63.7207
s-39.3066 -27.0996 -63.7207 -27.0996c-20.1823 0 -38.4115 6.26628 -54.6875 18.7988s-27.181 28.5645 -32.7148 48.0957c17.9036 -27.3438 41.6667 -41.0156 71.2891 -41.0156c21.8099 0 40.7715 7.89388 56.8848 23.6816
c16.1133 15.7878 24.1699 34.4238 24.1699 55.9082c0 33.8542 -14.1602 57.6172 -42.4805 71.2891c19.5312 -6.1849 35.8073 -17.0898 48.8281 -32.7148s19.5312 -33.3659 19.5312 -53.2227z" />
  </g>

</svg>
