<?xml version="1.0" standalone="no"?>
<!DOCTYPE svg PUBLIC "-//W3C//DTD SVG 1.1//EN" "http://www.w3.org/Graphics/SVG/1.1/DTD/svg11.dtd" >
<svg xmlns="http://www.w3.org/2000/svg" xmlns:xlink="http://www.w3.org/1999/xlink" version="1.1" viewBox="0 -200 1000 1000">
  <g transform="matrix(1 0 0 -1 0 800)">
   <path fill="currentColor"
d="M380.859 688.672h18.0664c89.5182 0 159.18 -35.319 208.984 -105.957c16.9271 -28.3203 25.3906 -61.5234 25.3906 -99.6094c0 -40.0391 -13.0208 -86.4258 -39.0625 -139.16c6.51042 -18.2292 9.76562 -31.25 9.76562 -39.0625v-7.8125
c0 -13.0208 -11.0677 -31.4128 -33.2031 -55.1758c-7.8125 -14.3229 -11.7188 -25.3906 -11.7188 -33.2031c71.2891 26.0417 120.117 46.3867 146.484 61.0352h1.95312c15.625 0 23.4375 -13.8346 23.4375 -41.5039c6.51042 -10.4167 11.0677 -15.625 13.6719 -15.625
v-1.95312c0 -16.9271 -5.85938 -25.3906 -17.5781 -25.3906c-30.2734 7.8125 -49.8047 11.7188 -58.5938 11.7188h-7.8125c-14.3229 0 -49.4792 -14.3229 -105.469 -42.9688l-13.6719 -48.8281v-1.95312c67.3828 -28.9714 108.398 -43.457 123.047 -43.457h9.76562
l29.2969 3.90625c7.8125 0 11.7188 -4.55729 11.7188 -13.6719l-15.625 -27.3438l1.95312 -1.95312v-3.90625c-2.27865 -14.3229 -9.4401 -21.4844 -21.4844 -21.4844h-7.8125c-16.6016 14.3229 -69.3359 37.7604 -158.203 70.3125
c-30.599 -33.8542 -65.7552 -50.7812 -105.469 -50.7812h-7.8125c-44.9219 0 -82.194 18.8802 -111.816 56.6406l-123.047 -46.875l-33.2031 -24.9023h-5.85938c-15.625 0 -23.4375 10.2539 -23.4375 30.7617c-6.51042 5.53385 -9.76562 12.6953 -9.76562 21.4844v7.8125
c0 3.90625 5.20833 6.51042 15.625 7.8125l27.3438 -1.95312c10.4167 6.51042 53.3854 22.2982 128.906 47.3633l1.95312 7.8125v1.95312c0 16.9271 -5.85938 25.3906 -17.5781 25.3906l-146.484 42.9688h-5.85938l-27.3438 -5.85938h-5.85938
c-7.16146 0 -12.3698 3.25521 -15.625 9.76562v5.85938l13.6719 31.25c0 19.8568 5.85938 29.7852 17.5781 29.7852c38.737 -21.1589 94.7266 -42.1549 167.969 -62.9883v1.95312c0 17.2526 -8.46354 35.6445 -25.3906 55.1758c-20.8333 23.763 -31.25 44.5964 -31.25 62.5
l9.76562 54.6875c-26.0417 50.4557 -39.0625 87.7279 -39.0625 111.816c0 50.7812 24.0885 101.074 72.2656 150.879c47.526 35.1562 96.3542 52.7344 146.484 52.7344zM173.828 488.965v-1.95312c0 -32.8776 11.0677 -64.2904 33.2031 -94.2383h1.95312l3.90625 37.5977
v7.8125c0 15.2995 -1.95312 32.2266 -5.85938 50.7812l7.8125 37.1094h5.85938v-1.95312l-3.90625 -27.3438v-9.76562l7.8125 -64.9414c0 -8.46354 -8.46354 -40.3646 -25.3906 -95.7031v-1.95312c0 -28.9714 17.5781 -49.1536 52.7344 -60.5469
c31.25 -13.3464 46.875 -38.2487 46.875 -74.707h1.95312c4.55729 0 9.76562 2.60417 15.625 7.8125l39.0625 -15.625l11.7188 -3.90625l15.625 3.90625l1.95312 -5.85938l18.0664 1.95312l7.8125 -3.90625c18.2292 4.23177 29.9479 9.4401 35.1562 15.625l15.625 -3.90625
c0 5.85938 8.46354 9.76562 25.3906 11.7188c0.651042 3.25521 5.20833 6.51042 13.6719 9.76562l17.5781 -7.8125c0 33.5286 20.8333 61.0352 62.5 82.5195c7.8125 9.4401 11.7188 18.5547 11.7188 27.3438c-15.625 55.3385 -23.4375 87.8906 -23.4375 97.6562v5.85938
c0 13.0208 5.20833 37.9232 15.625 74.707v9.76562c0 9.76562 -3.90625 24.7396 -11.7188 44.9219h3.90625c11.7188 -16.6016 17.5781 -32.2266 17.5781 -46.875l-17.5781 -82.5195l9.76562 -56.6406c24.7396 39.388 37.1094 83.1706 37.1094 131.348
c0 88.5417 -50.1302 148.6 -150.391 180.176c-14.974 5.20833 -39.7135 9.11458 -74.2188 11.7188c-62.8255 0 -120.28 -22.7865 -172.363 -68.3594c-35.1562 -42.3177 -52.7344 -82.8451 -52.7344 -121.582zM512.207 420.117c26.0417 0 39.0625 -13.6719 39.0625 -41.0156
c-7.8125 -44.2708 -24.7396 -66.4062 -50.7812 -66.4062c-10.0911 0 -25.7161 12.3698 -46.875 37.1094c-6.51042 15.2995 -9.76562 25.7161 -9.76562 31.25v5.85938c4.55729 22.1354 27.3438 33.2031 68.3593 33.203zM333.984 414.258
c20.5078 0 34.1797 -10.4167 41.0156 -31.25c0 -22.1354 -14.3229 -45.5729 -42.9688 -70.3125l-7.8125 -1.95312h-3.90625c-24.4141 0 -43.2943 18.2292 -56.6406 54.6875c4.55729 23.4375 11.0677 35.1562 19.5312 35.1562
c16.276 9.11458 33.2031 13.6719 50.7813 13.6719zM402.832 328.32c21.1589 0 33.5286 -28.1576 37.1094 -84.4727c-2.60417 -7.8125 -7.8125 -11.7188 -15.625 -11.7188h-1.95312c-8.46354 0 -16.276 3.25521 -23.4375 9.76562
c-7.16146 -5.20833 -14.4857 -7.8125 -21.9727 -7.8125h-1.95312c-9.76562 0 -15.625 6.51042 -17.5781 19.5312c9.76562 48.5026 23.6003 72.7539 41.5039 72.7539l1.95312 1.95312zM525.879 165.723v-3.90625c0 -6.1849 -5.20833 -12.6953 -15.625 -19.5312
c0 -3.25521 -4.55729 -6.51042 -13.6719 -9.76562c0 -6.1849 -7.16146 -10.0911 -21.4844 -11.7188l-13.6719 -13.6719l-15.625 3.90625l-11.7188 -5.85938l-11.7188 1.95312c0 -3.90625 -1.30208 -5.85938 -3.90625 -5.85938h-3.90625l-13.6719 3.90625l-18.0664 -3.90625
l-13.6719 7.8125l-11.7188 -1.95312l-39.0625 19.5312c-15.625 7.8125 -23.4375 24.7396 -23.4375 50.7812c-9.76562 50.7812 -27.3438 76.1719 -52.7344 76.1719v-1.95312c10.4167 -21.8099 20.1823 -59.5703 29.2969 -113.281
c25.0651 -77.1484 66.8945 -115.723 125.488 -115.723h11.7188c57.9427 0 101.562 35.319 130.859 105.957c3.58073 9.4401 7.48698 40.0391 11.7188 91.7969l15.625 37.5977h-1.95312c-26.0417 -11.0677 -39.0625 -41.8294 -39.0625 -92.2852zM555.176 173.535v-7.8125
c63.8021 31.25 99.6094 46.875 107.422 46.875c20.8333 -2.60417 41.6667 -7.8125 62.5 -15.625c6.51042 2.27865 9.76562 5.53385 9.76562 9.76562c-9.11458 13.0208 -13.6719 27.9948 -13.6719 44.9219l-11.7188 6.34766
c-71.9401 -28.9714 -122.721 -51.2695 -152.344 -66.8945zM68.3594 230.176l3.90625 -7.8125c-7.8125 -10.7422 -11.7188 -19.2057 -11.7188 -25.3906h1.95312l35.1562 5.85938c96.6797 -29.9479 150.065 -44.9219 160.156 -44.9219v1.95312
c-2.27865 19.5312 -6.83594 29.2969 -13.6719 29.2969c-93.75 27.3438 -148.438 47.526 -164.062 60.5469h-3.90625c-5.20833 -1.30208 -7.8125 -7.8125 -7.8125 -19.5312zM490.723 189.16v-15.625c6.51042 0 11.7188 3.90625 15.625 11.7188
c-1.6276 7.8125 -3.58073 11.7188 -5.85938 11.7188h-1.95312zM312.5 187.207v-11.7188l9.76562 -7.8125l3.90625 11.7188v1.95312l-7.8125 9.76562h-1.95312zM469.238 179.395v-15.625l3.90625 -3.90625h5.85938c5.20833 2.27865 7.8125 6.83594 7.8125 13.6719
l-9.76562 11.7188h-1.95312zM333.984 181.348l-3.90625 -17.5781v-1.95312l3.90625 -3.90625h7.8125l1.95312 11.7188c-2.60417 7.8125 -5.20833 11.7188 -7.8125 11.7188zM445.801 179.395v-19.5312l1.95312 -9.76562h5.85938l9.76562 7.8125
c0 15.625 -3.90625 23.4375 -11.7188 23.4375zM510.254 177.441v-19.5312h1.95312l9.76562 7.8125l-3.90625 11.7188zM420.41 167.676v-15.625l7.8125 -7.8125h5.85938l3.90625 11.7188c-2.27865 13.0208 -4.88281 19.5312 -7.8125 19.5312
c-5.85938 -2.60417 -9.11458 -5.20833 -9.76563 -7.8125zM349.609 161.816v-11.7188h9.76562c2.60417 0 3.90625 1.95312 3.90625 5.85938c-0.651042 11.7188 -2.60417 17.5781 -5.85938 17.5781h-1.95312c-3.90625 -1.30208 -5.85938 -5.20833 -5.85937 -11.7187z
M369.141 163.77l3.90625 -19.5312h11.7188l3.90625 3.90625v3.90625c0 10.0911 -3.25521 16.6016 -9.76562 19.5312h-3.90625c-3.25521 0 -5.20833 -2.60417 -5.85943 -7.8125zM398.926 167.676l-4.39453 -13.6719l4.39453 -11.7188h9.76562l3.90625 3.90625v15.625
l-5.85938 5.85938zM304.688 157.91l1.95312 -9.76562h3.90625l3.90625 3.90625v7.8125l-3.90625 3.90625h-1.95312c-2.60417 0 -3.90625 -1.95312 -3.90625 -5.85938zM494.629 155.957l3.90625 -13.6719h3.90625l1.95312 13.6719v1.95312l-3.90625 3.90625zM318.359 152.051
v-7.8125c0 -6.83594 2.60417 -11.3932 7.8125 -13.6719l3.90625 3.90625v7.8125c0 6.83594 -1.95312 10.7422 -5.85938 11.7188zM477.051 138.379l1.95312 -9.76562h3.90625c2.60417 0 5.20833 7.16146 7.8125 21.4844l-5.85938 3.90625
c-5.20833 -0.651042 -7.8125 -5.85938 -7.81249 -15.625zM341.797 146.191l-3.90625 -11.7188c0.976562 -7.8125 2.92969 -11.7188 5.85938 -11.7188h5.85938l1.95312 9.76562v1.95312c0 7.8125 -3.25521 11.7188 -9.76563 11.7189zM453.613 126.66
c2.60417 -5.85938 5.20833 -9.11458 7.8125 -9.76562h1.95312l3.90625 3.90625v21.4844h-7.8125c-3.90625 -0.651042 -5.85938 -5.85938 -5.85937 -15.625zM359.375 140.332v-13.6719c0.976562 -7.8125 2.92969 -11.7188 5.85938 -11.7188h1.95312
c3.90625 0 5.85938 7.16146 5.85938 21.4844zM430.176 138.379v-21.4844l3.90625 -3.90625h3.90625c3.90625 0 5.85938 7.8125 5.85938 23.4375h-1.95312l-7.8125 1.95312zM410.645 136.426l-5.85938 -17.5781c2.60417 0 3.90625 -1.95312 3.90625 -5.85938h9.76562
l3.90625 13.6719v3.90625c-1.30208 3.90625 -5.20833 5.85938 -11.7187 5.85933zM380.859 122.754v-7.8125c0 -2.60417 1.95312 -3.90625 5.85938 -3.90625l7.8125 5.85938v17.5781h-7.8125c-3.90625 -1.30208 -5.85938 -5.20833 -5.85938 -11.7187zM126.953 55.8594
l-13.6719 3.90625c-5.20833 -1.30208 -7.8125 -4.55729 -7.8125 -9.76562c5.85938 -9.76562 10.4167 -22.7865 13.6719 -39.0625l9.76562 -1.95312c24.7396 21.4844 71.6146 42.3177 140.625 62.5c0.325521 1.95312 5.53385 4.55729 15.625 7.8125
c0 6.51042 -3.25521 15.7878 -9.76562 27.832l-146.484 -51.2695h-1.95312zM535.645 97.3633c-7.8125 -11.0677 -11.7188 -19.043 -11.7188 -23.9258c25.3906 -13.9974 65.7552 -30.2734 121.094 -48.8281l27.3438 -17.5781h3.90625
c7.8125 0 13.6719 4.55729 17.5781 13.6719l-1.95312 7.8125l11.7188 17.5781v1.95312l-3.90625 3.90625l-29.2969 -3.90625c-9.76562 0 -54.6875 16.4388 -134.766 49.3164z" />
  </g>

</svg>
