<?xml version="1.0" standalone="no"?>
<!DOCTYPE svg PUBLIC "-//W3C//DTD SVG 1.1//EN" "http://www.w3.org/Graphics/SVG/1.1/DTD/svg11.dtd" >
<svg xmlns="http://www.w3.org/2000/svg" xmlns:xlink="http://www.w3.org/1999/xlink" version="1.1" viewBox="0 -200 1000 1000">
  <g transform="matrix(1 0 0 -1 0 800)">
   <path fill="currentColor"
d="M573.242 166.211h-241.699v-341.797h-64.9414v341.797h-242.188v64.9414h228.027c-42.9688 39.0625 -77.3112 84.9609 -103.027 137.695c-27.0182 55.3385 -40.5273 110.514 -40.5273 165.527c0 60.5469 16.7643 108.48 50.293 143.799s80.2409 52.9785 140.137 52.9785
c59.8958 0 106.608 -17.6595 140.137 -52.9785s50.293 -83.252 50.293 -143.799c0 -55.013 -13.5091 -110.189 -40.5273 -165.527c-25.7161 -52.7344 -60.0586 -98.6328 -103.027 -137.695h227.051v-64.9414zM430.664 541.699c0 86.9141 -43.7826 130.371 -131.348 130.371
s-131.348 -43.457 -131.348 -130.371c0 -46.875 12.6953 -96.8424 38.0859 -149.902s56.4779 -95.0521 93.2617 -125.977c36.7839 30.9245 67.8711 72.9167 93.2617 125.977s38.0859 103.027 38.0859 149.902z" />
  </g>

</svg>
