<?xml version="1.0" standalone="no"?>
<!DOCTYPE svg PUBLIC "-//W3C//DTD SVG 1.1//EN" "http://www.w3.org/Graphics/SVG/1.1/DTD/svg11.dtd" >
<svg xmlns="http://www.w3.org/2000/svg" xmlns:xlink="http://www.w3.org/1999/xlink" version="1.1" viewBox="0 -200 1000 1000">
  <g transform="matrix(1 0 0 -1 0 800)">
   <path fill="currentColor"
d="M801.27 377.148c0 -105.469 -36.9466 -195.15 -110.84 -269.043c-73.8932 -73.8932 -163.574 -110.84 -269.043 -110.84c-105.143 0 -194.743 37.028 -268.799 111.084c-74.056 74.056 -111.084 163.656 -111.084 268.799c0 105.469 36.9466 195.231 110.84 269.287
c73.8932 74.056 163.574 111.084 269.043 111.084c105.794 0 195.557 -36.9466 269.287 -110.84s110.596 -163.737 110.596 -269.531zM752.441 377.148c0 91.7969 -32.2266 170.003 -96.6797 234.619s-142.578 96.9238 -234.375 96.9238
c-52.7344 0 -102.62 -11.8815 -149.658 -35.6445c-47.0378 -23.763 -86.1816 -56.8034 -117.432 -99.1211c26.0417 10.4167 54.8503 15.625 86.4258 15.625c60.2214 0 109.212 -19.3685 146.973 -58.1055c35.1562 -36.4583 56.6406 -85.2865 64.4531 -146.484
c13.3464 -105.143 63.4766 -157.715 150.391 -157.715c43.6198 0 79.5085 14.0788 107.666 42.2363c28.1576 28.1576 42.2363 64.0462 42.2358 107.666zM300.293 377.148c0 16.6016 -5.85938 30.7617 -17.5781 42.4805s-25.8789 17.5781 -42.4805 17.5781
c-16.9271 0 -31.25 -5.77799 -42.9688 -17.334s-17.5781 -25.7975 -17.5781 -42.7246s5.85938 -31.1686 17.5781 -42.7246s26.0417 -17.334 42.9688 -17.334c16.6016 0 30.7617 5.85938 42.4805 17.5781s17.5781 25.8789 17.5781 42.4805zM663.086 377.148
c0 -16.9271 -5.85938 -31.1686 -17.5781 -42.7246s-26.0417 -17.334 -42.9688 -17.334c-16.6016 0 -30.7617 5.85938 -42.4805 17.5781s-17.5781 25.8789 -17.5781 42.4805s5.85938 30.7617 17.5781 42.4805s25.8789 17.5781 42.4805 17.5781
c16.9271 0 31.25 -5.77799 42.9688 -17.334s17.5781 -25.7975 17.5781 -42.7246z" />
  </g>

</svg>
