<?xml version="1.0" standalone="no"?>
<!DOCTYPE svg PUBLIC "-//W3C//DTD SVG 1.1//EN" "http://www.w3.org/Graphics/SVG/1.1/DTD/svg11.dtd" >
<svg xmlns="http://www.w3.org/2000/svg" xmlns:xlink="http://www.w3.org/1999/xlink" version="1.1" viewBox="0 -200 1000 1000">
  <g transform="matrix(1 0 0 -1 0 800)">
   <path fill="currentColor"
d="M801.27 377.148c0 -105.469 -36.9466 -195.15 -110.84 -269.043c-73.8932 -73.8932 -163.574 -110.84 -269.043 -110.84c-105.143 0 -194.743 37.028 -268.799 111.084c-74.056 74.056 -111.084 163.656 -111.084 268.799c0 105.469 36.9466 195.231 110.84 269.287
c73.8932 74.056 163.574 111.084 269.043 111.084c105.794 0 195.557 -36.9466 269.287 -110.84s110.596 -163.737 110.596 -269.531zM752.441 377.148c0 87.8906 -29.4596 163.411 -88.3789 226.562s-131.673 97.819 -218.262 104.004v-324.219l226.562 -223.633
c53.3854 61.849 80.0781 134.277 80.0781 217.285zM637.695 125.684l-191.895 188.965v-267.578c72.9167 5.20833 136.882 31.4128 191.895 78.6133v-0.0003zM396.973 383.496v324.219c-86.5885 -6.1849 -159.342 -40.9342 -218.262 -104.248
s-88.3789 -138.753 -88.3789 -226.318c0 -82.6823 26.8555 -154.948 80.5664 -216.797zM396.973 47.0703v267.578l-191.406 -188.965c55.013 -47.2005 118.815 -73.4049 191.406 -78.6133v0.0003z" />
  </g>

</svg>
