<?xml version="1.0" standalone="no"?>
<!DOCTYPE svg PUBLIC "-//W3C//DTD SVG 1.1//EN" "http://www.w3.org/Graphics/SVG/1.1/DTD/svg11.dtd" >
<svg xmlns="http://www.w3.org/2000/svg" xmlns:xlink="http://www.w3.org/1999/xlink" version="1.1" viewBox="0 -200 1000 1000">
  <g transform="matrix(1 0 0 -1 0 800)">
   <path fill="currentColor"
d="M158.691 215.039c19.2057 0 37.5977 -4.72005 55.1758 -14.1602s31.0872 -22.9492 40.5273 -40.5273s14.1602 -35.9701 14.1602 -55.1758s-4.72005 -37.5977 -14.1602 -55.1758c-9.4401 -17.5781 -22.9492 -31.0872 -40.5273 -40.5273
c-17.5781 -9.4401 -35.9701 -14.1602 -55.1758 -14.1602c-18.8802 0 -37.1908 4.72005 -54.9316 14.1602c-17.7409 9.4401 -31.3314 22.9492 -40.7715 40.5273s-14.1602 35.9701 -14.1602 55.1758s4.72005 37.5977 14.1602 55.1758
c9.4401 17.5781 23.0306 31.0872 40.7715 40.5273s36.0514 14.1602 54.9316 14.1602zM94.9707 141.797c-6.34766 -11.7188 -9.52148 -23.9258 -9.52148 -36.6211s3.17383 -24.9023 9.52148 -36.6211s15.3809 -20.752 27.0996 -27.0996s23.9258 -9.52148 36.6211 -9.52148
s24.9023 3.17383 36.6211 9.52148s20.752 15.3809 27.0996 27.0996s9.52148 23.9258 9.52148 36.6211s-3.17383 24.9023 -9.52148 36.6211s-15.3809 20.752 -27.0996 27.0996s-23.9258 9.52148 -36.6211 9.52148s-24.9023 -3.17383 -36.6211 -9.52148
s-20.752 -15.3809 -27.0996 -27.0996zM583.252 141.797c-6.34766 -11.7188 -9.52148 -23.9258 -9.52148 -36.6211s3.17383 -24.9023 9.52148 -36.6211s15.3809 -20.752 27.0996 -27.0996s23.9258 -9.52148 36.6211 -9.52148s24.9023 3.17383 36.6211 9.52148
s20.752 15.3809 27.0996 27.0996s9.52148 23.9258 9.52148 36.6211s-3.17383 24.9023 -9.52148 36.6211s-15.3809 20.752 -27.0996 27.0996s-23.9258 9.52148 -36.6211 9.52148s-24.9023 -3.17383 -36.6211 -9.52148s-20.752 -15.3809 -27.0996 -27.0996zM244.141 382.031
v-98.6328l85.4492 49.3164zM670.41 212.598c10.7422 -2.27865 21.3216 -6.1849 31.7383 -11.7188c17.5781 -9.4401 31.0872 -22.9492 40.5273 -40.5273s14.1602 -35.9701 14.1602 -55.1758s-4.72005 -37.5977 -14.1602 -55.1758s-22.9492 -31.0872 -40.5273 -40.5273
c-17.5781 -9.4401 -35.9701 -14.1602 -55.1758 -14.1602c-18.8802 0 -37.1908 4.72005 -54.9316 14.1602c-17.7409 9.4401 -31.3314 22.9492 -40.7715 40.5273s-14.1602 35.9701 -14.1602 55.1758s4.72005 37.5977 14.1602 55.1758s23.112 31.0872 41.0156 40.5273
c13.6719 7.48698 27.832 12.0443 42.4805 13.6719c-0.325521 33.2031 -8.6263 65.2669 -24.9023 96.1914c-16.9271 31.25 -41.097 55.2572 -72.5098 72.0215c-31.4128 16.7643 -64.0462 25.1465 -97.9004 25.1465s-66.4062 -8.30078 -97.6562 -24.9023
c-4.55729 -2.60417 -8.78906 -5.20833 -12.6953 -7.8125l73.7305 -42.4805l-195.312 -112.793v225.586l86.4258 -49.8047c9.11458 6.83594 19.043 13.1836 29.7852 19.043c37.1094 19.8568 75.6836 29.7852 115.723 29.7852c40.3646 0 79.1016 -10.0098 116.211 -30.0293
s65.6738 -48.584 85.6934 -85.6934s30.0293 -75.8464 30.0293 -116.211h-0.976562z" />
  </g>

</svg>
