<?xml version="1.0" standalone="no"?>
<!DOCTYPE svg PUBLIC "-//W3C//DTD SVG 1.1//EN" "http://www.w3.org/Graphics/SVG/1.1/DTD/svg11.dtd" >
<svg xmlns="http://www.w3.org/2000/svg" xmlns:xlink="http://www.w3.org/1999/xlink" version="1.1" viewBox="0 -200 1000 1000">
  <g transform="matrix(1 0 0 -1 0 800)">
   <path fill="currentColor"
d="M888.672 624.707l-58.5938 -58.1055c-18.8802 23.4375 -40.0391 44.5964 -63.4766 63.4766l58.1055 58.5938c23.112 -19.5312 44.4336 -40.8529 63.9649 -63.9649zM573.242 703.809c-23.4375 4.23177 -47.8516 6.34766 -73.2422 6.34766
s-49.8047 -2.11589 -73.2422 -6.34766v79.1016c23.763 3.58073 48.1771 5.37109 73.2422 5.37109s49.4792 -1.79036 73.2422 -5.37109v-79.1016zM890.625 300c0 -107.422 -38.2487 -199.382 -114.746 -275.879s-168.457 -114.746 -275.879 -114.746
s-199.382 38.2487 -275.879 114.746s-114.746 168.457 -114.746 275.879s38.2487 199.382 114.746 275.879c76.4974 76.4974 168.457 114.746 275.879 114.746s199.382 -38.2487 275.879 -114.746c76.4974 -76.4974 114.746 -168.457 114.746 -275.879zM835.938 300
c0 92.4479 -32.8776 171.549 -98.6328 237.305c-65.7552 65.7552 -144.857 98.6328 -237.305 98.6328c-92.4479 0 -171.549 -32.8776 -237.305 -98.6328c-65.7552 -65.7552 -98.6328 -144.857 -98.6328 -237.305s32.8776 -171.549 98.6328 -237.305
c65.7552 -65.7552 144.857 -98.6328 237.305 -98.6328c92.4479 0 171.549 32.8776 237.305 98.6328c65.7552 65.7552 98.6328 144.857 98.6328 237.305zM669.922 556.836l-19.043 -28.8086c-10.7422 7.16146 -20.3451 12.8581 -28.8086 17.0898l15.1367 30.2734
c13.0208 -6.51042 23.9258 -12.6953 32.7149 -18.5546zM775.391 437.207l-30.2734 -15.1367c-4.23177 8.78906 -9.92839 18.3919 -17.0898 28.8086l28.8086 19.043c5.85938 -8.78906 12.0443 -19.694 18.5546 -32.7149zM808.105 290.234
c0 1.30208 -0.16276 -1.79036 -0.488281 -9.27734l-34.1797 2.44141c0.651042 11.0677 0.651042 22.1354 0 33.2031l34.1797 2.44141c0.325521 -7.48698 0.488281 -10.5794 0.488281 -9.27734v-19.5312zM541.504 527.539h-22.4609v-281.738h-38.0859v281.738h-22.4609
l41.5039 83.0078zM377.93 545.117c-8.78906 -4.23177 -18.3919 -9.92839 -28.8086 -17.0898l-19.043 28.8086c8.78906 5.85938 19.694 12.0443 32.7148 18.5547zM775.391 162.793c-6.51042 -13.0208 -12.6953 -23.9258 -18.5547 -32.7148l-28.8086 19.043
c7.16146 10.4167 12.8581 20.0195 17.0898 28.8086zM271.973 450.879c-7.16146 -10.4167 -12.8581 -20.0195 -17.0898 -28.8086l-30.2734 15.1367c6.51042 13.0208 12.6953 23.9258 18.5547 32.7148zM669.922 43.1641c-8.78906 -5.85938 -19.694 -12.0443 -32.7148 -18.5547
l-15.1367 30.2734c8.78906 4.23177 18.3919 9.92839 28.8086 17.0898zM226.562 283.398l-34.1797 -2.44141c-0.325521 6.83594 -0.488281 9.76562 -0.488281 8.78906v20.0195c0 -1.30208 0.16276 1.79036 0.488281 9.27734l34.1797 -2.44141
c-0.651042 -11.0677 -0.651042 -22.1354 0 -33.2031zM519.043 -7.61719c-7.48698 -0.325521 -10.5794 -0.488281 -9.27734 -0.488281h-19.5312c1.30208 0 -1.79036 0.16276 -9.27734 0.488281l2.44141 34.1797c11.0677 -0.651042 22.1354 -0.651042 33.2031 0z
M271.973 149.121l-28.8086 -19.043c-5.85938 8.78906 -12.0443 19.694 -18.5547 32.7148l30.2734 15.1367c4.23177 -8.78906 9.92839 -18.3919 17.0899 -28.8085zM377.93 54.8828l-15.1367 -30.2734c-13.0208 6.51042 -23.9258 12.6953 -32.7148 18.5547l19.043 28.8086
c10.4167 -7.16146 20.0195 -12.8581 28.8086 -17.0898z" />
  </g>

</svg>
