<?xml version="1.0" standalone="no"?>
<!DOCTYPE svg PUBLIC "-//W3C//DTD SVG 1.1//EN" "http://www.w3.org/Graphics/SVG/1.1/DTD/svg11.dtd" >
<svg xmlns="http://www.w3.org/2000/svg" xmlns:xlink="http://www.w3.org/1999/xlink" version="1.1" viewBox="0 -200 1000 1000">
  <g transform="matrix(1 0 0 -1 0 800)">
   <path fill="currentColor"
d="M158.691 354.199v-24.4141h219.727v-37.1094l85.4492 49.3164l-85.4492 49.3164v-37.1094zM292.969 549.512h-61.0352v-61.0352h-36.6211v97.6562h97.6562zM585.938 586.133h97.6562v-97.6562h-36.6211v61.0352h-61.0352zM585.938 36.8164h61.0352v61.0352h36.6211
v-97.6562h-97.6562v36.6211zM512.695 0.195312h-146.484v36.6211h146.484v-36.6211zM646.973 195.508v195.312h36.6211v-195.312zM366.211 549.512v36.6211h134.277v61.0352h-415.039v-512.695h146.484v-97.6562h61.0352v-36.6211h-97.6562v97.6562h-146.484v585.938
h488.281v-134.277h-170.898v-0.0012zM341.797 390.82v63.9648l195.312 -112.793l-195.312 -112.793v63.9648h-109.863v-97.6562h-36.6211v97.6562h-73.2422v97.6562h219.727z" />
  </g>

</svg>
