<?xml version="1.0" standalone="no"?>
<!DOCTYPE svg PUBLIC "-//W3C//DTD SVG 1.1//EN" "http://www.w3.org/Graphics/SVG/1.1/DTD/svg11.dtd" >
<svg xmlns="http://www.w3.org/2000/svg" xmlns:xlink="http://www.w3.org/1999/xlink" version="1.1" viewBox="0 -200 1000 1000">
  <g transform="matrix(1 0 0 -1 0 800)">
   <path fill="currentColor"
d="M810.547 451.367h-40.0391v51.7578h-51.7578v40.0391h71.7773c13.3464 0 20.0195 -6.67318 20.0195 -20.0195zM810.547 289.258h-40.0391v109.375h40.0391v-109.375zM503.906 503.125h-109.375v40.0391h109.375v-40.0391zM810.547 127.148h-40.0391v109.375h40.0391
v-109.375zM810.547 -34.9609h-40.0391v109.375h40.0391v-109.375zM341.797 503.125h-51.7578v-51.7578h-40.0391v71.7773c0 13.3464 6.67318 20.0195 20.0195 20.0195h71.7773zM666.016 503.125h-109.375v40.0391h12.6953v155.273h-480.469v-642.578h161.133v18.5547
h40.0391v-109.375h-40.0391v50.7812h-181.152c-13.3464 0 -20.0195 6.67318 -20.0195 20.0195v682.617c0 13.3464 6.67318 20.0195 20.0195 20.0195h520.508c13.3464 0 20.0195 -6.67318 20.0195 -20.0195v-175.293h56.6406v-40.0391zM628.906 163.281l-207.52 -23.9258
l43.457 76.1719c-65.7552 45.2474 -124.023 73.2422 -174.805 83.9844v-10.2539h-40.0391v16.1133c-23.4375 2.60417 -48.6654 3.58073 -75.6836 2.92969v72.7539c5.85938 0.325521 16.1133 0.488281 30.7617 0.488281c13.9974 0 28.9714 -0.813802 44.9219 -2.44141
v19.5312h40.0391v-24.9023c69.0104 -13.3464 141.276 -44.1081 216.797 -92.2852l40.5273 70.8008zM810.547 -159.473c0 -13.3464 -6.67318 -20.0195 -20.0195 -20.0195h-71.7773v40.0391h51.7578v51.7578h40.0391zM290.039 127.148h-40.0391v109.375h40.0391v-109.375z
M666.016 -179.492h-109.375v40.0391h109.375v-40.0391zM503.906 -179.492h-109.375v40.0391h109.375v-40.0391zM341.797 -179.492h-71.7773c-13.3464 0 -20.0195 6.67318 -20.0195 20.0195v71.7773h40.0391v-51.7578h51.7578z" />
  </g>

</svg>
