<?xml version="1.0" standalone="no"?>
<!DOCTYPE svg PUBLIC "-//W3C//DTD SVG 1.1//EN" "http://www.w3.org/Graphics/SVG/1.1/DTD/svg11.dtd" >
<svg xmlns="http://www.w3.org/2000/svg" xmlns:xlink="http://www.w3.org/1999/xlink" version="1.1" viewBox="0 -200 1000 1000">
  <g transform="matrix(1 0 0 -1 0 800)">
   <path fill="currentColor"
d="M100.586 293.164l246.094 -246.094l245.605 246.094h51.7578l-297.363 -297.852l-297.852 297.852h51.7578h0.0004zM257.811 395.896c0 -10.4167 4.16667 -19.1403 12.5 -26.1709c8.33333 -7.03125 18.1641 -12.4349 29.4922 -16.2109
c11.3275 -3.77604 25.1943 -5.66406 41.6006 -5.66406c16.9271 0 31.0544 1.88802 42.3818 5.66406c11.3281 3.77604 21.1589 9.17969 29.4922 16.2109c8.33333 7.0306 12.5 14.4521 12.5 22.2646v67.1865c-4.16667 -2.34375 -8.33333 -4.42676 -12.5 -6.24902
c-20.8333 -8.85482 -44.6611 -13.2822 -71.4834 -13.2822c-16.666 0 -30.6631 -1.8877 -41.9912 -5.66309c-11.3281 -3.77604 -21.1589 -9.17969 -29.4922 -16.2109c-8.33268 -7.03125 -12.4993 -14.3229 -12.5 -21.875zM425.777 542.378
c0 10.1562 -4.16667 18.7497 -12.5 25.7803c-8.33333 7.03125 -18.1641 12.4349 -29.4922 16.2109c-11.3275 3.77604 -25.1943 5.66406 -41.6006 5.66406c-16.9271 0 -31.0544 -1.88802 -42.3818 -5.66406c-11.3281 -3.77604 -21.1589 -9.17969 -29.4922 -16.2109
c-8.33333 -7.0306 -12.5 -14.3219 -12.5 -21.874h-58.5928c0 17.7077 8.00781 34.7646 24.0234 51.1709s33.0726 29.0361 51.1709 37.8896c18.099 8.85417 40.6898 13.2812 67.7725 13.2812c26.5618 0 50.1943 -4.42708 70.8975 -13.2812
c20.7025 -8.85352 37.7594 -21.4834 51.1709 -37.8896s20.1172 -34.7653 20.1172 -55.0771v-249.215h-58.5928v18.749c-5.46875 -3.38477 -10.9375 -6.50977 -16.4062 -9.375c-18.2292 -8.85352 -40.8851 -13.2803 -67.9678 -13.2803
c-26.5618 0 -50.1943 4.42676 -70.8975 13.2803c-20.7025 8.85417 -37.7594 21.4844 -51.1709 37.8906c-13.4108 16.4056 -20.1162 34.8949 -20.1162 55.4678c0 17.7083 6.7054 34.7653 20.1162 51.1709c13.4115 16.4062 30.4684 29.0365 51.1709 37.8906
c20.7031 8.85352 44.4658 13.2803 71.2881 13.2803c16.6667 0 30.6641 1.88835 41.9922 5.66504c11.3281 3.77539 21.1589 9.17871 29.4922 16.21c8.33268 7.03125 12.499 14.4531 12.499 22.2657z" />
  </g>

</svg>
