<?xml version="1.0" standalone="no"?>
<!DOCTYPE svg PUBLIC "-//W3C//DTD SVG 1.1//EN" "http://www.w3.org/Graphics/SVG/1.1/DTD/svg11.dtd" >
<svg xmlns="http://www.w3.org/2000/svg" xmlns:xlink="http://www.w3.org/1999/xlink" version="1.1" viewBox="0 -200 1000 1000">
  <g transform="matrix(1 0 0 -1 0 800)">
   <path fill="currentColor"
d="M990.723 300c0 -5.20833 -1.6276 -9.4401 -4.88281 -12.6953l-451.66 -451.66c-3.58073 -3.58073 -7.97526 -5.37109 -13.1836 -5.37109c-5.53385 0 -10.0911 1.79036 -13.6719 5.37109l-338.379 338.379h56.6406l295.41 -294.922l420.898 420.898l-421.875 421.875
l-295.41 -295.41l-56.6406 0.488281l339.355 338.867c3.25521 3.25521 7.48698 4.88281 12.6953 4.88281s9.4401 -1.6276 12.6953 -4.88281l452.637 -452.148c3.58073 -3.58073 5.37109 -8.13802 5.37171 -13.672zM651.855 300
c0 -7.48698 -5.20833 -13.6719 -15.625 -18.5547c-37.7604 -17.2526 -68.8477 -36.2956 -93.2617 -57.1289c-20.5078 -17.5781 -44.9219 -44.4336 -73.2422 -80.5664c-5.85938 -7.48698 -12.0443 -11.2305 -18.5547 -11.2305c-11.7188 0 -17.5781 7.64974 -17.5781 22.9492
v66.8945h-369.629c-19.8568 0 -29.7852 9.60286 -29.7852 28.8086v97.6562c0 19.2057 9.92839 28.8086 29.7852 28.8086l369.629 -0.488281v67.3828c0 15.2995 5.85938 22.9492 17.5781 22.9492c6.51042 0 12.6953 -3.74349 18.5547 -11.2305
c28.3203 -36.1328 52.7344 -62.9883 73.2422 -80.5664c24.4141 -20.8333 55.5013 -39.8763 93.2617 -57.1289c10.4167 -4.88281 15.625 -11.0677 15.625 -18.5545zM582.52 300c-43.9453 24.0885 -80.2409 52.8971 -108.887 86.4258v-14.6484
c0 -9.76562 -3.58073 -17.9036 -10.7422 -24.4141s-15.2995 -9.76562 -24.4141 -9.76562h-364.258v-75.1953h364.258c9.11458 0 17.2526 -3.25521 24.4141 -9.76562c7.16146 -6.51042 10.7422 -14.6484 10.7422 -24.4141v-14.6484
c28.6458 33.5286 64.9414 62.3372 108.887 86.4257z" />
  </g>

</svg>
