<?xml version="1.0" standalone="no"?>
<!DOCTYPE svg PUBLIC "-//W3C//DTD SVG 1.1//EN" "http://www.w3.org/Graphics/SVG/1.1/DTD/svg11.dtd" >
<svg xmlns="http://www.w3.org/2000/svg" xmlns:xlink="http://www.w3.org/1999/xlink" version="1.1" viewBox="0 -200 1000 1000">
  <g transform="matrix(1 0 0 -1 0 800)">
   <path fill="currentColor"
d="M557.617 174.512c0 -29.2969 -10.498 -54.4434 -31.4941 -75.4395s-46.1426 -31.4941 -75.4395 -31.4941s-54.4434 10.498 -75.4395 31.4941s-31.4941 46.1426 -31.4941 75.4395v66.4062h-123.047v-66.4062c0 -29.2969 -10.498 -54.4434 -31.4941 -75.4395
s-46.1426 -31.4941 -75.4395 -31.4941s-54.4434 10.498 -75.4395 31.4941s-31.4941 46.1426 -31.4941 75.4395s10.498 54.4434 31.4941 75.4395s46.1426 31.4941 75.4395 31.4941h66.4062v123.047h-66.4062c-29.2969 0 -54.4434 10.498 -75.4395 31.4941
s-31.4941 46.1426 -31.4941 75.4395s10.498 54.4434 31.4941 75.4395s46.1426 31.4941 75.4395 31.4941c29.2969 0 54.4434 -10.498 75.4395 -31.4941s31.4941 -46.1426 31.4941 -75.4395v-66.4062h123.047v66.4062c0 29.2969 10.498 54.4434 31.4941 75.4395
s46.1426 31.4941 75.4395 31.4941s54.4434 -10.498 75.4395 -31.4941c20.9961 -20.9961 31.4941 -46.1426 31.4941 -75.4395s-10.498 -54.4434 -31.4941 -75.4395s-46.1426 -31.4941 -75.4395 -31.4941h-66.4062v-123.047h66.4062
c29.2969 0 54.4434 -10.498 75.4395 -31.4941c20.9961 -20.9961 31.4941 -46.1426 31.4941 -75.4395zM517.578 511.426c0 18.2292 -6.5918 33.9355 -19.7754 47.1191s-28.89 19.7754 -47.1191 19.7754c-18.5547 0 -34.2611 -6.51042 -47.1191 -19.5312
s-19.2871 -28.8086 -19.2871 -47.3633v-66.4062h66.4062c18.2292 0 33.9355 6.51042 47.1191 19.5312s19.7754 28.6458 19.7754 46.875zM180.176 445.02v66.4062c0 18.2292 -6.51042 33.9355 -19.5312 47.1191s-28.6458 19.7754 -46.875 19.7754
s-33.9355 -6.5918 -47.1191 -19.7754s-19.7754 -28.89 -19.7754 -47.1191c0 -18.5547 6.51042 -34.2611 19.5312 -47.1191c13.0208 -12.8581 28.8086 -19.2871 47.3633 -19.2871h66.4062zM343.75 281.445v123.047h-123.047v-123.047zM517.578 174.512
c0 18.2292 -6.51042 33.8542 -19.5312 46.875s-28.8086 19.5312 -47.3633 19.5312h-66.4062v-66.4062c0 -18.2292 6.51042 -33.9355 19.5312 -47.1191s28.6458 -19.7754 46.875 -19.7754s33.9355 6.5918 47.1191 19.7754c13.1836 13.1836 19.7754 28.89 19.7754 47.1191z
M180.176 174.512v66.4062h-66.4062c-18.2292 0 -33.9355 -6.51042 -47.1191 -19.5312s-19.7754 -28.6458 -19.7754 -46.875s6.5918 -33.9355 19.7754 -47.1191c13.1836 -13.1836 28.89 -19.7754 47.1191 -19.7754c18.2292 0 33.8542 6.5918 46.875 19.7754
c13.0208 13.1836 19.5312 28.89 19.5312 47.1191z" />
  </g>

</svg>
