<?xml version="1.0" standalone="no"?>
<!DOCTYPE svg PUBLIC "-//W3C//DTD SVG 1.1//EN" "http://www.w3.org/Graphics/SVG/1.1/DTD/svg11.dtd" >
<svg xmlns="http://www.w3.org/2000/svg" xmlns:xlink="http://www.w3.org/1999/xlink" version="1.1" viewBox="0 -200 1000 1000">
  <g transform="matrix(1 0 0 -1 0 800)">
   <path fill="currentColor"
d="M741.211 300c0 -97.0052 -34.4238 -180.094 -103.271 -249.268s-151.774 -103.76 -248.779 -103.76s-180.094 34.5866 -249.268 103.76c-69.1732 69.1732 -103.76 152.262 -103.76 249.268c0 97.6562 34.4238 180.908 103.271 249.756
c68.8472 68.848 152.1 103.271 249.756 103.271c97.3307 0 180.339 -34.5052 249.023 -103.516c68.6849 -69.0104 103.027 -152.181 103.027 -249.512zM700.684 320.02c-5.20833 81.7057 -37.8418 150.96 -97.9004 207.764
c-60.0586 56.8034 -131.266 85.2051 -213.623 85.2051c-83.0078 0 -154.541 -28.3203 -214.6 -84.9609s-92.6921 -125.977 -97.9004 -208.008h117.676c7.48698 0 13.1836 -3.25521 17.0898 -9.76562l177.246 -288.086l177.246 288.086
c3.90625 6.51042 9.60286 9.76562 17.0898 9.76562zM700.684 279.98h-106.445l-179.688 -291.992c76.8229 6.1849 142.497 37.1094 197.021 92.7734c54.524 55.664 84.2285 122.07 89.1113 199.219zM362.793 -12.0117l-179.688 291.992h-106.445
c4.88281 -76.8229 34.5866 -143.066 89.1113 -198.73s120.199 -86.7513 197.021 -93.2617z" />
  </g>

</svg>
