<?xml version="1.0" standalone="no"?>
<!DOCTYPE svg PUBLIC "-//W3C//DTD SVG 1.1//EN" "http://www.w3.org/Graphics/SVG/1.1/DTD/svg11.dtd" >
<svg xmlns="http://www.w3.org/2000/svg" xmlns:xlink="http://www.w3.org/1999/xlink" version="1.1" viewBox="0 -200 1000 1000">
  <g transform="matrix(1 0 0 -1 0 800)">
   <path fill="currentColor"
d="M747.559 341.504c0 -97.0052 -34.0169 -179.525 -102.051 -247.559c-68.0339 -68.0339 -150.716 -102.051 -248.047 -102.051s-180.013 34.0169 -248.047 102.051c-68.0339 68.0339 -102.051 150.553 -102.051 247.559c0 97.3307 34.0983 180.013 102.295 248.047
c68.1966 68.0339 150.798 102.051 247.803 102.051c97.3307 0 180.013 -34.0169 248.047 -102.051s102.051 -150.716 102.051 -248.047zM713.379 341.504c0 87.8906 -30.6803 162.516 -92.041 223.877c-61.3607 61.3607 -135.986 92.041 -223.877 92.041
c-87.5651 0 -162.109 -30.6803 -223.633 -92.041c-61.5234 -61.3607 -92.2852 -135.986 -92.2852 -223.877c0 -87.5651 30.6803 -162.028 92.041 -223.389c61.3607 -61.3607 135.986 -92.041 223.877 -92.041s162.516 30.6803 223.877 92.041
c61.3607 61.3607 92.041 135.824 92.0412 223.389zM701.172 341.504c0 -84.3099 -29.4596 -156.006 -88.3789 -215.088s-130.697 -88.623 -215.332 -88.623s-156.413 29.541 -215.332 88.623c-58.919 59.082 -88.3789 130.778 -88.3789 215.088
s29.541 156.087 88.623 215.332c59.082 59.2448 130.778 88.8672 215.088 88.8672c84.6354 0 156.413 -29.541 215.332 -88.623s88.3789 -130.941 88.3788 -215.576zM694.824 336.621c3.58073 0 5.37109 1.6276 5.37109 4.88281
c0 3.58073 -1.79036 5.37109 -5.37109 5.37109h-19.043c-0.976562 46.5495 -12.3698 89.8438 -34.1797 129.883l16.1133 9.27734c2.92969 1.6276 3.58073 3.90625 1.95312 6.83594c-1.95312 2.92969 -4.39453 3.58073 -7.32422 1.95312l-16.1133 -9.27734
c-23.763 39.7135 -55.5013 71.2891 -95.2148 94.7266l9.76562 16.6016c1.6276 2.92969 0.976562 5.20833 -1.95312 6.83594s-5.20833 0.976562 -6.83594 -1.95312l-9.76562 -16.1133c-40.0391 22.1354 -83.1706 33.5286 -129.395 34.1797l-0.488281 19.5312
c0 3.25521 -1.6276 4.88281 -4.88281 4.88281c-3.58073 0 -5.37109 -1.6276 -5.37109 -4.88281l0.488281 -19.5312c-46.5495 -0.651042 -89.8438 -12.0443 -129.883 -34.1797l-9.76562 16.1133c-1.6276 2.92969 -3.90625 3.58073 -6.83594 1.95312
s-3.58073 -3.90625 -1.95312 -6.83594l9.76562 -16.6016c-39.7135 -23.763 -71.4518 -55.3385 -95.2148 -94.7266l-16.1133 9.27734c-2.92969 1.6276 -5.37109 0.976562 -7.32422 -1.95312c-1.6276 -2.92969 -0.976562 -5.20833 1.95312 -6.83594l16.6016 -9.27734
c-22.1354 -40.3646 -33.6914 -83.6589 -34.668 -129.883h-19.043c-3.58073 0 -5.37109 -1.79036 -5.37109 -5.37109c0 -3.25521 1.79036 -4.88281 5.37109 -4.88281h19.043c0.976562 -46.5495 12.3698 -89.8438 34.1797 -129.883l-16.1133 -9.27734
c-2.92969 -1.6276 -3.58073 -3.90625 -1.95312 -6.83594c1.95312 -3.25521 4.39453 -3.90625 7.32422 -1.95312l16.1133 9.27734c23.763 -39.7135 55.5013 -71.4518 95.2148 -95.2148l-9.76562 -16.1133c-1.6276 -2.92969 -0.976562 -5.20833 1.95312 -6.83594
c2.92969 -1.95312 5.20833 -1.30208 6.83594 1.95312l9.76562 16.1133c40.0391 -22.1354 83.3333 -33.5286 129.883 -34.1797l-0.488281 -19.5312c0 -3.25521 1.79036 -4.88281 5.37109 -4.88281c3.25521 0 4.88281 1.6276 4.88281 4.88281l0.488281 19.5312
c46.224 0.651042 89.3555 12.0443 129.395 34.1797l9.76562 -16.1133c1.6276 -3.25521 3.90625 -3.90625 6.83594 -1.95312c2.92969 1.6276 3.58073 3.90625 1.95312 6.83594l-9.76562 16.1133c39.7135 23.763 71.4518 55.5013 95.2148 95.2148l16.1133 -9.27734
c2.92969 -1.95312 5.37109 -1.30208 7.32422 1.95312c1.6276 2.92969 0.976562 5.20833 -1.95312 6.83594l-16.1133 9.27734c21.8099 40.0391 33.2031 83.3333 34.1797 129.883zM625 339.062h-80.0781c-0.651042 -24.7396 -6.67318 -47.8516 -18.0664 -69.3359
l68.8477 -39.5508c1.30208 -0.976562 1.6276 -2.11589 0.976562 -3.41797c-0.976562 -1.30208 -2.11589 -1.6276 -3.41797 -0.976562l-68.8477 40.0391c-12.6953 -21.4844 -29.6224 -38.4115 -50.7812 -50.7812l39.5508 -69.3359
c0.976562 -1.30208 0.651042 -2.27865 -0.976562 -2.92969c-1.30208 -0.976562 -2.27865 -0.813802 -2.92969 0.488281l-40.0391 69.3359c-21.4844 -11.7188 -44.5964 -17.7409 -69.3359 -18.0664v-80.5664c0 -1.30208 -0.813802 -1.95312 -2.44141 -1.95312
s-2.44141 0.651042 -2.44141 1.95312v80.5664c-24.7396 0.325521 -47.8516 6.34766 -69.3359 18.0664l-40.0391 -69.3359c-0.651042 -1.30208 -1.6276 -1.46484 -2.92969 -0.488281c-1.6276 0.651042 -1.95312 1.6276 -0.976562 2.92969l39.5508 69.3359
c-14.974 8.78906 -27.832 20.0195 -38.5742 33.6914l-1.46484 -0.976562c-8.13802 -4.88281 -30.7617 -9.92839 -67.8711 -15.1367l-11.7188 -6.83594c-1.6276 0.976562 -2.44141 2.44141 -2.44141 4.39453l11.7188 6.34766l21.4844 28.3203
c8.78906 10.7422 17.2526 18.3919 25.3906 22.9492l1.95312 0.976562c-6.1849 16.276 -9.4401 33.0404 -9.76562 50.293h-80.0781c-1.30208 0 -2.11589 0.813802 -2.44141 2.44141c0.325521 1.6276 1.13932 2.44141 2.44141 2.44141h80.0781
c0.651042 25.0651 6.83594 48.1771 18.5547 69.3359l-69.3359 40.0391c-1.30208 0.976562 -1.6276 2.11589 -0.976562 3.41797c0.976562 1.30208 2.11589 1.6276 3.41797 0.976562l69.3359 -40.0391c12.3698 21.1589 29.2969 38.0859 50.7812 50.7812l-40.0391 68.8477
c-0.976562 1.6276 -0.651042 2.76693 0.976562 3.41797c1.30208 0.976562 2.27865 0.651042 2.92969 -0.976562l40.0391 -68.8477c16.6016 9.11458 34.5052 14.8112 53.7109 17.0898c-1.30208 19.2057 -1.95312 37.5977 -1.95312 55.1758
c0 24.4141 6.67318 47.6888 20.0195 69.8242c13.3464 -22.1354 20.0195 -45.4102 20.0195 -69.8242c0 -17.5781 -0.651042 -35.9701 -1.95312 -55.1758c19.2057 -2.27865 37.1094 -7.97526 53.7109 -17.0898l40.0391 68.8477
c0.651042 1.6276 1.6276 1.95312 2.92969 0.976562c1.6276 -0.651042 1.95312 -1.79036 0.976562 -3.41797l-39.5508 -68.8477c21.1589 -12.6953 38.0859 -29.6224 50.7812 -50.7812l68.8477 40.0391c1.30208 0.651042 2.44141 0.325521 3.41797 -0.976562
c0.651042 -1.30208 0.325521 -2.44141 -0.976562 -3.41797l-68.8477 -40.0391c11.3932 -21.1589 17.4154 -44.2708 18.0664 -69.3359h80.0781c1.30208 0 2.11589 -0.813802 2.44141 -2.44141c-0.325521 -1.6276 -1.13932 -2.44141 -2.44131 -2.44153zM540.039 341.504
c0 36.7839 -11.8815 68.5221 -35.6445 95.2148c-23.763 26.6927 -53.5482 42.1549 -89.3555 46.3867c-1.95312 -33.5286 -6.34766 -74.707 -13.1836 -123.535c9.4401 -1.6276 14.1602 -7.64974 14.1602 -18.0664c0 -12.0443 -6.1849 -18.0664 -18.5547 -18.0664
c-5.20833 0 -9.4401 1.46484 -12.6953 4.39453c-21.8099 -18.8802 -54.5247 -44.4336 -98.1445 -76.6602c28.3203 -34.8307 65.2669 -52.2461 110.84 -52.2461c40.0391 0 73.8118 13.8346 101.318 41.5039c27.5065 27.6693 41.2598 61.3607 41.2599 101.074zM393.066 359.57
c-6.83594 48.8281 -11.2305 90.0065 -13.1836 123.535c-35.8073 -4.23177 -65.5924 -19.694 -89.3555 -46.3867s-35.6445 -58.431 -35.6445 -95.2148c0 -17.5781 2.92969 -34.3424 8.78906 -50.293c17.9036 9.76562 56.4779 25.2279 115.723 46.3867
c-0.325521 1.30208 -0.488281 2.60417 -0.488281 3.90625c0 10.4167 4.72005 16.4388 14.1602 18.0664z" />
  </g>

</svg>
