<?xml version="1.0" standalone="no"?>
<!DOCTYPE svg PUBLIC "-//W3C//DTD SVG 1.1//EN" "http://www.w3.org/Graphics/SVG/1.1/DTD/svg11.dtd" >
<svg xmlns="http://www.w3.org/2000/svg" xmlns:xlink="http://www.w3.org/1999/xlink" version="1.1" viewBox="0 -200 1124 1000">
  <g transform="matrix(1 0 0 -1 0 800)">
   <path fill="currentColor"
d="M1123.05 41.2109c0 -16.9271 -8.78906 -25.3906 -26.3672 -25.3906h-742.188c-7.48698 0 -17.4154 6.1849 -29.7852 18.5547l-277.344 277.344c-9.76562 9.76562 -14.6484 19.2057 -14.6484 28.3203s4.88281 18.5547 14.6484 28.3203l277.344 277.832
c11.7188 11.3932 21.6471 17.0898 29.7852 17.0898h742.188c17.5781 0 26.3672 -8.78906 26.3672 -26.3672v-595.703v-0.0003zM1071.29 67.5781v543.945h-714.355l-271.484 -271.484l272.461 -272.461zM995.605 586.621c0 -7.8125 -5.53385 -17.2526 -16.6016 -28.3203
l-218.262 -218.262l218.262 -218.262c11.0677 -11.0677 16.6016 -20.5078 16.6016 -28.3203c0 -5.53385 -2.44141 -10.7422 -7.32422 -15.625s-10.2539 -7.32422 -16.1133 -7.32422c-7.48698 0 -16.7643 5.53385 -27.832 16.6016l-218.262 218.262l-218.262 -218.262
c-11.0677 -11.0677 -20.5078 -16.6016 -28.3203 -16.6016c-5.53385 0 -10.7422 2.44141 -15.625 7.32422s-7.32422 10.0911 -7.32422 15.625c0 7.8125 5.53385 17.2526 16.6016 28.3203l218.262 218.262l-218.262 218.262
c-11.0677 11.0677 -16.6016 20.5078 -16.6016 28.3203c0 5.53385 2.44141 10.7422 7.32422 15.625s10.0911 7.32422 15.625 7.32422c7.8125 0 17.2526 -5.53385 28.3203 -16.6016l218.262 -218.262l218.262 218.262c11.0677 11.0677 20.3451 16.6016 27.832 16.6016
c5.85938 0 11.2305 -2.44141 16.1133 -7.32422s7.32422 -10.0911 7.32422 -15.625z" />
  </g>

</svg>
