<?xml version="1.0" standalone="no"?>
<!DOCTYPE svg PUBLIC "-//W3C//DTD SVG 1.1//EN" "http://www.w3.org/Graphics/SVG/1.1/DTD/svg11.dtd" >
<svg xmlns="http://www.w3.org/2000/svg" xmlns:xlink="http://www.w3.org/1999/xlink" version="1.1" viewBox="0 -201 1000 1000">
  <g transform="matrix(1 0 0 -1 0 800)">
   <path fill="currentColor"
d="M581.543 91.5039v-6.83594c-0.325521 -2.92969 -0.488281 -5.20833 -0.488281 -6.83594c0 -3.25521 -2.76693 -6.1849 -8.30078 -8.78906c-63.4766 -28.9714 -115.234 -63.6393 -155.273 -104.004c-37.7604 -38.0859 -66.7318 -79.1016 -86.9141 -123.047
c-13.0208 -27.9948 -21.4844 -41.9922 -25.3906 -41.9922s-12.3698 13.9974 -25.3906 41.9922c-20.1823 43.9453 -49.1536 84.9609 -86.9141 123.047c-40.0391 40.3646 -91.7969 75.0326 -155.273 104.004c-5.53385 2.60417 -8.30078 5.53385 -8.30078 8.78906v6.83594
c-0.325521 2.92969 -0.488281 5.20833 -0.488281 6.83594c0 11.7188 3.90625 17.5781 11.7188 17.5781h135.254c8.46354 0 12.6953 4.39453 12.6953 13.1836v355.469c0 8.78906 -4.23177 13.1836 -12.6953 13.1836h-135.254c-7.8125 0 -11.7188 5.85938 -11.7188 17.5781
c0 1.6276 0.16276 3.90625 0.488281 6.83594v6.83594c0 3.25521 2.76693 6.1849 8.30078 8.78906c63.4766 28.9714 115.234 63.6393 155.273 104.004c37.7604 38.0859 66.7318 79.1016 86.9141 123.047c13.0208 27.9948 21.4844 41.9922 25.3906 41.9922
s12.3698 -13.9974 25.3906 -41.9922c20.1823 -43.9453 49.1536 -84.9609 86.9141 -123.047c40.0391 -40.3646 91.7969 -75.0326 155.273 -104.004c5.53385 -2.60417 8.30078 -5.53385 8.30078 -8.78906c0 -1.6276 0.16276 -3.90625 0.488281 -6.83594v-6.83594
c0 -11.7188 -3.90625 -17.5781 -11.7188 -17.5781h-135.254c-8.46354 0 -12.6953 -4.39453 -12.6953 -13.1836v-355.469c0 -8.78906 4.23177 -13.1836 12.6953 -13.1836h135.254c7.8125 0 11.7188 -5.85938 11.7188 -17.5781zM489.746 69.043h-88.8672
c-12.6953 0 -19.043 6.67318 -19.043 20.0195v421.875c0 13.3464 6.34766 20.0195 19.043 20.0195h88.8672c-82.6823 53.7109 -144.206 118.001 -184.57 192.871c-40.3646 -74.8698 -101.888 -139.16 -184.57 -192.871h88.8672c12.6953 0 19.043 -6.67318 19.043 -20.0195
v-421.875c0 -13.3464 -6.34766 -20.0195 -19.043 -20.0195h-88.8672c82.6823 -53.7109 144.206 -118.001 184.57 -192.871c40.3646 74.8698 101.888 139.16 184.57 192.871z" />
  </g>

</svg>
