<?xml version="1.0" standalone="no"?>
<!DOCTYPE svg PUBLIC "-//W3C//DTD SVG 1.1//EN" "http://www.w3.org/Graphics/SVG/1.1/DTD/svg11.dtd" >
<svg xmlns="http://www.w3.org/2000/svg" xmlns:xlink="http://www.w3.org/1999/xlink" version="1.1" viewBox="0 -200 1000 1000">
  <g transform="matrix(1 0 0 -1 0 800)">
   <path fill="currentColor"
d="M525.879 263.867c10.7422 25.0651 16.1133 51.1068 16.1133 78.125s-5.37109 53.0599 -16.1133 78.125l-135.742 -78.125zM335.449 154.98v155.273l-135.742 -78.125c15.625 -22.7865 35.8073 -40.6901 60.5469 -53.7109
c24.4141 -13.0208 49.4792 -20.8333 75.1953 -23.4375zM182.617 263.867l135.254 78.125l-135.254 78.125c-11.0677 -25.0651 -16.6016 -51.1068 -16.6016 -78.125s5.53385 -53.0599 16.6016 -78.125zM199.707 451.855l135.742 -78.125v155.273
c-25.7161 -2.60417 -50.7812 -10.2539 -75.1953 -22.9492c-24.7396 -13.3464 -44.9219 -31.4128 -60.5469 -54.1992zM372.07 529.004v-155.762l136.23 78.6133c-15.2995 22.7865 -35.1562 40.8529 -59.5703 54.1992c-24.7396 13.0208 -50.293 20.6706 -76.6602 22.9492z
M508.301 232.129l-136.23 78.6133v-155.762c26.3672 2.27865 51.9206 10.0911 76.6602 23.4375c24.4141 13.0208 44.2708 30.9245 59.5703 53.7109zM557.617 245.312l101.562 -58.5938l-18.5547 -31.25l-100.586 58.1055
c-18.5547 -28.3203 -42.9688 -50.6185 -73.2422 -66.8945c-30.599 -16.6016 -62.1745 -26.2044 -94.7266 -28.8086v-117.676h-36.6211v118.164c-32.2266 2.60417 -63.3138 12.0443 -93.2617 28.3203c-30.599 16.276 -55.3385 38.5742 -74.2188 66.8945l-100.586 -58.1055
l-18.5547 31.25l102.051 58.5938c-14.3229 31.25 -21.4844 63.4766 -21.4844 96.6797s7.16146 65.4297 21.4844 96.6797l-102.051 58.5938l18.5547 31.25l100.586 -58.1055c18.8802 28.3203 43.6198 50.7812 74.2188 67.3828
c29.9479 15.9505 61.0352 25.2279 93.2617 27.832v118.164h36.6211v-117.676c32.5521 -2.60417 64.1276 -12.0443 94.7266 -28.3203c30.2734 -16.6016 54.6875 -39.0625 73.2422 -67.3828l100.586 58.1055l18.5547 -31.25l-101.562 -58.5938
c13.9974 -31.25 20.9961 -63.4766 20.9961 -96.6797s-6.9987 -65.4297 -20.9961 -96.6797v0.0006z" />
  </g>

</svg>
