<?xml version="1.0" standalone="no"?>
<!DOCTYPE svg PUBLIC "-//W3C//DTD SVG 1.1//EN" "http://www.w3.org/Graphics/SVG/1.1/DTD/svg11.dtd" >
<svg xmlns="http://www.w3.org/2000/svg" xmlns:xlink="http://www.w3.org/1999/xlink" version="1.1" viewBox="0 -200 1000 1000">
  <g transform="matrix(1 0 0 -1 0 800)">
   <path fill="currentColor"
d="M100.342 595.166c-9.92839 -18.3919 -14.8926 -37.679 -14.8926 -57.8613s4.96419 -39.4694 14.8926 -57.8613s24.1699 -32.4707 42.7246 -42.2363s37.5977 -14.6484 57.1289 -14.6484h114.746v114.746c0 20.1823 -4.88281 39.4694 -14.6484 57.8613
s-23.8444 32.4707 -42.2363 42.2363c-18.3919 9.76562 -37.679 14.6484 -57.8613 14.6484c-19.5312 0 -38.5742 -4.88281 -57.1289 -14.6484s-32.7962 -23.8444 -42.7246 -42.2363zM690.674 88.8184c9.92839 18.3919 14.8926 37.679 14.8926 57.8613
s-4.96419 39.4694 -14.8926 57.8613s-24.1699 32.4707 -42.7246 42.2363c-18.5547 9.7656 -37.5977 14.6484 -57.1289 14.6484h-114.746v-114.746c0 -20.1823 4.88281 -39.4694 14.6484 -57.8613s23.8444 -32.4707 42.2363 -42.2363s37.679 -14.6484 57.8613 -14.6484
c19.5312 0 38.5742 4.88281 57.1289 14.6484s32.7962 23.8444 42.7246 42.2363zM200.195 31.9336c20.1823 0 39.4694 4.88281 57.8613 14.6484c18.3919 9.76562 32.4707 23.8444 42.2363 42.2363s14.6484 37.679 14.6484 57.8613v114.746h-114.746
c-19.5312 0 -38.5742 -4.88281 -57.1289 -14.6484s-32.7962 -23.8444 -42.7246 -42.2363s-14.8926 -37.679 -14.8926 -57.8613s4.96419 -39.4694 14.8926 -57.8613s24.1699 -32.4707 42.7246 -42.2363c18.5547 -9.7656 37.5977 -14.6484 57.1289 -14.6484zM590.82 652.051
c-20.1823 0 -39.4694 -4.88281 -57.8613 -14.6484s-32.4707 -23.8444 -42.2363 -42.2363s-14.6484 -37.679 -14.6484 -57.8613v-114.746h114.746c19.5312 0 38.5742 4.88281 57.1289 14.6484s32.7962 23.8444 42.7246 42.2363s14.8926 37.679 14.8926 57.8613
s-4.96419 39.4694 -14.8926 57.8613s-24.1699 32.4707 -42.7246 42.2363s-37.5977 14.6484 -57.1289 14.6484zM351.562 385.938v-87.8906h87.8906v87.8906h-87.8906zM314.941 385.938h-114.746c-26.0417 0 -51.1882 6.51042 -75.4395 19.5312
c-24.2513 13.0208 -42.9688 31.6569 -56.1523 55.9082s-19.7754 49.5605 -19.7754 75.9277s6.5918 51.6764 19.7754 75.9277c13.1836 24.2513 31.901 42.8874 56.1523 55.9082s49.3978 19.5312 75.4395 19.5312c26.3672 0 51.6764 -6.51042 75.9277 -19.5312
c24.2513 -13.0208 42.8874 -31.6569 55.9082 -55.9082s19.5312 -49.5605 19.5312 -75.9277v-114.746h87.8906v114.746c0 26.3672 6.51042 51.6764 19.5312 75.9277s31.6569 42.8874 55.9082 55.9082c24.2513 13.0208 49.5605 19.5312 75.9277 19.5312
c26.0417 0 51.1882 -6.51042 75.4395 -19.5312s42.9688 -31.6569 56.1523 -55.9082s19.7754 -49.5605 19.7754 -75.9277s-6.5918 -51.6764 -19.7754 -75.9277s-31.901 -42.8874 -56.1523 -55.9082s-49.3978 -19.5312 -75.4395 -19.5312h-114.746v-87.8906h114.746
c26.0417 0 51.1882 -6.51042 75.4395 -19.5312s42.9688 -31.6569 56.1523 -55.9082s19.7754 -49.5605 19.7754 -75.9277s-6.5918 -51.6764 -19.7754 -75.9277s-31.901 -42.8874 -56.1523 -55.9082c-24.2513 -13.0208 -49.3978 -19.5312 -75.4395 -19.5312
c-26.3672 0 -51.6764 6.51042 -75.9277 19.5312c-24.2513 13.0208 -42.8874 31.6569 -55.9082 55.9082s-19.5312 49.5605 -19.5312 75.9277v114.746h-87.8906v-114.746c0 -26.3672 -6.51042 -51.6764 -19.5312 -75.9277s-31.6569 -42.8874 -55.9082 -55.9082
c-24.2513 -13.0208 -49.5605 -19.5312 -75.9277 -19.5312c-26.0417 0 -51.1882 6.51042 -75.4395 19.5312c-24.2513 13.0208 -42.9688 31.6569 -56.1523 55.9082s-19.7754 49.5605 -19.7754 75.9277s6.5918 51.6764 19.7754 75.9277
c13.1836 24.2513 31.901 42.8874 56.1523 55.9082s49.3978 19.5312 75.4395 19.5312h114.746z" />
  </g>

</svg>
