<?xml version="1.0" standalone="no"?>
<!DOCTYPE svg PUBLIC "-//W3C//DTD SVG 1.1//EN" "http://www.w3.org/Graphics/SVG/1.1/DTD/svg11.dtd" >
<svg xmlns="http://www.w3.org/2000/svg" xmlns:xlink="http://www.w3.org/1999/xlink" version="1.1" viewBox="0 -200 1000 1000">
  <g transform="matrix(1 0 0 -1 0 800)">
   <path fill="currentColor"
d="M889.16 300c0 -13.3464 -6.02214 -20.0195 -18.0664 -20.0195h-82.0312c-4.55729 -68.0339 -29.4596 -128.092 -74.707 -180.176l58.1055 -58.1055c8.46354 -8.46354 7.97526 -17.4154 -1.46484 -26.8555c-9.4401 -9.4401 -18.3919 -9.92839 -26.8555 -1.46484
l-58.1055 58.1055c-51.7578 -45.5729 -111.654 -70.638 -179.688 -75.1953v-80.5664c0 -12.6953 -6.67318 -19.043 -20.0195 -19.043s-20.0195 6.34766 -20.0195 19.043v80.5664c-68.3594 4.88281 -128.418 30.1107 -180.176 75.6836l-57.6172 -57.6172
c-8.78906 -9.11458 -17.9036 -8.95182 -27.3438 0.488281c-9.4401 9.4401 -9.76562 18.7174 -0.976562 27.832l57.6172 57.6172c-45.2474 51.7578 -70.1497 111.654 -74.707 179.688h-81.0547c-12.6953 0 -19.043 6.67318 -19.043 20.0195s6.34766 20.0195 19.043 20.0195
h81.0547c4.23177 68.3594 28.9714 128.418 74.2188 180.176l-57.1289 57.1289c-8.78906 9.11458 -8.46354 18.3919 0.976562 27.832s18.5547 9.60286 27.3438 0.488281l57.1289 -57.1289c51.7578 45.5729 111.979 70.638 180.664 75.1953v81.543
c0 12.0443 6.67318 18.0664 20.0195 18.0664s20.0195 -6.02214 20.0195 -18.0664v-81.543c68.3594 -4.55729 128.418 -29.6224 180.176 -75.1953l57.6172 58.1055c8.46354 8.46354 17.4154 7.97526 26.8555 -1.46484s9.92839 -18.3919 1.46484 -26.8555l-57.6172 -58.1055
c44.9219 -51.7578 69.6615 -111.816 74.2188 -180.176h82.0312c12.0443 0 18.0664 -6.67318 18.0668 -20.0197zM658.203 500.195c-43.9453 37.7604 -94.5638 58.9193 -151.855 63.4766v-215.332zM749.023 320.02c-4.23177 57.2917 -25.2279 107.91 -62.9883 151.855
l-151.855 -151.855h214.843zM466.309 348.34v214.844c-57.6172 -4.23177 -108.398 -25.2279 -152.344 -62.9883zM749.023 279.98h-214.844l151.855 -151.855c37.7604 43.9453 58.7565 94.5638 62.989 151.855zM437.988 320.02l-151.855 151.855
c-37.7604 -43.9453 -58.7565 -94.5638 -62.9883 -151.855h214.844h-0.0007zM657.715 99.8047l-151.367 151.855v-215.332c56.9661 4.55729 107.422 25.7161 151.367 63.4766v0.0004zM437.988 279.98h-214.844c4.23177 -56.9661 25.2279 -107.422 62.9883 -151.367z
M466.309 36.8164v214.844l-151.855 -151.367c43.9453 -38.0859 94.5638 -59.2448 151.855 -63.4766z" />
  </g>

</svg>
