<?xml version="1.0" standalone="no"?>
<!DOCTYPE svg PUBLIC "-//W3C//DTD SVG 1.1//EN" "http://www.w3.org/Graphics/SVG/1.1/DTD/svg11.dtd" >
<svg xmlns="http://www.w3.org/2000/svg" xmlns:xlink="http://www.w3.org/1999/xlink" version="1.1" viewBox="0 -200 1000 1000">
  <g transform="matrix(1 0 0 -1 0 800)">
   <path fill="currentColor"
d="M976.562 244.824c0 -93.75 -14.7298 -155.355 -44.1895 -184.814c-29.4596 -29.4596 -91.0645 -44.1895 -184.814 -44.1895h-469.727c-93.75 0 -155.355 14.7298 -184.814 44.1895c-29.4596 29.4596 -44.1895 91.0645 -44.1895 184.814v265.137
c0 93.75 14.6484 155.273 43.9453 184.57s90.9831 43.9453 185.059 43.9453h469.727c94.0755 0 155.762 -14.6484 185.059 -43.9453s43.9453 -90.8203 43.9453 -184.57v-265.137zM936.523 244.824v265.137c0 82.6823 -10.7422 134.766 -32.2266 156.25
s-73.7305 32.2266 -156.738 32.2266h-469.727c-83.0078 0 -135.254 -10.7422 -156.738 -32.2266s-32.2266 -73.5677 -32.2266 -156.25v-265.137c0 -82.6823 10.8236 -134.847 32.4707 -156.494c21.6471 -21.6471 73.8118 -32.4707 156.494 -32.4707h469.727
c82.6823 0 134.847 10.8236 156.494 32.4707s32.4707 73.8118 32.4705 156.494zM877.93 564.16l-600.098 -453.125c-10.0911 0 -21.4844 0.325521 -34.1797 0.976562l628.418 478.516c2.60417 -8.46354 4.55729 -17.2526 5.8597 -26.3676zM832.031 632.52l-656.738 -500
c-6.1849 5.20833 -11.556 11.3932 -16.1133 18.5547l642.578 489.258c10.0911 -1.6276 20.1823 -4.23177 30.2733 -7.8127zM710.938 643.262l-565.918 -430.664c-0.651042 10.4167 -0.976562 20.5078 -0.976562 30.2734l525.879 400.391z" />
  </g>

</svg>
