<?xml version="1.0" standalone="no"?>
<!DOCTYPE svg PUBLIC "-//W3C//DTD SVG 1.1//EN" "http://www.w3.org/Graphics/SVG/1.1/DTD/svg11.dtd" >
<svg xmlns="http://www.w3.org/2000/svg" xmlns:xlink="http://www.w3.org/1999/xlink" version="1.1" viewBox="0 -200 1000 1000">
  <g transform="matrix(1 0 0 -1 0 800)">
   <path fill="currentColor"
d="M609.375 646.68h-40.0391v51.7578h-51.7578v40.0391h71.7773c13.3464 0 20.0195 -6.67318 20.0195 -20.0195zM464.844 698.438h-109.375v40.0391h109.375v-40.0391zM302.734 698.438h-109.375v40.0391h109.375v-40.0391zM140.625 698.438h-51.7578v-51.7578h-40.0391
v71.7773c0 13.3464 6.67318 20.0195 20.0195 20.0195h71.7773zM810.547 -159.473c0 -13.3464 -6.67318 -20.0195 -20.0195 -20.0195h-520.508c-13.3464 0 -20.0195 6.67318 -20.0195 20.0195v175.293h-56.6406v40.0391h56.6406v213.379
c-9.11458 5.53385 -16.7643 10.2539 -22.9492 14.1602l-40.0391 -70.8008l-82.0312 188.965l145.02 16.6016v104.98c0 13.3464 6.67318 20.0195 20.0195 20.0195h299.316v50.7812h40.0391v-50.7812h181.152c13.3464 0 20.0195 -6.67318 20.0195 -20.0195zM88.8672 484.57
h-40.0391v109.375h40.0391v-109.375zM88.8672 322.461h-40.0391v109.375h40.0391v-109.375zM88.8672 160.352h-40.0391v109.375h40.0391v-109.375zM140.625 15.8203h-71.7773c-13.3464 0 -20.0195 6.67318 -20.0195 20.0195v71.7773h40.0391v-51.7578h51.7578v-40.0391z
M770.508 -139.453v642.578h-480.469v-80.0781l22.4609 2.44141l-22.4609 -39.5508v-50.7812c45.8984 -30.2734 87.5651 -50.944 125 -62.0117c40.3646 -12.3698 88.5417 -17.9036 144.531 -16.6016v-72.7539c-5.85938 -0.325521 -16.1133 -0.488281 -30.7617 -0.488281
c-77.7995 0 -157.389 21.1589 -238.77 63.4766v-386.23h480.469z" />
  </g>

</svg>
