<?xml version="1.0" standalone="no"?>
<!DOCTYPE svg PUBLIC "-//W3C//DTD SVG 1.1//EN" "http://www.w3.org/Graphics/SVG/1.1/DTD/svg11.dtd" >
<svg xmlns="http://www.w3.org/2000/svg" xmlns:xlink="http://www.w3.org/1999/xlink" version="1.1" viewBox="0 -200 1000 1000">
  <g transform="matrix(1 0 0 -1 0 800)">
   <path fill="currentColor"
d="M612.305 -71.0938c0 -78.776 -93.9128 -118.164 -281.738 -118.164c-187.826 0 -281.738 39.388 -281.738 118.164v44.4336c0 41.0156 5.20833 73.7305 15.625 98.1445c9.11458 21.1589 43.6198 63.9648 103.516 128.418
c56.3151 59.8958 84.4727 94.0755 84.4727 102.539c0 8.78906 -28.3203 42.6432 -84.9609 101.562c-60.5469 62.5 -95.2148 105.143 -104.004 127.93c-9.76562 25.3906 -14.6484 62.1745 -14.6484 110.352v40.0391c0 71.9401 93.9128 107.91 281.738 107.91
c187.826 0 281.738 -35.9701 281.738 -107.91v-40.0391c0 -48.1771 -4.88281 -84.9609 -14.6484 -110.352c-8.78906 -22.7865 -43.457 -65.4297 -104.004 -127.93c-56.6406 -58.9193 -84.9609 -92.7734 -84.9609 -101.562c0 -8.46354 28.1576 -42.6432 84.4727 -102.539
c59.8958 -64.4531 94.401 -107.259 103.516 -128.418c10.4167 -24.4141 15.625 -57.1289 15.625 -98.1445v-44.4336zM565.43 702.832c0 21.4844 -34.3424 37.2721 -103.027 47.3633c-41.9922 5.85938 -85.9375 8.78906 -131.836 8.78906
s-89.8438 -2.92969 -131.836 -8.78906c-68.6849 -10.0911 -103.027 -25.8789 -103.027 -47.3633c0 -14.6484 25.0651 -28.4831 75.1953 -41.5039c50.1302 -13.0208 103.353 -19.5312 159.668 -19.5312s109.538 6.51042 159.668 19.5312
c50.1302 13.0208 75.1953 26.8555 75.1953 41.5039h-0.0006zM581.543 -61.3281v37.1094c0 35.8073 -4.15039 63.3138 -12.4512 82.5195s-43.7012 61.1979 -106.201 125.977c-56.9661 58.5938 -85.4492 97.4935 -85.4492 116.699c0 18.8802 28.1576 57.6172 84.4727 116.211
c62.8255 65.7552 98.3887 107.259 106.689 124.512s12.4512 39.388 12.4512 66.4062v57.6172c-59.2448 -36.7839 -142.741 -55.1758 -250.488 -55.1758s-191.243 18.3919 -250.488 55.1758v-57.6172c0 -27.0182 4.15039 -49.1536 12.4512 -66.4062
s43.8639 -58.7565 106.689 -124.512c56.3151 -58.5938 84.4727 -97.3307 84.4727 -116.211c0 -19.2057 -28.4831 -58.1055 -85.4492 -116.699c-62.5 -64.7786 -97.9004 -106.771 -106.201 -125.977s-12.4512 -46.7122 -12.4512 -82.5195v-37.1094
c0 -25.3906 10.0911 -44.4336 30.2734 -57.1289c41.9922 -26.3672 115.56 -39.5508 220.703 -39.5508s178.711 13.1836 220.703 39.5508c20.1823 12.6953 30.2734 31.7383 30.2736 57.1289zM514.16 543.652c-13.3464 -21.8099 -32.5521 -46.3867 -57.6172 -73.7305
c-21.4844 -22.4609 -42.9688 -45.0846 -64.4531 -67.8711c-11.7188 -12.6953 -26.0417 -30.4362 -42.9688 -53.2227c-5.20833 -10.0911 -9.27734 -25.5534 -12.207 -46.3867c-1.95312 -16.276 -4.06901 -32.5521 -6.34766 -48.8281
c-2.27865 16.276 -4.39453 32.5521 -6.34766 48.8281c-2.92969 20.8333 -6.83594 36.1328 -11.7188 45.8984s-19.3685 27.6693 -43.457 53.7109c-21.4844 22.7865 -42.9688 45.4102 -64.4531 67.8711c-25.0651 27.3438 -44.2708 51.9206 -57.6172 73.7305
c62.5 -39.7135 123.698 -59.5703 183.594 -59.5703s121.094 19.8568 183.594 59.5704zM549.316 -73.0469c-53.7109 -27.0182 -126.628 -40.5273 -218.75 -40.5273s-165.039 13.5091 -218.75 40.5273c5.53385 20.8333 23.9258 41.0156 55.1758 60.5469
c5.85938 3.58073 31.4128 16.9271 76.6602 40.0391c17.5781 8.78906 38.737 21.1589 63.4766 37.1094c7.16146 7.16146 14.974 21.3216 23.4375 42.4805c8.46354 -21.1589 16.1947 -35.2376 23.1934 -42.2363s28.2389 -19.4499 63.7207 -37.3535
c45.2474 -23.112 70.8008 -36.4583 76.6602 -40.0391c31.25 -19.5312 49.6419 -39.7135 55.1758 -60.5469z" />
  </g>

</svg>
