<?xml version="1.0" standalone="no"?>
<!DOCTYPE svg PUBLIC "-//W3C//DTD SVG 1.1//EN" "http://www.w3.org/Graphics/SVG/1.1/DTD/svg11.dtd" >
<svg xmlns="http://www.w3.org/2000/svg" xmlns:xlink="http://www.w3.org/1999/xlink" version="1.1" viewBox="0 -200 1000 1000">
  <g transform="matrix(1 0 0 -1 0 800)">
   <path fill="currentColor"
d="M939.453 399.609c-4.88281 -3.90625 -13.8346 -11.2305 -26.8555 -21.9727h-84.4727c-17.9036 14.974 -26.8555 24.4141 -26.8555 28.3203c0 11.3932 2.92969 23.2747 8.78906 35.6445c5.53385 10.7422 10.9049 21.6471 16.1133 32.7148
c-2.92969 0.651042 -6.34766 0.976562 -10.2539 0.976562c-4.88281 0 -9.76562 -0.488281 -14.6484 -1.46484v110.84c0 7.48698 -4.23177 16.4388 -12.6953 26.8555c-7.8125 9.4401 -15.4622 16.1133 -22.9492 20.0195c-14.6484 7.8125 -33.8542 11.7188 -57.6172 11.7188
c-25.3906 0 -46.3867 -5.04557 -62.9883 -15.1367c-20.1823 -12.0443 -30.2734 -29.9479 -30.2734 -53.7109v-213.867h98.6328c2.60417 0 5.69661 -3.01107 9.27734 -9.0332s5.37109 -10.498 5.37109 -13.4277v-461.426c0 -17.9036 -9.11458 -26.8555 -27.3438 -26.8555
h-631.348c-6.1849 0 -12.3698 2.27865 -18.5547 6.83594c-7.16146 4.55729 -10.7422 9.76562 -10.7422 15.625v467.285c0 3.90625 2.03451 8.38216 6.10352 13.4277s8.05664 7.56836 11.9629 7.56836h419.922v233.398c0 7.8125 3.25521 22.054 9.76562 42.7246
s11.8815 34.5866 16.1133 41.748c40.3646 64.4531 108.398 96.6797 204.102 96.6797c110.352 0 181.803 -38.8997 214.355 -116.699c11.3932 -27.3438 17.0898 -51.2695 17.0898 -71.7773v-187.012zM900.391 410.84v180.664c0 16.9271 -5.53385 35.4818 -16.6016 55.6641
c-32.5521 59.5703 -90.9831 89.3555 -175.293 89.3555c-96.6797 0 -157.552 -35.4818 -182.617 -106.445c-6.83594 -19.2057 -10.2539 -35.8073 -10.2539 -49.8047v-219.727h18.0664v219.727c0 0.651042 1.46484 7.8125 4.39453 21.4844
c6.83594 32.8776 22.1354 60.6283 45.8984 83.252s52.2461 35.2376 85.4492 37.8418l1.46484 -0.976562c-4.88281 -1.95312 -12.0443 -4.72005 -21.4844 -8.30078c-29.9479 -11.0677 -54.2806 -30.8431 -72.998 -59.3262s-28.0762 -58.8379 -28.0762 -91.0645v-202.637
h28.8086v224.609c0 19.8568 9.27734 39.2253 27.832 58.1055c17.9036 17.5781 37.1094 28.1576 57.6172 31.7383s35.6445 5.37109 45.4102 5.37109c73.2422 0 116.374 -29.7852 129.395 -89.3555c1.6276 -7.48698 2.44141 -12.207 2.44141 -14.1602v-166.504
l8.30078 -6.34766h7.32422v174.805c0 22.1354 -8.54492 43.6198 -25.6348 64.4531s-36.5397 34.5052 -58.3496 41.0156h2.92969c25.0651 0.651042 48.0143 -11.7188 68.8477 -37.1094c19.5312 -24.0885 29.2969 -48.9909 29.2969 -74.707v-168.457h19.043
c2.60417 0 5.53385 2.27865 8.78843 6.83611zM688.965 -111.133v434.082h-22.9492v-434.082zM646.484 -111.133v434.082h-567.383v-434.082zM443.848 -34.9609h-117.676l26.3672 161.621c0 0.976562 -2.44141 3.74349 -7.32422 8.30078
c-5.85938 4.88281 -8.95182 7.64974 -9.27734 8.30078c-6.51042 8.13802 -9.76562 19.694 -9.76562 34.668c0 16.6016 5.53385 31.0059 16.6016 43.2129s24.9023 18.3105 41.5039 18.3105s30.6803 -5.77799 42.2363 -17.334s17.334 -25.6348 17.334 -42.2363
c0 -21.1589 -8.95182 -37.7604 -26.8555 -49.8047c-1.6276 -1.30208 -2.44141 -2.27865 -2.44141 -2.92969z" />
  </g>

</svg>
