<?xml version="1.0" standalone="no"?>
<!DOCTYPE svg PUBLIC "-//W3C//DTD SVG 1.1//EN" "http://www.w3.org/Graphics/SVG/1.1/DTD/svg11.dtd" >
<svg xmlns="http://www.w3.org/2000/svg" xmlns:xlink="http://www.w3.org/1999/xlink" version="1.1" viewBox="0 -200 1073 1000">
  <g transform="matrix(1 0 0 -1 0 800)">
   <path fill="currentColor"
d="M1072.27 89.5508c-51.1068 -42.3177 -105.632 -63.4766 -163.574 -63.4766c-3.90625 0 -10.0911 0.325521 -18.5547 0.976562l-417.48 261.719l-49.3164 -26.8555c-33.8542 -18.5547 -50.6185 -36.2956 -50.293 -53.2227l0.488281 -20.0195v-12.207
c0 -51.7578 -15.2995 -93.9128 -45.8984 -126.465c-31.5755 -33.2031 -73.0794 -49.8047 -124.512 -49.8047c-36.7839 0 -67.7897 12.0443 -93.0176 36.1328c-25.2279 24.0885 -37.8418 54.362 -37.8418 90.8203c0 68.3594 50.7812 117.839 152.344 148.438l68.3594 20.5078
c25.3906 7.48698 42.4805 14.4857 51.2695 20.9961c15.625 10.7422 23.4375 26.2044 23.4375 46.3867c0 27.0182 -21.8099 46.875 -65.4297 59.5703l-70.8008 20.5078c-106.12 30.599 -159.18 81.8685 -159.18 153.809c0 36.4583 13.0208 66.569 39.0625 90.332
c26.0417 23.763 57.4544 35.6445 94.2383 35.6445c47.2005 0 86.9954 -17.0085 119.385 -51.0254s48.584 -74.6257 48.584 -121.826v-38.0859c-1.30208 -13.3464 12.8581 -28.8086 42.4805 -46.3867l56.6406 -33.6914l426.27 260.742
c65.1042 0 122.884 -20.8333 173.34 -62.5l-473.633 -270.02zM1026.37 88.5742l-455.078 257.324l-76.1719 -43.9453l409.18 -250.977c47.8516 0 88.5417 12.5326 122.07 37.5977zM1024.9 631.055c-32.5521 25.0651 -75.6836 37.5977 -129.395 37.5977l-502.441 -314.453
c-3.58073 -25.7161 -13.0208 -44.1081 -28.3203 -55.1758c-8.13802 -5.85938 -28.3203 -13.8346 -60.5469 -23.9258l-59.082 -18.5547c-48.5026 -15.2995 -81.8685 -28.9714 -100.098 -41.0156c-32.5521 -21.8099 -48.8281 -51.5951 -48.8281 -89.3555
c0 -28.6458 10.9049 -52.8158 32.7148 -72.5098s47.2005 -29.541 76.1719 -29.541c39.388 0 73.3236 14.4043 101.807 43.2129s42.7246 62.9069 42.7246 102.295v10.7422l-1.46484 14.1602c-0.325521 3.25521 -0.488281 7.16146 -0.488281 11.7188
c0 21.8099 10.0911 40.8529 30.2734 57.1289c5.85938 4.55729 25.3906 16.276 58.5938 35.1562zM447.266 415.234l-31.7383 18.5547c-45.8984 27.0182 -68.1966 52.0833 -66.8945 75.1953l0.976562 16.6016v16.1133c0 45.2474 -13.0208 82.5195 -39.0625 111.816
c-27.3438 30.2734 -63.3138 45.4102 -107.91 45.4102c-27.6693 0 -52.3275 -10.3353 -73.9746 -31.0059c-21.6471 -20.6706 -32.4707 -44.6777 -32.4707 -72.0215c0 -58.5938 50.7812 -102.702 152.344 -132.324l53.7109 -15.625
c27.3438 -7.8125 45.8984 -14.8112 55.6641 -20.9961c17.2526 -10.4167 28.6458 -25.7161 34.1797 -45.8984zM499.023 362.988c0 -15.2995 -7.8125 -22.9492 -23.4375 -22.9492s-23.4375 7.64974 -23.4375 22.9492c0 15.625 7.8125 23.4375 23.4375 23.4375
s23.4375 -7.8125 23.4375 -23.4375zM312.988 554.395c0 -40.0391 -12.6953 -60.0586 -38.0859 -60.0586c-4.23177 0 -14.4857 3.09245 -30.7617 9.27734l-30.7617 11.7188c-54.362 20.8333 -81.543 47.6888 -81.543 80.5664c0 18.5547 7.48698 34.3424 22.4609 47.3633
s31.901 19.5312 50.7812 19.5312c27.0182 0 51.7578 -11.3118 74.2188 -33.9355s33.6914 -47.4447 33.6914 -74.4629zM312.988 169.141c0 -28.6458 -10.498 -53.9551 -31.4941 -75.9277s-45.8171 -32.959 -74.4629 -32.959c-18.8802 0 -35.8073 6.1849 -50.7812 18.5547
c-15.9505 13.0208 -23.9258 28.8086 -23.9258 47.3633c0 32.8776 23.9258 58.5938 71.7773 77.1484l39.0625 15.1367c8.46354 3.25521 17.7409 4.88281 27.832 4.88281c27.9948 0 41.9922 -18.0664 41.9922 -54.1992zM291.016 555.859
c0 21.1589 -9.11458 40.2832 -27.3438 57.373c-18.2292 17.0898 -38.0859 25.6348 -59.5703 25.6348c-12.3698 0 -23.5189 -4.31315 -33.4473 -12.9395s-14.8926 -19.1243 -14.8926 -31.4941c0 -20.5078 23.2747 -40.2018 69.8242 -59.082l18.0664 -7.32422
c11.3932 -4.55729 20.6706 -6.83594 27.832 -6.83594c13.0208 0 19.5312 11.556 19.5314 34.668zM290.039 167.188c0 22.4609 -6.67318 33.6914 -20.0195 33.6914c-7.16146 0 -15.625 -2.11589 -25.3906 -6.34766l-21.4844 -9.27734
c-45.2474 -19.5312 -67.8711 -38.5742 -67.8711 -57.1289c0 -12.6953 5.37109 -23.112 16.1133 -31.25c9.76562 -7.8125 21.1589 -11.7188 34.1797 -11.7188c22.1354 0 41.748 8.2194 58.8379 24.6582s25.6348 35.5632 25.6347 57.3731z" />
  </g>

</svg>
