<?xml version="1.0" standalone="no"?>
<!DOCTYPE svg PUBLIC "-//W3C//DTD SVG 1.1//EN" "http://www.w3.org/Graphics/SVG/1.1/DTD/svg11.dtd" >
<svg xmlns="http://www.w3.org/2000/svg" xmlns:xlink="http://www.w3.org/1999/xlink" version="1.1" viewBox="0 -200 1000 1000">
  <g transform="matrix(1 0 0 -1 0 800)">
   <path fill="currentColor"
d="M646.973 141.797c-89.5182 -26.0417 -183.105 -39.0625 -280.762 -39.0625s-191.243 13.0208 -280.762 39.0625c-24.4141 62.8255 -36.6211 129.557 -36.6211 200.195c0 70.9635 12.207 137.695 36.6211 200.195c89.5182 26.0417 183.105 39.0625 280.762 39.0625
s191.243 -13.0208 280.762 -39.0625c24.4141 -62.5 36.6211 -129.232 36.6211 -200.195c0 -70.638 -12.207 -137.37 -36.6211 -200.195zM111.816 171.094c81.3802 -21.1589 166.178 -31.7383 254.395 -31.7383s173.014 10.5794 254.395 31.7383
c17.5781 54.362 26.3672 111.328 26.3672 170.898c0 59.8958 -8.78906 116.862 -26.3672 170.898c-81.3802 21.1589 -166.178 31.7383 -254.395 31.7383s-173.014 -10.5794 -254.395 -31.7383c-17.5781 -54.0365 -26.3672 -111.003 -26.3672 -170.898
c0 -59.5703 8.78906 -116.536 26.3672 -170.898zM197.754 199.414l311.035 311.035l25.8789 -25.8789l-311.035 -311.035zM183.594 282.91l241.699 241.699l25.8789 -25.8789l-241.699 -241.699zM281.25 185.254l241.699 241.699l25.8789 -25.8789l-241.699 -241.699z" />
  </g>

</svg>
