<?xml version="1.0" standalone="no"?>
<!DOCTYPE svg PUBLIC "-//W3C//DTD SVG 1.1//EN" "http://www.w3.org/Graphics/SVG/1.1/DTD/svg11.dtd" >
<svg xmlns="http://www.w3.org/2000/svg" xmlns:xlink="http://www.w3.org/1999/xlink" version="1.1" viewBox="0 -200 1000 1000">
  <g transform="matrix(1 0 0 -1 0 800)">
   <path fill="currentColor"
d="M317.871 639.844c-29.6224 0 -58.2682 -7.32422 -85.9375 -21.9727c-27.6693 -14.6484 -48.8281 -35.8073 -63.4766 -63.4766s-21.9727 -56.3151 -21.9727 -85.9375s7.32422 -58.1055 21.9727 -85.4492s35.8073 -48.3398 63.4766 -62.9883
c27.6693 -14.6484 56.3151 -21.9727 85.9375 -21.9727s58.1055 7.32422 85.4492 21.9727s48.3398 35.6445 62.9883 62.9883s21.9727 55.8268 21.9727 85.4492s-7.32422 58.2682 -21.9727 85.9375s-35.6445 48.8281 -62.9883 63.4766s-55.8268 21.9727 -85.4492 21.9727z
M674.805 -70.6055c5.85938 -10.0911 8.78906 -19.5312 8.78906 -28.3203c0 -14.974 -8.95182 -27.6693 -26.8555 -38.0859c-10.4167 -5.85938 -20.0195 -8.78906 -28.8086 -8.78906c-14.974 0 -27.6693 8.78906 -38.0859 26.3672l-203.125 352.539
c-2.60417 -1.6276 -5.20833 -3.09245 -7.8125 -4.39453c-35.1562 -18.8802 -71.7773 -28.3203 -109.863 -28.3203s-74.8698 9.4401 -110.352 28.3203s-62.6628 45.8984 -81.543 81.0547s-28.3203 71.7773 -28.3203 109.863s9.4401 74.8698 28.3203 110.352
c14.974 28.3203 33.3659 53.3854 55.1758 75.1953s46.875 40.2018 75.1953 55.1758c35.4818 18.8802 72.2656 28.3203 110.352 28.3203s74.707 -9.4401 109.863 -28.3203s62.1745 -46.0612 81.0547 -81.543s28.3203 -72.2656 28.3203 -110.352
s-9.4401 -74.707 -28.3203 -109.863c-12.6953 -23.763 -27.6693 -45.0846 -44.9219 -63.9648zM409.668 415.234c0 29.6224 -7.32422 58.2682 -21.9727 85.9375c-14.6484 27.6693 -35.6445 48.8281 -62.9883 63.4766c-16.6016 8.78906 -33.5286 14.974 -50.7812 18.5547
c14.3229 5.20833 28.9714 7.8125 43.9453 7.8125c21.1589 0 41.5039 -5.20833 61.0352 -15.625s34.5052 -25.5534 44.9219 -45.4102s15.625 -40.3646 15.625 -61.5234s-5.20833 -41.5039 -15.625 -61.0352c-4.88281 -8.78906 -10.5794 -16.7643 -17.0898 -23.9258
c1.95312 10.4167 2.92969 20.9961 2.9296 31.7383z" />
  </g>

</svg>
