<?xml version="1.0" standalone="no"?>
<!DOCTYPE svg PUBLIC "-//W3C//DTD SVG 1.1//EN" "http://www.w3.org/Graphics/SVG/1.1/DTD/svg11.dtd" >
<svg xmlns="http://www.w3.org/2000/svg" xmlns:xlink="http://www.w3.org/1999/xlink" version="1.1" viewBox="0 -200 1000 1000">
  <g transform="matrix(1 0 0 -1 0 800)">
   <path fill="currentColor"
d="M249.512 539.746h80.5664v80.5664zM366.699 647.168v-144.043h-146.973v-319.824h292.969v463.867h-145.996zM183.105 421.094c-24.0885 -4.23177 -47.8516 -9.4401 -71.2891 -15.625c-17.5781 -54.0365 -26.3672 -111.003 -26.3672 -170.898
c0 -59.5703 8.78906 -116.536 26.3672 -170.898c81.3802 -21.1589 166.178 -31.7383 254.395 -31.7383s173.014 10.5794 254.395 31.7383c17.5781 54.362 26.3672 111.328 26.3672 170.898c0 59.8958 -8.78906 116.862 -26.3672 170.898
c-23.4375 6.1849 -47.2005 11.3932 -71.2891 15.625v-274.414h-366.211v274.414h-0.0008zM549.316 457.715c33.2031 -5.85938 65.7552 -13.5091 97.6562 -22.9492c24.4141 -62.5 36.6211 -129.232 36.6211 -200.195c0 -70.638 -12.207 -137.37 -36.6211 -200.195
c-89.5182 -26.0417 -183.105 -39.0625 -280.762 -39.0625s-191.243 13.0208 -280.762 39.0625c-24.4141 62.8255 -36.6211 129.557 -36.6211 200.195c0 70.9635 12.207 137.695 36.6211 200.195c31.901 9.4401 64.4531 17.0898 97.6562 22.9492v67.3828l36.6211 36.6211
l85.4492 85.4492l36.6211 36.6211h207.52z" />
  </g>

</svg>
