<?xml version="1.0" standalone="no"?>
<!DOCTYPE svg PUBLIC "-//W3C//DTD SVG 1.1//EN" "http://www.w3.org/Graphics/SVG/1.1/DTD/svg11.dtd" >
<svg xmlns="http://www.w3.org/2000/svg" xmlns:xlink="http://www.w3.org/1999/xlink" version="1.1" viewBox="0 -200 1000 1000">
  <g transform="matrix(1 0 0 -1 0 800)">
   <path fill="currentColor"
d="M743.164 -131.152c0 -6.1849 -2.84831 -11.556 -8.54492 -16.1133s-11.6374 -6.83594 -17.8223 -6.83594h-646.973c-6.51042 0 -13.1022 2.52279 -19.7754 7.56836s-10.0098 10.8236 -10.0098 17.334v474.121c0 4.88281 1.95312 9.92839 5.85938 15.1367
s8.13802 7.8125 12.6953 7.8125h97.168v189.453c0 24.0885 4.55729 48.6654 13.6719 73.7305c31.25 85.9375 105.632 128.906 223.145 128.906c116.211 0 190.267 -42.9688 222.168 -128.906c9.4401 -25.3906 14.1602 -49.8047 14.1602 -73.2422v-189.941h99.1211
c4.88281 0 9.92839 -6.51042 15.1367 -19.5312v-479.492zM588.867 368.359v199.219c0 16.276 -5.28971 35.319 -15.8691 57.1289s-22.2168 38.0859 -34.9121 48.8281c-36.4583 31.25 -84.9609 46.875 -145.508 46.875c-97.9818 0 -159.831 -34.5052 -185.547 -103.516
c-7.48698 -20.1823 -11.2305 -36.7839 -11.2305 -49.8047v-198.73h17.0898v175.293c0 34.8307 9.60286 66.6504 28.8086 95.459c19.2057 28.8086 44.9219 48.584 77.1484 59.3262c15.2995 5.20833 27.0182 7.8125 35.1562 7.8125l1.95312 -0.976562
c-4.23177 -2.27865 -10.4167 -4.55729 -18.5547 -6.83594c-25.0651 -7.48698 -48.9909 -24.9023 -71.7773 -52.2461c-22.7865 -27.3438 -34.1797 -53.7109 -34.1797 -79.1016c0 -1.95312 -0.406901 -4.88281 -1.2207 -8.78906s-1.2207 -6.83594 -1.2207 -8.78906v-181.152
h29.7852v199.219c0 15.9505 7.48698 32.8776 22.4609 50.7812c14.3229 16.9271 29.4596 27.9948 45.4102 33.2031c24.0885 7.8125 46.0612 11.7188 65.918 11.7188c60.8724 0 101.725 -20.9961 122.559 -62.9883c7.16146 -14.3229 10.7422 -25.3906 10.7422 -33.2031
v-198.73h17.0898v186.523c0 24.4141 -8.54492 47.4447 -25.6348 69.0918s-37.5163 36.0514 -61.2793 43.2129c29.6224 -1.30208 54.6875 -14.8112 75.1953 -40.5273c19.5312 -24.4141 29.2969 -51.7578 29.2969 -82.0312v-176.27h28.3203zM487.305 368.359v192.871
c0 13.0208 -5.77799 25.5534 -17.334 37.5977s-23.8444 19.043 -36.8652 20.9961c-18.2292 2.60417 -31.7383 3.90625 -40.5273 3.90625c-9.4401 0 -17.2526 -0.16276 -23.4375 -0.488281c-17.2526 -0.976562 -33.2031 -7.16146 -47.8516 -18.5547
c-15.9505 -12.6953 -23.9258 -27.3438 -23.9258 -43.9453v-192.383zM703.125 -114.062v443.848h-22.4609v-443.848zM660.156 -114.062v443.848h-580.078v-443.848zM454.102 182.324c0 -23.763 -10.5794 -41.0156 -31.7383 -51.7578l30.2734 -166.992h-120.117
l28.3203 166.992c-19.2057 9.11458 -28.8086 26.3672 -28.8086 51.7578c0 16.9271 5.85938 31.4941 17.5781 43.7012s26.0417 18.3105 42.9688 18.3105c16.6016 0 31.0059 -6.1849 43.2129 -18.5547s18.3105 -26.8555 18.3104 -43.457z" />
  </g>

</svg>
