<?xml version="1.0" standalone="no"?>
<!DOCTYPE svg PUBLIC "-//W3C//DTD SVG 1.1//EN" "http://www.w3.org/Graphics/SVG/1.1/DTD/svg11.dtd" >
<svg xmlns="http://www.w3.org/2000/svg" xmlns:xlink="http://www.w3.org/1999/xlink" version="1.1" viewBox="0 -200 1000 1000">
  <g transform="matrix(1 0 0 -1 0 800)">
   <path fill="currentColor"
d="M297.852 688.672c43.2943 0 84.8796 -10.7422 124.756 -32.2266s70.5566 -52.1647 92.041 -92.041s32.2266 -81.4616 32.2266 -124.756c0 -76.1719 -16.276 -152.588 -48.8281 -229.248c-32.5521 -76.6602 -65.5111 -131.673 -98.877 -165.039
c-33.3659 -33.3659 -67.1387 -50.0488 -101.318 -50.0488s-67.9525 16.6829 -101.318 50.0488c-33.3659 33.3659 -66.3249 88.3789 -98.877 165.039s-48.8281 153.076 -48.8281 229.248c0 43.2943 10.7422 84.8796 32.2266 124.756s52.1647 70.5566 92.041 92.041
s81.4616 32.2266 124.756 32.2266h-0.001zM219.727 68.3105c24.4141 -24.2513 50.4557 -36.377 78.125 -36.377s53.7109 12.1257 78.125 36.377s52.8971 74.7884 85.4492 151.611s48.8281 150.065 48.8281 219.727c0 37.1094 -9.11458 72.6725 -27.3438 106.689
s-44.3522 60.14 -78.3691 78.3691s-69.5801 27.3438 -106.689 27.3438c-36.7839 0 -72.2656 -9.11458 -106.445 -27.3438s-60.3841 -44.3522 -78.6133 -78.3691s-27.3438 -69.5801 -27.3438 -106.689c0 -69.6615 16.276 -142.904 48.8281 -219.727
c32.5521 -76.823 61.0352 -127.36 85.4492 -151.611zM273.438 317.578c-97.6562 0 -146.484 48.8281 -146.484 146.484c97.6562 0 146.484 -48.8281 146.484 -146.484zM322.266 317.578c0 97.6562 48.8281 146.484 146.484 146.484
c0 -97.6562 -48.8281 -146.484 -146.484 -146.484z" />
  </g>

</svg>
