<?xml version="1.0" standalone="no"?>
<!DOCTYPE svg PUBLIC "-//W3C//DTD SVG 1.1//EN" "http://www.w3.org/Graphics/SVG/1.1/DTD/svg11.dtd" >
<svg xmlns="http://www.w3.org/2000/svg" xmlns:xlink="http://www.w3.org/1999/xlink" version="1.1" viewBox="0 -200 1000 1000">
  <g transform="matrix(1 0 0 -1 0 800)">
   <path fill="currentColor"
d="M726.562 472.852c0 -12.6953 -6.83594 -19.043 -20.5078 -19.043c-8.46354 0 -14.8112 5.20833 -19.043 15.625c-4.88281 15.2995 -13.6719 37.9232 -26.3672 67.8711c-25.0651 45.2474 -59.4076 81.2174 -103.027 107.91
c-44.5964 27.0182 -92.2852 40.5273 -143.066 40.5273c-102.865 0 -181.641 -41.5039 -236.328 -124.512c-8.13802 -17.5781 -20.1823 -40.3646 -36.1328 -68.3594c10.7422 0.651042 19.2057 0.976562 25.3906 0.976562c22.1354 0 47.526 -3.25521 76.1719 -9.76562
c38.737 -8.78906 58.1055 -20.1823 58.1055 -34.1797c0 -13.6719 -6.02214 -20.5078 -18.0664 -20.5078c-0.976562 0 -13.8346 4.55729 -38.5742 13.6719c-24.7396 9.11458 -52.2461 13.6719 -82.5195 13.6719c-24.0885 0 -50.293 -3.74349 -78.6133 -11.2305
c-6.1849 -1.6276 -10.2539 -2.44141 -12.207 -2.44141c-5.53385 0 -8.30078 2.76693 -8.30078 8.30078c0 1.95312 0.813802 6.02214 2.44141 12.207c7.48698 27.9948 11.2305 54.1992 11.2305 78.6133c0 30.599 -4.39453 58.1055 -13.1836 82.5195
s-13.1836 36.9466 -13.1836 37.5977c0 12.3698 6.83594 18.5547 20.5078 18.5547c15.9505 0 27.832 -22.4609 35.6445 -67.3828c5.53385 -32.8776 7.64974 -62.3372 6.34766 -88.3789c27.9948 64.1276 67.8711 113.607 119.629 148.438
c51.7579 34.831 112.305 52.2461 181.641 52.2461c66.4062 0 133.626 -25.2279 201.66 -75.6836c73.5677 -54.0365 110.352 -113.118 110.352 -177.246zM728.027 159.863c0 -40.0391 -14.0788 -74.056 -42.2363 -102.051
c-28.1576 -27.9948 -62.0931 -41.9922 -101.807 -41.9922c-40.0391 0 -74.056 14.0788 -102.051 42.2363c-27.9948 28.1576 -41.9922 62.0931 -41.9922 101.807c0 40.0391 14.0788 74.056 42.2363 102.051c28.1576 27.9948 62.0931 41.9922 101.807 41.9922
c39.388 0 73.2422 -14.1602 101.562 -42.4805s42.4805 -62.1745 42.4805 -101.562zM337.402 159.863c0 -40.0391 -14.0788 -74.056 -42.2363 -102.051c-28.1576 -27.9948 -62.0931 -41.9922 -101.807 -41.9922c-40.0391 0 -74.056 14.0788 -102.051 42.2363
c-27.9948 28.1576 -41.9922 62.0931 -41.9922 101.807c0 40.0391 14.0788 74.056 42.2363 102.051c28.1576 27.9948 62.0931 41.9922 101.807 41.9922c39.388 0 73.2422 -14.1602 101.562 -42.4805s42.4805 -62.1745 42.4805 -101.562zM687.988 159.863
c0 28.3203 -10.2539 52.7344 -30.7617 73.2422s-44.9219 30.7617 -73.2422 30.7617c-28.9714 0 -53.5482 -10.0911 -73.7305 -30.2734c-20.1823 -20.1823 -30.2734 -44.7591 -30.2734 -73.7305s10.0911 -53.5482 30.2734 -73.7305
c20.1823 -20.1823 44.7591 -30.2734 73.7305 -30.2734s53.5482 10.0911 73.7305 30.2734s30.2734 44.7591 30.2734 73.7305zM297.363 159.863c0 28.3203 -10.2539 52.7344 -30.7617 73.2422s-44.9219 30.7617 -73.2422 30.7617
c-28.9714 0 -53.5482 -10.0911 -73.7305 -30.2734s-30.2734 -44.7591 -30.2734 -73.7305s10.0911 -53.5482 30.2734 -73.7305s44.7591 -30.2734 73.7305 -30.2734s53.5482 10.0911 73.7305 30.2734c20.1823 20.1823 30.2734 44.7591 30.2734 73.7305z" />
  </g>

</svg>
