<?xml version="1.0" standalone="no"?>
<!DOCTYPE svg PUBLIC "-//W3C//DTD SVG 1.1//EN" "http://www.w3.org/Graphics/SVG/1.1/DTD/svg11.dtd" >
<svg xmlns="http://www.w3.org/2000/svg" xmlns:xlink="http://www.w3.org/1999/xlink" version="1.1" viewBox="0 -200 1000 1000">
  <g transform="matrix(1 0 0 -1 0 800)">
   <path fill="currentColor"
d="M268.555 305.371v-61.0352c40.6901 40.6901 97.6562 81.3802 170.898 122.07v-24.4141c-97.6562 -97.6562 -162.76 -195.312 -195.312 -292.969c-32.5521 97.6562 -97.6562 195.312 -195.312 292.969v24.4141c73.2422 -40.6901 130.208 -81.3802 170.898 -122.07v61.0352
c0 56.9661 14.1602 111.898 42.4805 164.795c28.3203 52.8971 69.0104 93.5872 122.07 122.07s108.073 42.7246 165.039 42.7246c57.2917 0 112.386 -14.2415 165.283 -42.7246s93.5059 -69.1732 121.826 -122.07c28.3203 -52.8971 42.4805 -107.829 42.4805 -164.795
h-48.8281c0 48.8281 -11.9629 95.7845 -35.8887 140.869s-58.5124 79.6712 -103.76 103.76s-92.2852 36.1328 -141.113 36.1328c-48.5026 0 -95.459 -12.0443 -140.869 -36.1328s-80.0781 -58.6751 -104.004 -103.76s-35.8887 -92.041 -35.8887 -140.869z" />
  </g>

</svg>
