<?xml version="1.0" standalone="no"?>
<!DOCTYPE svg PUBLIC "-//W3C//DTD SVG 1.1//EN" "http://www.w3.org/Graphics/SVG/1.1/DTD/svg11.dtd" >
<svg xmlns="http://www.w3.org/2000/svg" xmlns:xlink="http://www.w3.org/1999/xlink" version="1.1" viewBox="0 -201 1000 1000">
  <g transform="matrix(1 0 0 -1 0 800)">
   <path fill="currentColor"
d="M275.094 530.422c5.95247 0 11.0677 2.139 15.3457 6.41699s6.41699 9.3929 6.41699 15.3447c0 5.95247 -2.139 11.0677 -6.41699 15.3457s-9.39323 6.41699 -15.3457 6.41699c-5.95182 0 -10.9736 -2.139 -15.0654 -6.41699
c-4.09245 -4.27799 -6.13867 -9.39323 -6.13867 -15.3457c0 -5.95182 2.04622 -11.0667 6.13867 -15.3447c4.0918 -4.27799 9.11361 -6.41699 15.0654 -6.41699zM510.57 530.422c5.95182 0 10.9736 2.139 15.0654 6.41699c4.09245 4.27799 6.13867 9.3929 6.13867 15.3447
c0 5.95247 -2.04622 11.0677 -6.13867 15.3457c-4.0918 4.27799 -9.11361 6.41699 -15.0654 6.41699c-5.95247 0 -11.0677 -2.139 -15.3457 -6.41699s-6.41699 -9.39323 -6.41699 -15.3457c0 -5.95182 2.139 -11.0667 6.41699 -15.3447s9.39323 -6.41699 15.3457 -6.41699z
M57.4736 427.75c15.6243 0 29.0166 -5.58008 40.1768 -16.7402c11.1595 -11.1602 16.7393 -24.5521 16.7393 -40.1758v-239.94c0 -15.9954 -5.48698 -29.5732 -16.4609 -40.7334s-24.459 -16.7402 -40.4551 -16.7402c-15.9954 0 -29.5732 5.58008 -40.7334 16.7402
s-16.7402 24.738 -16.7402 40.7334v239.94c0 15.6237 5.58008 29.0156 16.7402 40.1758s24.738 16.7402 40.7334 16.7402h-0.0001zM648.954 417.148v-371.629c0 -17.112 -5.95215 -31.6198 -17.8564 -43.5234c-11.9036 -11.9043 -26.2256 -17.8564 -42.9658 -17.8564
h-41.8496v-126.666c0 -15.9954 -5.58008 -29.5732 -16.7402 -40.7334s-24.7383 -16.7402 -40.7344 -16.7402c-15.9954 0 -29.5732 5.58008 -40.7334 16.7402s-16.7402 24.738 -16.7402 40.7334v126.666h-77.0039v-126.666c0 -15.9954 -5.58008 -29.5732 -16.7402 -40.7334
s-24.738 -16.7402 -40.7334 -16.7402c-15.6243 0 -29.0166 5.58008 -40.1768 16.7402c-11.1595 11.1602 -16.7393 24.738 -16.7393 40.7334l-0.558594 126.666h-41.292c-17.112 0 -31.6198 5.95215 -43.5234 17.8564c-11.9043 11.9036 -17.8564 26.4115 -17.8564 43.5234
v371.629h512.244zM519.498 643.138c39.804 -20.4596 71.61 -49.0104 95.418 -85.6523s35.7119 -76.7249 35.7119 -120.249h-516.15c0 43.5241 11.9043 83.6071 35.7129 120.249c23.8079 36.6419 55.7998 65.1927 95.9756 85.6523l-39.6182 73.0986
c-2.60417 4.83594 -1.67415 8.55599 2.79004 11.1602c4.83594 2.23177 8.55599 1.11556 11.1602 -3.34863l40.1758 -73.6562c35.3398 15.6243 72.7259 23.4365 112.158 23.4365s76.8184 -7.81217 112.158 -23.4365l40.1758 73.6562
c2.60417 4.46419 6.32422 5.5804 11.1602 3.34863c4.46419 -2.60417 5.39421 -6.32422 2.79004 -11.1602zM785.664 370.834v-239.94c0 -15.9954 -5.58008 -29.5732 -16.7402 -40.7334s-24.738 -16.7402 -40.7334 -16.7402c-15.6243 0 -29.0166 5.58008 -40.1768 16.7402
c-11.1595 11.1602 -16.7393 24.738 -16.7393 40.7334v239.94c0 15.9961 5.57975 29.4811 16.7393 40.4551c11.1602 10.974 24.5524 16.4609 40.1768 16.4609c15.9954 0 29.5732 -5.48698 40.7334 -16.4609s16.7402 -24.459 16.7402 -40.4551z" />
  </g>

</svg>
