<?xml version="1.0" standalone="no"?>
<!DOCTYPE svg PUBLIC "-//W3C//DTD SVG 1.1//EN" "http://www.w3.org/Graphics/SVG/1.1/DTD/svg11.dtd" >
<svg xmlns="http://www.w3.org/2000/svg" xmlns:xlink="http://www.w3.org/1999/xlink" version="1.1" viewBox="0 -200 1000 1000">
  <g transform="matrix(1 0 0 -1 0 800)">
   <path fill="currentColor"
d="M795.898 541.699c0 -58.9193 -5.28971 -101.318 -15.8691 -127.197s-36.5397 -59.4889 -77.8809 -100.83l-155.273 -155.273c-27.3438 -27.3438 -49.8047 -45.8984 -67.3828 -55.6641c-23.4375 -13.0208 -51.5951 -19.5312 -84.4727 -19.5312h-14.6484v-162.598
l-307.129 307.129l307.129 307.129v-162.598h126.465v427.734l144.531 -144.531l144.531 144.531zM748.047 504.102v181.641l-96.6797 -96.6797l-96.1914 96.6797v-313.477h38.5742c53.3854 0 91.4714 8.46354 114.258 25.3906
c26.6927 19.8568 40.0391 55.3385 40.0389 106.445zM642.09 323.926h-310.059v92.2852l-187.988 -188.477l187.988 -188.477v92.2852h48.3398c46.5495 0 84.7982 14.974 114.746 44.9219z" />
  </g>

</svg>
