<?xml version="1.0" standalone="no"?>
<!DOCTYPE svg PUBLIC "-//W3C//DTD SVG 1.1//EN" "http://www.w3.org/Graphics/SVG/1.1/DTD/svg11.dtd" >
<svg xmlns="http://www.w3.org/2000/svg" xmlns:xlink="http://www.w3.org/1999/xlink" version="1.1" viewBox="0 -200 1000 1000">
  <g transform="matrix(1 0 0 -1 0 800)">
   <path fill="currentColor"
d="M519.043 927.93h0.976562c-23.112 -34.5052 -34.668 -82.6823 -34.668 -144.531v-12.207c0 -40.3646 12.0443 -76.8229 36.1328 -109.375c24.7396 -27.6693 50.7812 -41.5039 78.125 -41.5039h6.34766c16.6016 0 30.9245 3.58073 42.9688 10.7422
c13.0208 -13.6719 23.6003 -26.8555 31.7383 -39.5508c14.3229 -21.8099 25.5534 -46.0612 33.6914 -72.7539c7.48698 -25.7161 11.2305 -45.4102 11.2305 -59.082h-117.188v0.488281c0 7.8125 -4.23177 22.6237 -12.6953 44.4336
c-6.1849 13.9974 -14.974 27.5065 -26.3672 40.5273c-2.27865 3.90625 -9.27734 10.9049 -20.9961 20.9961c-32.2266 25.3906 -67.7083 38.0859 -106.445 38.0859c-15.625 0 -32.8776 -2.76693 -51.7578 -8.30078c-1.30208 8.78906 -1.95312 19.5312 -1.95312 32.2266
v10.2539c0 61.5234 16.276 124.023 48.8281 187.5c11.7188 22.1354 27.6693 45.0846 47.8516 68.8477c15.625 16.6016 27.0182 27.6693 34.1798 33.2028zM604.004 786.328h1.46484c21.8099 0 40.0391 -9.4401 54.6875 -28.3203
c8.46354 -12.3698 12.6953 -24.9023 12.6953 -37.5977v-3.41797c0 -25.3906 -12.3698 -45.4102 -37.1094 -60.0586c-11.0677 -4.88281 -21.3216 -7.32422 -30.7617 -7.32422c-25.3906 0 -45.5729 11.8815 -60.5469 35.6445
c-5.53385 11.7188 -8.30078 22.6237 -8.30078 32.7148c0 17.2526 6.1849 32.8776 18.5547 46.875c14.3229 14.3229 30.7617 21.4844 49.3164 21.4845zM279.785 670.117h0.488281l58.1055 -101.074v-0.976562c-10.0911 -7.16146 -21.1589 -18.5547 -33.2031 -34.1797
c-20.8333 -30.2734 -31.25 -62.8255 -31.25 -97.6562c0 -42.9688 15.625 -81.7057 46.875 -116.211l17.5781 -16.1133l-58.5938 -101.074c-9.76562 5.20833 -26.2044 19.5312 -49.3164 42.9688c-30.2734 35.1562 -50.6185 71.4518 -61.0352 108.887
c18.2292 10.7422 31.901 28.8086 41.0156 54.1992c2.60417 11.0677 3.90625 20.3451 3.90625 27.832c0 28.6458 -11.8815 53.5482 -35.6445 74.707l-9.27734 6.83594c6.83594 21.1589 14.3229 39.2253 22.4609 54.1992c7.48698 14.3229 19.694 31.7383 36.6211 52.2461
c21.1589 22.1354 37.1094 36.4583 47.8516 42.9688zM115.723 504.59h1.95312c21.8099 0 40.0391 -9.4401 54.6875 -28.3203c8.46354 -12.0443 12.6953 -24.9023 12.6953 -38.5742v-2.44141c0 -21.8099 -9.76562 -40.2018 -29.2969 -55.1758
c-12.3698 -8.13802 -25.3906 -12.207 -39.0625 -12.207c-22.7865 0 -41.8294 10.2539 -57.1289 30.7617c-7.16146 12.0443 -10.7422 23.4375 -10.7422 34.1797v7.8125c0 16.9271 8.13802 33.2031 24.4141 48.8281c13.6719 10.0911 27.832 15.1367 42.4805 15.1367z
M608.398 412.793h117.188c-2.27865 -24.0885 -6.67318 -46.224 -13.1836 -66.4062c-7.8125 -21.4844 -16.4388 -40.2018 -25.8789 -56.1523c-8.46354 -14.6484 -20.6706 -30.7617 -36.6211 -48.3398l-0.488281 -0.488281h-0.488281
c-13.9974 7.16146 -29.1341 10.7422 -45.4102 10.7422c-23.4375 0 -45.2474 -8.78906 -65.4297 -26.3672c-12.6953 -13.0208 -20.8333 -25.2279 -24.4141 -36.6211c-4.23177 -13.3464 -6.34766 -23.2747 -6.34766 -29.7852
c-21.1589 -4.88281 -41.8294 -7.32422 -62.0117 -7.32422h-6.34766c-40.3646 0 -79.7526 8.95182 -118.164 26.8555v0.488281l58.1055 101.074c21.4844 -8.13802 42.4805 -12.207 62.9883 -12.207c51.4323 0 95.3776 21.1589 131.836 63.4766
c11.7188 16.276 20.0195 30.599 24.9023 42.9688c6.51042 19.5312 9.76562 32.2266 9.76508 38.0859zM600.586 222.852h7.32422c19.2057 0 36.4583 -8.95182 51.7578 -26.8555c8.78906 -13.0208 13.1836 -26.2044 13.1836 -39.5508v-4.39453
c0 -14.6484 -5.69661 -28.9714 -17.0898 -42.9688c-14.974 -14.974 -31.0872 -22.4609 -48.3398 -22.4609h-5.37109c-18.5547 0 -35.319 8.30078 -50.293 24.9023c-10.0911 13.3464 -15.1367 26.6927 -15.1367 40.0391v6.34766c0 18.5547 8.46354 35.319 25.3906 50.293
c13.3464 9.76562 26.2044 14.6484 38.5742 14.6485z" />
  </g>

</svg>
