<?xml version="1.0" standalone="no"?>
<!DOCTYPE svg PUBLIC "-//W3C//DTD SVG 1.1//EN" "http://www.w3.org/Graphics/SVG/1.1/DTD/svg11.dtd" >
<svg xmlns="http://www.w3.org/2000/svg" xmlns:xlink="http://www.w3.org/1999/xlink" version="1.1" viewBox="0 -200 1000 1000">
  <g transform="matrix(1 0 0 -1 0 800)">
   <path fill="currentColor"
d="M439.453 683.789v-683.594l-195.312 195.312h-195.312v292.969h195.312zM577.148 102.246c58.5938 66.0807 87.8906 145.833 87.8906 239.258c0 93.75 -28.9714 173.828 -86.9141 240.234l-15.625 16.6016c21.4844 -12.3698 41.0156 -27.5065 58.5938 -45.4102
c57.9427 -58.2682 86.9141 -128.743 86.9141 -211.426c0 -82.3568 -29.1341 -152.507 -87.4023 -210.449c-18.2292 -17.9036 -37.9232 -33.0404 -59.082 -45.4102zM655.762 22.6562c77.7995 87.8906 116.699 194.173 116.699 318.848
c0 125 -38.5742 231.608 -115.723 319.824c-6.83594 7.8125 -13.8346 15.2995 -20.9961 22.4609c28.6458 -16.6016 54.8503 -36.7839 78.6133 -60.5469c77.1484 -77.7995 115.723 -171.712 115.723 -281.738c0 -109.701 -38.8997 -203.288 -116.699 -280.762
c-24.0885 -23.763 -50.293 -43.9453 -78.6133 -60.5469c7.16146 7.16146 14.1602 14.6484 20.9961 22.4609zM499.023 182.324c38.737 43.9453 58.1055 97.0052 58.1055 159.18c0 62.8255 -19.2057 116.211 -57.6172 160.156
c-3.58073 3.90625 -7.16146 7.64974 -10.7422 11.2305c14.3229 -8.46354 27.5065 -18.5547 39.5508 -30.2734c38.4115 -38.737 57.6172 -85.7747 57.6172 -141.113c0 -54.6875 -19.5312 -101.4 -58.5938 -140.137c-11.7188 -11.7188 -24.7396 -21.8099 -39.0625 -30.2734
c3.58073 3.58073 7.16146 7.32422 10.7422 11.2305v-0.0002z" />
  </g>

</svg>
