<?xml version="1.0" standalone="no"?>
<!DOCTYPE svg PUBLIC "-//W3C//DTD SVG 1.1//EN" "http://www.w3.org/Graphics/SVG/1.1/DTD/svg11.dtd" >
<svg xmlns="http://www.w3.org/2000/svg" xmlns:xlink="http://www.w3.org/1999/xlink" version="1.1" viewBox="0 -200 1000 1000">
  <g transform="matrix(1 0 0 -1 0 800)">
   <path fill="currentColor"
d="M438.965 901.074h16.6016c64.4531 0 128.906 -17.9036 193.359 -53.7109c18.8802 -11.0677 38.5742 -25.2279 59.082 -42.4805c21.1589 -19.5312 36.1328 -34.668 44.9219 -45.4102c62.5 -76.4974 93.75 -162.435 93.75 -257.812
c0 -84.3099 -25.3906 -162.435 -76.1719 -234.375c-10.0911 -13.6719 -24.2513 -30.1107 -42.4805 -49.3164c-28.9714 -26.3672 -51.2695 -43.9453 -66.8945 -52.7344c-65.7552 -41.3411 -137.044 -62.0117 -213.867 -62.0117c-90.8203 0 -173.665 28.9714 -248.535 86.9141
c-27.3438 22.4609 -49.6419 45.0846 -66.8945 67.8711c-14.3229 19.2057 -25.3906 35.9701 -33.2031 50.293c-33.2031 62.1745 -49.8047 124.186 -49.8047 186.035v16.1133c0 61.5234 16.4388 123.21 49.3164 185.059c10.7422 19.5312 24.9023 40.2018 42.4805 62.0117
c19.2057 22.1354 37.9232 40.6901 56.1523 55.6641l28.8086 20.9961c50.4557 32.5521 101.725 53.0599 153.809 61.5234c23.112 3.58073 42.9688 5.37109 59.5699 5.3703zM129.883 502.148c0 -69.6615 21.4844 -133.626 64.4531 -191.895
c6.51042 -9.11458 19.8568 -23.763 40.0391 -43.9453l8.78906 -7.32422c60.5469 -49.4792 128.255 -74.2188 203.125 -74.2188h3.90625c67.3828 0 130.208 21.1589 188.477 63.4766c11.3932 8.13802 26.8555 22.2982 46.3867 42.4805l9.76562 11.7188
c46.875 60.5469 70.3125 126.302 70.3125 197.266v3.90625c0 79.7526 -27.9948 151.204 -83.9844 214.355c-20.8333 21.1589 -36.9466 35.319 -48.3398 42.4805c-56.3151 39.7135 -118.164 59.5703 -185.547 59.5703c-78.125 0 -148.438 -26.6927 -210.938 -80.0781
c-24.4141 -23.763 -38.5742 -39.388 -42.4805 -46.875c-12.3698 -15.625 -22.4609 -31.7383 -30.2734 -48.3398c-22.4609 -44.9219 -33.6914 -92.4479 -33.6914 -142.578zM445.312 726.27h3.90625c56.6406 0 107.259 -20.1823 151.855 -60.5469
c19.5312 -19.8568 32.7148 -36.2956 39.5508 -49.3164c20.5078 -36.1328 30.7617 -72.2656 30.7617 -108.398v-12.207c0 -39.388 -12.5326 -78.9388 -37.5977 -118.652c-6.1849 -9.4401 -17.4154 -22.6237 -33.6914 -39.5508l-12.207 -10.2539
c-12.3698 -9.76562 -25.0651 -17.9036 -38.0859 -24.4141c-32.5521 -16.276 -64.4531 -24.4141 -95.7031 -24.4141h-12.207c-37.1094 0 -74.3815 10.9049 -111.816 32.7148c-12.3698 7.16146 -27.832 19.8568 -46.3867 38.0859
c-21.1589 23.112 -36.9466 48.9909 -47.3633 77.6367c-2.92969 8.46354 -5.37109 17.2526 -7.32422 26.3672h105.957l6.83594 -13.1836c15.625 -25.7161 38.0859 -43.7826 67.3828 -54.1992c12.6953 -3.90625 25.0651 -5.85938 37.1094 -5.85938h2.44141
c30.9245 0 58.5938 11.0677 83.0078 33.2031c25.3906 25.7161 38.0859 54.6875 38.0859 86.9141v3.41797c0 37.4349 -15.625 69.1732 -46.875 95.2148c-22.7865 17.2526 -48.0143 25.8789 -75.6836 25.8789c-39.388 0 -72.4284 -16.9271 -99.1211 -50.7812
c-4.88281 -7.48698 -8.46354 -13.6719 -10.7422 -18.5547h-107.422c3.58073 15.2995 9.4401 31.5755 17.5781 48.8281c6.83594 12.3698 14.3229 24.0885 22.4609 35.1562c18.2292 21.4844 32.7148 35.6445 43.457 42.4805c40.6901 29.6224 84.6354 44.4336 131.836 44.433z
" />
  </g>

</svg>
