<?xml version="1.0" standalone="no"?>
<!DOCTYPE svg PUBLIC "-//W3C//DTD SVG 1.1//EN" "http://www.w3.org/Graphics/SVG/1.1/DTD/svg11.dtd" >
<svg xmlns="http://www.w3.org/2000/svg" xmlns:xlink="http://www.w3.org/1999/xlink" version="1.1" viewBox="0 -200 1000 1000">
  <g transform="matrix(1 0 0 -1 0 800)">
   <path fill="currentColor"
d="M280.762 354.199v37.1094l-85.4492 -49.3164l85.4492 -49.3164v37.1094h219.727v24.4141zM146.484 647.168h-61.0352v-61.0352h-36.6211v97.6562h97.6562zM219.727 683.789h146.484v-36.6211h-146.484v36.6211zM146.484 97.8516h-97.6562v97.6562h36.6211v-61.0352
h61.0352v-36.6211zM48.8281 293.164v195.312h36.6211v-195.312h-36.6211zM195.312 299.512l-73.2422 42.4805l73.2422 42.4805v201.66h305.176v61.0352h-61.0352v36.6211h97.6562v-97.6562h146.484v-585.938h-488.281v299.316zM231.934 405.469l85.4492 49.3164v-63.9648
h219.727v-97.6562h-219.727v-63.9648l-85.4492 49.3164v-241.699h415.039v512.695h-415.039z" />
  </g>

</svg>
