<?xml version="1.0" standalone="no"?>
<!DOCTYPE svg PUBLIC "-//W3C//DTD SVG 1.1//EN" "http://www.w3.org/Graphics/SVG/1.1/DTD/svg11.dtd" >
<svg xmlns="http://www.w3.org/2000/svg" xmlns:xlink="http://www.w3.org/1999/xlink" version="1.1" viewBox="0 -200 1001 1000">
  <g transform="matrix(1 0 0 -1 0 800)">
   <path fill="currentColor"
d="M881.587 517.844c13.9258 81.4902 -37.5254 72.4629 -69.1973 103.359c-15.5615 15.1787 -29.2861 30.7012 -46.043 44.8975c-39.8818 33.7832 -85.8223 34.9385 -128.727 40.917c-17.8809 2.49316 -40.542 11.8145 -62.8281 1.68164l-9.98047 -6.01758
c-1.28418 -0.494141 -2.48438 -1.04883 -3.86133 -1.43164c-27.4209 -7.70605 -169.651 25.8047 -214.711 13.3066l-30.8291 -10.8418c-35.0869 -11.2041 -51.8164 -25.3174 -72.959 -35.2432c-26.9209 -12.6416 -50.2646 -27.3486 -71.085 -52.1885l-31.2734 -33.8594
c-0.711914 -0.87793 -1.57031 -2.28809 -2.24902 -3.19824l-36.873 -103.059c-4.08105 -35.1494 -33.8691 -119.749 24.3662 -187.908l73.7373 -60.7598c12.877 -8.19434 11.916 -10.415 23.6211 -18.3486c18.707 -12.6748 29.6953 -20.6973 53.1006 -33.0225
c7.96582 -4.19727 10.1865 -5.62402 16.7939 -8.62207c4.24609 -1.9209 7.13184 -2.93652 13.4863 -5.55762l91.9463 -29.4082c136.687 -13.6348 304.029 -10.292 386.772 114.807c96.0605 145.226 74.6221 140.762 96.792 270.497zM992.436 488.447
c-20.7354 -128.559 -66.3848 -235.971 -132.99 -328.997c-72.9873 -101.938 -210.809 -115.273 -317.538 -118.126c-164.845 -4.41406 -224.646 4.09082 -341.076 83.6494c-51.8955 35.459 -136.321 109.832 -167.951 170.885l-25.4766 56.6797
c-5.66504 15.3838 -4.51758 8.90527 -5.95605 29.8242c-10.4551 152.037 35.6689 235.183 140.524 321.669c56.7324 46.7959 156.354 98.917 236 88.6133c45.3633 -5.86914 21.1943 7.52246 94.7344 0.249023c33.3447 -3.29785 54.2295 -29.9961 80.4473 -12.7031
c24.1035 15.9062 11.208 26.7441 85.0762 14.6025c32.2207 -5.29688 60.9355 -9.36133 86.4316 -20.4922c11.9814 -5.23535 22.4551 -8.24414 35.2988 -16.7109c6.94922 -4.58105 8.12012 -6.11816 15.8096 -10.5264c29.5303 -16.9336 59.7168 -31.8955 86.5205 -55.0518
c19.3525 -16.7109 35.9541 -34.5391 65.2178 -46.3418c28.6963 -11.5703 43.2412 -25.3555 57.6592 -54.6748c21.4805 -43.6709 15.6328 -50.6768 7.26825 -102.548zM237.896 376.738c29.123 29.375 88.7549 8.11719 124.607 -1.23242
c32.6035 -8.49414 90.1562 -26.5215 124.677 -28.0869c48.9443 -2.22559 86.6416 7.07324 114.279 35.1543c16.916 17.1943 20.6318 27.7705 54.1035 23.0742c21.1182 -2.96582 38.2314 -15.5068 50.3496 -27.3164c1.02539 -23.3398 3.87988 -26.3037 -6.78027 -41.1436
c-52.5713 -73.2021 -101.675 -79.8418 -182.319 -81.1738c-39.0332 -0.650391 -136.879 14.6064 -178.325 37.0752l-62.5322 24.9053c-22.5869 8.59473 -38.9453 27.2979 -38.0596 58.7441zM522.058 570.759l6.79004 9.67676
c0.716797 0.838867 1.83691 2.06543 2.61426 2.89258c33.1807 35.3984 92.9492 13.0527 83.4658 -40.5225c-7.86426 -44.4209 -97.6318 -52.0605 -92.8701 27.9532zM284.348 610.659c10.7871 0.5 13.7148 -1.27051 20.4258 -1.32031
c1.95898 -0.0175781 19.9297 9.62109 40.5098 -18.9316c9.4834 -13.1582 15.6035 -35.5322 7.94727 -54.5967l-6.49023 -9.63867c-10.9502 -8.56641 -35.4727 -15.9834 -54.126 4.40234c-28.6221 31.291 -29.9766 47.2129 -8.26664 80.0849z" />
  </g>

</svg>
