<?xml version="1.0" standalone="no"?>
<!DOCTYPE svg PUBLIC "-//W3C//DTD SVG 1.1//EN" "http://www.w3.org/Graphics/SVG/1.1/DTD/svg11.dtd" >
<svg xmlns="http://www.w3.org/2000/svg" xmlns:xlink="http://www.w3.org/1999/xlink" version="1.1" viewBox="0 -200 1000 1000">
  <g transform="matrix(1 0 0 -1 0 800)">
   <path fill="currentColor"
d="M97.6562 104.199c86.263 -40.0391 175.781 -60.0586 268.555 -60.0586c92.1224 0 181.641 20.1823 268.555 60.5469v280.762c-86.9141 -37.1094 -176.432 -55.6641 -268.555 -55.6641c-92.4479 0 -181.966 18.3919 -268.555 55.1758zM390.625 195.996v-122.559h-48.8281
v122.559c-0.976562 0.651042 -1.79036 1.13932 -2.44141 1.46484c-8.78906 4.55729 -15.4622 11.1491 -20.0195 19.7754s-6.83594 17.6595 -6.83594 27.0996s2.27865 18.4733 6.83594 27.0996s11.1491 15.2181 19.7754 19.7754s17.6595 6.83594 27.0996 6.83594
s18.4733 -2.27865 27.0996 -6.83594s15.2181 -11.1491 19.7754 -19.7754s6.83594 -17.6595 6.83594 -27.0996s-2.27865 -18.4733 -6.83594 -27.0996s-11.0677 -15.2181 -19.5312 -19.7754c-0.976562 -0.325521 -1.95312 -0.813802 -2.92979 -1.46484zM219.727 464.062
c6.51042 0 12.6953 -1.05794 18.5547 -3.17383s10.3353 -5.12695 13.4277 -9.0332s4.63867 -7.97526 4.63867 -12.207s-1.54622 -8.30078 -4.63867 -12.207s-7.56836 -6.91732 -13.4277 -9.0332s-12.0443 -3.17383 -18.5547 -3.17383s-12.6953 1.05794 -18.5547 3.17383
s-10.3353 5.12695 -13.4277 9.0332s-4.63867 7.97526 -4.63867 12.207s1.54622 8.30078 4.63867 12.207s7.56836 6.91732 13.4277 9.0332s12.0443 3.17383 18.5547 3.17383zM488.281 458.203v22.9492c-40.0391 8.13802 -80.7292 12.207 -122.07 12.207
c-90.8203 0 -178.548 -19.2057 -263.184 -57.6172c84.6354 -38.0859 172.363 -57.1289 263.184 -57.1289c89.8438 0 177.246 19.2057 262.207 57.6172c-30.2734 13.3464 -60.7096 24.4141 -91.3086 33.2031v-11.2305c2.92969 -1.6276 5.53385 -3.74349 7.8125 -6.34766
c2.92969 -3.90625 4.39453 -7.97526 4.39453 -12.207s-1.54622 -8.30078 -4.63867 -12.207s-7.56836 -6.91732 -13.4277 -9.0332s-12.0443 -3.17383 -18.5547 -3.17383c-6.51042 0 -12.6953 1.05794 -18.5547 3.17383s-10.3353 5.12695 -13.4277 9.0332
s-4.63867 7.97526 -4.63867 12.207s1.6276 8.30078 4.88281 12.207c1.95312 2.60417 4.39453 4.72005 7.3239 6.34776zM683.594 73.9258c-102.214 -52.4089 -208.008 -78.6133 -317.383 -78.6133c-110.026 0 -215.82 26.0417 -317.383 78.125v390.625
c101.562 52.0833 207.357 78.125 317.383 78.125c41.3411 0 82.0312 -3.74349 122.07 -11.2305v30.2734c0 29.6224 7.32422 58.2682 21.9727 85.9375c14.6485 27.6693 35.6445 48.8281 62.9883 63.4766s55.8268 21.9727 85.4492 21.9727s58.2682 -7.32422 85.9375 -21.9727
s48.8281 -35.8073 63.4766 -63.4766s21.9727 -56.3151 21.9727 -85.9375v-121.582h-48.8281v122.07c0 21.1589 -5.28971 41.5039 -15.8691 61.0352s-25.6348 34.5866 -45.166 45.166s-39.8763 15.8691 -61.0352 15.8691s-41.5853 -5.28971 -61.2793 -15.8691
s-34.7493 -25.6348 -45.166 -45.166s-15.625 -39.8763 -15.625 -61.0352v-41.5039c49.1536 -13.0208 97.6562 -31.7383 145.508 -56.1523h0.976562v-390.137z" />
  </g>

</svg>
