<?xml version="1.0" standalone="no"?>
<!DOCTYPE svg PUBLIC "-//W3C//DTD SVG 1.1//EN" "http://www.w3.org/Graphics/SVG/1.1/DTD/svg11.dtd" >
<svg xmlns="http://www.w3.org/2000/svg" xmlns:xlink="http://www.w3.org/1999/xlink" version="1.1" viewBox="0 -200 1000 1000">
  <g transform="matrix(1 0 0 -1 0 800)">
   <path fill="currentColor"
d="M514.16 531.445c0 -19.2057 -6.02214 -35.4818 -18.0664 -48.8281c-13.0208 -14.3229 -30.1107 -21.4844 -51.2695 -21.4844c-31.901 0 -52.8971 15.7878 -62.9883 47.3633c-21.8099 -34.1797 -55.3385 -51.2695 -100.586 -51.2695
c-31.5755 0 -59.4076 5.53385 -83.4961 16.6016c-30.9245 14.3229 -46.3867 35.1562 -46.3867 62.5c0 40.6901 26.8555 72.2656 80.5664 94.7266c32.2266 13.3464 79.2643 21.6471 141.113 24.9023v20.9961c0 22.7865 -6.67318 41.9922 -20.0195 57.6172
c-14.3229 17.5781 -33.6914 26.3672 -58.1055 26.3672c-30.599 0 -55.013 -7.64974 -73.2422 -22.9492c22.7865 -4.23177 34.1797 -16.276 34.1797 -36.1328c0 -24.4141 -13.8346 -36.6211 -41.5039 -36.6211c-27.3438 0 -41.0156 12.3698 -41.0156 37.1094
c0 26.3672 14.1602 47.526 42.4805 63.4766c24.0885 13.6719 51.1068 20.5078 81.0547 20.5078c45.8984 0 82.8451 -13.3464 110.84 -40.0391c19.5312 -18.5547 29.2969 -46.875 29.2969 -84.9609v-138.672c0 -20.1823 7.97526 -30.2734 23.9258 -30.2734
s23.9258 17.2526 23.9258 51.7578c0 5.85938 -0.325521 16.276 -0.976562 31.25h30.2734zM609.863 409.863c0 -3.58073 -0.325521 -6.1849 -0.976562 -7.8125l-256.836 -580.078c-3.58073 -8.13802 -9.92839 -12.207 -19.043 -12.207s-15.4622 4.06901 -19.043 12.207
l-256.836 580.078c-0.651042 1.6276 -0.976562 4.23177 -0.976562 7.8125c0 13.3464 6.67318 20.0195 20.0195 20.0195c8.46354 0 14.4857 -4.06901 18.0664 -12.207l238.77 -538.574l238.77 538.574c3.58073 8.13802 9.60286 12.207 18.0664 12.207
c13.3464 0 20.0195 -6.67318 20.0195 -20.0195h-0.000676zM373.047 567.09v64.4531c-40.3646 -1.95312 -74.2188 -9.76562 -101.562 -23.4375c-33.5286 -16.9271 -50.293 -40.5273 -50.293 -70.8008c0 -15.2995 6.34766 -28.2389 19.043 -38.8184
s27.9948 -15.8691 45.8984 -15.8691c25.7161 0 46.875 8.46354 63.4766 25.3906c15.625 16.276 23.4375 35.9701 23.4375 59.082z" />
  </g>

</svg>
