<?xml version="1.0" standalone="no"?>
<!DOCTYPE svg PUBLIC "-//W3C//DTD SVG 1.1//EN" "http://www.w3.org/Graphics/SVG/1.1/DTD/svg11.dtd" >
<svg xmlns="http://www.w3.org/2000/svg" xmlns:xlink="http://www.w3.org/1999/xlink" version="1.1" viewBox="0 -200 1000 1000">
  <g transform="matrix(1 0 0 -1 0 800)">
   <path fill="currentColor"
d="M685.664 593.538c79.3203 -81.3516 87.0449 -137.262 98.2031 -320.276c2.79004 -51.333 8.92773 -99.877 13.9502 -114.384c9.48438 -27.8984 69.1875 -119.964 78.1152 -120.521c0.655273 0 1.45801 0.364258 2.3877 1.05566
c-40.8037 -58.7959 -95.001 -107.621 -158.185 -142.075c2.10645 10.9961 -19.3115 60.1182 -54 121.49c-38.5 69.1885 -42.9629 87.0439 -30.6885 128.333c11.1602 38.501 11.7168 35.1523 -8.36914 58.5879l-17.2969 19.5283l8.92773 22.877
c23.4346 58.5869 15.0654 123.312 -19.5293 152.885c-12.833 10.043 -23.4346 13.9482 -40.1738 13.3906c-30.6885 0 -43.5225 -6.1377 -61.3779 -26.7822c-13.3906 -16.1816 -18.4121 -34.5947 -21.7598 -83.6963l-1.6748 -18.9707h-39.0566h-39.0586l-2.79004 38.5
c-3.90527 54.6807 -22.3184 80.3477 -57.4707 80.3477c-59.1445 0 -82.0215 -71.9785 -47.4277 -151.769l11.7178 -26.7822l-15.0654 -11.7178c-9.48633 -7.81055 -14.5068 -16.7383 -14.5068 -27.3398c0 -13.9492 5.5791 -20.0869 40.7314 -43.5215
c75.3252 -50.2178 87.0439 -50.7764 196.963 -7.25391c72.5361 28.457 108.247 36.8262 91.5078 20.6445c-11.7178 -10.043 -161.254 -74.21 -185.246 -78.6738c-12.834 -2.23145 -30.1309 0 -53.5654 7.81152c-39.0576 13.3916 -40.1738 13.3916 -40.1738 6.69531
c0 -2.78906 15.623 -15.6221 34.0361 -27.8984c47.4277 -31.8037 60.8193 -30.6875 150.652 10.6016c69.7461 32.3623 94.2969 39.6162 94.2969 27.8984c0 -5.5791 -116.616 -85.3691 -148.979 -102.108c-28.4561 -15.0654 -53.5654 -11.7168 -102.108 12.834
c-59.1445 29.5723 -68.0723 29.0146 -87.6016 -3.90625c-8.36914 -15.0654 -21.2021 -38.5 -27.8984 -53.0068l-10.3711 -22.1562c-21.0801 15.9219 -40.7432 33.6152 -58.7686 52.8584l18.3643 21.1895c11.7168 13.3906 28.457 34.5938 36.8262 46.3115l15.0654 21.7607
l-1.6748 179.666c-2.23145 195.848 0.558594 218.725 30.6895 278.428c19.5293 38.5 75.3262 92.623 116.058 112.711c103.58 52.9863 224.736 26.8584 306.325 -53.5654zM573.513 336.872c8.37012 -6.69531 16.1816 -20.0869 18.4131 -30.6885
c3.34863 -18.4131 -5.02148 -55.7979 -14.5068 -61.377c-2.23242 -1.6748 -18.4131 3.34668 -35.71 11.1582c-29.5732 12.834 -31.2471 15.0654 -31.2471 33.4785c0 24.5508 12.833 51.333 26.2246 54.6807c18.4131 5.02344 22.3193 3.90625 36.8262 -7.2519z
M365.389 292.233c0 -17.8555 -3.34766 -23.4346 -20.6445 -36.8262l-20.0869 -15.0654l-13.3906 15.0654c-17.2969 20.0859 -17.8555 57.4707 -1.11621 75.3262c21.2021 22.877 55.2383 -0.558594 55.2382 -38.5zM499.999 800c137.952 0 262.901 -55.8887 353.395 -146.248
c90.5801 -90.4443 146.606 -215.28 146.606 -353.066c0 -137.784 -56.0264 -262.621 -146.606 -353.067c-90.4932 -90.3584 -215.442 -146.248 -353.395 -146.248c-137.951 0 -262.898 55.8896 -353.394 146.249c-90.5791 90.4453 -146.605 215.282 -146.605 353.066
s56.0264 262.62 146.606 353.066c90.4941 90.3594 215.441 146.248 353.393 146.248zM797.076 597.12c-75.9746 75.8613 -181.004 122.783 -297.077 122.783c-116.072 0 -221.101 -46.9219 -297.075 -122.783c-75.8887 -75.7754 -122.827 -180.574 -122.827 -296.435
s46.9385 -220.659 122.826 -296.435c75.9746 -75.8623 181.004 -122.784 297.076 -122.784c116.073 0 221.103 46.9219 297.077 122.783c75.8887 75.7754 122.827 180.575 122.827 296.436c0 115.861 -46.9385 220.659 -122.827 296.435z" />
  </g>

</svg>
