<?xml version="1.0" standalone="no"?>
<!DOCTYPE svg PUBLIC "-//W3C//DTD SVG 1.1//EN" "http://www.w3.org/Graphics/SVG/1.1/DTD/svg11.dtd" >
<svg xmlns="http://www.w3.org/2000/svg" xmlns:xlink="http://www.w3.org/1999/xlink" version="1.1" viewBox="0 -200 1000 1000">
  <g transform="matrix(1 0 0 -1 0 800)">
   <path fill="currentColor"
d="M433.594 797.559c21.8099 0 35.6445 -1.13932 41.5039 -3.41797c54.0365 -13.6719 89.5182 -24.4141 106.445 -32.2266c15.9505 -8.13802 23.9258 -18.8802 23.9258 -32.2266v-2.92969c0 -15.625 -10.9049 -27.5065 -32.7148 -35.6445
c-11.7188 -4.88281 -31.0872 -10.9049 -58.1055 -18.0664c-30.599 -9.11458 -51.1068 -13.6719 -61.5234 -13.6719l-30.7617 -0.488281h-191.406c-15.2995 0 -22.9492 -0.813802 -22.9492 -2.44141c-2.60417 -1.95312 -5.20833 -5.20833 -7.8125 -9.76562
c-3.90625 -4.88281 -5.85938 -10.9049 -5.85938 -18.0664l-0.488281 -22.9492v-197.266c0 -21.4844 0.813802 -33.0404 2.44141 -34.668c6.51042 -11.7188 11.8815 -17.5781 16.1133 -17.5781l10.7422 -0.976562h195.312c34.1797 0 53.5482 -1.30208 58.1055 -3.90625
c42.9688 -11.0677 74.5443 -20.1823 94.7266 -27.3438c10.0911 -4.23177 18.2292 -8.78906 24.4141 -13.6719c6.51042 -6.83594 9.76562 -14.4857 9.76562 -22.9492v-2.92969c0 -15.625 -11.0677 -27.5065 -33.2031 -35.6445
c-13.0208 -5.53385 -36.7839 -12.8581 -71.2891 -21.9727c-22.4609 -6.51042 -38.8997 -9.76562 -49.3164 -9.76562l-35.1562 -0.488281h-237.793c-33.5286 0 -50.6185 0.976562 -51.2695 2.92969c-11.7188 4.88281 -23.763 11.3932 -36.1328 19.5312
c-8.13802 6.1849 -15.2995 13.3464 -21.4844 21.4844c-13.3464 22.4609 -20.0195 36.6211 -20.0195 42.4805c-0.651042 5.85938 -0.976562 15.9505 -0.976562 30.2734v348.145c0 21.4844 0.976562 34.0169 2.92969 37.5977c5.20833 13.0208 12.3698 26.0417 21.4844 39.0625
c8.46354 9.76562 15.625 16.276 21.4844 19.5312c7.16146 4.88281 17.4154 10.2539 30.7617 16.1133c3.25521 2.60417 13.5091 3.90625 30.7617 3.90625zM284.18 598.34h4.39453c21.8099 0 97.819 -14.8112 228.027 -44.4336
c25.7161 -6.51042 49.8047 -13.1836 72.2656 -20.0195c21.8099 -7.16146 32.7148 -14.4857 32.7148 -21.9727c0.325521 0 0.488281 -1.46484 0.488281 -4.39453h0.488281c0 -5.53385 -2.11589 -10.2539 -6.34766 -14.1602
c-6.1849 -5.53385 -24.4141 -12.6953 -54.6875 -21.4844c-73.2422 -18.8802 -152.832 -36.2956 -238.77 -52.2461c-17.5781 -2.60417 -29.9479 -3.90625 -37.1094 -3.90625c-8.46354 0 -13.6719 2.11589 -15.625 6.34766c-4.55729 6.1849 -6.83594 15.7878 -6.83594 28.8086
v0.976562c0 11.3932 2.44141 17.7409 7.32422 19.043c2.92969 1.95312 8.30078 4.39453 16.1133 7.32422c9.76562 4.55729 15.7878 9.11458 18.0664 13.6719c3.25521 3.90625 4.88281 9.11458 4.88281 15.625c0 13.0208 -8.30078 22.6237 -24.9023 28.8086
c-10.4167 4.55729 -16.276 7.64974 -17.5781 9.27734c-2.60417 2.27865 -3.90625 7.64974 -3.90625 16.1133v0.976562c0 15.2995 3.09245 26.0417 9.27734 32.2266c2.27865 2.27865 6.1849 3.41797 11.7188 3.41797z" />
  </g>

</svg>
