<?xml version="1.0" standalone="no"?>
<!DOCTYPE svg PUBLIC "-//W3C//DTD SVG 1.1//EN" "http://www.w3.org/Graphics/SVG/1.1/DTD/svg11.dtd" >
<svg xmlns="http://www.w3.org/2000/svg" xmlns:xlink="http://www.w3.org/1999/xlink" version="1.1" viewBox="0 -200 1000 1000">
  <g transform="matrix(1 0 0 -1 0 800)">
   <path fill="currentColor"
d="M976.562 33.8867c0 -93.75 -14.7298 -155.355 -44.1895 -184.814c-29.4596 -29.4596 -91.0645 -44.1895 -184.814 -44.1895h-469.727c-93.75 0 -155.355 14.7298 -184.814 44.1895c-29.4596 29.4596 -44.1895 91.0645 -44.1895 184.814v265.137
c0 87.8906 12.5326 147.135 37.5977 177.734c25.0651 30.599 76.1719 47.3633 153.32 50.293v71.7773l196.289 196.289h349.609v-268.066c77.1484 -2.92969 128.255 -19.694 153.32 -50.293s37.5977 -89.8438 37.5977 -177.734v-265.137zM429.688 605.664v126.465
l-126.465 -126.465h126.465zM745.605 126.172v628.906h-275.879v-189.453h-189.941v-439.453zM936.523 33.8867v265.137c0 77.1484 -8.78906 126.953 -26.3672 149.414c-18.2292 23.763 -59.7331 36.6211 -124.512 38.5742v-400.879h-545.898v400.879
c-64.7786 -1.95312 -106.283 -14.8112 -124.512 -38.5742c-17.5781 -22.4609 -26.3672 -72.2656 -26.3672 -149.414v-265.137c0 -82.6823 10.8236 -134.847 32.4707 -156.494c21.6471 -21.6471 73.8118 -32.4707 156.494 -32.4707h469.727
c82.6823 0 134.847 10.8236 156.494 32.4707c21.6471 21.6471 32.4707 73.8118 32.4707 156.494z" />
  </g>

</svg>
