<?xml version="1.0" standalone="no"?>
<!DOCTYPE svg PUBLIC "-//W3C//DTD SVG 1.1//EN" "http://www.w3.org/Graphics/SVG/1.1/DTD/svg11.dtd" >
<svg xmlns="http://www.w3.org/2000/svg" xmlns:xlink="http://www.w3.org/1999/xlink" version="1.1" viewBox="0 -200 1000 1000">
  <g transform="matrix(1 0 0 -1 0 800)">
   <path fill="currentColor"
d="M395.508 688.672c60.2214 0 118.083 -14.974 173.584 -44.9219s98.2259 -72.6725 128.174 -128.174c29.9479 -55.5013 44.9219 -113.363 44.9219 -173.584c0 -60.5469 -14.974 -118.49 -44.9219 -173.828s-72.6725 -97.9818 -128.174 -127.93
c-55.5013 -29.9479 -113.363 -44.9219 -173.584 -44.9219s-118.083 14.974 -173.584 44.9219c-55.5013 29.9479 -98.2259 72.5911 -128.174 127.93c-29.9481 55.3389 -44.9219 113.281 -44.9219 173.828c0 60.2214 14.974 118.164 44.9219 173.828
c17.2526 31.901 38.8997 59.7331 64.9414 83.4961v-52.2461c-12.6953 -14.974 -23.763 -31.4128 -33.2031 -49.3164c-26.6927 -49.8047 -40.0391 -101.725 -40.0391 -155.762c0 -54.362 13.265 -106.364 39.7949 -156.006
c26.5299 -49.6419 64.7786 -87.7279 114.746 -114.258c49.9674 -26.5299 101.807 -39.7949 155.518 -39.7949c54.0365 0 105.957 13.265 155.762 39.7949s87.972 64.6159 114.502 114.258s39.7949 101.644 39.7949 156.006c0 54.0365 -13.265 105.957 -39.7949 155.762
s-64.6973 87.972 -114.502 114.502s-101.725 39.7949 -155.762 39.7949c-21.1589 0 -41.8294 -1.95312 -62.0117 -5.85938l-45.4102 25.8789c34.8307 11.0677 70.638 16.6016 107.422 16.6019zM231.934 521.68l85.4492 49.3164l-85.4492 49.3164zM309.082 524.121
l219.727 -380.859l-31.7383 -18.0664l-219.727 380.371l-82.0312 -47.3633v225.586l195.312 -112.793z" />
  </g>

</svg>
