<?xml version="1.0" standalone="no"?>
<!DOCTYPE svg PUBLIC "-//W3C//DTD SVG 1.1//EN" "http://www.w3.org/Graphics/SVG/1.1/DTD/svg11.dtd" >
<svg xmlns="http://www.w3.org/2000/svg" xmlns:xlink="http://www.w3.org/1999/xlink" version="1.1" viewBox="0 -200 1026 1000">
  <g transform="matrix(1 0 0 -1 0 800)">
   <path fill="currentColor"
d="M537.109 830.273c84.6354 0 166.097 -21.0775 244.385 -63.2324s138.509 -102.376 180.664 -180.664c42.1549 -78.2878 63.2324 -159.749 63.2324 -244.385c0 -84.9609 -21.0775 -166.504 -63.2324 -244.629s-102.376 -138.265 -180.664 -180.42
c-78.2878 -42.1549 -159.749 -63.2324 -244.385 -63.2324c-84.6354 0 -166.097 21.0775 -244.385 63.2324c-78.2878 42.1549 -138.509 102.295 -180.664 180.42s-63.2324 159.668 -63.2324 244.629c0 84.6354 21.0775 166.097 63.2324 244.385
c42.1549 78.2878 102.376 138.509 180.664 180.664c78.288 42.155 159.749 63.2324 244.385 63.2324zM614.746 256.055l45.8984 -113.281c1.6276 -5.85938 2.44141 -11.7188 2.44141 -17.5781c0 -6.51042 -0.976562 -13.0208 -2.92969 -19.5312
c-4.23177 -14.3229 -15.4622 -21.4844 -33.6914 -21.4844h-19.5312v-15.625h234.375v15.625h-19.5312c-18.2292 0 -34.5052 7.16146 -48.8281 21.4844c-13.3464 13.6719 -22.9492 26.6927 -28.8086 39.0625l-190.43 470.703h-41.9922l-190.43 -471.68
c-5.53385 -12.0443 -14.974 -24.7396 -28.3203 -38.0859c-14.3229 -14.3229 -30.599 -21.4844 -48.8281 -21.4844h-19.5312v-15.625h195.312v15.625h-19.5312c-18.2292 0 -29.9479 7.16146 -35.1562 21.4844c-2.92969 7.8125 -4.39453 15.4622 -4.39453 22.9492
c0 4.88281 0.651042 9.76562 1.95312 14.6484l45.8984 112.793h206.055zM424.316 295.117l87.4023 215.82l86.9141 -215.82h-174.316z" />
  </g>

</svg>
