<?xml version="1.0" standalone="no"?>
<!DOCTYPE svg PUBLIC "-//W3C//DTD SVG 1.1//EN" "http://www.w3.org/Graphics/SVG/1.1/DTD/svg11.dtd" >
<svg xmlns="http://www.w3.org/2000/svg" xmlns:xlink="http://www.w3.org/1999/xlink" version="1.1" viewBox="0 -200 1001 1000">
  <g transform="matrix(1 0 0 -1 0 800)">
   <path fill="currentColor"
d="M87.5586 244.644l0.384766 -30.374l38.9766 -0.40332c-2.39355 -30.418 2.50586 -49.3945 11.6885 -77.876c11.4316 -35.4561 39.2861 -93.5186 60.2422 -124.383c34.459 -50.7529 86.5137 -104.894 146.154 -129.726
c52.8545 -22.0078 90.3418 -31.4883 156.551 -28.8135c46.6748 1.88672 111.883 18.666 147.63 37.7773c5.2959 2.83105 10.4746 5.49219 15.3008 7.88477l14.7021 8.49121c33.3223 19.0088 75.6787 56.3105 98.4854 86.1943
c3.97559 5.20898 6.54492 8.53809 9.54297 13.5762l8.66504 14.5889c27.7061 50.8555 37.3447 90.8633 30.1094 151.141c-3.51562 29.2852 -13.7012 49.3281 -18.6836 70.8506c-15.7959 2.94336 -153.772 1.12305 -182.087 1.08594
c-59.7383 -0.0791016 -119.485 -0.0332031 -179.225 -0.0117188c-36.4834 0.0126953 -330.882 2.59375 -358.438 -0.00292969zM330.372 333.275l2.81055 11.5381c1.12988 3.44043 1.79199 5.87109 2.80176 9.74902c1.88867 7.25195 3.55957 14.2119 4.93164 21.3779
c5.99902 31.3408 3.2207 65.9404 -4.66016 96.0049c-15.8691 60.5381 -66.1162 122.516 -137.558 124.967c-64.7744 2.22266 -99.9619 -28.6592 -125.107 -85.7461c-11.5977 -26.3311 -19.1504 -54.876 -19.4258 -87.5762
c-0.199219 -23.5205 5.73828 -73.0576 17.248 -88.8564c45.8662 -2.42188 237.012 3.65039 258.959 -1.45822zM820.044 334.438c50.9541 124.683 -27.2002 262.024 -148.225 262.635c-120.283 0.607422 -202.506 -138.422 -149.99 -262.525zM474.056 799.396
c40.4053 1.80176 78.6846 -0.360352 115.91 -7.36816c17.6113 -3.31445 34.5332 -7.30078 50.6416 -12.1416l37.9551 -12.8818c0.385742 -0.150391 0.851562 -0.335938 1.23242 -0.479492c45.3701 -17.0566 90.6729 -43.6152 127.098 -71.6123
c50.8955 -39.1201 82.0225 -78.123 117.335 -131.684c9.31152 -14.125 15.1064 -25.8008 22.6084 -40.2715c29.6924 -57.2744 46.2266 -121.901 51.9277 -196.709c8.33691 -109.413 -26.3301 -210.011 -78.9668 -295.816
c-19.9199 -32.4727 -29.9746 -42.2529 -53.9395 -69.7275c-36.0254 -41.3018 -93.4854 -82.835 -143.412 -107.578c-157.855 -78.2295 -345.611 -69.1582 -492.857 26.002c-22.0557 14.2529 -35.4424 26.2539 -53.6299 39.6699l-12.1777 10.8066
c-1.87109 1.5625 -2.25098 1.79102 -4.07324 3.43555c-9.37891 8.46973 -23.6758 21.8242 -31.1992 31.5264l-28.1006 34.5713c-18.3086 25.6719 -32.2656 46.5693 -48.0742 77.502c-28.0303 54.8457 -50.1562 126.503 -52.0537 196.379
c-2.14551 78.9883 7.95117 150.267 35.5127 214.664c12.4668 29.127 26.584 59.498 42.665 82.917c22.2383 32.3848 56.0605 76.4062 85.3672 101.056c5.63477 4.73926 11.6338 10.623 17.5293 14.749c15.5898 10.9102 32.2871 26.4395 54.3428 38.8867
c75.2764 42.4854 140.962 69.7617 238.359 74.1039zM543.354 365.532c-11.5 64.2725 -5.29199 115.634 32.5195 155.781c13.5312 14.3662 33.917 32.3154 60.7119 40.0596c22.9258 6.62695 67.7529 8.95215 83.9463 -6.94824
c-78.2422 -59.0459 16.0508 -149.794 73.1621 -81.4297c17.5176 -20.8721 10.2568 -79.7871 5.36035 -107.456zM383.106 -100.706c-2.9873 14.9365 18.3877 57.2324 28.4941 71.2324c24.0117 33.2617 60.5908 59.4844 101.537 70.2021
c69.6416 18.2305 149.401 -8.43555 189.46 -63.8018c0.222656 -0.306641 1.23145 -1.65332 1.49316 -2.04688c2.32129 -3.49512 1.14355 -1.52148 1.66406 -2.93848c-4.5166 -6.37598 -5.29004 -5.20996 -11.3633 -9.99805
c-27.5498 -21.7246 -48.9795 -34.04 -80.085 -48.8779c-5.32129 -2.53906 -11.5615 -4.62793 -15.2783 -8.26758c-2.82031 -0.210938 -2.30273 0.25293 -4.74219 -0.700195c-4.33887 -1.69629 -2.31055 -0.850586 -4.51855 -3.05664
c-10.4072 -0.765625 -33.8896 -9.49609 -47.9434 -12.3135c-18.1035 -3.62988 -35.6113 -6.03125 -54.5752 -6.34668c-34.4795 -0.576172 -76.5186 4.60547 -104.143 16.9131zM92.9209 366.066c-23.6357 49.5869 1.84961 171.063 65.4766 194.367
c24.9736 9.14746 55.5713 7.37891 76.3076 -3.7793c-12.5361 -12.6807 -23.6953 -12.9834 -30.4238 -36.2979c-10.0547 -34.8418 15.1875 -73.502 57.0576 -71.5176c23.501 1.11426 31.916 12.6504 42.5986 22.6367c11.8613 -32.7988 11.627 -72.3311 3.37207 -105.963z" />
  </g>

</svg>
